<?xml version="1.0" encoding="UTF-8" standalone="no"?>
<!DOCTYPE svg PUBLIC "-//W3C//DTD SVG 1.1//EN"
 "http://www.w3.org/Graphics/SVG/1.1/DTD/svg11.dtd">
<!-- Generated by graphviz version 8.0.5 (20230430.1635)
 -->
<!-- Pages: 1 -->
<svg width="1483pt" height="724pt"
 viewBox="0.00 0.00 1482.52 724.00" xmlns="http://www.w3.org/2000/svg" xmlns:xlink="http://www.w3.org/1999/xlink">
<g id="graph0" class="graph" transform="scale(1 1) rotate(0) translate(4 720)">
<polygon fill="white" stroke="none" points="-4,4 -4,-720 1478.52,-720 1478.52,4 -4,4"/>
<!-- split0 -->
<g id="node1" class="node">
<title>split0</title>
<polygon fill="none" stroke="black" points="190.75,-234 0,-234 0,-198 190.75,-198 190.75,-234"/>
<text text-anchor="start" x="8" y="-211.95" font-family="Times New Roman,serif" font-weight="bold" font-size="14.00">手機驗證日期</text>
<text text-anchor="start" x="102.5" y="-211.95" font-family="Times New Roman,serif" font-size="14.00"> ≤</text>
<text text-anchor="start" x="113.75" y="-211.95" font-family="Times New Roman,serif" font-weight="bold" font-size="14.00">2016&#45;12&#45;31</text>
</g>
<!-- split1 -->
<g id="node2" class="node">
<title>split1</title>
<polygon fill="none" stroke="black" points="397.88,-333 267.88,-333 267.88,-297 397.88,-297 397.88,-333"/>
<text text-anchor="start" x="275.88" y="-310.95" font-family="Times New Roman,serif" font-weight="bold" font-size="14.00">自媒互動程度</text>
<text text-anchor="start" x="370.38" y="-310.95" font-family="Times New Roman,serif" font-size="14.00"> =</text>
<text text-anchor="start" x="382.38" y="-310.95" font-family="Times New Roman,serif" font-weight="bold" font-size="14.00">2</text>
</g>
<!-- split0&#45;&gt;split1 -->
<g id="edge29" class="edge">
<title>split0&#45;&gt;split1</title>
<path fill="none" stroke="black" d="M140.12,-234.39C179.07,-250.76 236.2,-274.78 277.97,-292.34"/>
<polygon fill="black" stroke="black" points="276.39,-295.89 286.97,-296.54 279.1,-289.44 276.39,-295.89"/>
<text text-anchor="middle" x="211.12" y="-267.45" font-family="Times New Roman,serif" font-size="14.00">yes</text>
</g>
<!-- split6 -->
<g id="node31" class="node">
<title>split6</title>
<polygon fill="none" stroke="black" points="434.25,-182 231.5,-182 231.5,-146 434.25,-146 434.25,-182"/>
<text text-anchor="start" x="239.5" y="-159.95" font-family="Times New Roman,serif" font-weight="bold" font-size="14.00">第一次交易日(年)</text>
<text text-anchor="start" x="358.75" y="-159.95" font-family="Times New Roman,serif" font-size="14.00"> ≤</text>
<text text-anchor="start" x="370" y="-159.95" font-family="Times New Roman,serif" font-weight="bold" font-size="14.00">2015.500</text>
</g>
<!-- split0&#45;&gt;split6 -->
<g id="edge42" class="edge">
<title>split0&#45;&gt;split6</title>
<path fill="none" stroke="black" d="M180.07,-197.52C198.81,-193.38 218.81,-188.97 237.93,-184.74"/>
<polygon fill="black" stroke="black" points="238.44,-187.99 247.45,-182.42 236.93,-181.16 238.44,-187.99"/>
<text text-anchor="middle" x="211.12" y="-193.45" font-family="Times New Roman,serif" font-size="14.00">no</text>
</g>
<!-- split2 -->
<g id="node3" class="node">
<title>split2</title>
<polygon fill="none" stroke="black" points="679.63,-573 488.88,-573 488.88,-537 679.63,-537 679.63,-573"/>
<text text-anchor="start" x="496.88" y="-550.95" font-family="Times New Roman,serif" font-weight="bold" font-size="14.00">第一次交易日</text>
<text text-anchor="start" x="591.38" y="-550.95" font-family="Times New Roman,serif" font-size="14.00"> ≤</text>
<text text-anchor="start" x="602.63" y="-550.95" font-family="Times New Roman,serif" font-weight="bold" font-size="14.00">2016&#45;03&#45;21</text>
</g>
<!-- split1&#45;&gt;split2 -->
<g id="edge13" class="edge">
<title>split1&#45;&gt;split2</title>
<path fill="none" stroke="black" d="M353.03,-333.43C397.09,-375.84 505.74,-480.4 556.41,-529.17"/>
<polygon fill="black" stroke="black" points="553.4,-531.09 563.03,-535.5 558.25,-526.05 553.4,-531.09"/>
<text text-anchor="middle" x="454.63" y="-437.45" font-family="Times New Roman,serif" font-size="14.00">yes</text>
</g>
<!-- split4 -->
<g id="node16" class="node">
<title>split4</title>
<polygon fill="none" stroke="black" points="679.63,-333 488.88,-333 488.88,-297 679.63,-297 679.63,-333"/>
<text text-anchor="start" x="496.88" y="-310.95" font-family="Times New Roman,serif" font-weight="bold" font-size="14.00">第一次交易日</text>
<text text-anchor="start" x="591.38" y="-310.95" font-family="Times New Roman,serif" font-size="14.00"> ≤</text>
<text text-anchor="start" x="602.63" y="-310.95" font-family="Times New Roman,serif" font-weight="bold" font-size="14.00">2016&#45;01&#45;29</text>
</g>
<!-- split1&#45;&gt;split4 -->
<g id="edge28" class="edge">
<title>split1&#45;&gt;split4</title>
<path fill="none" stroke="black" d="M398.1,-315C422.43,-315 450.82,-315 477.95,-315"/>
<polygon fill="black" stroke="black" points="477.67,-318.5 487.67,-315 477.67,-311.5 477.67,-318.5"/>
<text text-anchor="middle" x="454.63" y="-317.45" font-family="Times New Roman,serif" font-size="14.00">no</text>
</g>
<!-- split7 -->
<g id="node4" class="node">
<title>split7</title>
<polygon fill="none" stroke="black" points="968.5,-636 765.75,-636 765.75,-600 968.5,-600 968.5,-636"/>
<text text-anchor="start" x="773.75" y="-613.95" font-family="Times New Roman,serif" font-weight="bold" font-size="14.00">本月開信且點擊行為</text>
<text text-anchor="start" x="915.5" y="-613.95" font-family="Times New Roman,serif" font-size="14.00"> ≤</text>
<text text-anchor="start" x="926.75" y="-613.95" font-family="Times New Roman,serif" font-weight="bold" font-size="14.00">0.000</text>
</g>
<!-- split2&#45;&gt;split7 -->
<g id="edge5" class="edge">
<title>split2&#45;&gt;split7</title>
<path fill="none" stroke="black" d="M667.62,-573.48C700.78,-580.91 739.17,-589.52 773.31,-597.18"/>
<polygon fill="black" stroke="black" points="772.23,-600.75 782.75,-599.52 773.76,-593.92 772.23,-600.75"/>
<text text-anchor="middle" x="713.88" y="-586.45" font-family="Times New Roman,serif" font-size="14.00">yes</text>
</g>
<!-- split3 -->
<g id="node9" class="node">
<title>split3</title>
<polygon fill="none" stroke="black" points="962.5,-573 771.75,-573 771.75,-537 962.5,-537 962.5,-573"/>
<text text-anchor="start" x="779.75" y="-550.95" font-family="Times New Roman,serif" font-weight="bold" font-size="14.00">手機驗證日期</text>
<text text-anchor="start" x="874.25" y="-550.95" font-family="Times New Roman,serif" font-size="14.00"> ≤</text>
<text text-anchor="start" x="885.5" y="-550.95" font-family="Times New Roman,serif" font-weight="bold" font-size="14.00">2016&#45;03&#45;18</text>
</g>
<!-- split2&#45;&gt;split3 -->
<g id="edge12" class="edge">
<title>split2&#45;&gt;split3</title>
<path fill="none" stroke="black" d="M679.95,-555C705.85,-555 734.07,-555 760.53,-555"/>
<polygon fill="black" stroke="black" points="760.36,-558.5 770.36,-555 760.36,-551.5 760.36,-558.5"/>
<text text-anchor="middle" x="713.88" y="-557.45" font-family="Times New Roman,serif" font-size="14.00">no</text>
</g>
<!-- split9 -->
<g id="node5" class="node">
<title>split9</title>
<polygon fill="none" stroke="black" points="1269,-676 1078.25,-676 1078.25,-640 1269,-640 1269,-676"/>
<text text-anchor="start" x="1086.25" y="-653.95" font-family="Times New Roman,serif" font-weight="bold" font-size="14.00">第一次交易日</text>
<text text-anchor="start" x="1180.75" y="-653.95" font-family="Times New Roman,serif" font-size="14.00"> ≤</text>
<text text-anchor="start" x="1192" y="-653.95" font-family="Times New Roman,serif" font-weight="bold" font-size="14.00">2011&#45;01&#45;24</text>
</g>
<!-- split7&#45;&gt;split9 -->
<g id="edge3" class="edge">
<title>split7&#45;&gt;split9</title>
<path fill="none" stroke="black" d="M968.67,-631.21C1000.27,-635.36 1035.23,-639.95 1067.16,-644.15"/>
<polygon fill="black" stroke="black" points="1066.49,-647.72 1076.86,-645.55 1067.4,-640.78 1066.49,-647.72"/>
<text text-anchor="middle" x="1020.38" y="-641.45" font-family="Times New Roman,serif" font-size="14.00">yes</text>
</g>
<!-- leaf8 -->
<g id="node8" class="node">
<title>leaf8</title>
<ellipse fill="none" stroke="black" cx="1173.62" cy="-618" rx="59.03" ry="18"/>
<text text-anchor="start" x="1138.38" y="-613.95" font-family="Times New Roman,serif" font-size="14.00">leaf 8: </text>
<text text-anchor="start" x="1175.12" y="-613.95" font-family="Times New Roman,serif" font-weight="bold" font-size="14.00">1.175</text>
</g>
<!-- split7&#45;&gt;leaf8 -->
<g id="edge4" class="edge">
<title>split7&#45;&gt;leaf8</title>
<path fill="none" stroke="black" d="M968.67,-618C1012.85,-618 1063.62,-618 1103.45,-618"/>
<polygon fill="black" stroke="black" points="1103.38,-621.5 1113.38,-618 1103.38,-614.5 1103.38,-621.5"/>
<text text-anchor="middle" x="1020.38" y="-620.45" font-family="Times New Roman,serif" font-size="14.00">no</text>
</g>
<!-- leaf0 -->
<g id="node6" class="node">
<title>leaf0</title>
<ellipse fill="none" stroke="black" cx="1410.88" cy="-698" rx="59.03" ry="18"/>
<text text-anchor="start" x="1375.63" y="-693.95" font-family="Times New Roman,serif" font-size="14.00">leaf 0: </text>
<text text-anchor="start" x="1412.38" y="-693.95" font-family="Times New Roman,serif" font-weight="bold" font-size="14.00">0.869</text>
</g>
<!-- split9&#45;&gt;leaf0 -->
<g id="edge1" class="edge">
<title>split9&#45;&gt;leaf0</title>
<path fill="none" stroke="black" d="M1269.3,-674.1C1295.76,-678.6 1323.84,-683.37 1347.88,-687.46"/>
<polygon fill="black" stroke="black" points="1347.18,-691.06 1357.63,-689.28 1348.35,-684.16 1347.18,-691.06"/>
<text text-anchor="middle" x="1326.88" y="-687.45" font-family="Times New Roman,serif" font-size="14.00">yes</text>
</g>
<!-- leaf10 -->
<g id="node7" class="node">
<title>leaf10</title>
<ellipse fill="none" stroke="black" cx="1410.88" cy="-658" rx="63.63" ry="18"/>
<text text-anchor="start" x="1372.26" y="-653.95" font-family="Times New Roman,serif" font-size="14.00">leaf 10: </text>
<text text-anchor="start" x="1415.76" y="-653.95" font-family="Times New Roman,serif" font-weight="bold" font-size="14.00">0.799</text>
</g>
<!-- split9&#45;&gt;leaf10 -->
<g id="edge2" class="edge">
<title>split9&#45;&gt;leaf10</title>
<path fill="none" stroke="black" d="M1269.3,-658C1291.59,-658 1315.02,-658 1336.23,-658"/>
<polygon fill="black" stroke="black" points="1336.09,-661.5 1346.09,-658 1336.09,-654.5 1336.09,-661.5"/>
<text text-anchor="middle" x="1326.88" y="-660.45" font-family="Times New Roman,serif" font-size="14.00">no</text>
</g>
<!-- split15 -->
<g id="node10" class="node">
<title>split15</title>
<polygon fill="none" stroke="black" points="1223.62,-596 1123.62,-596 1123.62,-560 1223.62,-560 1223.62,-596"/>
<text text-anchor="start" x="1131.62" y="-573.95" font-family="Times New Roman,serif" font-weight="bold" font-size="14.00">年齡</text>
<text text-anchor="start" x="1163.12" y="-573.95" font-family="Times New Roman,serif" font-size="14.00"> ≤</text>
<text text-anchor="start" x="1174.38" y="-573.95" font-family="Times New Roman,serif" font-weight="bold" font-size="14.00">45.500</text>
</g>
<!-- split3&#45;&gt;split15 -->
<g id="edge8" class="edge">
<title>split3&#45;&gt;split15</title>
<path fill="none" stroke="black" d="M962.8,-562.15C1011.62,-565.84 1069.71,-570.23 1112.38,-573.45"/>
<polygon fill="black" stroke="black" points="1111.92,-577 1122.15,-574.26 1112.44,-570.02 1111.92,-577"/>
<text text-anchor="middle" x="1020.38" y="-569.45" font-family="Times New Roman,serif" font-size="14.00">yes</text>
</g>
<!-- split12 -->
<g id="node13" class="node">
<title>split12</title>
<polygon fill="none" stroke="black" points="1269,-556 1078.25,-556 1078.25,-520 1269,-520 1269,-556"/>
<text text-anchor="start" x="1086.25" y="-533.95" font-family="Times New Roman,serif" font-weight="bold" font-size="14.00">手機驗證日期</text>
<text text-anchor="start" x="1180.75" y="-533.95" font-family="Times New Roman,serif" font-size="14.00"> ≤</text>
<text text-anchor="start" x="1192" y="-533.95" font-family="Times New Roman,serif" font-weight="bold" font-size="14.00">2016&#45;05&#45;26</text>
</g>
<!-- split3&#45;&gt;split12 -->
<g id="edge11" class="edge">
<title>split3&#45;&gt;split12</title>
<path fill="none" stroke="black" d="M962.8,-549.71C995.88,-547.87 1033.22,-545.78 1067.13,-543.89"/>
<polygon fill="black" stroke="black" points="1067.22,-547.33 1077.01,-543.28 1066.83,-540.35 1067.22,-547.33"/>
<text text-anchor="middle" x="1020.38" y="-549.45" font-family="Times New Roman,serif" font-size="14.00">no</text>
</g>
<!-- leaf3 -->
<g id="node11" class="node">
<title>leaf3</title>
<ellipse fill="none" stroke="black" cx="1410.88" cy="-618" rx="59.03" ry="18"/>
<text text-anchor="start" x="1375.63" y="-613.95" font-family="Times New Roman,serif" font-size="14.00">leaf 3: </text>
<text text-anchor="start" x="1412.38" y="-613.95" font-family="Times New Roman,serif" font-weight="bold" font-size="14.00">0.820</text>
</g>
<!-- split15&#45;&gt;leaf3 -->
<g id="edge6" class="edge">
<title>split15&#45;&gt;leaf3</title>
<path fill="none" stroke="black" d="M1224.11,-586.17C1248.86,-590.28 1279.27,-595.36 1306.5,-600 1319.96,-602.29 1334.41,-604.79 1348.1,-607.17"/>
<polygon fill="black" stroke="black" points="1347.44,-610.78 1357.89,-609.05 1348.64,-603.88 1347.44,-610.78"/>
<text text-anchor="middle" x="1326.88" y="-606.45" font-family="Times New Roman,serif" font-size="14.00">yes</text>
</g>
<!-- leaf16 -->
<g id="node12" class="node">
<title>leaf16</title>
<ellipse fill="none" stroke="black" cx="1410.88" cy="-578" rx="63.63" ry="18"/>
<text text-anchor="start" x="1372.26" y="-573.95" font-family="Times New Roman,serif" font-size="14.00">leaf 16: </text>
<text text-anchor="start" x="1415.76" y="-573.95" font-family="Times New Roman,serif" font-weight="bold" font-size="14.00">0.902</text>
</g>
<!-- split15&#45;&gt;leaf16 -->
<g id="edge7" class="edge">
<title>split15&#45;&gt;leaf16</title>
<path fill="none" stroke="black" d="M1223.94,-578C1256.56,-578 1299.91,-578 1336.54,-578"/>
<polygon fill="black" stroke="black" points="1336.18,-581.5 1346.18,-578 1336.18,-574.5 1336.18,-581.5"/>
<text text-anchor="middle" x="1326.88" y="-580.45" font-family="Times New Roman,serif" font-size="14.00">no</text>
</g>
<!-- leaf4 -->
<g id="node14" class="node">
<title>leaf4</title>
<ellipse fill="none" stroke="black" cx="1410.88" cy="-538" rx="59.03" ry="18"/>
<text text-anchor="start" x="1375.63" y="-533.95" font-family="Times New Roman,serif" font-size="14.00">leaf 4: </text>
<text text-anchor="start" x="1412.38" y="-533.95" font-family="Times New Roman,serif" font-weight="bold" font-size="14.00">1.063</text>
</g>
<!-- split12&#45;&gt;leaf4 -->
<g id="edge9" class="edge">
<title>split12&#45;&gt;leaf4</title>
<path fill="none" stroke="black" d="M1269.3,-538C1293.22,-538 1318.46,-538 1340.84,-538"/>
<polygon fill="black" stroke="black" points="1340.59,-541.5 1350.59,-538 1340.59,-534.5 1340.59,-541.5"/>
<text text-anchor="middle" x="1326.88" y="-540.45" font-family="Times New Roman,serif" font-size="14.00">yes</text>
</g>
<!-- leaf13 -->
<g id="node15" class="node">
<title>leaf13</title>
<ellipse fill="none" stroke="black" cx="1410.88" cy="-498" rx="63.63" ry="18"/>
<text text-anchor="start" x="1372.26" y="-493.95" font-family="Times New Roman,serif" font-size="14.00">leaf 13: </text>
<text text-anchor="start" x="1415.76" y="-493.95" font-family="Times New Roman,serif" font-weight="bold" font-size="14.00">1.161</text>
</g>
<!-- split12&#45;&gt;leaf13 -->
<g id="edge10" class="edge">
<title>split12&#45;&gt;leaf13</title>
<path fill="none" stroke="black" d="M1269.3,-521.9C1294.65,-517.59 1321.48,-513.03 1344.83,-509.06"/>
<polygon fill="black" stroke="black" points="1345.37,-512.35 1354.64,-507.22 1344.2,-505.45 1345.37,-512.35"/>
<text text-anchor="middle" x="1326.88" y="-515.45" font-family="Times New Roman,serif" font-size="14.00">no</text>
</g>
<!-- split5 -->
<g id="node17" class="node">
<title>split5</title>
<polygon fill="none" stroke="black" points="1000,-376 734.25,-376 734.25,-340 1000,-340 1000,-376"/>
<text text-anchor="start" x="742.25" y="-353.95" font-family="Times New Roman,serif" font-weight="bold" font-size="14.00">倒數第一個月開信且點擊行為</text>
<text text-anchor="start" x="947" y="-353.95" font-family="Times New Roman,serif" font-size="14.00"> ≤</text>
<text text-anchor="start" x="958.25" y="-353.95" font-family="Times New Roman,serif" font-weight="bold" font-size="14.00">0.000</text>
</g>
<!-- split4&#45;&gt;split5 -->
<g id="edge20" class="edge">
<title>split4&#45;&gt;split5</title>
<path fill="none" stroke="black" d="M679.95,-329.5C697.52,-332.19 716.17,-335.04 734.61,-337.87"/>
<polygon fill="black" stroke="black" points="734.02,-341.47 744.43,-339.52 735.08,-334.55 734.02,-341.47"/>
<text text-anchor="middle" x="713.88" y="-337.45" font-family="Times New Roman,serif" font-size="14.00">yes</text>
</g>
<!-- split10 -->
<g id="node24" class="node">
<title>split10</title>
<polygon fill="none" stroke="black" points="962.5,-290 771.75,-290 771.75,-254 962.5,-254 962.5,-290"/>
<text text-anchor="start" x="779.75" y="-267.95" font-family="Times New Roman,serif" font-weight="bold" font-size="14.00">手機驗證日期</text>
<text text-anchor="start" x="874.25" y="-267.95" font-family="Times New Roman,serif" font-size="14.00"> ≤</text>
<text text-anchor="start" x="885.5" y="-267.95" font-family="Times New Roman,serif" font-weight="bold" font-size="14.00">2016&#45;02&#45;11</text>
</g>
<!-- split4&#45;&gt;split10 -->
<g id="edge27" class="edge">
<title>split4&#45;&gt;split10</title>
<path fill="none" stroke="black" d="M679.95,-300.5C705.85,-296.54 734.07,-292.22 760.53,-288.17"/>
<polygon fill="black" stroke="black" points="761,-291.48 770.36,-286.51 759.94,-284.56 761,-291.48"/>
<text text-anchor="middle" x="713.88" y="-298.45" font-family="Times New Roman,serif" font-size="14.00">no</text>
</g>
<!-- split8 -->
<g id="node18" class="node">
<title>split8</title>
<polygon fill="none" stroke="black" points="1275,-436 1072.25,-436 1072.25,-400 1275,-400 1275,-436"/>
<text text-anchor="start" x="1080.25" y="-413.95" font-family="Times New Roman,serif" font-weight="bold" font-size="14.00">本月開信且點擊行為</text>
<text text-anchor="start" x="1222" y="-413.95" font-family="Times New Roman,serif" font-size="14.00"> ≤</text>
<text text-anchor="start" x="1233.25" y="-413.95" font-family="Times New Roman,serif" font-weight="bold" font-size="14.00">0.000</text>
</g>
<!-- split5&#45;&gt;split8 -->
<g id="edge16" class="edge">
<title>split5&#45;&gt;split8</title>
<path fill="none" stroke="black" d="M961.97,-376.49C995.62,-383.12 1033.76,-390.64 1068.25,-397.43"/>
<polygon fill="black" stroke="black" points="1067.34,-401.02 1077.83,-399.52 1068.69,-394.15 1067.34,-401.02"/>
<text text-anchor="middle" x="1020.38" y="-391.45" font-family="Times New Roman,serif" font-size="14.00">yes</text>
</g>
<!-- split19 -->
<g id="node21" class="node">
<title>split19</title>
<polygon fill="none" stroke="black" points="1303.12,-376 1044.12,-376 1044.12,-340 1303.12,-340 1303.12,-376"/>
<text text-anchor="start" x="1052.12" y="-353.95" font-family="Times New Roman,serif" font-weight="bold" font-size="14.00">最近一次使用App時間(年)</text>
<text text-anchor="start" x="1227.62" y="-353.95" font-family="Times New Roman,serif" font-size="14.00"> ≤</text>
<text text-anchor="start" x="1238.88" y="-353.95" font-family="Times New Roman,serif" font-weight="bold" font-size="14.00">2023.500</text>
</g>
<!-- split5&#45;&gt;split19 -->
<g id="edge19" class="edge">
<title>split5&#45;&gt;split19</title>
<path fill="none" stroke="black" d="M1000.35,-358C1011.19,-358 1022.16,-358 1033.04,-358"/>
<polygon fill="black" stroke="black" points="1032.89,-361.5 1042.89,-358 1032.89,-354.5 1032.89,-361.5"/>
<text text-anchor="middle" x="1020.38" y="-360.45" font-family="Times New Roman,serif" font-size="14.00">no</text>
</g>
<!-- leaf2 -->
<g id="node19" class="node">
<title>leaf2</title>
<ellipse fill="none" stroke="black" cx="1410.88" cy="-458" rx="59.03" ry="18"/>
<text text-anchor="start" x="1375.63" y="-453.95" font-family="Times New Roman,serif" font-size="14.00">leaf 2: </text>
<text text-anchor="start" x="1412.38" y="-453.95" font-family="Times New Roman,serif" font-weight="bold" font-size="14.00">0.977</text>
</g>
<!-- split8&#45;&gt;leaf2 -->
<g id="edge14" class="edge">
<title>split8&#45;&gt;leaf2</title>
<path fill="none" stroke="black" d="M1275.42,-435.14C1300.07,-439.33 1325.73,-443.69 1347.94,-447.47"/>
<polygon fill="black" stroke="black" points="1347.1,-451.05 1357.55,-449.27 1348.28,-444.15 1347.1,-451.05"/>
<text text-anchor="middle" x="1326.88" y="-447.45" font-family="Times New Roman,serif" font-size="14.00">yes</text>
</g>
<!-- leaf9 -->
<g id="node20" class="node">
<title>leaf9</title>
<ellipse fill="none" stroke="black" cx="1410.88" cy="-418" rx="59.03" ry="18"/>
<text text-anchor="start" x="1375.63" y="-413.95" font-family="Times New Roman,serif" font-size="14.00">leaf 9: </text>
<text text-anchor="start" x="1412.38" y="-413.95" font-family="Times New Roman,serif" font-weight="bold" font-size="14.00">1.174</text>
</g>
<!-- split8&#45;&gt;leaf9 -->
<g id="edge15" class="edge">
<title>split8&#45;&gt;leaf9</title>
<path fill="none" stroke="black" d="M1275.42,-418C1297.41,-418 1320.2,-418 1340.63,-418"/>
<polygon fill="black" stroke="black" points="1340.4,-421.5 1350.4,-418 1340.4,-414.5 1340.4,-421.5"/>
<text text-anchor="middle" x="1326.88" y="-420.45" font-family="Times New Roman,serif" font-size="14.00">no</text>
</g>
<!-- leaf6 -->
<g id="node22" class="node">
<title>leaf6</title>
<ellipse fill="none" stroke="black" cx="1410.88" cy="-378" rx="59.03" ry="18"/>
<text text-anchor="start" x="1375.63" y="-373.95" font-family="Times New Roman,serif" font-size="14.00">leaf 6: </text>
<text text-anchor="start" x="1412.38" y="-373.95" font-family="Times New Roman,serif" font-weight="bold" font-size="14.00">1.167</text>
</g>
<!-- split19&#45;&gt;leaf6 -->
<g id="edge17" class="edge">
<title>split19&#45;&gt;leaf6</title>
<path fill="none" stroke="black" d="M1303.61,-368.97C1317.19,-370.12 1330.56,-371.26 1342.99,-372.31"/>
<polygon fill="black" stroke="black" points="1342.4,-375.86 1352.66,-373.22 1343,-368.89 1342.4,-375.86"/>
<text text-anchor="middle" x="1326.88" y="-373.45" font-family="Times New Roman,serif" font-size="14.00">yes</text>
</g>
<!-- leaf20 -->
<g id="node23" class="node">
<title>leaf20</title>
<ellipse fill="none" stroke="black" cx="1410.88" cy="-338" rx="63.63" ry="18"/>
<text text-anchor="start" x="1372.26" y="-333.95" font-family="Times New Roman,serif" font-size="14.00">leaf 20: </text>
<text text-anchor="start" x="1415.76" y="-333.95" font-family="Times New Roman,serif" font-weight="bold" font-size="14.00">1.112</text>
</g>
<!-- split19&#45;&gt;leaf20 -->
<g id="edge18" class="edge">
<title>split19&#45;&gt;leaf20</title>
<path fill="none" stroke="black" d="M1303.61,-347.03C1315.57,-346.02 1327.37,-345.01 1338.52,-344.07"/>
<polygon fill="black" stroke="black" points="1338.75,-347.47 1348.42,-343.14 1338.16,-340.5 1338.75,-347.47"/>
<text text-anchor="middle" x="1326.88" y="-347.45" font-family="Times New Roman,serif" font-size="14.00">no</text>
</g>
<!-- split13 -->
<g id="node25" class="node">
<title>split13</title>
<polygon fill="none" stroke="black" points="1306.5,-290 1040.75,-290 1040.75,-254 1306.5,-254 1306.5,-290"/>
<text text-anchor="start" x="1048.75" y="-267.95" font-family="Times New Roman,serif" font-weight="bold" font-size="14.00">倒數第一個月開信且點擊行為</text>
<text text-anchor="start" x="1253.5" y="-267.95" font-family="Times New Roman,serif" font-size="14.00"> ≤</text>
<text text-anchor="start" x="1264.75" y="-267.95" font-family="Times New Roman,serif" font-weight="bold" font-size="14.00">0.000</text>
</g>
<!-- split10&#45;&gt;split13 -->
<g id="edge23" class="edge">
<title>split10&#45;&gt;split13</title>
<path fill="none" stroke="black" d="M962.8,-272C983.98,-272 1006.89,-272 1029.54,-272"/>
<polygon fill="black" stroke="black" points="1029.27,-275.5 1039.27,-272 1029.27,-268.5 1029.27,-275.5"/>
<text text-anchor="middle" x="1020.38" y="-274.45" font-family="Times New Roman,serif" font-size="14.00">yes</text>
</g>
<!-- split18 -->
<g id="node28" class="node">
<title>split18</title>
<polygon fill="none" stroke="black" points="1269,-236 1078.25,-236 1078.25,-200 1269,-200 1269,-236"/>
<text text-anchor="start" x="1086.25" y="-213.95" font-family="Times New Roman,serif" font-weight="bold" font-size="14.00">第一次交易日</text>
<text text-anchor="start" x="1180.75" y="-213.95" font-family="Times New Roman,serif" font-size="14.00"> ≤</text>
<text text-anchor="start" x="1192" y="-213.95" font-family="Times New Roman,serif" font-weight="bold" font-size="14.00">2016&#45;06&#45;16</text>
</g>
<!-- split10&#45;&gt;split18 -->
<g id="edge26" class="edge">
<title>split10&#45;&gt;split18</title>
<path fill="none" stroke="black" d="M962.8,-255.21C996.03,-249.32 1033.54,-242.66 1067.57,-236.63"/>
<polygon fill="black" stroke="black" points="1067.77,-239.97 1077.01,-234.78 1066.55,-233.08 1067.77,-239.97"/>
<text text-anchor="middle" x="1020.38" y="-248.45" font-family="Times New Roman,serif" font-size="14.00">no</text>
</g>
<!-- leaf5 -->
<g id="node26" class="node">
<title>leaf5</title>
<ellipse fill="none" stroke="black" cx="1410.88" cy="-298" rx="59.03" ry="18"/>
<text text-anchor="start" x="1375.63" y="-293.95" font-family="Times New Roman,serif" font-size="14.00">leaf 5: </text>
<text text-anchor="start" x="1412.38" y="-293.95" font-family="Times New Roman,serif" font-weight="bold" font-size="14.00">1.044</text>
</g>
<!-- split13&#45;&gt;leaf5 -->
<g id="edge21" class="edge">
<title>split13&#45;&gt;leaf5</title>
<path fill="none" stroke="black" d="M1306.7,-286.6C1319.69,-288.03 1332.44,-289.44 1344.31,-290.75"/>
<polygon fill="black" stroke="black" points="1343.61,-294.31 1353.94,-291.93 1344.38,-287.35 1343.61,-294.31"/>
<text text-anchor="middle" x="1326.88" y="-291.45" font-family="Times New Roman,serif" font-size="14.00">yes</text>
</g>
<!-- leaf14 -->
<g id="node27" class="node">
<title>leaf14</title>
<ellipse fill="none" stroke="black" cx="1410.88" cy="-258" rx="63.63" ry="18"/>
<text text-anchor="start" x="1372.26" y="-253.95" font-family="Times New Roman,serif" font-size="14.00">leaf 14: </text>
<text text-anchor="start" x="1415.76" y="-253.95" font-family="Times New Roman,serif" font-weight="bold" font-size="14.00">1.171</text>
</g>
<!-- split13&#45;&gt;leaf14 -->
<g id="edge22" class="edge">
<title>split13&#45;&gt;leaf14</title>
<path fill="none" stroke="black" d="M1306.7,-264.14C1317.2,-263.52 1327.54,-262.9 1337.39,-262.31"/>
<polygon fill="black" stroke="black" points="1337.51,-265.75 1347.28,-261.67 1337.09,-258.77 1337.51,-265.75"/>
<text text-anchor="middle" x="1326.88" y="-265.45" font-family="Times New Roman,serif" font-size="14.00">no</text>
</g>
<!-- leaf11 -->
<g id="node29" class="node">
<title>leaf11</title>
<ellipse fill="none" stroke="black" cx="1410.88" cy="-218" rx="63.63" ry="18"/>
<text text-anchor="start" x="1372.26" y="-213.95" font-family="Times New Roman,serif" font-size="14.00">leaf 11: </text>
<text text-anchor="start" x="1415.76" y="-213.95" font-family="Times New Roman,serif" font-weight="bold" font-size="14.00">1.141</text>
</g>
<!-- split18&#45;&gt;leaf11 -->
<g id="edge24" class="edge">
<title>split18&#45;&gt;leaf11</title>
<path fill="none" stroke="black" d="M1269.3,-218C1291.59,-218 1315.02,-218 1336.23,-218"/>
<polygon fill="black" stroke="black" points="1336.09,-221.5 1346.09,-218 1336.09,-214.5 1336.09,-221.5"/>
<text text-anchor="middle" x="1326.88" y="-220.45" font-family="Times New Roman,serif" font-size="14.00">yes</text>
</g>
<!-- leaf19 -->
<g id="node30" class="node">
<title>leaf19</title>
<ellipse fill="none" stroke="black" cx="1410.88" cy="-178" rx="63.63" ry="18"/>
<text text-anchor="start" x="1372.26" y="-173.95" font-family="Times New Roman,serif" font-size="14.00">leaf 19: </text>
<text text-anchor="start" x="1415.76" y="-173.95" font-family="Times New Roman,serif" font-weight="bold" font-size="14.00">1.174</text>
</g>
<!-- split18&#45;&gt;leaf19 -->
<g id="edge25" class="edge">
<title>split18&#45;&gt;leaf19</title>
<path fill="none" stroke="black" d="M1269.36,-202.28C1281.86,-200.18 1294.49,-198.05 1306.5,-196 1319.06,-193.86 1332.47,-191.55 1345.33,-189.31"/>
<polygon fill="black" stroke="black" points="1345.72,-192.62 1354.97,-187.46 1344.52,-185.73 1345.72,-192.62"/>
<text text-anchor="middle" x="1326.88" y="-196.45" font-family="Times New Roman,serif" font-size="14.00">no</text>
</g>
<!-- split11 -->
<g id="node32" class="node">
<title>split11</title>
<polygon fill="none" stroke="black" points="693.5,-182 475,-182 475,-146 693.5,-146 693.5,-182"/>
<text text-anchor="start" x="483" y="-159.95" font-family="Times New Roman,serif" font-weight="bold" font-size="14.00">倒數第一個月開信行為</text>
<text text-anchor="start" x="640.5" y="-159.95" font-family="Times New Roman,serif" font-size="14.00"> ≤</text>
<text text-anchor="start" x="651.75" y="-159.95" font-family="Times New Roman,serif" font-weight="bold" font-size="14.00">0.000</text>
</g>
<!-- split6&#45;&gt;split11 -->
<g id="edge40" class="edge">
<title>split6&#45;&gt;split11</title>
<path fill="none" stroke="black" d="M434.59,-164C444.32,-164 454.25,-164 464.13,-164"/>
<polygon fill="black" stroke="black" points="463.83,-167.5 473.83,-164 463.83,-160.5 463.83,-167.5"/>
<text text-anchor="middle" x="454.63" y="-166.45" font-family="Times New Roman,serif" font-size="14.00">yes</text>
</g>
<!-- leaf7 -->
<g id="node43" class="node">
<title>leaf7</title>
<ellipse fill="none" stroke="black" cx="584.25" cy="-124" rx="59.03" ry="18"/>
<text text-anchor="start" x="549" y="-119.95" font-family="Times New Roman,serif" font-size="14.00">leaf 7: </text>
<text text-anchor="start" x="585.75" y="-119.95" font-family="Times New Roman,serif" font-weight="bold" font-size="14.00">1.178</text>
</g>
<!-- split6&#45;&gt;leaf7 -->
<g id="edge41" class="edge">
<title>split6&#45;&gt;leaf7</title>
<path fill="none" stroke="black" d="M434.59,-147.85C463.57,-143.2 494.34,-138.26 520.33,-134.09"/>
<polygon fill="black" stroke="black" points="520.83,-137.4 530.15,-132.36 519.72,-130.48 520.83,-137.4"/>
<text text-anchor="middle" x="454.63" y="-147.45" font-family="Times New Roman,serif" font-size="14.00">no</text>
</g>
<!-- split14 -->
<g id="node33" class="node">
<title>split14</title>
<polygon fill="none" stroke="black" points="962.5,-182 771.75,-182 771.75,-146 962.5,-146 962.5,-182"/>
<text text-anchor="start" x="779.75" y="-159.95" font-family="Times New Roman,serif" font-weight="bold" font-size="14.00">第一次交易日</text>
<text text-anchor="start" x="874.25" y="-159.95" font-family="Times New Roman,serif" font-size="14.00"> ≤</text>
<text text-anchor="start" x="885.5" y="-159.95" font-family="Times New Roman,serif" font-weight="bold" font-size="14.00">2012&#45;12&#45;17</text>
</g>
<!-- split11&#45;&gt;split14 -->
<g id="edge34" class="edge">
<title>split11&#45;&gt;split14</title>
<path fill="none" stroke="black" d="M693.84,-164C715.77,-164 738.78,-164 760.6,-164"/>
<polygon fill="black" stroke="black" points="760.54,-167.5 770.54,-164 760.54,-160.5 760.54,-167.5"/>
<text text-anchor="middle" x="713.88" y="-166.45" font-family="Times New Roman,serif" font-size="14.00">yes</text>
</g>
<!-- split16 -->
<g id="node38" class="node">
<title>split16</title>
<polygon fill="none" stroke="black" points="917.13,-116 817.13,-116 817.13,-80 917.13,-80 917.13,-116"/>
<text text-anchor="start" x="825.13" y="-93.95" font-family="Times New Roman,serif" font-weight="bold" font-size="14.00">年齡</text>
<text text-anchor="start" x="856.63" y="-93.95" font-family="Times New Roman,serif" font-size="14.00"> ≤</text>
<text text-anchor="start" x="867.88" y="-93.95" font-family="Times New Roman,serif" font-weight="bold" font-size="14.00">36.500</text>
</g>
<!-- split11&#45;&gt;split16 -->
<g id="edge39" class="edge">
<title>split11&#45;&gt;split16</title>
<path fill="none" stroke="black" d="M677.73,-145.52C683.07,-144.35 688.36,-143.18 693.5,-142 731.18,-133.38 773.21,-122.69 806.36,-114"/>
<polygon fill="black" stroke="black" points="807.02,-117.19 815.8,-111.26 805.24,-110.42 807.02,-117.19"/>
<text text-anchor="middle" x="713.88" y="-140.45" font-family="Times New Roman,serif" font-size="14.00">no</text>
</g>
<!-- leaf1 -->
<g id="node34" class="node">
<title>leaf1</title>
<ellipse fill="none" stroke="black" cx="1173.62" cy="-178" rx="59.03" ry="18"/>
<text text-anchor="start" x="1138.38" y="-173.95" font-family="Times New Roman,serif" font-size="14.00">leaf 1: </text>
<text text-anchor="start" x="1175.12" y="-173.95" font-family="Times New Roman,serif" font-weight="bold" font-size="14.00">0.950</text>
</g>
<!-- split14&#45;&gt;leaf1 -->
<g id="edge30" class="edge">
<title>split14&#45;&gt;leaf1</title>
<path fill="none" stroke="black" d="M962.8,-168.35C1008.48,-170.45 1062.26,-172.93 1103.94,-174.84"/>
<polygon fill="black" stroke="black" points="1103.65,-178.38 1113.81,-175.34 1103.98,-171.39 1103.65,-178.38"/>
<text text-anchor="middle" x="1020.38" y="-173.45" font-family="Times New Roman,serif" font-size="14.00">yes</text>
</g>
<!-- split20 -->
<g id="node35" class="node">
<title>split20</title>
<polygon fill="none" stroke="black" points="1223.62,-156 1123.62,-156 1123.62,-120 1223.62,-120 1223.62,-156"/>
<text text-anchor="start" x="1131.62" y="-133.95" font-family="Times New Roman,serif" font-weight="bold" font-size="14.00">年齡</text>
<text text-anchor="start" x="1163.12" y="-133.95" font-family="Times New Roman,serif" font-size="14.00"> ≤</text>
<text text-anchor="start" x="1174.38" y="-133.95" font-family="Times New Roman,serif" font-weight="bold" font-size="14.00">41.500</text>
</g>
<!-- split14&#45;&gt;split20 -->
<g id="edge33" class="edge">
<title>split14&#45;&gt;split20</title>
<path fill="none" stroke="black" d="M962.8,-155.92C1011.62,-151.75 1069.71,-146.79 1112.38,-143.14"/>
<polygon fill="black" stroke="black" points="1112.49,-146.56 1122.15,-142.22 1111.89,-139.59 1112.49,-146.56"/>
<text text-anchor="middle" x="1020.38" y="-153.45" font-family="Times New Roman,serif" font-size="14.00">no</text>
</g>
<!-- leaf15 -->
<g id="node36" class="node">
<title>leaf15</title>
<ellipse fill="none" stroke="black" cx="1410.88" cy="-138" rx="63.63" ry="18"/>
<text text-anchor="start" x="1372.26" y="-133.95" font-family="Times New Roman,serif" font-size="14.00">leaf 15: </text>
<text text-anchor="start" x="1415.76" y="-133.95" font-family="Times New Roman,serif" font-weight="bold" font-size="14.00">0.740</text>
</g>
<!-- split20&#45;&gt;leaf15 -->
<g id="edge31" class="edge">
<title>split20&#45;&gt;leaf15</title>
<path fill="none" stroke="black" d="M1223.94,-138C1256.56,-138 1299.91,-138 1336.54,-138"/>
<polygon fill="black" stroke="black" points="1336.18,-141.5 1346.18,-138 1336.18,-134.5 1336.18,-141.5"/>
<text text-anchor="middle" x="1326.88" y="-140.45" font-family="Times New Roman,serif" font-size="14.00">yes</text>
</g>
<!-- leaf21 -->
<g id="node37" class="node">
<title>leaf21</title>
<ellipse fill="none" stroke="black" cx="1410.88" cy="-98" rx="63.63" ry="18"/>
<text text-anchor="start" x="1372.26" y="-93.95" font-family="Times New Roman,serif" font-size="14.00">leaf 21: </text>
<text text-anchor="start" x="1415.76" y="-93.95" font-family="Times New Roman,serif" font-weight="bold" font-size="14.00">0.846</text>
</g>
<!-- split20&#45;&gt;leaf21 -->
<g id="edge32" class="edge">
<title>split20&#45;&gt;leaf21</title>
<path fill="none" stroke="black" d="M1224.11,-129.83C1248.86,-125.72 1279.27,-120.64 1306.5,-116 1319.06,-113.86 1332.47,-111.55 1345.33,-109.31"/>
<polygon fill="black" stroke="black" points="1345.72,-112.62 1354.97,-107.46 1344.52,-105.73 1345.72,-112.62"/>
<text text-anchor="middle" x="1326.88" y="-117.45" font-family="Times New Roman,serif" font-size="14.00">no</text>
</g>
<!-- leaf12 -->
<g id="node39" class="node">
<title>leaf12</title>
<ellipse fill="none" stroke="black" cx="1173.62" cy="-98" rx="63.63" ry="18"/>
<text text-anchor="start" x="1135" y="-93.95" font-family="Times New Roman,serif" font-size="14.00">leaf 12: </text>
<text text-anchor="start" x="1178.5" y="-93.95" font-family="Times New Roman,serif" font-weight="bold" font-size="14.00">0.910</text>
</g>
<!-- split16&#45;&gt;leaf12 -->
<g id="edge35" class="edge">
<title>split16&#45;&gt;leaf12</title>
<path fill="none" stroke="black" d="M917.39,-98C966.46,-98 1042.41,-98 1098.72,-98"/>
<polygon fill="black" stroke="black" points="1098.7,-101.5 1108.7,-98 1098.7,-94.5 1098.7,-101.5"/>
<text text-anchor="middle" x="1020.38" y="-100.45" font-family="Times New Roman,serif" font-size="14.00">yes</text>
</g>
<!-- split17 -->
<g id="node40" class="node">
<title>split17</title>
<polygon fill="none" stroke="black" points="1269,-76 1078.25,-76 1078.25,-40 1269,-40 1269,-76"/>
<text text-anchor="start" x="1086.25" y="-53.95" font-family="Times New Roman,serif" font-weight="bold" font-size="14.00">第一次交易日</text>
<text text-anchor="start" x="1180.75" y="-53.95" font-family="Times New Roman,serif" font-size="14.00"> ≤</text>
<text text-anchor="start" x="1192" y="-53.95" font-family="Times New Roman,serif" font-weight="bold" font-size="14.00">2013&#45;03&#45;11</text>
</g>
<!-- split16&#45;&gt;split17 -->
<g id="edge38" class="edge">
<title>split16&#45;&gt;split17</title>
<path fill="none" stroke="black" d="M917.39,-91.53C957.77,-86.22 1016.36,-78.53 1067.22,-71.85"/>
<polygon fill="black" stroke="black" points="1067.49,-75.21 1076.94,-70.44 1066.57,-68.27 1067.49,-75.21"/>
<text text-anchor="middle" x="1020.38" y="-82.45" font-family="Times New Roman,serif" font-size="14.00">no</text>
</g>
<!-- leaf17 -->
<g id="node41" class="node">
<title>leaf17</title>
<ellipse fill="none" stroke="black" cx="1410.88" cy="-58" rx="63.63" ry="18"/>
<text text-anchor="start" x="1372.26" y="-53.95" font-family="Times New Roman,serif" font-size="14.00">leaf 17: </text>
<text text-anchor="start" x="1415.76" y="-53.95" font-family="Times New Roman,serif" font-weight="bold" font-size="14.00">1.140</text>
</g>
<!-- split17&#45;&gt;leaf17 -->
<g id="edge36" class="edge">
<title>split17&#45;&gt;leaf17</title>
<path fill="none" stroke="black" d="M1269.3,-58C1291.59,-58 1315.02,-58 1336.23,-58"/>
<polygon fill="black" stroke="black" points="1336.09,-61.5 1346.09,-58 1336.09,-54.5 1336.09,-61.5"/>
<text text-anchor="middle" x="1326.88" y="-60.45" font-family="Times New Roman,serif" font-size="14.00">yes</text>
</g>
<!-- leaf18 -->
<g id="node42" class="node">
<title>leaf18</title>
<ellipse fill="none" stroke="black" cx="1410.88" cy="-18" rx="63.63" ry="18"/>
<text text-anchor="start" x="1372.26" y="-13.95" font-family="Times New Roman,serif" font-size="14.00">leaf 18: </text>
<text text-anchor="start" x="1415.76" y="-13.95" font-family="Times New Roman,serif" font-weight="bold" font-size="14.00">1.009</text>
</g>
<!-- split17&#45;&gt;leaf18 -->
<g id="edge37" class="edge">
<title>split17&#45;&gt;leaf18</title>
<path fill="none" stroke="black" d="M1269.3,-41.9C1294.65,-37.59 1321.48,-33.03 1344.83,-29.06"/>
<polygon fill="black" stroke="black" points="1345.37,-32.35 1354.64,-27.22 1344.2,-25.45 1345.37,-32.35"/>
<text text-anchor="middle" x="1326.88" y="-36.45" font-family="Times New Roman,serif" font-size="14.00">no</text>
</g>
</g>
</svg>
