<?xml version="1.0" encoding="UTF-8" standalone="no"?>
<!DOCTYPE svg PUBLIC "-//W3C//DTD SVG 1.1//EN"
 "http://www.w3.org/Graphics/SVG/1.1/DTD/svg11.dtd">
<!-- Generated by graphviz version 8.0.5 (20230430.1635)
 -->
<!-- Pages: 1 -->
<svg width="839pt" height="244pt"
 viewBox="0.00 0.00 838.70 244.00" xmlns="http://www.w3.org/2000/svg" xmlns:xlink="http://www.w3.org/1999/xlink">
<g id="graph0" class="graph" transform="scale(1 1) rotate(0) translate(4 240)">
<polygon fill="white" stroke="none" points="-4,4 -4,-240 834.7,-240 834.7,4 -4,4"/>
<!-- split0 -->
<g id="node1" class="node">
<title>split0</title>
<polygon fill="none" stroke="black" points="190.75,-115 0,-115 0,-79 190.75,-79 190.75,-115"/>
<text text-anchor="start" x="8" y="-92.95" font-family="Times New Roman,serif" font-weight="bold" font-size="14.00">手機驗證日期</text>
<text text-anchor="start" x="102.5" y="-92.95" font-family="Times New Roman,serif" font-size="14.00"> ≤</text>
<text text-anchor="start" x="113.75" y="-92.95" font-family="Times New Roman,serif" font-weight="bold" font-size="14.00">2016&#45;12&#45;30</text>
</g>
<!-- split1 -->
<g id="node2" class="node">
<title>split1</title>
<polygon fill="none" stroke="black" points="409.87,-149 255.87,-149 255.87,-113 409.87,-113 409.87,-149"/>
<text text-anchor="start" x="263.87" y="-126.95" font-family="Times New Roman,serif" font-weight="bold" font-size="14.00">自媒互動程度</text>
<text text-anchor="start" x="358.37" y="-126.95" font-family="Times New Roman,serif" font-size="14.00"> =</text>
<text text-anchor="start" x="370.37" y="-126.95" font-family="Times New Roman,serif" font-weight="bold" font-size="14.00">0||1||5</text>
</g>
<!-- split0&#45;&gt;split1 -->
<g id="edge7" class="edge">
<title>split0&#45;&gt;split1</title>
<path fill="none" stroke="black" d="M191.14,-110.68C208.93,-113.25 227.43,-115.92 244.96,-118.45"/>
<polygon fill="black" stroke="black" points="244.34,-122.04 254.74,-120.01 245.34,-115.11 244.34,-122.04"/>
<text text-anchor="middle" x="211.12" y="-116.45" font-family="Times New Roman,serif" font-size="14.00">yes</text>
</g>
<!-- split2 -->
<g id="node9" class="node">
<title>split2</title>
<polygon fill="none" stroke="black" points="434.25,-76 231.5,-76 231.5,-40 434.25,-40 434.25,-76"/>
<text text-anchor="start" x="239.5" y="-53.95" font-family="Times New Roman,serif" font-weight="bold" font-size="14.00">第一次交易日(年)</text>
<text text-anchor="start" x="358.75" y="-53.95" font-family="Times New Roman,serif" font-size="14.00"> ≤</text>
<text text-anchor="start" x="370" y="-53.95" font-family="Times New Roman,serif" font-weight="bold" font-size="14.00">2015.500</text>
</g>
<!-- split0&#45;&gt;split2 -->
<g id="edge12" class="edge">
<title>split0&#45;&gt;split2</title>
<path fill="none" stroke="black" d="M191.14,-81.31C200.81,-79.7 210.69,-78.07 220.52,-76.44"/>
<polygon fill="black" stroke="black" points="220.85,-79.77 230.14,-74.68 219.7,-72.86 220.85,-79.77"/>
<text text-anchor="middle" x="211.12" y="-80.45" font-family="Times New Roman,serif" font-size="14.00">no</text>
</g>
<!-- split4 -->
<g id="node3" class="node">
<title>split4</title>
<polygon fill="none" stroke="black" points="665.75,-196 475,-196 475,-160 665.75,-160 665.75,-196"/>
<text text-anchor="start" x="483" y="-173.95" font-family="Times New Roman,serif" font-weight="bold" font-size="14.00">第一次交易日</text>
<text text-anchor="start" x="577.5" y="-173.95" font-family="Times New Roman,serif" font-size="14.00"> ≤</text>
<text text-anchor="start" x="588.75" y="-173.95" font-family="Times New Roman,serif" font-weight="bold" font-size="14.00">2016&#45;03&#45;31</text>
</g>
<!-- split1&#45;&gt;split4 -->
<g id="edge3" class="edge">
<title>split1&#45;&gt;split4</title>
<path fill="none" stroke="black" d="M410.34,-146.26C428.16,-149.82 447.42,-153.66 466.19,-157.41"/>
<polygon fill="black" stroke="black" points="465.36,-161.01 475.86,-159.54 466.73,-154.15 465.36,-161.01"/>
<text text-anchor="middle" x="454.62" y="-157.45" font-family="Times New Roman,serif" font-size="14.00">yes</text>
</g>
<!-- split3 -->
<g id="node6" class="node">
<title>split3</title>
<polygon fill="none" stroke="black" points="665.75,-149 475,-149 475,-113 665.75,-113 665.75,-149"/>
<text text-anchor="start" x="483" y="-126.95" font-family="Times New Roman,serif" font-weight="bold" font-size="14.00">第一次交易日</text>
<text text-anchor="start" x="577.5" y="-126.95" font-family="Times New Roman,serif" font-size="14.00"> ≤</text>
<text text-anchor="start" x="588.75" y="-126.95" font-family="Times New Roman,serif" font-weight="bold" font-size="14.00">2016&#45;02&#45;06</text>
</g>
<!-- split1&#45;&gt;split3 -->
<g id="edge6" class="edge">
<title>split1&#45;&gt;split3</title>
<path fill="none" stroke="black" d="M410.34,-131C427.43,-131 445.86,-131 463.9,-131"/>
<polygon fill="black" stroke="black" points="463.76,-134.5 473.76,-131 463.76,-127.5 463.76,-134.5"/>
<text text-anchor="middle" x="454.62" y="-133.45" font-family="Times New Roman,serif" font-size="14.00">no</text>
</g>
<!-- leaf0 -->
<g id="node4" class="node">
<title>leaf0</title>
<ellipse fill="none" stroke="black" cx="768.6" cy="-218" rx="62.1" ry="18"/>
<text text-anchor="start" x="731.1" y="-213.95" font-family="Times New Roman,serif" font-size="14.00">leaf 0: </text>
<text text-anchor="start" x="767.85" y="-213.95" font-family="Times New Roman,serif" font-weight="bold" font-size="14.00">&#45;0.506</text>
</g>
<!-- split4&#45;&gt;leaf0 -->
<g id="edge1" class="edge">
<title>split4&#45;&gt;leaf0</title>
<path fill="none" stroke="black" d="M662.02,-196.48C677.06,-199.54 692.34,-202.66 706.43,-205.53"/>
<polygon fill="black" stroke="black" points="705.45,-209.11 715.95,-207.68 706.85,-202.25 705.45,-209.11"/>
<text text-anchor="middle" x="686.12" y="-204.45" font-family="Times New Roman,serif" font-size="14.00">yes</text>
</g>
<!-- leaf5 -->
<g id="node5" class="node">
<title>leaf5</title>
<ellipse fill="none" stroke="black" cx="768.6" cy="-178" rx="62.1" ry="18"/>
<text text-anchor="start" x="731.1" y="-173.95" font-family="Times New Roman,serif" font-size="14.00">leaf 5: </text>
<text text-anchor="start" x="767.85" y="-173.95" font-family="Times New Roman,serif" font-weight="bold" font-size="14.00">&#45;0.375</text>
</g>
<!-- split4&#45;&gt;leaf5 -->
<g id="edge2" class="edge">
<title>split4&#45;&gt;leaf5</title>
<path fill="none" stroke="black" d="M666.04,-178C675.83,-178 685.67,-178 695.16,-178"/>
<polygon fill="black" stroke="black" points="695.12,-181.5 705.12,-178 695.12,-174.5 695.12,-181.5"/>
<text text-anchor="middle" x="686.12" y="-180.45" font-family="Times New Roman,serif" font-size="14.00">no</text>
</g>
<!-- leaf2 -->
<g id="node7" class="node">
<title>leaf2</title>
<ellipse fill="none" stroke="black" cx="768.6" cy="-138" rx="62.1" ry="18"/>
<text text-anchor="start" x="731.1" y="-133.95" font-family="Times New Roman,serif" font-size="14.00">leaf 2: </text>
<text text-anchor="start" x="767.85" y="-133.95" font-family="Times New Roman,serif" font-weight="bold" font-size="14.00">&#45;0.383</text>
</g>
<!-- split3&#45;&gt;leaf2 -->
<g id="edge4" class="edge">
<title>split3&#45;&gt;leaf2</title>
<path fill="none" stroke="black" d="M666.04,-134.38C676.08,-134.74 686.17,-135.1 695.88,-135.44"/>
<polygon fill="black" stroke="black" points="695.55,-138.97 705.67,-135.83 695.8,-131.97 695.55,-138.97"/>
<text text-anchor="middle" x="686.12" y="-137.45" font-family="Times New Roman,serif" font-size="14.00">yes</text>
</g>
<!-- leaf4 -->
<g id="node8" class="node">
<title>leaf4</title>
<ellipse fill="none" stroke="black" cx="768.6" cy="-98" rx="62.1" ry="18"/>
<text text-anchor="start" x="731.1" y="-93.95" font-family="Times New Roman,serif" font-size="14.00">leaf 4: </text>
<text text-anchor="start" x="767.85" y="-93.95" font-family="Times New Roman,serif" font-weight="bold" font-size="14.00">&#45;0.193</text>
</g>
<!-- split3&#45;&gt;leaf4 -->
<g id="edge5" class="edge">
<title>split3&#45;&gt;leaf4</title>
<path fill="none" stroke="black" d="M666.04,-115.08C678.64,-112.96 691.33,-110.83 703.25,-108.82"/>
<polygon fill="black" stroke="black" points="703.68,-112.13 712.96,-107.02 702.52,-105.23 703.68,-112.13"/>
<text text-anchor="middle" x="686.12" y="-114.45" font-family="Times New Roman,serif" font-size="14.00">no</text>
</g>
<!-- split5 -->
<g id="node10" class="node">
<title>split5</title>
<polygon fill="none" stroke="black" points="620.38,-76 520.38,-76 520.38,-40 620.38,-40 620.38,-76"/>
<text text-anchor="start" x="528.38" y="-53.95" font-family="Times New Roman,serif" font-weight="bold" font-size="14.00">年齡</text>
<text text-anchor="start" x="559.88" y="-53.95" font-family="Times New Roman,serif" font-size="14.00"> ≤</text>
<text text-anchor="start" x="571.12" y="-53.95" font-family="Times New Roman,serif" font-weight="bold" font-size="14.00">46.500</text>
</g>
<!-- split2&#45;&gt;split5 -->
<g id="edge10" class="edge">
<title>split2&#45;&gt;split5</title>
<path fill="none" stroke="black" d="M434.43,-58C459.89,-58 486.45,-58 509.21,-58"/>
<polygon fill="black" stroke="black" points="509.05,-61.5 519.05,-58 509.05,-54.5 509.05,-61.5"/>
<text text-anchor="middle" x="454.62" y="-60.45" font-family="Times New Roman,serif" font-size="14.00">yes</text>
</g>
<!-- leaf3 -->
<g id="node13" class="node">
<title>leaf3</title>
<ellipse fill="none" stroke="black" cx="570.38" cy="-18" rx="62.1" ry="18"/>
<text text-anchor="start" x="532.88" y="-13.95" font-family="Times New Roman,serif" font-size="14.00">leaf 3: </text>
<text text-anchor="start" x="569.62" y="-13.95" font-family="Times New Roman,serif" font-weight="bold" font-size="14.00">&#45;0.128</text>
</g>
<!-- split2&#45;&gt;leaf3 -->
<g id="edge11" class="edge">
<title>split2&#45;&gt;leaf3</title>
<path fill="none" stroke="black" d="M434.43,-40.92C458.39,-36.85 483.31,-32.62 505.13,-28.91"/>
<polygon fill="black" stroke="black" points="505.63,-32.21 514.9,-27.08 504.45,-25.31 505.63,-32.21"/>
<text text-anchor="middle" x="454.62" y="-40.45" font-family="Times New Roman,serif" font-size="14.00">no</text>
</g>
<!-- leaf1 -->
<g id="node11" class="node">
<title>leaf1</title>
<ellipse fill="none" stroke="black" cx="768.6" cy="-58" rx="62.1" ry="18"/>
<text text-anchor="start" x="731.1" y="-53.95" font-family="Times New Roman,serif" font-size="14.00">leaf 1: </text>
<text text-anchor="start" x="767.85" y="-53.95" font-family="Times New Roman,serif" font-weight="bold" font-size="14.00">&#45;0.513</text>
</g>
<!-- split5&#45;&gt;leaf1 -->
<g id="edge8" class="edge">
<title>split5&#45;&gt;leaf1</title>
<path fill="none" stroke="black" d="M620.64,-58C643.18,-58 670.35,-58 695.17,-58"/>
<polygon fill="black" stroke="black" points="695,-61.5 705,-58 695,-54.5 695,-61.5"/>
<text text-anchor="middle" x="686.12" y="-60.45" font-family="Times New Roman,serif" font-size="14.00">yes</text>
</g>
<!-- leaf6 -->
<g id="node12" class="node">
<title>leaf6</title>
<ellipse fill="none" stroke="black" cx="768.6" cy="-18" rx="62.1" ry="18"/>
<text text-anchor="start" x="731.1" y="-13.95" font-family="Times New Roman,serif" font-size="14.00">leaf 6: </text>
<text text-anchor="start" x="767.85" y="-13.95" font-family="Times New Roman,serif" font-weight="bold" font-size="14.00">&#45;0.372</text>
</g>
<!-- split5&#45;&gt;leaf6 -->
<g id="edge9" class="edge">
<title>split5&#45;&gt;leaf6</title>
<path fill="none" stroke="black" d="M620.64,-47.96C646.6,-42.67 678.68,-36.13 706.24,-30.51"/>
<polygon fill="black" stroke="black" points="706.85,-33.75 715.95,-28.33 705.45,-26.89 706.85,-33.75"/>
<text text-anchor="middle" x="686.12" y="-37.45" font-family="Times New Roman,serif" font-size="14.00">no</text>
</g>
</g>
</svg>
