<?xml version="1.0" encoding="UTF-8" standalone="no"?>
<!DOCTYPE svg PUBLIC "-//W3C//DTD SVG 1.1//EN"
 "http://www.w3.org/Graphics/SVG/1.1/DTD/svg11.dtd">
<!-- Generated by graphviz version 8.0.5 (20230430.1635)
 -->
<!-- Pages: 1 -->
<svg width="914pt" height="324pt"
 viewBox="0.00 0.00 914.45 324.00" xmlns="http://www.w3.org/2000/svg" xmlns:xlink="http://www.w3.org/1999/xlink">
<g id="graph0" class="graph" transform="scale(1 1) rotate(0) translate(4 320)">
<polygon fill="white" stroke="none" points="-4,4 -4,-320 910.45,-320 910.45,4 -4,4"/>
<!-- split0 -->
<g id="node1" class="node">
<title>split0</title>
<polygon fill="none" stroke="black" points="190.75,-165 0,-165 0,-129 190.75,-129 190.75,-165"/>
<text text-anchor="start" x="8" y="-142.95" font-family="Times New Roman,serif" font-weight="bold" font-size="14.00">手機驗證日期</text>
<text text-anchor="start" x="102.5" y="-142.95" font-family="Times New Roman,serif" font-size="14.00"> ≤</text>
<text text-anchor="start" x="113.75" y="-142.95" font-family="Times New Roman,serif" font-weight="bold" font-size="14.00">2016&#45;12&#45;30</text>
</g>
<!-- split1 -->
<g id="node2" class="node">
<title>split1</title>
<polygon fill="none" stroke="black" points="447.75,-206 293.75,-206 293.75,-170 447.75,-170 447.75,-206"/>
<text text-anchor="start" x="301.75" y="-183.95" font-family="Times New Roman,serif" font-weight="bold" font-size="14.00">自媒互動程度</text>
<text text-anchor="start" x="396.25" y="-183.95" font-family="Times New Roman,serif" font-size="14.00"> =</text>
<text text-anchor="start" x="408.25" y="-183.95" font-family="Times New Roman,serif" font-weight="bold" font-size="14.00">0||1||5</text>
</g>
<!-- split0&#45;&gt;split1 -->
<g id="edge7" class="edge">
<title>split0&#45;&gt;split1</title>
<path fill="none" stroke="black" d="M191.22,-161.22C221.03,-165.69 253.77,-170.61 282.98,-174.99"/>
<polygon fill="black" stroke="black" points="282.16,-178.55 292.57,-176.58 283.2,-171.63 282.16,-178.55"/>
<text text-anchor="middle" x="211.12" y="-167.45" font-family="Times New Roman,serif" font-size="14.00">yes</text>
</g>
<!-- split3 -->
<g id="node9" class="node">
<title>split3</title>
<polygon fill="none" stroke="black" points="510,-146 231.5,-146 231.5,-110 510,-110 510,-146"/>
<text text-anchor="start" x="239.5" y="-123.95" font-family="Times New Roman,serif" font-weight="bold" font-size="14.00">第一次POS綁約交易日期(年)</text>
<text text-anchor="start" x="434.5" y="-123.95" font-family="Times New Roman,serif" font-size="14.00"> ≤</text>
<text text-anchor="start" x="445.75" y="-123.95" font-family="Times New Roman,serif" font-weight="bold" font-size="14.00">2016.500</text>
</g>
<!-- split0&#45;&gt;split3 -->
<g id="edge14" class="edge">
<title>split0&#45;&gt;split3</title>
<path fill="none" stroke="black" d="M191.22,-140.41C200.73,-139.75 210.55,-139.06 220.45,-138.38"/>
<polygon fill="black" stroke="black" points="220.48,-141.81 230.22,-137.63 220,-134.83 220.48,-141.81"/>
<text text-anchor="middle" x="211.12" y="-141.45" font-family="Times New Roman,serif" font-size="14.00">no</text>
</g>
<!-- split4 -->
<g id="node3" class="node">
<title>split4</title>
<polygon fill="none" stroke="black" points="741.5,-276 550.75,-276 550.75,-240 741.5,-240 741.5,-276"/>
<text text-anchor="start" x="558.75" y="-253.95" font-family="Times New Roman,serif" font-weight="bold" font-size="14.00">第一次交易日</text>
<text text-anchor="start" x="653.25" y="-253.95" font-family="Times New Roman,serif" font-size="14.00"> ≤</text>
<text text-anchor="start" x="664.5" y="-253.95" font-family="Times New Roman,serif" font-weight="bold" font-size="14.00">2016&#45;03&#45;31</text>
</g>
<!-- split1&#45;&gt;split4 -->
<g id="edge3" class="edge">
<title>split1&#45;&gt;split4</title>
<path fill="none" stroke="black" d="M443.93,-206.48C480.37,-215.81 524.74,-227.18 562.54,-236.85"/>
<polygon fill="black" stroke="black" points="561.46,-240.44 572.01,-239.53 563.19,-233.66 561.46,-240.44"/>
<text text-anchor="middle" x="530.38" y="-231.45" font-family="Times New Roman,serif" font-size="14.00">yes</text>
</g>
<!-- split2 -->
<g id="node6" class="node">
<title>split2</title>
<polygon fill="none" stroke="black" points="741.5,-206 550.75,-206 550.75,-170 741.5,-170 741.5,-206"/>
<text text-anchor="start" x="558.75" y="-183.95" font-family="Times New Roman,serif" font-weight="bold" font-size="14.00">第一次交易日</text>
<text text-anchor="start" x="653.25" y="-183.95" font-family="Times New Roman,serif" font-size="14.00"> ≤</text>
<text text-anchor="start" x="664.5" y="-183.95" font-family="Times New Roman,serif" font-weight="bold" font-size="14.00">2016&#45;02&#45;04</text>
</g>
<!-- split1&#45;&gt;split2 -->
<g id="edge6" class="edge">
<title>split1&#45;&gt;split2</title>
<path fill="none" stroke="black" d="M447.9,-188C476.31,-188 509.08,-188 539.66,-188"/>
<polygon fill="black" stroke="black" points="539.37,-191.5 549.37,-188 539.37,-184.5 539.37,-191.5"/>
<text text-anchor="middle" x="530.38" y="-190.45" font-family="Times New Roman,serif" font-size="14.00">no</text>
</g>
<!-- leaf0 -->
<g id="node4" class="node">
<title>leaf0</title>
<ellipse fill="none" stroke="black" cx="844.35" cy="-298" rx="62.1" ry="18"/>
<text text-anchor="start" x="806.85" y="-293.95" font-family="Times New Roman,serif" font-size="14.00">leaf 0: </text>
<text text-anchor="start" x="843.6" y="-293.95" font-family="Times New Roman,serif" font-weight="bold" font-size="14.00">&#45;0.506</text>
</g>
<!-- split4&#45;&gt;leaf0 -->
<g id="edge1" class="edge">
<title>split4&#45;&gt;leaf0</title>
<path fill="none" stroke="black" d="M737.77,-276.48C752.81,-279.54 768.09,-282.66 782.18,-285.53"/>
<polygon fill="black" stroke="black" points="781.2,-289.11 791.7,-287.68 782.6,-282.25 781.2,-289.11"/>
<text text-anchor="middle" x="761.88" y="-284.45" font-family="Times New Roman,serif" font-size="14.00">yes</text>
</g>
<!-- leaf5 -->
<g id="node5" class="node">
<title>leaf5</title>
<ellipse fill="none" stroke="black" cx="844.35" cy="-258" rx="62.1" ry="18"/>
<text text-anchor="start" x="806.85" y="-253.95" font-family="Times New Roman,serif" font-size="14.00">leaf 5: </text>
<text text-anchor="start" x="843.6" y="-253.95" font-family="Times New Roman,serif" font-weight="bold" font-size="14.00">&#45;0.375</text>
</g>
<!-- split4&#45;&gt;leaf5 -->
<g id="edge2" class="edge">
<title>split4&#45;&gt;leaf5</title>
<path fill="none" stroke="black" d="M741.79,-258C751.58,-258 761.42,-258 770.91,-258"/>
<polygon fill="black" stroke="black" points="770.87,-261.5 780.87,-258 770.87,-254.5 770.87,-261.5"/>
<text text-anchor="middle" x="761.88" y="-260.45" font-family="Times New Roman,serif" font-size="14.00">no</text>
</g>
<!-- leaf2 -->
<g id="node7" class="node">
<title>leaf2</title>
<ellipse fill="none" stroke="black" cx="844.35" cy="-218" rx="62.1" ry="18"/>
<text text-anchor="start" x="806.85" y="-213.95" font-family="Times New Roman,serif" font-size="14.00">leaf 2: </text>
<text text-anchor="start" x="843.6" y="-213.95" font-family="Times New Roman,serif" font-weight="bold" font-size="14.00">&#45;0.383</text>
</g>
<!-- split2&#45;&gt;leaf2 -->
<g id="edge4" class="edge">
<title>split2&#45;&gt;leaf2</title>
<path fill="none" stroke="black" d="M741.79,-202.47C753.97,-204.33 766.22,-206.21 777.79,-207.98"/>
<polygon fill="black" stroke="black" points="777.24,-211.59 787.65,-209.64 778.29,-204.67 777.24,-211.59"/>
<text text-anchor="middle" x="761.88" y="-208.45" font-family="Times New Roman,serif" font-size="14.00">yes</text>
</g>
<!-- leaf3 -->
<g id="node8" class="node">
<title>leaf3</title>
<ellipse fill="none" stroke="black" cx="844.35" cy="-178" rx="62.1" ry="18"/>
<text text-anchor="start" x="806.85" y="-173.95" font-family="Times New Roman,serif" font-size="14.00">leaf 3: </text>
<text text-anchor="start" x="843.6" y="-173.95" font-family="Times New Roman,serif" font-weight="bold" font-size="14.00">&#45;0.193</text>
</g>
<!-- split2&#45;&gt;leaf3 -->
<g id="edge5" class="edge">
<title>split2&#45;&gt;leaf3</title>
<path fill="none" stroke="black" d="M741.79,-183.18C751.9,-182.66 762.06,-182.14 771.84,-181.64"/>
<polygon fill="black" stroke="black" points="771.89,-185.1 781.69,-181.09 771.53,-178.1 771.89,-185.1"/>
<text text-anchor="middle" x="761.88" y="-184.45" font-family="Times New Roman,serif" font-size="14.00">no</text>
</g>
<!-- split5 -->
<g id="node10" class="node">
<title>split5</title>
<polygon fill="none" stroke="black" points="696.12,-146 596.12,-146 596.12,-110 696.12,-110 696.12,-146"/>
<text text-anchor="start" x="604.12" y="-123.95" font-family="Times New Roman,serif" font-weight="bold" font-size="14.00">年齡</text>
<text text-anchor="start" x="635.62" y="-123.95" font-family="Times New Roman,serif" font-size="14.00"> ≤</text>
<text text-anchor="start" x="646.88" y="-123.95" font-family="Times New Roman,serif" font-weight="bold" font-size="14.00">45.500</text>
</g>
<!-- split3&#45;&gt;split5 -->
<g id="edge10" class="edge">
<title>split3&#45;&gt;split5</title>
<path fill="none" stroke="black" d="M510.44,-128C536.67,-128 562.8,-128 584.97,-128"/>
<polygon fill="black" stroke="black" points="584.85,-131.5 594.85,-128 584.85,-124.5 584.85,-131.5"/>
<text text-anchor="middle" x="530.38" y="-130.45" font-family="Times New Roman,serif" font-size="14.00">yes</text>
</g>
<!-- split6 -->
<g id="node13" class="node">
<title>split6</title>
<polygon fill="none" stroke="black" points="741.5,-76 550.75,-76 550.75,-40 741.5,-40 741.5,-76"/>
<text text-anchor="start" x="558.75" y="-53.95" font-family="Times New Roman,serif" font-weight="bold" font-size="14.00">手機驗證日期</text>
<text text-anchor="start" x="653.25" y="-53.95" font-family="Times New Roman,serif" font-size="14.00"> ≤</text>
<text text-anchor="start" x="664.5" y="-53.95" font-family="Times New Roman,serif" font-weight="bold" font-size="14.00">2017&#45;05&#45;14</text>
</g>
<!-- split3&#45;&gt;split6 -->
<g id="edge13" class="edge">
<title>split3&#45;&gt;split6</title>
<path fill="none" stroke="black" d="M443.93,-109.52C480.37,-100.19 524.74,-88.82 562.54,-79.15"/>
<polygon fill="black" stroke="black" points="563.19,-82.34 572.01,-76.47 561.46,-75.56 563.19,-82.34"/>
<text text-anchor="middle" x="530.38" y="-90.45" font-family="Times New Roman,serif" font-size="14.00">no</text>
</g>
<!-- leaf1 -->
<g id="node11" class="node">
<title>leaf1</title>
<ellipse fill="none" stroke="black" cx="844.35" cy="-138" rx="62.1" ry="18"/>
<text text-anchor="start" x="806.85" y="-133.95" font-family="Times New Roman,serif" font-size="14.00">leaf 1: </text>
<text text-anchor="start" x="843.6" y="-133.95" font-family="Times New Roman,serif" font-weight="bold" font-size="14.00">&#45;0.492</text>
</g>
<!-- split5&#45;&gt;leaf1 -->
<g id="edge8" class="edge">
<title>split5&#45;&gt;leaf1</title>
<path fill="none" stroke="black" d="M696.39,-130.51C719.23,-131.67 746.82,-133.08 771.89,-134.36"/>
<polygon fill="black" stroke="black" points="771.67,-137.9 781.84,-134.92 772.03,-130.91 771.67,-137.9"/>
<text text-anchor="middle" x="761.88" y="-136.45" font-family="Times New Roman,serif" font-size="14.00">yes</text>
</g>
<!-- leaf6 -->
<g id="node12" class="node">
<title>leaf6</title>
<ellipse fill="none" stroke="black" cx="844.35" cy="-98" rx="62.1" ry="18"/>
<text text-anchor="start" x="806.85" y="-93.95" font-family="Times New Roman,serif" font-size="14.00">leaf 6: </text>
<text text-anchor="start" x="843.6" y="-93.95" font-family="Times New Roman,serif" font-weight="bold" font-size="14.00">&#45;0.372</text>
</g>
<!-- split5&#45;&gt;leaf6 -->
<g id="edge9" class="edge">
<title>split5&#45;&gt;leaf6</title>
<path fill="none" stroke="black" d="M696.39,-120.47C721.13,-116.69 751.44,-112.05 778.1,-107.98"/>
<polygon fill="black" stroke="black" points="778.53,-111.3 787.88,-106.33 777.47,-104.38 778.53,-111.3"/>
<text text-anchor="middle" x="761.88" y="-113.45" font-family="Times New Roman,serif" font-size="14.00">no</text>
</g>
<!-- leaf4 -->
<g id="node14" class="node">
<title>leaf4</title>
<ellipse fill="none" stroke="black" cx="844.35" cy="-58" rx="62.1" ry="18"/>
<text text-anchor="start" x="806.85" y="-53.95" font-family="Times New Roman,serif" font-size="14.00">leaf 4: </text>
<text text-anchor="start" x="843.6" y="-53.95" font-family="Times New Roman,serif" font-weight="bold" font-size="14.00">&#45;0.154</text>
</g>
<!-- split6&#45;&gt;leaf4 -->
<g id="edge11" class="edge">
<title>split6&#45;&gt;leaf4</title>
<path fill="none" stroke="black" d="M741.79,-58C751.58,-58 761.42,-58 770.91,-58"/>
<polygon fill="black" stroke="black" points="770.87,-61.5 780.87,-58 770.87,-54.5 770.87,-61.5"/>
<text text-anchor="middle" x="761.88" y="-60.45" font-family="Times New Roman,serif" font-size="14.00">yes</text>
</g>
<!-- leaf7 -->
<g id="node15" class="node">
<title>leaf7</title>
<ellipse fill="none" stroke="black" cx="844.35" cy="-18" rx="62.1" ry="18"/>
<text text-anchor="start" x="806.85" y="-13.95" font-family="Times New Roman,serif" font-size="14.00">leaf 7: </text>
<text text-anchor="start" x="843.6" y="-13.95" font-family="Times New Roman,serif" font-weight="bold" font-size="14.00">&#45;0.127</text>
</g>
<!-- split6&#45;&gt;leaf7 -->
<g id="edge12" class="edge">
<title>split6&#45;&gt;leaf7</title>
<path fill="none" stroke="black" d="M737.77,-39.52C752.81,-36.46 768.09,-33.34 782.18,-30.47"/>
<polygon fill="black" stroke="black" points="782.6,-33.75 791.7,-28.32 781.2,-26.89 782.6,-33.75"/>
<text text-anchor="middle" x="761.88" y="-38.45" font-family="Times New Roman,serif" font-size="14.00">no</text>
</g>
</g>
</svg>
