<?xml version="1.0" encoding="UTF-8" standalone="no"?>
<!DOCTYPE svg PUBLIC "-//W3C//DTD SVG 1.1//EN"
 "http://www.w3.org/Graphics/SVG/1.1/DTD/svg11.dtd">
<!-- Generated by graphviz version 8.0.5 (20230430.1635)
 -->
<!-- Pages: 1 -->
<svg width="1411pt" height="724pt"
 viewBox="0.00 0.00 1411.27 724.00" xmlns="http://www.w3.org/2000/svg" xmlns:xlink="http://www.w3.org/1999/xlink">
<g id="graph0" class="graph" transform="scale(1 1) rotate(0) translate(4 720)">
<polygon fill="white" stroke="none" points="-4,4 -4,-720 1407.27,-720 1407.27,4 -4,4"/>
<!-- split0 -->
<g id="node1" class="node">
<title>split0</title>
<polygon fill="none" stroke="black" points="154,-292 0,-292 0,-256 154,-256 154,-292"/>
<text text-anchor="start" x="8" y="-269.95" font-family="Times New Roman,serif" font-weight="bold" font-size="14.00">自媒互動程度</text>
<text text-anchor="start" x="102.5" y="-269.95" font-family="Times New Roman,serif" font-size="14.00"> =</text>
<text text-anchor="start" x="114.5" y="-269.95" font-family="Times New Roman,serif" font-weight="bold" font-size="14.00">1||2||6</text>
</g>
<!-- split1 -->
<g id="node2" class="node">
<title>split1</title>
<polygon fill="none" stroke="black" points="385.5,-397 194.75,-397 194.75,-361 385.5,-361 385.5,-397"/>
<text text-anchor="start" x="202.75" y="-374.95" font-family="Times New Roman,serif" font-weight="bold" font-size="14.00">手機驗證日期</text>
<text text-anchor="start" x="297.25" y="-374.95" font-family="Times New Roman,serif" font-size="14.00"> ≤</text>
<text text-anchor="start" x="308.5" y="-374.95" font-family="Times New Roman,serif" font-weight="bold" font-size="14.00">2016&#45;12&#45;31</text>
</g>
<!-- split0&#45;&gt;split1 -->
<g id="edge23" class="edge">
<title>split0&#45;&gt;split1</title>
<path fill="none" stroke="black" d="M114.78,-292.29C150.28,-309.95 204.17,-336.75 242.64,-355.88"/>
<polygon fill="black" stroke="black" points="240.55,-359.25 251.06,-360.57 243.67,-352.98 240.55,-359.25"/>
<text text-anchor="middle" x="174.38" y="-328.45" font-family="Times New Roman,serif" font-size="14.00">yes</text>
</g>
<!-- split5 -->
<g id="node25" class="node">
<title>split5</title>
<polygon fill="none" stroke="black" points="385.5,-173 194.75,-173 194.75,-137 385.5,-137 385.5,-173"/>
<text text-anchor="start" x="202.75" y="-150.95" font-family="Times New Roman,serif" font-weight="bold" font-size="14.00">手機驗證日期</text>
<text text-anchor="start" x="297.25" y="-150.95" font-family="Times New Roman,serif" font-size="14.00"> ≤</text>
<text text-anchor="start" x="308.5" y="-150.95" font-family="Times New Roman,serif" font-weight="bold" font-size="14.00">2016&#45;12&#45;20</text>
</g>
<!-- split0&#45;&gt;split5 -->
<g id="edge42" class="edge">
<title>split0&#45;&gt;split5</title>
<path fill="none" stroke="black" d="M110.53,-255.67C147.18,-235.01 206.87,-201.36 247.05,-178.72"/>
<polygon fill="black" stroke="black" points="248.57,-181.31 255.56,-173.35 245.13,-175.22 248.57,-181.31"/>
<text text-anchor="middle" x="174.38" y="-223.45" font-family="Times New Roman,serif" font-size="14.00">no</text>
</g>
<!-- split2 -->
<g id="node3" class="node">
<title>split2</title>
<polygon fill="none" stroke="black" points="638.75,-492 448,-492 448,-456 638.75,-456 638.75,-492"/>
<text text-anchor="start" x="456" y="-469.95" font-family="Times New Roman,serif" font-weight="bold" font-size="14.00">第一次交易日</text>
<text text-anchor="start" x="550.5" y="-469.95" font-family="Times New Roman,serif" font-size="14.00"> ≤</text>
<text text-anchor="start" x="561.75" y="-469.95" font-family="Times New Roman,serif" font-weight="bold" font-size="14.00">2016&#45;03&#45;12</text>
</g>
<!-- split1&#45;&gt;split2 -->
<g id="edge15" class="edge">
<title>split1&#45;&gt;split2</title>
<path fill="none" stroke="black" d="M339.87,-397.43C380.95,-412.97 439.87,-435.24 483.57,-451.77"/>
<polygon fill="black" stroke="black" points="482.18,-455.36 492.77,-455.62 484.65,-448.81 482.18,-455.36"/>
<text text-anchor="middle" x="405.88" y="-425.45" font-family="Times New Roman,serif" font-size="14.00">yes</text>
</g>
<!-- split4 -->
<g id="node18" class="node">
<title>split4</title>
<polygon fill="none" stroke="black" points="644.75,-397 442,-397 442,-361 644.75,-361 644.75,-397"/>
<text text-anchor="start" x="450" y="-374.95" font-family="Times New Roman,serif" font-weight="bold" font-size="14.00">第一次交易日(年)</text>
<text text-anchor="start" x="569.25" y="-374.95" font-family="Times New Roman,serif" font-size="14.00"> ≤</text>
<text text-anchor="start" x="580.5" y="-374.95" font-family="Times New Roman,serif" font-weight="bold" font-size="14.00">2015.500</text>
</g>
<!-- split1&#45;&gt;split4 -->
<g id="edge22" class="edge">
<title>split1&#45;&gt;split4</title>
<path fill="none" stroke="black" d="M385.75,-379C400.42,-379 415.68,-379 430.68,-379"/>
<polygon fill="black" stroke="black" points="430.54,-382.5 440.54,-379 430.54,-375.5 430.54,-382.5"/>
<text text-anchor="middle" x="405.88" y="-381.45" font-family="Times New Roman,serif" font-size="14.00">no</text>
</g>
<!-- split7 -->
<g id="node4" class="node">
<title>split7</title>
<polygon fill="none" stroke="black" points="914.5,-616 754.5,-616 754.5,-580 914.5,-580 914.5,-616"/>
<text text-anchor="start" x="762.5" y="-593.95" font-family="Times New Roman,serif" font-weight="bold" font-size="14.00">是否接受Email</text>
<text text-anchor="start" x="861.5" y="-593.95" font-family="Times New Roman,serif" font-size="14.00"> ≤</text>
<text text-anchor="start" x="872.75" y="-593.95" font-family="Times New Roman,serif" font-weight="bold" font-size="14.00">0.000</text>
</g>
<!-- split2&#45;&gt;split7 -->
<g id="edge7" class="edge">
<title>split2&#45;&gt;split7</title>
<path fill="none" stroke="black" d="M587.35,-492.43C638.88,-514.53 725.25,-551.57 780.77,-575.39"/>
<polygon fill="black" stroke="black" points="779.19,-578.95 789.76,-579.67 781.95,-572.51 779.19,-578.95"/>
<text text-anchor="middle" x="680.88" y="-538.45" font-family="Times New Roman,serif" font-size="14.00">yes</text>
</g>
<!-- split3 -->
<g id="node11" class="node">
<title>split3</title>
<polygon fill="none" stroke="black" points="929.88,-492 739.13,-492 739.13,-456 929.88,-456 929.88,-492"/>
<text text-anchor="start" x="747.13" y="-469.95" font-family="Times New Roman,serif" font-weight="bold" font-size="14.00">手機驗證日期</text>
<text text-anchor="start" x="841.63" y="-469.95" font-family="Times New Roman,serif" font-size="14.00"> ≤</text>
<text text-anchor="start" x="852.88" y="-469.95" font-family="Times New Roman,serif" font-weight="bold" font-size="14.00">2016&#45;03&#45;23</text>
</g>
<!-- split2&#45;&gt;split3 -->
<g id="edge14" class="edge">
<title>split2&#45;&gt;split3</title>
<path fill="none" stroke="black" d="M639.05,-474C667.65,-474 699.22,-474 728.46,-474"/>
<polygon fill="black" stroke="black" points="728.11,-477.5 738.11,-474 728.11,-470.5 728.11,-477.5"/>
<text text-anchor="middle" x="680.88" y="-476.45" font-family="Times New Roman,serif" font-size="14.00">no</text>
</g>
<!-- split18 -->
<g id="node5" class="node">
<title>split18</title>
<polygon fill="none" stroke="black" points="1223.25,-676 1020.5,-676 1020.5,-640 1223.25,-640 1223.25,-676"/>
<text text-anchor="start" x="1028.5" y="-653.95" font-family="Times New Roman,serif" font-weight="bold" font-size="14.00">第一次交易日(年)</text>
<text text-anchor="start" x="1147.75" y="-653.95" font-family="Times New Roman,serif" font-size="14.00"> ≤</text>
<text text-anchor="start" x="1159" y="-653.95" font-family="Times New Roman,serif" font-weight="bold" font-size="14.00">2014.500</text>
</g>
<!-- split7&#45;&gt;split18 -->
<g id="edge3" class="edge">
<title>split7&#45;&gt;split18</title>
<path fill="none" stroke="black" d="M914.99,-614.71C948.25,-621.71 987.24,-629.9 1022.3,-637.27"/>
<polygon fill="black" stroke="black" points="1021.53,-640.9 1032.04,-639.53 1022.97,-634.05 1021.53,-640.9"/>
<text text-anchor="middle" x="988.13" y="-633.45" font-family="Times New Roman,serif" font-size="14.00">yes</text>
</g>
<!-- split9 -->
<g id="node8" class="node">
<title>split9</title>
<polygon fill="none" stroke="black" points="1217.25,-616 1026.5,-616 1026.5,-580 1217.25,-580 1217.25,-616"/>
<text text-anchor="start" x="1034.5" y="-593.95" font-family="Times New Roman,serif" font-weight="bold" font-size="14.00">手機驗證日期</text>
<text text-anchor="start" x="1129" y="-593.95" font-family="Times New Roman,serif" font-size="14.00"> ≤</text>
<text text-anchor="start" x="1140.25" y="-593.95" font-family="Times New Roman,serif" font-weight="bold" font-size="14.00">2014&#45;03&#45;19</text>
</g>
<!-- split7&#45;&gt;split9 -->
<g id="edge6" class="edge">
<title>split7&#45;&gt;split9</title>
<path fill="none" stroke="black" d="M914.99,-598C946.1,-598 982.22,-598 1015.44,-598"/>
<polygon fill="black" stroke="black" points="1015.12,-601.5 1025.12,-598 1015.12,-594.5 1015.12,-601.5"/>
<text text-anchor="middle" x="988.13" y="-600.45" font-family="Times New Roman,serif" font-size="14.00">no</text>
</g>
<!-- leaf0 -->
<g id="node6" class="node">
<title>leaf0</title>
<ellipse fill="none" stroke="black" cx="1339.63" cy="-698" rx="59.03" ry="18"/>
<text text-anchor="start" x="1304.38" y="-693.95" font-family="Times New Roman,serif" font-size="14.00">leaf 0: </text>
<text text-anchor="start" x="1341.13" y="-693.95" font-family="Times New Roman,serif" font-weight="bold" font-size="14.00">0.362</text>
</g>
<!-- split18&#45;&gt;leaf0 -->
<g id="edge1" class="edge">
<title>split18&#45;&gt;leaf0</title>
<path fill="none" stroke="black" d="M1222.54,-676.48C1241.47,-679.99 1260.74,-683.56 1278,-686.76"/>
<polygon fill="black" stroke="black" points="1276.99,-690.32 1287.46,-688.7 1278.27,-683.43 1276.99,-690.32"/>
<text text-anchor="middle" x="1255.62" y="-685.45" font-family="Times New Roman,serif" font-size="14.00">yes</text>
</g>
<!-- leaf19 -->
<g id="node7" class="node">
<title>leaf19</title>
<ellipse fill="none" stroke="black" cx="1339.63" cy="-658" rx="63.63" ry="18"/>
<text text-anchor="start" x="1301.01" y="-653.95" font-family="Times New Roman,serif" font-size="14.00">leaf 19: </text>
<text text-anchor="start" x="1344.51" y="-653.95" font-family="Times New Roman,serif" font-weight="bold" font-size="14.00">0.359</text>
</g>
<!-- split18&#45;&gt;leaf19 -->
<g id="edge2" class="edge">
<title>split18&#45;&gt;leaf19</title>
<path fill="none" stroke="black" d="M1223.49,-658C1237.39,-658 1251.46,-658 1264.76,-658"/>
<polygon fill="black" stroke="black" points="1264.73,-661.5 1274.73,-658 1264.73,-654.5 1264.73,-661.5"/>
<text text-anchor="middle" x="1255.62" y="-660.45" font-family="Times New Roman,serif" font-size="14.00">no</text>
</g>
<!-- leaf8 -->
<g id="node9" class="node">
<title>leaf8</title>
<ellipse fill="none" stroke="black" cx="1339.63" cy="-618" rx="59.03" ry="18"/>
<text text-anchor="start" x="1304.38" y="-613.95" font-family="Times New Roman,serif" font-size="14.00">leaf 8: </text>
<text text-anchor="start" x="1341.13" y="-613.95" font-family="Times New Roman,serif" font-weight="bold" font-size="14.00">0.366</text>
</g>
<!-- split9&#45;&gt;leaf8 -->
<g id="edge4" class="edge">
<title>split9&#45;&gt;leaf8</title>
<path fill="none" stroke="black" d="M1217.51,-606.77C1235.89,-608.48 1254.79,-610.23 1272.03,-611.83"/>
<polygon fill="black" stroke="black" points="1271.25,-615.36 1281.53,-612.8 1271.9,-608.39 1271.25,-615.36"/>
<text text-anchor="middle" x="1255.62" y="-612.45" font-family="Times New Roman,serif" font-size="14.00">yes</text>
</g>
<!-- leaf10 -->
<g id="node10" class="node">
<title>leaf10</title>
<ellipse fill="none" stroke="black" cx="1339.63" cy="-578" rx="63.63" ry="18"/>
<text text-anchor="start" x="1301.01" y="-573.95" font-family="Times New Roman,serif" font-size="14.00">leaf 10: </text>
<text text-anchor="start" x="1344.51" y="-573.95" font-family="Times New Roman,serif" font-weight="bold" font-size="14.00">0.368</text>
</g>
<!-- split9&#45;&gt;leaf10 -->
<g id="edge5" class="edge">
<title>split9&#45;&gt;leaf10</title>
<path fill="none" stroke="black" d="M1217.51,-589.23C1234.35,-587.67 1251.62,-586.07 1267.65,-584.58"/>
<polygon fill="black" stroke="black" points="1267.9,-587.98 1277.54,-583.57 1267.26,-581.01 1267.9,-587.98"/>
<text text-anchor="middle" x="1255.62" y="-588.45" font-family="Times New Roman,serif" font-size="14.00">no</text>
</g>
<!-- split13 -->
<g id="node12" class="node">
<title>split13</title>
<polygon fill="none" stroke="black" points="1235.25,-516 1008.5,-516 1008.5,-480 1235.25,-480 1235.25,-516"/>
<text text-anchor="start" x="1016.5" y="-493.95" font-family="Times New Roman,serif" font-weight="bold" font-size="14.00">最近一次EC交易日</text>
<text text-anchor="start" x="1147" y="-493.95" font-family="Times New Roman,serif" font-size="14.00"> ≤</text>
<text text-anchor="start" x="1158.25" y="-493.95" font-family="Times New Roman,serif" font-weight="bold" font-size="14.00">2019&#45;01&#45;22</text>
</g>
<!-- split3&#45;&gt;split13 -->
<g id="edge10" class="edge">
<title>split3&#45;&gt;split13</title>
<path fill="none" stroke="black" d="M930.13,-481.96C951.7,-483.77 974.93,-485.73 997.5,-487.62"/>
<polygon fill="black" stroke="black" points="996.91,-491.17 1007.17,-488.52 997.49,-484.2 996.91,-491.17"/>
<text text-anchor="middle" x="988.13" y="-489.45" font-family="Times New Roman,serif" font-size="14.00">yes</text>
</g>
<!-- split8 -->
<g id="node15" class="node">
<title>split8</title>
<polygon fill="none" stroke="black" points="1217.25,-476 1026.5,-476 1026.5,-440 1217.25,-440 1217.25,-476"/>
<text text-anchor="start" x="1034.5" y="-453.95" font-family="Times New Roman,serif" font-weight="bold" font-size="14.00">手機驗證日期</text>
<text text-anchor="start" x="1129" y="-453.95" font-family="Times New Roman,serif" font-size="14.00"> ≤</text>
<text text-anchor="start" x="1140.25" y="-453.95" font-family="Times New Roman,serif" font-weight="bold" font-size="14.00">2016&#45;06&#45;25</text>
</g>
<!-- split3&#45;&gt;split8 -->
<g id="edge13" class="edge">
<title>split3&#45;&gt;split8</title>
<path fill="none" stroke="black" d="M930.13,-468.69C957.34,-467.17 987.2,-465.49 1015.04,-463.93"/>
<polygon fill="black" stroke="black" points="1015.23,-467.37 1025.01,-463.32 1014.83,-460.38 1015.23,-467.37"/>
<text text-anchor="middle" x="988.13" y="-467.45" font-family="Times New Roman,serif" font-size="14.00">no</text>
</g>
<!-- leaf3 -->
<g id="node13" class="node">
<title>leaf3</title>
<ellipse fill="none" stroke="black" cx="1339.63" cy="-538" rx="59.03" ry="18"/>
<text text-anchor="start" x="1304.38" y="-533.95" font-family="Times New Roman,serif" font-size="14.00">leaf 3: </text>
<text text-anchor="start" x="1341.13" y="-533.95" font-family="Times New Roman,serif" font-weight="bold" font-size="14.00">0.363</text>
</g>
<!-- split13&#45;&gt;leaf3 -->
<g id="edge8" class="edge">
<title>split13&#45;&gt;leaf3</title>
<path fill="none" stroke="black" d="M1222.54,-516.48C1241.47,-519.99 1260.74,-523.56 1278,-526.76"/>
<polygon fill="black" stroke="black" points="1276.99,-530.32 1287.46,-528.7 1278.27,-523.43 1276.99,-530.32"/>
<text text-anchor="middle" x="1255.62" y="-525.45" font-family="Times New Roman,serif" font-size="14.00">yes</text>
</g>
<!-- leaf14 -->
<g id="node14" class="node">
<title>leaf14</title>
<ellipse fill="none" stroke="black" cx="1339.63" cy="-498" rx="63.63" ry="18"/>
<text text-anchor="start" x="1301.01" y="-493.95" font-family="Times New Roman,serif" font-size="14.00">leaf 14: </text>
<text text-anchor="start" x="1344.51" y="-493.95" font-family="Times New Roman,serif" font-weight="bold" font-size="14.00">0.374</text>
</g>
<!-- split13&#45;&gt;leaf14 -->
<g id="edge9" class="edge">
<title>split13&#45;&gt;leaf14</title>
<path fill="none" stroke="black" d="M1235.49,-498C1245.41,-498 1255.27,-498 1264.74,-498"/>
<polygon fill="black" stroke="black" points="1264.66,-501.5 1274.66,-498 1264.66,-494.5 1264.66,-501.5"/>
<text text-anchor="middle" x="1255.62" y="-500.45" font-family="Times New Roman,serif" font-size="14.00">no</text>
</g>
<!-- leaf4 -->
<g id="node16" class="node">
<title>leaf4</title>
<ellipse fill="none" stroke="black" cx="1339.63" cy="-458" rx="59.03" ry="18"/>
<text text-anchor="start" x="1304.38" y="-453.95" font-family="Times New Roman,serif" font-size="14.00">leaf 4: </text>
<text text-anchor="start" x="1341.13" y="-453.95" font-family="Times New Roman,serif" font-weight="bold" font-size="14.00">0.383</text>
</g>
<!-- split8&#45;&gt;leaf4 -->
<g id="edge11" class="edge">
<title>split8&#45;&gt;leaf4</title>
<path fill="none" stroke="black" d="M1217.51,-458C1235.06,-458 1253.09,-458 1269.7,-458"/>
<polygon fill="black" stroke="black" points="1269.39,-461.5 1279.39,-458 1269.39,-454.5 1269.39,-461.5"/>
<text text-anchor="middle" x="1255.62" y="-460.45" font-family="Times New Roman,serif" font-size="14.00">yes</text>
</g>
<!-- leaf9 -->
<g id="node17" class="node">
<title>leaf9</title>
<ellipse fill="none" stroke="black" cx="1339.63" cy="-418" rx="59.03" ry="18"/>
<text text-anchor="start" x="1304.38" y="-413.95" font-family="Times New Roman,serif" font-size="14.00">leaf 9: </text>
<text text-anchor="start" x="1341.13" y="-413.95" font-family="Times New Roman,serif" font-weight="bold" font-size="14.00">0.396</text>
</g>
<!-- split8&#45;&gt;leaf9 -->
<g id="edge12" class="edge">
<title>split8&#45;&gt;leaf9</title>
<path fill="none" stroke="black" d="M1217.51,-440.46C1237.95,-436.67 1259.04,-432.76 1277.78,-429.28"/>
<polygon fill="black" stroke="black" points="1278.32,-432.56 1287.52,-427.29 1277.05,-425.67 1278.32,-432.56"/>
<text text-anchor="middle" x="1255.62" y="-436.45" font-family="Times New Roman,serif" font-size="14.00">no</text>
</g>
<!-- split19 -->
<g id="node19" class="node">
<title>split19</title>
<polygon fill="none" stroke="black" points="898.38,-420 770.63,-420 770.63,-384 898.38,-384 898.38,-420"/>
<text text-anchor="start" x="778.63" y="-397.95" font-family="Times New Roman,serif" font-weight="bold" font-size="14.00">生日</text>
<text text-anchor="start" x="810.13" y="-397.95" font-family="Times New Roman,serif" font-size="14.00"> ≤</text>
<text text-anchor="start" x="821.38" y="-397.95" font-family="Times New Roman,serif" font-weight="bold" font-size="14.00">1986&#45;05&#45;07</text>
</g>
<!-- split4&#45;&gt;split19 -->
<g id="edge20" class="edge">
<title>split4&#45;&gt;split19</title>
<path fill="none" stroke="black" d="M645.09,-387.01C682.75,-390.01 724.8,-393.35 759.6,-396.12"/>
<polygon fill="black" stroke="black" points="758.91,-399.66 769.16,-396.96 759.46,-392.68 758.91,-399.66"/>
<text text-anchor="middle" x="680.88" y="-392.45" font-family="Times New Roman,serif" font-size="14.00">yes</text>
</g>
<!-- leaf5 -->
<g id="node24" class="node">
<title>leaf5</title>
<ellipse fill="none" stroke="black" cx="834.5" cy="-362" rx="59.03" ry="18"/>
<text text-anchor="start" x="799.25" y="-357.95" font-family="Times New Roman,serif" font-size="14.00">leaf 5: </text>
<text text-anchor="start" x="836" y="-357.95" font-family="Times New Roman,serif" font-weight="bold" font-size="14.00">0.399</text>
</g>
<!-- split4&#45;&gt;leaf5 -->
<g id="edge21" class="edge">
<title>split4&#45;&gt;leaf5</title>
<path fill="none" stroke="black" d="M645.09,-373.08C684.82,-370.74 729.43,-368.12 765.27,-366.01"/>
<polygon fill="black" stroke="black" points="765.31,-369.46 775.09,-365.38 764.9,-362.47 765.31,-369.46"/>
<text text-anchor="middle" x="680.88" y="-373.45" font-family="Times New Roman,serif" font-size="14.00">no</text>
</g>
<!-- leaf2 -->
<g id="node20" class="node">
<title>leaf2</title>
<ellipse fill="none" stroke="black" cx="1121.88" cy="-418" rx="59.03" ry="18"/>
<text text-anchor="start" x="1086.62" y="-413.95" font-family="Times New Roman,serif" font-size="14.00">leaf 2: </text>
<text text-anchor="start" x="1123.38" y="-413.95" font-family="Times New Roman,serif" font-weight="bold" font-size="14.00">0.364</text>
</g>
<!-- split19&#45;&gt;leaf2 -->
<g id="edge16" class="edge">
<title>split19&#45;&gt;leaf2</title>
<path fill="none" stroke="black" d="M898.83,-405.55C944.44,-408.11 1005.9,-411.55 1052.6,-414.17"/>
<polygon fill="black" stroke="black" points="1052.35,-417.72 1062.53,-414.79 1052.74,-410.73 1052.35,-417.72"/>
<text text-anchor="middle" x="988.13" y="-412.45" font-family="Times New Roman,serif" font-size="14.00">yes</text>
</g>
<!-- split20 -->
<g id="node21" class="node">
<title>split20</title>
<polygon fill="none" stroke="black" points="1185.75,-396 1058,-396 1058,-360 1185.75,-360 1185.75,-396"/>
<text text-anchor="start" x="1066" y="-373.95" font-family="Times New Roman,serif" font-weight="bold" font-size="14.00">生日</text>
<text text-anchor="start" x="1097.5" y="-373.95" font-family="Times New Roman,serif" font-size="14.00"> ≤</text>
<text text-anchor="start" x="1108.75" y="-373.95" font-family="Times New Roman,serif" font-weight="bold" font-size="14.00">1993&#45;09&#45;17</text>
</g>
<!-- split19&#45;&gt;split20 -->
<g id="edge19" class="edge">
<title>split19&#45;&gt;split20</title>
<path fill="none" stroke="black" d="M898.83,-396.67C942.62,-392.99 1001.01,-388.08 1046.93,-384.22"/>
<polygon fill="black" stroke="black" points="1047.05,-387.64 1056.72,-383.31 1046.46,-380.66 1047.05,-387.64"/>
<text text-anchor="middle" x="988.13" y="-391.45" font-family="Times New Roman,serif" font-size="14.00">no</text>
</g>
<!-- leaf20 -->
<g id="node22" class="node">
<title>leaf20</title>
<ellipse fill="none" stroke="black" cx="1339.63" cy="-378" rx="63.63" ry="18"/>
<text text-anchor="start" x="1301.01" y="-373.95" font-family="Times New Roman,serif" font-size="14.00">leaf 20: </text>
<text text-anchor="start" x="1344.51" y="-373.95" font-family="Times New Roman,serif" font-weight="bold" font-size="14.00">0.378</text>
</g>
<!-- split20&#45;&gt;leaf20 -->
<g id="edge17" class="edge">
<title>split20&#45;&gt;leaf20</title>
<path fill="none" stroke="black" d="M1186.15,-378C1210.85,-378 1239.33,-378 1264.95,-378"/>
<polygon fill="black" stroke="black" points="1264.73,-381.5 1274.73,-378 1264.73,-374.5 1264.73,-381.5"/>
<text text-anchor="middle" x="1255.62" y="-380.45" font-family="Times New Roman,serif" font-size="14.00">yes</text>
</g>
<!-- leaf21 -->
<g id="node23" class="node">
<title>leaf21</title>
<ellipse fill="none" stroke="black" cx="1339.63" cy="-338" rx="63.63" ry="18"/>
<text text-anchor="start" x="1301.01" y="-333.95" font-family="Times New Roman,serif" font-size="14.00">leaf 21: </text>
<text text-anchor="start" x="1344.51" y="-333.95" font-family="Times New Roman,serif" font-weight="bold" font-size="14.00">0.366</text>
</g>
<!-- split20&#45;&gt;leaf21 -->
<g id="edge18" class="edge">
<title>split20&#45;&gt;leaf21</title>
<path fill="none" stroke="black" d="M1186.15,-366.27C1214.16,-361.08 1247.03,-354.98 1275.07,-349.78"/>
<polygon fill="black" stroke="black" points="1275.36,-353.1 1284.56,-347.84 1274.09,-346.22 1275.36,-353.1"/>
<text text-anchor="middle" x="1255.62" y="-356.45" font-family="Times New Roman,serif" font-size="14.00">no</text>
</g>
<!-- split6 -->
<g id="node26" class="node">
<title>split6</title>
<polygon fill="none" stroke="black" points="639.88,-173 446.88,-173 446.88,-137 639.88,-137 639.88,-173"/>
<text text-anchor="start" x="454.88" y="-150.95" font-family="Times New Roman,serif" font-weight="bold" font-size="14.00">自媒互動程度</text>
<text text-anchor="start" x="549.38" y="-150.95" font-family="Times New Roman,serif" font-size="14.00"> =</text>
<text text-anchor="start" x="561.38" y="-150.95" font-family="Times New Roman,serif" font-weight="bold" font-size="14.00">3||5||7||11||12</text>
</g>
<!-- split5&#45;&gt;split6 -->
<g id="edge38" class="edge">
<title>split5&#45;&gt;split6</title>
<path fill="none" stroke="black" d="M385.75,-155C402.07,-155 419.13,-155 435.74,-155"/>
<polygon fill="black" stroke="black" points="435.58,-158.5 445.58,-155 435.58,-151.5 435.58,-158.5"/>
<text text-anchor="middle" x="405.88" y="-157.45" font-family="Times New Roman,serif" font-size="14.00">yes</text>
</g>
<!-- split14 -->
<g id="node41" class="node">
<title>split14</title>
<polygon fill="none" stroke="black" points="660.5,-126 426.25,-126 426.25,-90 660.5,-90 660.5,-126"/>
<text text-anchor="start" x="434.25" y="-103.95" font-family="Times New Roman,serif" font-weight="bold" font-size="14.00">第一次門市交易日(年)</text>
<text text-anchor="start" x="585" y="-103.95" font-family="Times New Roman,serif" font-size="14.00"> ≤</text>
<text text-anchor="start" x="596.25" y="-103.95" font-family="Times New Roman,serif" font-weight="bold" font-size="14.00">2015.500</text>
</g>
<!-- split5&#45;&gt;split14 -->
<g id="edge41" class="edge">
<title>split5&#45;&gt;split14</title>
<path fill="none" stroke="black" d="M385.75,-137.3C401.12,-134.42 417.16,-131.42 432.85,-128.49"/>
<polygon fill="black" stroke="black" points="433.46,-131.75 442.64,-126.47 432.17,-124.87 433.46,-131.75"/>
<text text-anchor="middle" x="405.88" y="-136.45" font-family="Times New Roman,serif" font-size="14.00">no</text>
</g>
<!-- split12 -->
<g id="node27" class="node">
<title>split12</title>
<polygon fill="none" stroke="black" points="967.75,-226 701.25,-226 701.25,-190 967.75,-190 967.75,-226"/>
<text text-anchor="start" x="709.25" y="-203.95" font-family="Times New Roman,serif" font-weight="bold" font-size="14.00">第一次POS綁約交易日期</text>
<text text-anchor="start" x="879.5" y="-203.95" font-family="Times New Roman,serif" font-size="14.00"> ≤</text>
<text text-anchor="start" x="890.75" y="-203.95" font-family="Times New Roman,serif" font-weight="bold" font-size="14.00">2013&#45;01&#45;24</text>
</g>
<!-- split6&#45;&gt;split12 -->
<g id="edge30" class="edge">
<title>split6&#45;&gt;split12</title>
<path fill="none" stroke="black" d="M640.25,-172.57C666.51,-177.39 695.21,-182.65 722.26,-187.61"/>
<polygon fill="black" stroke="black" points="721.46,-191.2 731.93,-189.56 722.73,-184.32 721.46,-191.2"/>
<text text-anchor="middle" x="680.88" y="-183.45" font-family="Times New Roman,serif" font-size="14.00">yes</text>
</g>
<!-- split10 -->
<g id="node34" class="node">
<title>split10</title>
<polygon fill="none" stroke="black" points="929.88,-166 739.13,-166 739.13,-130 929.88,-130 929.88,-166"/>
<text text-anchor="start" x="747.13" y="-143.95" font-family="Times New Roman,serif" font-weight="bold" font-size="14.00">手機驗證日期</text>
<text text-anchor="start" x="841.63" y="-143.95" font-family="Times New Roman,serif" font-size="14.00"> ≤</text>
<text text-anchor="start" x="852.88" y="-143.95" font-family="Times New Roman,serif" font-weight="bold" font-size="14.00">2010&#45;11&#45;17</text>
</g>
<!-- split6&#45;&gt;split10 -->
<g id="edge37" class="edge">
<title>split6&#45;&gt;split10</title>
<path fill="none" stroke="black" d="M640.25,-152.68C668.38,-152 699.3,-151.25 727.99,-150.55"/>
<polygon fill="black" stroke="black" points="727.96,-154.03 737.87,-150.29 727.79,-147.03 727.96,-154.03"/>
<text text-anchor="middle" x="680.88" y="-153.45" font-family="Times New Roman,serif" font-size="14.00">no</text>
</g>
<!-- split15 -->
<g id="node28" class="node">
<title>split15</title>
<polygon fill="none" stroke="black" points="1225.12,-276 1018.62,-276 1018.62,-240 1225.12,-240 1225.12,-276"/>
<text text-anchor="start" x="1026.62" y="-253.95" font-family="Times New Roman,serif" font-weight="bold" font-size="14.00">最近一次交易日</text>
<text text-anchor="start" x="1136.88" y="-253.95" font-family="Times New Roman,serif" font-size="14.00"> ≤</text>
<text text-anchor="start" x="1148.12" y="-253.95" font-family="Times New Roman,serif" font-weight="bold" font-size="14.00">2014&#45;12&#45;19</text>
</g>
<!-- split12&#45;&gt;split15 -->
<g id="edge26" class="edge">
<title>split12&#45;&gt;split15</title>
<path fill="none" stroke="black" d="M940.95,-226.48C962.65,-230.28 985.58,-234.29 1007.54,-238.14"/>
<polygon fill="black" stroke="black" points="1006.78,-241.74 1017.23,-240.02 1007.98,-234.84 1006.78,-241.74"/>
<text text-anchor="middle" x="988.13" y="-237.45" font-family="Times New Roman,serif" font-size="14.00">yes</text>
</g>
<!-- split16 -->
<g id="node31" class="node">
<title>split16</title>
<polygon fill="none" stroke="black" points="1217.25,-226 1026.5,-226 1026.5,-190 1217.25,-190 1217.25,-226"/>
<text text-anchor="start" x="1034.5" y="-203.95" font-family="Times New Roman,serif" font-weight="bold" font-size="14.00">手機驗證日期</text>
<text text-anchor="start" x="1129" y="-203.95" font-family="Times New Roman,serif" font-size="14.00"> ≤</text>
<text text-anchor="start" x="1140.25" y="-203.95" font-family="Times New Roman,serif" font-weight="bold" font-size="14.00">2013&#45;10&#45;30</text>
</g>
<!-- split12&#45;&gt;split16 -->
<g id="edge29" class="edge">
<title>split12&#45;&gt;split16</title>
<path fill="none" stroke="black" d="M968.16,-208C984.13,-208 1000.26,-208 1015.76,-208"/>
<polygon fill="black" stroke="black" points="1015.38,-211.5 1025.38,-208 1015.38,-204.5 1015.38,-211.5"/>
<text text-anchor="middle" x="988.13" y="-210.45" font-family="Times New Roman,serif" font-size="14.00">no</text>
</g>
<!-- leaf1 -->
<g id="node29" class="node">
<title>leaf1</title>
<ellipse fill="none" stroke="black" cx="1339.63" cy="-298" rx="59.03" ry="18"/>
<text text-anchor="start" x="1304.38" y="-293.95" font-family="Times New Roman,serif" font-size="14.00">leaf 1: </text>
<text text-anchor="start" x="1341.13" y="-293.95" font-family="Times New Roman,serif" font-weight="bold" font-size="14.00">0.383</text>
</g>
<!-- split15&#45;&gt;leaf1 -->
<g id="edge24" class="edge">
<title>split15&#45;&gt;leaf1</title>
<path fill="none" stroke="black" d="M1222.54,-276.48C1241.47,-279.99 1260.74,-283.56 1278,-286.76"/>
<polygon fill="black" stroke="black" points="1276.99,-290.32 1287.46,-288.7 1278.27,-283.43 1276.99,-290.32"/>
<text text-anchor="middle" x="1255.62" y="-285.45" font-family="Times New Roman,serif" font-size="14.00">yes</text>
</g>
<!-- leaf16 -->
<g id="node30" class="node">
<title>leaf16</title>
<ellipse fill="none" stroke="black" cx="1339.63" cy="-258" rx="63.63" ry="18"/>
<text text-anchor="start" x="1301.01" y="-253.95" font-family="Times New Roman,serif" font-size="14.00">leaf 16: </text>
<text text-anchor="start" x="1344.51" y="-253.95" font-family="Times New Roman,serif" font-weight="bold" font-size="14.00">0.390</text>
</g>
<!-- split15&#45;&gt;leaf16 -->
<g id="edge25" class="edge">
<title>split15&#45;&gt;leaf16</title>
<path fill="none" stroke="black" d="M1225.38,-258C1238.67,-258 1252.07,-258 1264.76,-258"/>
<polygon fill="black" stroke="black" points="1264.72,-261.5 1274.72,-258 1264.72,-254.5 1264.72,-261.5"/>
<text text-anchor="middle" x="1255.62" y="-260.45" font-family="Times New Roman,serif" font-size="14.00">no</text>
</g>
<!-- leaf13 -->
<g id="node32" class="node">
<title>leaf13</title>
<ellipse fill="none" stroke="black" cx="1339.63" cy="-218" rx="63.63" ry="18"/>
<text text-anchor="start" x="1301.01" y="-213.95" font-family="Times New Roman,serif" font-size="14.00">leaf 13: </text>
<text text-anchor="start" x="1344.51" y="-213.95" font-family="Times New Roman,serif" font-weight="bold" font-size="14.00">0.374</text>
</g>
<!-- split16&#45;&gt;leaf13 -->
<g id="edge27" class="edge">
<title>split16&#45;&gt;leaf13</title>
<path fill="none" stroke="black" d="M1217.51,-212.39C1233.7,-213.14 1250.3,-213.91 1265.81,-214.62"/>
<polygon fill="black" stroke="black" points="1265.2,-218.15 1275.35,-215.11 1265.53,-211.15 1265.2,-218.15"/>
<text text-anchor="middle" x="1255.62" y="-216.45" font-family="Times New Roman,serif" font-size="14.00">yes</text>
</g>
<!-- leaf17 -->
<g id="node33" class="node">
<title>leaf17</title>
<ellipse fill="none" stroke="black" cx="1339.63" cy="-178" rx="63.63" ry="18"/>
<text text-anchor="start" x="1301.01" y="-173.95" font-family="Times New Roman,serif" font-size="14.00">leaf 17: </text>
<text text-anchor="start" x="1344.51" y="-173.95" font-family="Times New Roman,serif" font-weight="bold" font-size="14.00">0.382</text>
</g>
<!-- split16&#45;&gt;leaf17 -->
<g id="edge28" class="edge">
<title>split16&#45;&gt;leaf17</title>
<path fill="none" stroke="black" d="M1217.51,-194.84C1235.7,-192.31 1254.4,-189.71 1271.5,-187.33"/>
<polygon fill="black" stroke="black" points="1271.5,-190.73 1280.92,-185.89 1270.54,-183.8 1271.5,-190.73"/>
<text text-anchor="middle" x="1255.62" y="-192.45" font-family="Times New Roman,serif" font-size="14.00">no</text>
</g>
<!-- split17 -->
<g id="node35" class="node">
<title>split17</title>
<polygon fill="none" stroke="black" points="1171.88,-156 1071.88,-156 1071.88,-120 1171.88,-120 1171.88,-156"/>
<text text-anchor="start" x="1079.88" y="-133.95" font-family="Times New Roman,serif" font-weight="bold" font-size="14.00">年齡</text>
<text text-anchor="start" x="1111.38" y="-133.95" font-family="Times New Roman,serif" font-size="14.00"> ≤</text>
<text text-anchor="start" x="1122.62" y="-133.95" font-family="Times New Roman,serif" font-weight="bold" font-size="14.00">38.500</text>
</g>
<!-- split10&#45;&gt;split17 -->
<g id="edge33" class="edge">
<title>split10&#45;&gt;split17</title>
<path fill="none" stroke="black" d="M930.13,-144.68C973.25,-143.17 1023,-141.43 1060.88,-140.1"/>
<polygon fill="black" stroke="black" points="1060.86,-143.57 1070.73,-139.72 1060.61,-136.57 1060.86,-143.57"/>
<text text-anchor="middle" x="988.13" y="-144.45" font-family="Times New Roman,serif" font-size="14.00">yes</text>
</g>
<!-- split11 -->
<g id="node38" class="node">
<title>split11</title>
<polygon fill="none" stroke="black" points="1217.25,-76 1026.5,-76 1026.5,-40 1217.25,-40 1217.25,-76"/>
<text text-anchor="start" x="1034.5" y="-53.95" font-family="Times New Roman,serif" font-weight="bold" font-size="14.00">第一次交易日</text>
<text text-anchor="start" x="1129" y="-53.95" font-family="Times New Roman,serif" font-size="14.00"> ≤</text>
<text text-anchor="start" x="1140.25" y="-53.95" font-family="Times New Roman,serif" font-weight="bold" font-size="14.00">2016&#45;02&#45;15</text>
</g>
<!-- split10&#45;&gt;split11 -->
<g id="edge36" class="edge">
<title>split10&#45;&gt;split11</title>
<path fill="none" stroke="black" d="M930.09,-135.27C942.87,-132.68 955.71,-129.61 967.75,-126 1005.67,-114.63 1046.56,-96.12 1076.53,-81.29"/>
<polygon fill="black" stroke="black" points="1077.89,-84.02 1085.26,-76.41 1074.75,-77.76 1077.89,-84.02"/>
<text text-anchor="middle" x="988.13" y="-123.45" font-family="Times New Roman,serif" font-size="14.00">no</text>
</g>
<!-- leaf7 -->
<g id="node36" class="node">
<title>leaf7</title>
<ellipse fill="none" stroke="black" cx="1339.63" cy="-138" rx="59.03" ry="18"/>
<text text-anchor="start" x="1304.38" y="-133.95" font-family="Times New Roman,serif" font-size="14.00">leaf 7: </text>
<text text-anchor="start" x="1341.13" y="-133.95" font-family="Times New Roman,serif" font-weight="bold" font-size="14.00">0.394</text>
</g>
<!-- split17&#45;&gt;leaf7 -->
<g id="edge31" class="edge">
<title>split17&#45;&gt;leaf7</title>
<path fill="none" stroke="black" d="M1172.37,-138C1201.09,-138 1237.7,-138 1269.25,-138"/>
<polygon fill="black" stroke="black" points="1269.18,-141.5 1279.18,-138 1269.18,-134.5 1269.18,-141.5"/>
<text text-anchor="middle" x="1255.62" y="-140.45" font-family="Times New Roman,serif" font-size="14.00">yes</text>
</g>
<!-- leaf18 -->
<g id="node37" class="node">
<title>leaf18</title>
<ellipse fill="none" stroke="black" cx="1339.63" cy="-98" rx="63.63" ry="18"/>
<text text-anchor="start" x="1301.01" y="-93.95" font-family="Times New Roman,serif" font-size="14.00">leaf 18: </text>
<text text-anchor="start" x="1344.51" y="-93.95" font-family="Times New Roman,serif" font-weight="bold" font-size="14.00">0.398</text>
</g>
<!-- split17&#45;&gt;leaf18 -->
<g id="edge32" class="edge">
<title>split17&#45;&gt;leaf18</title>
<path fill="none" stroke="black" d="M1172.37,-128.82C1202.91,-123.16 1242.38,-115.85 1275.19,-109.76"/>
<polygon fill="black" stroke="black" points="1275.4,-113.1 1284.59,-107.83 1274.12,-106.21 1275.4,-113.1"/>
<text text-anchor="middle" x="1255.62" y="-116.45" font-family="Times New Roman,serif" font-size="14.00">no</text>
</g>
<!-- leaf11 -->
<g id="node39" class="node">
<title>leaf11</title>
<ellipse fill="none" stroke="black" cx="1339.63" cy="-58" rx="63.63" ry="18"/>
<text text-anchor="start" x="1301.01" y="-53.95" font-family="Times New Roman,serif" font-size="14.00">leaf 11: </text>
<text text-anchor="start" x="1344.51" y="-53.95" font-family="Times New Roman,serif" font-weight="bold" font-size="14.00">0.393</text>
</g>
<!-- split11&#45;&gt;leaf11 -->
<g id="edge34" class="edge">
<title>split11&#45;&gt;leaf11</title>
<path fill="none" stroke="black" d="M1217.51,-58C1233.36,-58 1249.6,-58 1264.84,-58"/>
<polygon fill="black" stroke="black" points="1264.73,-61.5 1274.73,-58 1264.73,-54.5 1264.73,-61.5"/>
<text text-anchor="middle" x="1255.62" y="-60.45" font-family="Times New Roman,serif" font-size="14.00">yes</text>
</g>
<!-- leaf12 -->
<g id="node40" class="node">
<title>leaf12</title>
<ellipse fill="none" stroke="black" cx="1339.63" cy="-18" rx="63.63" ry="18"/>
<text text-anchor="start" x="1301.01" y="-13.95" font-family="Times New Roman,serif" font-size="14.00">leaf 12: </text>
<text text-anchor="start" x="1344.51" y="-13.95" font-family="Times New Roman,serif" font-weight="bold" font-size="14.00">0.397</text>
</g>
<!-- split11&#45;&gt;leaf12 -->
<g id="edge35" class="edge">
<title>split11&#45;&gt;leaf12</title>
<path fill="none" stroke="black" d="M1217.51,-40.46C1236.92,-36.86 1256.9,-33.15 1274.91,-29.81"/>
<polygon fill="black" stroke="black" points="1275.36,-33.11 1284.55,-27.84 1274.08,-26.22 1275.36,-33.11"/>
<text text-anchor="middle" x="1255.62" y="-37.45" font-family="Times New Roman,serif" font-size="14.00">no</text>
</g>
<!-- leaf6 -->
<g id="node42" class="node">
<title>leaf6</title>
<ellipse fill="none" stroke="black" cx="834.5" cy="-108" rx="59.03" ry="18"/>
<text text-anchor="start" x="799.25" y="-103.95" font-family="Times New Roman,serif" font-size="14.00">leaf 6: </text>
<text text-anchor="start" x="836" y="-103.95" font-family="Times New Roman,serif" font-weight="bold" font-size="14.00">0.392</text>
</g>
<!-- split14&#45;&gt;leaf6 -->
<g id="edge39" class="edge">
<title>split14&#45;&gt;leaf6</title>
<path fill="none" stroke="black" d="M660.72,-108C695.96,-108 733.51,-108 764.58,-108"/>
<polygon fill="black" stroke="black" points="764.29,-111.5 774.29,-108 764.29,-104.5 764.29,-111.5"/>
<text text-anchor="middle" x="680.88" y="-110.45" font-family="Times New Roman,serif" font-size="14.00">yes</text>
</g>
<!-- leaf15 -->
<g id="node43" class="node">
<title>leaf15</title>
<ellipse fill="none" stroke="black" cx="834.5" cy="-68" rx="63.63" ry="18"/>
<text text-anchor="start" x="795.88" y="-63.95" font-family="Times New Roman,serif" font-size="14.00">leaf 15: </text>
<text text-anchor="start" x="839.38" y="-63.95" font-family="Times New Roman,serif" font-weight="bold" font-size="14.00">0.399</text>
</g>
<!-- split14&#45;&gt;leaf15 -->
<g id="edge40" class="edge">
<title>split14&#45;&gt;leaf15</title>
<path fill="none" stroke="black" d="M660.72,-91.9C696.52,-86.95 734.71,-81.67 766.06,-77.33"/>
<polygon fill="black" stroke="black" points="766.42,-80.67 775.85,-75.84 765.47,-73.74 766.42,-80.67"/>
<text text-anchor="middle" x="680.88" y="-93.45" font-family="Times New Roman,serif" font-size="14.00">no</text>
</g>
</g>
</svg>
