<?xml version="1.0" encoding="UTF-8" standalone="no"?>
<!DOCTYPE svg PUBLIC "-//W3C//DTD SVG 1.1//EN"
 "http://www.w3.org/Graphics/SVG/1.1/DTD/svg11.dtd">
<!-- Generated by graphviz version 8.0.5 (20230430.1635)
 -->
<!-- Pages: 1 -->
<svg width="1396pt" height="774pt"
 viewBox="0.00 0.00 1396.27 774.00" xmlns="http://www.w3.org/2000/svg" xmlns:xlink="http://www.w3.org/1999/xlink">
<g id="graph0" class="graph" transform="scale(1 1) rotate(0) translate(4 770)">
<polygon fill="white" stroke="none" points="-4,4 -4,-770 1392.27,-770 1392.27,4 -4,4"/>
<!-- split0 -->
<g id="node1" class="node">
<title>split0</title>
<polygon fill="none" stroke="black" points="190.75,-214 0,-214 0,-178 190.75,-178 190.75,-214"/>
<text text-anchor="start" x="8" y="-191.95" font-family="Times New Roman,serif" font-weight="bold" font-size="14.00">手機驗證日期</text>
<text text-anchor="start" x="102.5" y="-191.95" font-family="Times New Roman,serif" font-size="14.00"> ≤</text>
<text text-anchor="start" x="113.75" y="-191.95" font-family="Times New Roman,serif" font-weight="bold" font-size="14.00">2017&#45;01&#45;04</text>
</g>
<!-- split1 -->
<g id="node2" class="node">
<title>split1</title>
<polygon fill="none" stroke="black" points="397.88,-303 267.88,-303 267.88,-267 397.88,-267 397.88,-303"/>
<text text-anchor="start" x="275.88" y="-280.95" font-family="Times New Roman,serif" font-weight="bold" font-size="14.00">自媒互動程度</text>
<text text-anchor="start" x="370.38" y="-280.95" font-family="Times New Roman,serif" font-size="14.00"> =</text>
<text text-anchor="start" x="382.38" y="-280.95" font-family="Times New Roman,serif" font-weight="bold" font-size="14.00">2</text>
</g>
<!-- split0&#45;&gt;split1 -->
<g id="edge31" class="edge">
<title>split0&#45;&gt;split1</title>
<path fill="none" stroke="black" d="M145.17,-214.44C182.27,-228.46 233.48,-247.81 272.88,-262.7"/>
<polygon fill="black" stroke="black" points="271.55,-266.32 282.14,-266.58 274.02,-259.77 271.55,-266.32"/>
<text text-anchor="middle" x="211.12" y="-242.45" font-family="Times New Roman,serif" font-size="14.00">yes</text>
</g>
<!-- split5 -->
<g id="node33" class="node">
<title>split5</title>
<polygon fill="none" stroke="black" points="434.25,-162 231.5,-162 231.5,-126 434.25,-126 434.25,-162"/>
<text text-anchor="start" x="239.5" y="-139.95" font-family="Times New Roman,serif" font-weight="bold" font-size="14.00">第一次交易日(年)</text>
<text text-anchor="start" x="358.75" y="-139.95" font-family="Times New Roman,serif" font-size="14.00"> ≤</text>
<text text-anchor="start" x="370" y="-139.95" font-family="Times New Roman,serif" font-weight="bold" font-size="14.00">2015.500</text>
</g>
<!-- split0&#45;&gt;split5 -->
<g id="edge42" class="edge">
<title>split0&#45;&gt;split5</title>
<path fill="none" stroke="black" d="M180.07,-177.52C198.81,-173.38 218.81,-168.97 237.93,-164.74"/>
<polygon fill="black" stroke="black" points="238.44,-167.99 247.45,-162.42 236.93,-161.16 238.44,-167.99"/>
<text text-anchor="middle" x="211.12" y="-173.45" font-family="Times New Roman,serif" font-size="14.00">no</text>
</g>
<!-- split2 -->
<g id="node3" class="node">
<title>split2</title>
<polygon fill="none" stroke="black" points="665.75,-546 475,-546 475,-510 665.75,-510 665.75,-546"/>
<text text-anchor="start" x="483" y="-523.95" font-family="Times New Roman,serif" font-weight="bold" font-size="14.00">第一次交易日</text>
<text text-anchor="start" x="577.5" y="-523.95" font-family="Times New Roman,serif" font-size="14.00"> ≤</text>
<text text-anchor="start" x="588.75" y="-523.95" font-family="Times New Roman,serif" font-weight="bold" font-size="14.00">2016&#45;03&#45;26</text>
</g>
<!-- split1&#45;&gt;split2 -->
<g id="edge15" class="edge">
<title>split1&#45;&gt;split2</title>
<path fill="none" stroke="black" d="M351.58,-303.26C392.92,-345.92 495.95,-452.23 543.98,-501.79"/>
<polygon fill="black" stroke="black" points="541,-503.78 550.47,-508.52 546.02,-498.91 541,-503.78"/>
<text text-anchor="middle" x="454.63" y="-415.45" font-family="Times New Roman,serif" font-size="14.00">yes</text>
</g>
<!-- split4 -->
<g id="node18" class="node">
<title>split4</title>
<polygon fill="none" stroke="black" points="665.75,-303 475,-303 475,-267 665.75,-267 665.75,-303"/>
<text text-anchor="start" x="483" y="-280.95" font-family="Times New Roman,serif" font-weight="bold" font-size="14.00">第一次交易日</text>
<text text-anchor="start" x="577.5" y="-280.95" font-family="Times New Roman,serif" font-size="14.00"> ≤</text>
<text text-anchor="start" x="588.75" y="-280.95" font-family="Times New Roman,serif" font-weight="bold" font-size="14.00">2016&#45;02&#45;15</text>
</g>
<!-- split1&#45;&gt;split4 -->
<g id="edge30" class="edge">
<title>split1&#45;&gt;split4</title>
<path fill="none" stroke="black" d="M398.23,-285C418.47,-285 441.39,-285 463.73,-285"/>
<polygon fill="black" stroke="black" points="463.63,-288.5 473.63,-285 463.63,-281.5 463.63,-288.5"/>
<text text-anchor="middle" x="454.63" y="-287.45" font-family="Times New Roman,serif" font-size="14.00">no</text>
</g>
<!-- split6 -->
<g id="node4" class="node">
<title>split6</title>
<polygon fill="none" stroke="black" points="897.25,-660 706.5,-660 706.5,-624 897.25,-624 897.25,-660"/>
<text text-anchor="start" x="714.5" y="-637.95" font-family="Times New Roman,serif" font-weight="bold" font-size="14.00">第一次交易日</text>
<text text-anchor="start" x="809" y="-637.95" font-family="Times New Roman,serif" font-size="14.00"> ≤</text>
<text text-anchor="start" x="820.25" y="-637.95" font-family="Times New Roman,serif" font-weight="bold" font-size="14.00">2010&#45;11&#45;04</text>
</g>
<!-- split2&#45;&gt;split6 -->
<g id="edge7" class="edge">
<title>split2&#45;&gt;split6</title>
<path fill="none" stroke="black" d="M608.5,-546.44C648.17,-566.14 711.12,-597.42 754.13,-618.78"/>
<polygon fill="black" stroke="black" points="752.29,-622.27 762.8,-623.58 755.4,-616 752.29,-622.27"/>
<text text-anchor="middle" x="686.13" y="-590.45" font-family="Times New Roman,serif" font-size="14.00">yes</text>
</g>
<!-- split3 -->
<g id="node11" class="node">
<title>split3</title>
<polygon fill="none" stroke="black" points="897.25,-546 706.5,-546 706.5,-510 897.25,-510 897.25,-546"/>
<text text-anchor="start" x="714.5" y="-523.95" font-family="Times New Roman,serif" font-weight="bold" font-size="14.00">手機驗證日期</text>
<text text-anchor="start" x="809" y="-523.95" font-family="Times New Roman,serif" font-size="14.00"> ≤</text>
<text text-anchor="start" x="820.25" y="-523.95" font-family="Times New Roman,serif" font-weight="bold" font-size="14.00">2016&#45;03&#45;22</text>
</g>
<!-- split2&#45;&gt;split3 -->
<g id="edge14" class="edge">
<title>split2&#45;&gt;split3</title>
<path fill="none" stroke="black" d="M666.05,-528C675.65,-528 685.44,-528 695.14,-528"/>
<polygon fill="black" stroke="black" points="695.05,-531.5 705.05,-528 695.05,-524.5 695.05,-531.5"/>
<text text-anchor="middle" x="686.13" y="-530.45" font-family="Times New Roman,serif" font-size="14.00">no</text>
</g>
<!-- split7 -->
<g id="node5" class="node">
<title>split7</title>
<polygon fill="none" stroke="black" points="1174.5,-726 983.75,-726 983.75,-690 1174.5,-690 1174.5,-726"/>
<text text-anchor="start" x="991.75" y="-703.95" font-family="Times New Roman,serif" font-weight="bold" font-size="14.00">手機驗證日期</text>
<text text-anchor="start" x="1086.25" y="-703.95" font-family="Times New Roman,serif" font-size="14.00"> ≤</text>
<text text-anchor="start" x="1097.5" y="-703.95" font-family="Times New Roman,serif" font-weight="bold" font-size="14.00">2016&#45;03&#45;22</text>
</g>
<!-- split6&#45;&gt;split7 -->
<g id="edge3" class="edge">
<title>split6&#45;&gt;split7</title>
<path fill="none" stroke="black" d="M879.91,-660.47C914.36,-668.73 955.14,-678.51 990.73,-687.04"/>
<polygon fill="black" stroke="black" points="989.56,-690.6 1000.11,-689.53 991.2,-683.8 989.56,-690.6"/>
<text text-anchor="middle" x="917.63" y="-673.45" font-family="Times New Roman,serif" font-size="14.00">yes</text>
</g>
<!-- split8 -->
<g id="node8" class="node">
<title>split8</title>
<polygon fill="none" stroke="black" points="1159.12,-660 999.12,-660 999.12,-624 1159.12,-624 1159.12,-660"/>
<text text-anchor="start" x="1007.12" y="-637.95" font-family="Times New Roman,serif" font-weight="bold" font-size="14.00">是否Email驗證</text>
<text text-anchor="start" x="1106.12" y="-637.95" font-family="Times New Roman,serif" font-size="14.00"> ≤</text>
<text text-anchor="start" x="1117.38" y="-637.95" font-family="Times New Roman,serif" font-weight="bold" font-size="14.00">0.000</text>
</g>
<!-- split6&#45;&gt;split8 -->
<g id="edge6" class="edge">
<title>split6&#45;&gt;split8</title>
<path fill="none" stroke="black" d="M897.6,-642C926.83,-642 958.94,-642 987.86,-642"/>
<polygon fill="black" stroke="black" points="987.78,-645.5 997.78,-642 987.78,-638.5 987.78,-645.5"/>
<text text-anchor="middle" x="917.63" y="-644.45" font-family="Times New Roman,serif" font-size="14.00">no</text>
</g>
<!-- leaf0 -->
<g id="node6" class="node">
<title>leaf0</title>
<ellipse fill="none" stroke="black" cx="1324.63" cy="-748" rx="59.03" ry="18"/>
<text text-anchor="start" x="1289.38" y="-743.95" font-family="Times New Roman,serif" font-size="14.00">leaf 0: </text>
<text text-anchor="start" x="1326.13" y="-743.95" font-family="Times New Roman,serif" font-weight="bold" font-size="14.00">0.978</text>
</g>
<!-- split7&#45;&gt;leaf0 -->
<g id="edge1" class="edge">
<title>split7&#45;&gt;leaf0</title>
<path fill="none" stroke="black" d="M1174.97,-723.58C1203.96,-728.34 1235.09,-733.46 1261.34,-737.77"/>
<polygon fill="black" stroke="black" points="1260.46,-741.33 1270.89,-739.5 1261.59,-734.43 1260.46,-741.33"/>
<text text-anchor="middle" x="1240.62" y="-737.45" font-family="Times New Roman,serif" font-size="14.00">yes</text>
</g>
<!-- leaf8 -->
<g id="node7" class="node">
<title>leaf8</title>
<ellipse fill="none" stroke="black" cx="1324.63" cy="-708" rx="59.03" ry="18"/>
<text text-anchor="start" x="1289.38" y="-703.95" font-family="Times New Roman,serif" font-size="14.00">leaf 8: </text>
<text text-anchor="start" x="1326.13" y="-703.95" font-family="Times New Roman,serif" font-weight="bold" font-size="14.00">1.117</text>
</g>
<!-- split7&#45;&gt;leaf8 -->
<g id="edge2" class="edge">
<title>split7&#45;&gt;leaf8</title>
<path fill="none" stroke="black" d="M1174.97,-708C1201.49,-708 1229.81,-708 1254.54,-708"/>
<polygon fill="black" stroke="black" points="1254.26,-711.5 1264.26,-708 1254.26,-704.5 1254.26,-711.5"/>
<text text-anchor="middle" x="1240.62" y="-710.45" font-family="Times New Roman,serif" font-size="14.00">no</text>
</g>
<!-- leaf7 -->
<g id="node9" class="node">
<title>leaf7</title>
<ellipse fill="none" stroke="black" cx="1324.63" cy="-668" rx="59.03" ry="18"/>
<text text-anchor="start" x="1289.38" y="-663.95" font-family="Times New Roman,serif" font-size="14.00">leaf 7: </text>
<text text-anchor="start" x="1326.13" y="-663.95" font-family="Times New Roman,serif" font-weight="bold" font-size="14.00">0.954</text>
</g>
<!-- split8&#45;&gt;leaf7 -->
<g id="edge4" class="edge">
<title>split8&#45;&gt;leaf7</title>
<path fill="none" stroke="black" d="M1159.52,-650.48C1191.29,-653.87 1227.45,-657.73 1257.73,-660.96"/>
<polygon fill="black" stroke="black" points="1257.29,-664.54 1267.6,-662.12 1258.03,-657.58 1257.29,-664.54"/>
<text text-anchor="middle" x="1240.62" y="-661.45" font-family="Times New Roman,serif" font-size="14.00">yes</text>
</g>
<!-- leaf9 -->
<g id="node10" class="node">
<title>leaf9</title>
<ellipse fill="none" stroke="black" cx="1324.63" cy="-628" rx="59.03" ry="18"/>
<text text-anchor="start" x="1289.38" y="-623.95" font-family="Times New Roman,serif" font-size="14.00">leaf 9: </text>
<text text-anchor="start" x="1326.13" y="-623.95" font-family="Times New Roman,serif" font-weight="bold" font-size="14.00">1.031</text>
</g>
<!-- split8&#45;&gt;leaf9 -->
<g id="edge5" class="edge">
<title>split8&#45;&gt;leaf9</title>
<path fill="none" stroke="black" d="M1159.52,-637.44C1190.55,-635.65 1225.77,-633.63 1255.6,-631.91"/>
<polygon fill="black" stroke="black" points="1255.55,-635.36 1265.33,-631.29 1255.15,-628.37 1255.55,-635.36"/>
<text text-anchor="middle" x="1240.62" y="-634.45" font-family="Times New Roman,serif" font-size="14.00">no</text>
</g>
<!-- split14 -->
<g id="node12" class="node">
<title>split14</title>
<polygon fill="none" stroke="black" points="1190.25,-566 968,-566 968,-530 1190.25,-530 1190.25,-566"/>
<text text-anchor="start" x="976" y="-543.95" font-family="Times New Roman,serif" font-weight="bold" font-size="14.00">第一次門市交易日</text>
<text text-anchor="start" x="1102" y="-543.95" font-family="Times New Roman,serif" font-size="14.00"> ≤</text>
<text text-anchor="start" x="1113.25" y="-543.95" font-family="Times New Roman,serif" font-weight="bold" font-size="14.00">2020&#45;12&#45;05</text>
</g>
<!-- split3&#45;&gt;split14 -->
<g id="edge10" class="edge">
<title>split3&#45;&gt;split14</title>
<path fill="none" stroke="black" d="M897.6,-534.88C916.63,-536.27 936.87,-537.74 956.66,-539.17"/>
<polygon fill="black" stroke="black" points="956.36,-542.73 966.59,-539.97 956.87,-535.75 956.36,-542.73"/>
<text text-anchor="middle" x="917.63" y="-538.45" font-family="Times New Roman,serif" font-size="14.00">yes</text>
</g>
<!-- split12 -->
<g id="node15" class="node">
<title>split12</title>
<polygon fill="none" stroke="black" points="1174.5,-526 983.75,-526 983.75,-490 1174.5,-490 1174.5,-526"/>
<text text-anchor="start" x="991.75" y="-503.95" font-family="Times New Roman,serif" font-weight="bold" font-size="14.00">手機驗證日期</text>
<text text-anchor="start" x="1086.25" y="-503.95" font-family="Times New Roman,serif" font-size="14.00"> ≤</text>
<text text-anchor="start" x="1097.5" y="-503.95" font-family="Times New Roman,serif" font-weight="bold" font-size="14.00">2016&#45;06&#45;20</text>
</g>
<!-- split3&#45;&gt;split12 -->
<g id="edge13" class="edge">
<title>split3&#45;&gt;split12</title>
<path fill="none" stroke="black" d="M897.65,-520.05C901.23,-519.78 904.77,-519.51 908.25,-519.25 929.05,-517.7 951.3,-516.15 972.6,-514.71"/>
<polygon fill="black" stroke="black" points="972.57,-518.16 982.31,-514 972.1,-511.17 972.57,-518.16"/>
<text text-anchor="middle" x="917.63" y="-521.45" font-family="Times New Roman,serif" font-size="14.00">no</text>
</g>
<!-- leaf3 -->
<g id="node13" class="node">
<title>leaf3</title>
<ellipse fill="none" stroke="black" cx="1324.63" cy="-588" rx="59.03" ry="18"/>
<text text-anchor="start" x="1289.38" y="-583.95" font-family="Times New Roman,serif" font-size="14.00">leaf 3: </text>
<text text-anchor="start" x="1326.13" y="-583.95" font-family="Times New Roman,serif" font-weight="bold" font-size="14.00">0.969</text>
</g>
<!-- split14&#45;&gt;leaf3 -->
<g id="edge8" class="edge">
<title>split14&#45;&gt;leaf3</title>
<path fill="none" stroke="black" d="M1190.48,-566.13C1214.81,-570.12 1239.75,-574.22 1261.37,-577.77"/>
<polygon fill="black" stroke="black" points="1260.59,-581.36 1271.03,-579.52 1261.73,-574.45 1260.59,-581.36"/>
<text text-anchor="middle" x="1240.62" y="-577.45" font-family="Times New Roman,serif" font-size="14.00">yes</text>
</g>
<!-- leaf15 -->
<g id="node14" class="node">
<title>leaf15</title>
<ellipse fill="none" stroke="black" cx="1324.63" cy="-548" rx="63.63" ry="18"/>
<text text-anchor="start" x="1286.01" y="-543.95" font-family="Times New Roman,serif" font-size="14.00">leaf 15: </text>
<text text-anchor="start" x="1329.51" y="-543.95" font-family="Times New Roman,serif" font-weight="bold" font-size="14.00">1.033</text>
</g>
<!-- split14&#45;&gt;leaf15 -->
<g id="edge9" class="edge">
<title>split14&#45;&gt;leaf15</title>
<path fill="none" stroke="black" d="M1190.48,-548C1210.57,-548 1231.08,-548 1249.79,-548"/>
<polygon fill="black" stroke="black" points="1249.59,-551.5 1259.59,-548 1249.59,-544.5 1249.59,-551.5"/>
<text text-anchor="middle" x="1240.62" y="-550.45" font-family="Times New Roman,serif" font-size="14.00">no</text>
</g>
<!-- leaf4 -->
<g id="node16" class="node">
<title>leaf4</title>
<ellipse fill="none" stroke="black" cx="1324.63" cy="-508" rx="59.03" ry="18"/>
<text text-anchor="start" x="1289.38" y="-503.95" font-family="Times New Roman,serif" font-size="14.00">leaf 4: </text>
<text text-anchor="start" x="1326.13" y="-503.95" font-family="Times New Roman,serif" font-weight="bold" font-size="14.00">1.085</text>
</g>
<!-- split12&#45;&gt;leaf4 -->
<g id="edge11" class="edge">
<title>split12&#45;&gt;leaf4</title>
<path fill="none" stroke="black" d="M1174.97,-508C1201.49,-508 1229.81,-508 1254.54,-508"/>
<polygon fill="black" stroke="black" points="1254.26,-511.5 1264.26,-508 1254.26,-504.5 1254.26,-511.5"/>
<text text-anchor="middle" x="1240.62" y="-510.45" font-family="Times New Roman,serif" font-size="14.00">yes</text>
</g>
<!-- leaf13 -->
<g id="node17" class="node">
<title>leaf13</title>
<ellipse fill="none" stroke="black" cx="1324.63" cy="-468" rx="63.63" ry="18"/>
<text text-anchor="start" x="1286.01" y="-463.95" font-family="Times New Roman,serif" font-size="14.00">leaf 13: </text>
<text text-anchor="start" x="1329.51" y="-463.95" font-family="Times New Roman,serif" font-weight="bold" font-size="14.00">1.141</text>
</g>
<!-- split12&#45;&gt;leaf13 -->
<g id="edge12" class="edge">
<title>split12&#45;&gt;leaf13</title>
<path fill="none" stroke="black" d="M1174.97,-492.42C1202.78,-487.85 1232.56,-482.96 1258.11,-478.76"/>
<polygon fill="black" stroke="black" points="1258.48,-482.08 1267.78,-477.01 1257.35,-475.18 1258.48,-482.08"/>
<text text-anchor="middle" x="1240.62" y="-484.45" font-family="Times New Roman,serif" font-size="14.00">no</text>
</g>
<!-- split9 -->
<g id="node19" class="node">
<title>split9</title>
<polygon fill="none" stroke="black" points="881.88,-340 721.88,-340 721.88,-304 881.88,-304 881.88,-340"/>
<text text-anchor="start" x="729.88" y="-317.95" font-family="Times New Roman,serif" font-weight="bold" font-size="14.00">是否Email驗證</text>
<text text-anchor="start" x="828.88" y="-317.95" font-family="Times New Roman,serif" font-size="14.00"> ≤</text>
<text text-anchor="start" x="840.13" y="-317.95" font-family="Times New Roman,serif" font-weight="bold" font-size="14.00">0.000</text>
</g>
<!-- split4&#45;&gt;split9 -->
<g id="edge22" class="edge">
<title>split4&#45;&gt;split9</title>
<path fill="none" stroke="black" d="M666.05,-300.26C680.85,-302.65 696.12,-305.11 710.81,-307.48"/>
<polygon fill="black" stroke="black" points="709.97,-311.05 720.4,-309.19 711.08,-304.14 709.97,-311.05"/>
<text text-anchor="middle" x="686.13" y="-306.45" font-family="Times New Roman,serif" font-size="14.00">yes</text>
</g>
<!-- split11 -->
<g id="node26" class="node">
<title>split11</title>
<polygon fill="none" stroke="black" points="897.25,-276 706.5,-276 706.5,-240 897.25,-240 897.25,-276"/>
<text text-anchor="start" x="714.5" y="-253.95" font-family="Times New Roman,serif" font-weight="bold" font-size="14.00">手機驗證日期</text>
<text text-anchor="start" x="809" y="-253.95" font-family="Times New Roman,serif" font-size="14.00"> ≤</text>
<text text-anchor="start" x="820.25" y="-253.95" font-family="Times New Roman,serif" font-weight="bold" font-size="14.00">2016&#45;01&#45;25</text>
</g>
<!-- split4&#45;&gt;split11 -->
<g id="edge29" class="edge">
<title>split4&#45;&gt;split11</title>
<path fill="none" stroke="black" d="M666.05,-273.86C675.65,-272.73 685.44,-271.58 695.14,-270.44"/>
<polygon fill="black" stroke="black" points="695.53,-273.8 705.05,-269.16 694.71,-266.85 695.53,-273.8"/>
<text text-anchor="middle" x="686.13" y="-274.45" font-family="Times New Roman,serif" font-size="14.00">no</text>
</g>
<!-- split10 -->
<g id="node20" class="node">
<title>split10</title>
<polygon fill="none" stroke="black" points="1174.5,-406 983.75,-406 983.75,-370 1174.5,-370 1174.5,-406"/>
<text text-anchor="start" x="991.75" y="-383.95" font-family="Times New Roman,serif" font-weight="bold" font-size="14.00">第一次交易日</text>
<text text-anchor="start" x="1086.25" y="-383.95" font-family="Times New Roman,serif" font-size="14.00"> ≤</text>
<text text-anchor="start" x="1097.5" y="-383.95" font-family="Times New Roman,serif" font-weight="bold" font-size="14.00">2013&#45;01&#45;17</text>
</g>
<!-- split9&#45;&gt;split10 -->
<g id="edge18" class="edge">
<title>split9&#45;&gt;split10</title>
<path fill="none" stroke="black" d="M879.91,-340.47C914.36,-348.73 955.14,-358.51 990.73,-367.04"/>
<polygon fill="black" stroke="black" points="989.56,-370.6 1000.11,-369.53 991.2,-363.8 989.56,-370.6"/>
<text text-anchor="middle" x="917.63" y="-353.45" font-family="Times New Roman,serif" font-size="14.00">yes</text>
</g>
<!-- split19 -->
<g id="node23" class="node">
<title>split19</title>
<polygon fill="none" stroke="black" points="1188.38,-340 969.88,-340 969.88,-304 1188.38,-304 1188.38,-340"/>
<text text-anchor="start" x="977.88" y="-317.95" font-family="Times New Roman,serif" font-weight="bold" font-size="14.00">最近一次交易日(年)</text>
<text text-anchor="start" x="1112.88" y="-317.95" font-family="Times New Roman,serif" font-size="14.00"> ≤</text>
<text text-anchor="start" x="1124.12" y="-317.95" font-family="Times New Roman,serif" font-weight="bold" font-size="14.00">2022.500</text>
</g>
<!-- split9&#45;&gt;split19 -->
<g id="edge21" class="edge">
<title>split9&#45;&gt;split19</title>
<path fill="none" stroke="black" d="M882.12,-322C906.06,-322 932.89,-322 958.84,-322"/>
<polygon fill="black" stroke="black" points="958.5,-325.5 968.5,-322 958.5,-318.5 958.5,-325.5"/>
<text text-anchor="middle" x="917.63" y="-324.45" font-family="Times New Roman,serif" font-size="14.00">no</text>
</g>
<!-- leaf2 -->
<g id="node21" class="node">
<title>leaf2</title>
<ellipse fill="none" stroke="black" cx="1324.63" cy="-428" rx="59.03" ry="18"/>
<text text-anchor="start" x="1289.38" y="-423.95" font-family="Times New Roman,serif" font-size="14.00">leaf 2: </text>
<text text-anchor="start" x="1326.13" y="-423.95" font-family="Times New Roman,serif" font-weight="bold" font-size="14.00">1.085</text>
</g>
<!-- split10&#45;&gt;leaf2 -->
<g id="edge16" class="edge">
<title>split10&#45;&gt;leaf2</title>
<path fill="none" stroke="black" d="M1174.97,-403.58C1203.96,-408.34 1235.09,-413.46 1261.34,-417.77"/>
<polygon fill="black" stroke="black" points="1260.46,-421.33 1270.89,-419.5 1261.59,-414.43 1260.46,-421.33"/>
<text text-anchor="middle" x="1240.62" y="-417.45" font-family="Times New Roman,serif" font-size="14.00">yes</text>
</g>
<!-- leaf11 -->
<g id="node22" class="node">
<title>leaf11</title>
<ellipse fill="none" stroke="black" cx="1324.63" cy="-388" rx="63.63" ry="18"/>
<text text-anchor="start" x="1286.01" y="-383.95" font-family="Times New Roman,serif" font-size="14.00">leaf 11: </text>
<text text-anchor="start" x="1329.51" y="-383.95" font-family="Times New Roman,serif" font-weight="bold" font-size="14.00">1.051</text>
</g>
<!-- split10&#45;&gt;leaf11 -->
<g id="edge17" class="edge">
<title>split10&#45;&gt;leaf11</title>
<path fill="none" stroke="black" d="M1174.97,-388C1199.76,-388 1226.11,-388 1249.63,-388"/>
<polygon fill="black" stroke="black" points="1249.58,-391.5 1259.58,-388 1249.58,-384.5 1249.58,-391.5"/>
<text text-anchor="middle" x="1240.62" y="-390.45" font-family="Times New Roman,serif" font-size="14.00">no</text>
</g>
<!-- leaf10 -->
<g id="node24" class="node">
<title>leaf10</title>
<ellipse fill="none" stroke="black" cx="1324.63" cy="-348" rx="63.63" ry="18"/>
<text text-anchor="start" x="1286.01" y="-343.95" font-family="Times New Roman,serif" font-size="14.00">leaf 10: </text>
<text text-anchor="start" x="1329.51" y="-343.95" font-family="Times New Roman,serif" font-weight="bold" font-size="14.00">1.111</text>
</g>
<!-- split19&#45;&gt;leaf10 -->
<g id="edge19" class="edge">
<title>split19&#45;&gt;leaf10</title>
<path fill="none" stroke="black" d="M1188.7,-333.59C1210.85,-335.96 1233.59,-338.39 1253.93,-340.56"/>
<polygon fill="black" stroke="black" points="1253.34,-344.12 1263.65,-341.7 1254.08,-337.16 1253.34,-344.12"/>
<text text-anchor="middle" x="1240.62" y="-341.45" font-family="Times New Roman,serif" font-size="14.00">yes</text>
</g>
<!-- leaf20 -->
<g id="node25" class="node">
<title>leaf20</title>
<ellipse fill="none" stroke="black" cx="1324.63" cy="-308" rx="63.63" ry="18"/>
<text text-anchor="start" x="1286.01" y="-303.95" font-family="Times New Roman,serif" font-size="14.00">leaf 20: </text>
<text text-anchor="start" x="1329.51" y="-303.95" font-family="Times New Roman,serif" font-weight="bold" font-size="14.00">1.134</text>
</g>
<!-- split19&#45;&gt;leaf20 -->
<g id="edge20" class="edge">
<title>split19&#45;&gt;leaf20</title>
<path fill="none" stroke="black" d="M1188.7,-315.76C1209.79,-314.54 1231.42,-313.3 1251,-312.18"/>
<polygon fill="black" stroke="black" points="1251.19,-315.61 1260.97,-311.55 1250.78,-308.63 1251.19,-315.61"/>
<text text-anchor="middle" x="1240.62" y="-314.45" font-family="Times New Roman,serif" font-size="14.00">no</text>
</g>
<!-- split15 -->
<g id="node27" class="node">
<title>split15</title>
<polygon fill="none" stroke="black" points="1129.12,-276 1029.12,-276 1029.12,-240 1129.12,-240 1129.12,-276"/>
<text text-anchor="start" x="1037.12" y="-253.95" font-family="Times New Roman,serif" font-weight="bold" font-size="14.00">年齡</text>
<text text-anchor="start" x="1068.62" y="-253.95" font-family="Times New Roman,serif" font-size="14.00"> ≤</text>
<text text-anchor="start" x="1079.88" y="-253.95" font-family="Times New Roman,serif" font-weight="bold" font-size="14.00">40.500</text>
</g>
<!-- split11&#45;&gt;split15 -->
<g id="edge25" class="edge">
<title>split11&#45;&gt;split15</title>
<path fill="none" stroke="black" d="M897.6,-258C937.62,-258 983.03,-258 1018.29,-258"/>
<polygon fill="black" stroke="black" points="1017.89,-261.5 1027.89,-258 1017.89,-254.5 1017.89,-261.5"/>
<text text-anchor="middle" x="917.63" y="-260.45" font-family="Times New Roman,serif" font-size="14.00">yes</text>
</g>
<!-- split20 -->
<g id="node30" class="node">
<title>split20</title>
<polygon fill="none" stroke="black" points="1174.5,-216 983.75,-216 983.75,-180 1174.5,-180 1174.5,-216"/>
<text text-anchor="start" x="991.75" y="-193.95" font-family="Times New Roman,serif" font-weight="bold" font-size="14.00">第一次交易日</text>
<text text-anchor="start" x="1086.25" y="-193.95" font-family="Times New Roman,serif" font-size="14.00"> ≤</text>
<text text-anchor="start" x="1097.5" y="-193.95" font-family="Times New Roman,serif" font-weight="bold" font-size="14.00">2016&#45;06&#45;01</text>
</g>
<!-- split11&#45;&gt;split20 -->
<g id="edge28" class="edge">
<title>split11&#45;&gt;split20</title>
<path fill="none" stroke="black" d="M887.71,-239.51C917.93,-232.92 952.17,-225.46 983.19,-218.69"/>
<polygon fill="black" stroke="black" points="983.55,-221.98 992.58,-216.43 982.06,-215.14 983.55,-221.98"/>
<text text-anchor="middle" x="917.63" y="-235.45" font-family="Times New Roman,serif" font-size="14.00">no</text>
</g>
<!-- leaf5 -->
<g id="node28" class="node">
<title>leaf5</title>
<ellipse fill="none" stroke="black" cx="1324.63" cy="-268" rx="59.03" ry="18"/>
<text text-anchor="start" x="1289.38" y="-263.95" font-family="Times New Roman,serif" font-size="14.00">leaf 5: </text>
<text text-anchor="start" x="1326.13" y="-263.95" font-family="Times New Roman,serif" font-weight="bold" font-size="14.00">1.066</text>
</g>
<!-- split15&#45;&gt;leaf5 -->
<g id="edge23" class="edge">
<title>split15&#45;&gt;leaf5</title>
<path fill="none" stroke="black" d="M1129.4,-260.02C1165.56,-261.51 1215.12,-263.54 1255.12,-265.19"/>
<polygon fill="black" stroke="black" points="1254.73,-268.71 1264.87,-265.63 1255.02,-261.72 1254.73,-268.71"/>
<text text-anchor="middle" x="1240.62" y="-266.45" font-family="Times New Roman,serif" font-size="14.00">yes</text>
</g>
<!-- leaf16 -->
<g id="node29" class="node">
<title>leaf16</title>
<ellipse fill="none" stroke="black" cx="1324.63" cy="-228" rx="63.63" ry="18"/>
<text text-anchor="start" x="1286.01" y="-223.95" font-family="Times New Roman,serif" font-size="14.00">leaf 16: </text>
<text text-anchor="start" x="1329.51" y="-223.95" font-family="Times New Roman,serif" font-weight="bold" font-size="14.00">1.115</text>
</g>
<!-- split15&#45;&gt;leaf16 -->
<g id="edge24" class="edge">
<title>split15&#45;&gt;leaf16</title>
<path fill="none" stroke="black" d="M1129.4,-251.93C1165.56,-247.47 1215.12,-241.37 1255.12,-236.44"/>
<polygon fill="black" stroke="black" points="1255.37,-239.81 1264.87,-235.12 1254.52,-232.87 1255.37,-239.81"/>
<text text-anchor="middle" x="1240.62" y="-240.45" font-family="Times New Roman,serif" font-size="14.00">no</text>
</g>
<!-- leaf12 -->
<g id="node31" class="node">
<title>leaf12</title>
<ellipse fill="none" stroke="black" cx="1324.63" cy="-188" rx="63.63" ry="18"/>
<text text-anchor="start" x="1286.01" y="-183.95" font-family="Times New Roman,serif" font-size="14.00">leaf 12: </text>
<text text-anchor="start" x="1329.51" y="-183.95" font-family="Times New Roman,serif" font-weight="bold" font-size="14.00">1.139</text>
</g>
<!-- split20&#45;&gt;leaf12 -->
<g id="edge26" class="edge">
<title>split20&#45;&gt;leaf12</title>
<path fill="none" stroke="black" d="M1174.97,-194.11C1200.1,-193.07 1226.84,-191.98 1250.61,-191"/>
<polygon fill="black" stroke="black" points="1250.46,-194.47 1260.31,-190.56 1250.17,-187.47 1250.46,-194.47"/>
<text text-anchor="middle" x="1240.62" y="-193.45" font-family="Times New Roman,serif" font-size="14.00">yes</text>
</g>
<!-- leaf21 -->
<g id="node32" class="node">
<title>leaf21</title>
<ellipse fill="none" stroke="black" cx="1324.63" cy="-148" rx="63.63" ry="18"/>
<text text-anchor="start" x="1286.01" y="-143.95" font-family="Times New Roman,serif" font-size="14.00">leaf 21: </text>
<text text-anchor="start" x="1329.51" y="-143.95" font-family="Times New Roman,serif" font-weight="bold" font-size="14.00">1.148</text>
</g>
<!-- split20&#45;&gt;leaf21 -->
<g id="edge27" class="edge">
<title>split20&#45;&gt;leaf21</title>
<path fill="none" stroke="black" d="M1174.98,-184.54C1190.17,-181.97 1205.68,-179.11 1220.25,-176 1236.21,-172.6 1253.37,-168.24 1269.04,-163.98"/>
<polygon fill="black" stroke="black" points="1269.91,-167.09 1278.62,-161.05 1268.05,-160.34 1269.91,-167.09"/>
<text text-anchor="middle" x="1240.62" y="-175.45" font-family="Times New Roman,serif" font-size="14.00">no</text>
</g>
<!-- split13 -->
<g id="node34" class="node">
<title>split13</title>
<polygon fill="none" stroke="black" points="634.25,-162 506.5,-162 506.5,-126 634.25,-126 634.25,-162"/>
<text text-anchor="start" x="514.5" y="-139.95" font-family="Times New Roman,serif" font-weight="bold" font-size="14.00">生日</text>
<text text-anchor="start" x="546" y="-139.95" font-family="Times New Roman,serif" font-size="14.00"> ≤</text>
<text text-anchor="start" x="557.25" y="-139.95" font-family="Times New Roman,serif" font-weight="bold" font-size="14.00">1973&#45;04&#45;08</text>
</g>
<!-- split5&#45;&gt;split13 -->
<g id="edge40" class="edge">
<title>split5&#45;&gt;split13</title>
<path fill="none" stroke="black" d="M434.43,-144C454.91,-144 476.09,-144 495.43,-144"/>
<polygon fill="black" stroke="black" points="495.28,-147.5 505.28,-144 495.28,-140.5 495.28,-147.5"/>
<text text-anchor="middle" x="454.63" y="-146.45" font-family="Times New Roman,serif" font-size="14.00">yes</text>
</g>
<!-- leaf6 -->
<g id="node43" class="node">
<title>leaf6</title>
<ellipse fill="none" stroke="black" cx="570.38" cy="-104" rx="59.03" ry="18"/>
<text text-anchor="start" x="535.13" y="-99.95" font-family="Times New Roman,serif" font-size="14.00">leaf 6: </text>
<text text-anchor="start" x="571.88" y="-99.95" font-family="Times New Roman,serif" font-weight="bold" font-size="14.00">1.149</text>
</g>
<!-- split5&#45;&gt;leaf6 -->
<g id="edge41" class="edge">
<title>split5&#45;&gt;leaf6</title>
<path fill="none" stroke="black" d="M434.43,-126.92C459.25,-122.71 485.11,-118.31 507.47,-114.51"/>
<polygon fill="black" stroke="black" points="507.87,-117.83 517.15,-112.7 506.7,-110.93 507.87,-117.83"/>
<text text-anchor="middle" x="454.63" y="-126.45" font-family="Times New Roman,serif" font-size="14.00">no</text>
</g>
<!-- split18 -->
<g id="node35" class="node">
<title>split18</title>
<polygon fill="none" stroke="black" points="897.25,-162 706.5,-162 706.5,-126 897.25,-126 897.25,-162"/>
<text text-anchor="start" x="714.5" y="-139.95" font-family="Times New Roman,serif" font-weight="bold" font-size="14.00">第一次交易日</text>
<text text-anchor="start" x="809" y="-139.95" font-family="Times New Roman,serif" font-size="14.00"> ≤</text>
<text text-anchor="start" x="820.25" y="-139.95" font-family="Times New Roman,serif" font-weight="bold" font-size="14.00">2013&#45;08&#45;06</text>
</g>
<!-- split13&#45;&gt;split18 -->
<g id="edge34" class="edge">
<title>split13&#45;&gt;split18</title>
<path fill="none" stroke="black" d="M634.69,-144C653.56,-144 674.77,-144 695.56,-144"/>
<polygon fill="black" stroke="black" points="695.38,-147.5 705.38,-144 695.38,-140.5 695.38,-147.5"/>
<text text-anchor="middle" x="686.13" y="-146.45" font-family="Times New Roman,serif" font-size="14.00">yes</text>
</g>
<!-- split16 -->
<g id="node38" class="node">
<title>split16</title>
<polygon fill="none" stroke="black" points="897.25,-96 706.5,-96 706.5,-60 897.25,-60 897.25,-96"/>
<text text-anchor="start" x="714.5" y="-73.95" font-family="Times New Roman,serif" font-weight="bold" font-size="14.00">第一次交易日</text>
<text text-anchor="start" x="809" y="-73.95" font-family="Times New Roman,serif" font-size="14.00"> ≤</text>
<text text-anchor="start" x="820.25" y="-73.95" font-family="Times New Roman,serif" font-weight="bold" font-size="14.00">2012&#45;09&#45;18</text>
</g>
<!-- split13&#45;&gt;split16 -->
<g id="edge39" class="edge">
<title>split13&#45;&gt;split16</title>
<path fill="none" stroke="black" d="M634.51,-130.07C644.99,-127.54 655.7,-124.8 665.75,-122 689.45,-115.39 715.19,-107.26 737.79,-99.78"/>
<polygon fill="black" stroke="black" points="738.55,-102.89 746.93,-96.41 736.33,-96.25 738.55,-102.89"/>
<text text-anchor="middle" x="686.13" y="-120.45" font-family="Times New Roman,serif" font-size="14.00">no</text>
</g>
<!-- leaf1 -->
<g id="node36" class="node">
<title>leaf1</title>
<ellipse fill="none" stroke="black" cx="1079.12" cy="-158" rx="59.03" ry="18"/>
<text text-anchor="start" x="1043.88" y="-153.95" font-family="Times New Roman,serif" font-size="14.00">leaf 1: </text>
<text text-anchor="start" x="1080.62" y="-153.95" font-family="Times New Roman,serif" font-weight="bold" font-size="14.00">1.084</text>
</g>
<!-- split18&#45;&gt;leaf1 -->
<g id="edge32" class="edge">
<title>split18&#45;&gt;leaf1</title>
<path fill="none" stroke="black" d="M897.6,-148.82C934.5,-150.7 975.98,-152.8 1009.86,-154.53"/>
<polygon fill="black" stroke="black" points="1009.42,-158.06 1019.58,-155.07 1009.77,-151.07 1009.42,-158.06"/>
<text text-anchor="middle" x="917.63" y="-152.45" font-family="Times New Roman,serif" font-size="14.00">yes</text>
</g>
<!-- leaf19 -->
<g id="node37" class="node">
<title>leaf19</title>
<ellipse fill="none" stroke="black" cx="1079.12" cy="-118" rx="63.63" ry="18"/>
<text text-anchor="start" x="1040.5" y="-113.95" font-family="Times New Roman,serif" font-size="14.00">leaf 19: </text>
<text text-anchor="start" x="1084" y="-113.95" font-family="Times New Roman,serif" font-weight="bold" font-size="14.00">1.018</text>
</g>
<!-- split18&#45;&gt;leaf19 -->
<g id="edge33" class="edge">
<title>split18&#45;&gt;leaf19</title>
<path fill="none" stroke="black" d="M897.64,-133.31C901.22,-132.94 904.77,-132.59 908.25,-132.25 940.39,-129.11 975.99,-126.06 1006.26,-123.59"/>
<polygon fill="black" stroke="black" points="1006.47,-127 1016.15,-122.71 1005.9,-120.03 1006.47,-127"/>
<text text-anchor="middle" x="917.63" y="-134.45" font-family="Times New Roman,serif" font-size="14.00">no</text>
</g>
<!-- leaf14 -->
<g id="node39" class="node">
<title>leaf14</title>
<ellipse fill="none" stroke="black" cx="1079.12" cy="-78" rx="63.63" ry="18"/>
<text text-anchor="start" x="1040.5" y="-73.95" font-family="Times New Roman,serif" font-size="14.00">leaf 14: </text>
<text text-anchor="start" x="1084" y="-73.95" font-family="Times New Roman,serif" font-weight="bold" font-size="14.00">1.018</text>
</g>
<!-- split16&#45;&gt;leaf14 -->
<g id="edge35" class="edge">
<title>split16&#45;&gt;leaf14</title>
<path fill="none" stroke="black" d="M897.6,-78C932.53,-78 971.55,-78 1004.36,-78"/>
<polygon fill="black" stroke="black" points="1004.23,-81.5 1014.23,-78 1004.23,-74.5 1004.23,-81.5"/>
<text text-anchor="middle" x="917.63" y="-80.45" font-family="Times New Roman,serif" font-size="14.00">yes</text>
</g>
<!-- split17 -->
<g id="node40" class="node">
<title>split17</title>
<polygon fill="none" stroke="black" points="1220.25,-56 938,-56 938,-20 1220.25,-20 1220.25,-56"/>
<text text-anchor="start" x="946" y="-33.95" font-family="Times New Roman,serif" font-weight="bold" font-size="14.00">最近一次POS綁約交易日期</text>
<text text-anchor="start" x="1132" y="-33.95" font-family="Times New Roman,serif" font-size="14.00"> ≤</text>
<text text-anchor="start" x="1143.25" y="-33.95" font-family="Times New Roman,serif" font-weight="bold" font-size="14.00">2017&#45;05&#45;02</text>
</g>
<!-- split16&#45;&gt;split17 -->
<g id="edge38" class="edge">
<title>split16&#45;&gt;split17</title>
<path fill="none" stroke="black" d="M897.64,-62.84C901.22,-62.3 904.77,-61.76 908.25,-61.25 915.56,-60.17 923.04,-59.08 930.6,-57.99"/>
<polygon fill="black" stroke="black" points="930.93,-61.34 940.33,-56.46 929.94,-54.41 930.93,-61.34"/>
<text text-anchor="middle" x="917.63" y="-64.45" font-family="Times New Roman,serif" font-size="14.00">no</text>
</g>
<!-- leaf17 -->
<g id="node41" class="node">
<title>leaf17</title>
<ellipse fill="none" stroke="black" cx="1324.63" cy="-58" rx="63.63" ry="18"/>
<text text-anchor="start" x="1286.01" y="-53.95" font-family="Times New Roman,serif" font-size="14.00">leaf 17: </text>
<text text-anchor="start" x="1329.51" y="-53.95" font-family="Times New Roman,serif" font-weight="bold" font-size="14.00">0.916</text>
</g>
<!-- split17&#45;&gt;leaf17 -->
<g id="edge36" class="edge">
<title>split17&#45;&gt;leaf17</title>
<path fill="none" stroke="black" d="M1220.72,-49.55C1231.56,-50.44 1242.2,-51.31 1252.27,-52.14"/>
<polygon fill="black" stroke="black" points="1251.72,-55.69 1261.97,-53.02 1252.29,-48.71 1251.72,-55.69"/>
<text text-anchor="middle" x="1240.62" y="-54.45" font-family="Times New Roman,serif" font-size="14.00">yes</text>
</g>
<!-- leaf18 -->
<g id="node42" class="node">
<title>leaf18</title>
<ellipse fill="none" stroke="black" cx="1324.63" cy="-18" rx="63.63" ry="18"/>
<text text-anchor="start" x="1286.01" y="-13.95" font-family="Times New Roman,serif" font-size="14.00">leaf 18: </text>
<text text-anchor="start" x="1329.51" y="-13.95" font-family="Times New Roman,serif" font-weight="bold" font-size="14.00">0.987</text>
</g>
<!-- split17&#45;&gt;leaf18 -->
<g id="edge37" class="edge">
<title>split17&#45;&gt;leaf18</title>
<path fill="none" stroke="black" d="M1220.72,-26.45C1231.56,-25.56 1242.2,-24.69 1252.27,-23.86"/>
<polygon fill="black" stroke="black" points="1252.29,-27.29 1261.97,-22.98 1251.72,-20.31 1252.29,-27.29"/>
<text text-anchor="middle" x="1240.62" y="-28.45" font-family="Times New Roman,serif" font-size="14.00">no</text>
</g>
</g>
</svg>
