<?xml version="1.0" encoding="UTF-8" standalone="no"?>
<!DOCTYPE svg PUBLIC "-//W3C//DTD SVG 1.1//EN"
 "http://www.w3.org/Graphics/SVG/1.1/DTD/svg11.dtd">
<!-- Generated by graphviz version 8.0.5 (20230430.1635)
 -->
<!-- Pages: 1 -->
<svg width="1687pt" height="884pt"
 viewBox="0.00 0.00 1687.41 884.00" xmlns="http://www.w3.org/2000/svg" xmlns:xlink="http://www.w3.org/1999/xlink">
<g id="graph0" class="graph" transform="scale(1 1) rotate(0) translate(4 880)">
<polygon fill="white" stroke="none" points="-4,4 -4,-880 1683.41,-880 1683.41,4 -4,4"/>
<!-- split0 -->
<g id="node1" class="node">
<title>split0</title>
<polygon fill="none" stroke="black" points="209.5,-493 0,-493 0,-457 209.5,-457 209.5,-493"/>
<text text-anchor="start" x="8" y="-470.95" font-family="Times New Roman,serif" font-weight="bold" font-size="14.00">自媒互動程度</text>
<text text-anchor="start" x="102.5" y="-470.95" font-family="Times New Roman,serif" font-size="14.00"> =</text>
<text text-anchor="start" x="114.5" y="-470.95" font-family="Times New Roman,serif" font-weight="bold" font-size="14.00">1||2||3||4||6||8||11</text>
</g>
<!-- split1 -->
<g id="node2" class="node">
<title>split1</title>
<polygon fill="none" stroke="black" points="486.75,-567 296,-567 296,-531 486.75,-531 486.75,-567"/>
<text text-anchor="start" x="304" y="-544.95" font-family="Times New Roman,serif" font-weight="bold" font-size="14.00">手機驗證日期</text>
<text text-anchor="start" x="398.5" y="-544.95" font-family="Times New Roman,serif" font-size="14.00"> ≤</text>
<text text-anchor="start" x="409.75" y="-544.95" font-family="Times New Roman,serif" font-weight="bold" font-size="14.00">2017&#45;01&#45;02</text>
</g>
<!-- split0&#45;&gt;split1 -->
<g id="edge21" class="edge">
<title>split0&#45;&gt;split1</title>
<path fill="none" stroke="black" d="M176.84,-493.48C217.06,-503.94 267.52,-517.06 309.28,-527.92"/>
<polygon fill="black" stroke="black" points="308.14,-531.5 318.7,-530.63 309.9,-524.72 308.14,-531.5"/>
<text text-anchor="middle" x="229.88" y="-509.45" font-family="Times New Roman,serif" font-size="14.00">yes</text>
</g>
<!-- split3 -->
<g id="node23" class="node">
<title>split3</title>
<polygon fill="none" stroke="black" points="532.5,-421 250.25,-421 250.25,-385 532.5,-385 532.5,-421"/>
<text text-anchor="start" x="258.25" y="-398.95" font-family="Times New Roman,serif" font-weight="bold" font-size="14.00">最近一次POS綁約交易日期</text>
<text text-anchor="start" x="444.25" y="-398.95" font-family="Times New Roman,serif" font-size="14.00"> ≤</text>
<text text-anchor="start" x="455.5" y="-398.95" font-family="Times New Roman,serif" font-weight="bold" font-size="14.00">2017&#45;05&#45;01</text>
</g>
<!-- split0&#45;&gt;split3 -->
<g id="edge50" class="edge">
<title>split0&#45;&gt;split3</title>
<path fill="none" stroke="black" d="M178.68,-456.55C217.92,-446.62 266.48,-434.34 307.19,-424.04"/>
<polygon fill="black" stroke="black" points="307.8,-427.25 316.64,-421.4 306.08,-420.46 307.8,-427.25"/>
<text text-anchor="middle" x="229.88" y="-447.45" font-family="Times New Roman,serif" font-size="14.00">no</text>
</g>
<!-- split4 -->
<g id="node3" class="node">
<title>split4</title>
<polygon fill="none" stroke="black" points="791.75,-649 573.25,-649 573.25,-613 791.75,-613 791.75,-649"/>
<text text-anchor="start" x="581.25" y="-626.95" font-family="Times New Roman,serif" font-weight="bold" font-size="14.00">倒數第一個月開信行為</text>
<text text-anchor="start" x="738.75" y="-626.95" font-family="Times New Roman,serif" font-size="14.00"> ≤</text>
<text text-anchor="start" x="750" y="-626.95" font-family="Times New Roman,serif" font-weight="bold" font-size="14.00">0.000</text>
</g>
<!-- split1&#45;&gt;split4 -->
<g id="edge15" class="edge">
<title>split1&#45;&gt;split4</title>
<path fill="none" stroke="black" d="M457.26,-567.4C501.28,-579.89 559.64,-596.44 605.78,-609.53"/>
<polygon fill="black" stroke="black" points="604.76,-613.16 615.33,-612.52 606.67,-606.42 604.76,-613.16"/>
<text text-anchor="middle" x="552.88" y="-596.45" font-family="Times New Roman,serif" font-size="14.00">yes</text>
</g>
<!-- split2 -->
<g id="node18" class="node">
<title>split2</title>
<polygon fill="none" stroke="black" points="783.88,-567 581.12,-567 581.12,-531 783.88,-531 783.88,-567"/>
<text text-anchor="start" x="589.12" y="-544.95" font-family="Times New Roman,serif" font-weight="bold" font-size="14.00">第一次交易日(年)</text>
<text text-anchor="start" x="708.38" y="-544.95" font-family="Times New Roman,serif" font-size="14.00"> ≤</text>
<text text-anchor="start" x="719.62" y="-544.95" font-family="Times New Roman,serif" font-weight="bold" font-size="14.00">2015.500</text>
</g>
<!-- split1&#45;&gt;split2 -->
<g id="edge20" class="edge">
<title>split1&#45;&gt;split2</title>
<path fill="none" stroke="black" d="M487.05,-549C513.51,-549 542.51,-549 569.85,-549"/>
<polygon fill="black" stroke="black" points="569.64,-552.5 579.64,-549 569.64,-545.5 569.64,-552.5"/>
<text text-anchor="middle" x="552.88" y="-551.45" font-family="Times New Roman,serif" font-size="14.00">no</text>
</g>
<!-- split5 -->
<g id="node4" class="node">
<title>split5</title>
<polygon fill="none" stroke="black" points="1082.88,-770 892.12,-770 892.12,-734 1082.88,-734 1082.88,-770"/>
<text text-anchor="start" x="900.12" y="-747.95" font-family="Times New Roman,serif" font-weight="bold" font-size="14.00">第一次交易日</text>
<text text-anchor="start" x="994.62" y="-747.95" font-family="Times New Roman,serif" font-size="14.00"> ≤</text>
<text text-anchor="start" x="1005.88" y="-747.95" font-family="Times New Roman,serif" font-weight="bold" font-size="14.00">2016&#45;04&#45;09</text>
</g>
<!-- split4&#45;&gt;split5 -->
<g id="edge7" class="edge">
<title>split4&#45;&gt;split5</title>
<path fill="none" stroke="black" d="M729.52,-649.38C783.4,-670.89 872.62,-706.52 930.48,-729.63"/>
<polygon fill="black" stroke="black" points="928.96,-733.19 939.55,-733.65 931.56,-726.69 928.96,-733.19"/>
<text text-anchor="middle" x="812.12" y="-686.45" font-family="Times New Roman,serif" font-size="14.00">yes</text>
</g>
<!-- split15 -->
<g id="node11" class="node">
<title>split15</title>
<polygon fill="none" stroke="black" points="1126.75,-649 848.25,-649 848.25,-613 1126.75,-613 1126.75,-649"/>
<text text-anchor="start" x="856.25" y="-626.95" font-family="Times New Roman,serif" font-weight="bold" font-size="14.00">第一次POS綁約交易日期(年)</text>
<text text-anchor="start" x="1051.25" y="-626.95" font-family="Times New Roman,serif" font-size="14.00"> ≤</text>
<text text-anchor="start" x="1062.5" y="-626.95" font-family="Times New Roman,serif" font-weight="bold" font-size="14.00">2018.500</text>
</g>
<!-- split4&#45;&gt;split15 -->
<g id="edge14" class="edge">
<title>split4&#45;&gt;split15</title>
<path fill="none" stroke="black" d="M792.03,-631C806.59,-631 821.72,-631 836.82,-631"/>
<polygon fill="black" stroke="black" points="836.81,-634.5 846.81,-631 836.81,-627.5 836.81,-634.5"/>
<text text-anchor="middle" x="812.12" y="-633.45" font-family="Times New Roman,serif" font-size="14.00">no</text>
</g>
<!-- split12 -->
<g id="node5" class="node">
<title>split12</title>
<polygon fill="none" stroke="black" points="1424.25,-836 1264.25,-836 1264.25,-800 1424.25,-800 1424.25,-836"/>
<text text-anchor="start" x="1272.25" y="-813.95" font-family="Times New Roman,serif" font-weight="bold" font-size="14.00">是否接受Email</text>
<text text-anchor="start" x="1371.25" y="-813.95" font-family="Times New Roman,serif" font-size="14.00"> ≤</text>
<text text-anchor="start" x="1382.5" y="-813.95" font-family="Times New Roman,serif" font-weight="bold" font-size="14.00">0.000</text>
</g>
<!-- split5&#45;&gt;split12 -->
<g id="edge3" class="edge">
<title>split5&#45;&gt;split12</title>
<path fill="none" stroke="black" d="M1083.1,-769.6C1135.91,-779.42 1201.33,-791.6 1253.36,-801.28"/>
<polygon fill="black" stroke="black" points="1252.44,-804.85 1262.91,-803.24 1253.72,-797.97 1252.44,-804.85"/>
<text text-anchor="middle" x="1162.88" y="-787.45" font-family="Times New Roman,serif" font-size="14.00">yes</text>
</g>
<!-- split6 -->
<g id="node8" class="node">
<title>split6</title>
<polygon fill="none" stroke="black" points="1439.62,-770 1248.88,-770 1248.88,-734 1439.62,-734 1439.62,-770"/>
<text text-anchor="start" x="1256.88" y="-747.95" font-family="Times New Roman,serif" font-weight="bold" font-size="14.00">手機驗證日期</text>
<text text-anchor="start" x="1351.38" y="-747.95" font-family="Times New Roman,serif" font-size="14.00"> ≤</text>
<text text-anchor="start" x="1362.62" y="-747.95" font-family="Times New Roman,serif" font-weight="bold" font-size="14.00">2016&#45;06&#45;09</text>
</g>
<!-- split5&#45;&gt;split6 -->
<g id="edge6" class="edge">
<title>split5&#45;&gt;split6</title>
<path fill="none" stroke="black" d="M1083.1,-752C1130.71,-752 1188.58,-752 1237.63,-752"/>
<polygon fill="black" stroke="black" points="1237.61,-755.5 1247.61,-752 1237.61,-748.5 1237.61,-755.5"/>
<text text-anchor="middle" x="1162.88" y="-754.45" font-family="Times New Roman,serif" font-size="14.00">no</text>
</g>
<!-- leaf0 -->
<g id="node6" class="node">
<title>leaf0</title>
<ellipse fill="none" stroke="black" cx="1612.71" cy="-858" rx="62.1" ry="18"/>
<text text-anchor="start" x="1575.21" y="-853.95" font-family="Times New Roman,serif" font-size="14.00">leaf 0: </text>
<text text-anchor="start" x="1611.96" y="-853.95" font-family="Times New Roman,serif" font-weight="bold" font-size="14.00">&#45;0.416</text>
</g>
<!-- split12&#45;&gt;leaf0 -->
<g id="edge1" class="edge">
<title>split12&#45;&gt;leaf0</title>
<path fill="none" stroke="black" d="M1424.47,-829.89C1463.29,-835.72 1509.47,-842.65 1546.25,-848.17"/>
<polygon fill="black" stroke="black" points="1545.44,-851.74 1555.85,-849.77 1546.48,-844.82 1545.44,-851.74"/>
<text text-anchor="middle" x="1525.62" y="-848.45" font-family="Times New Roman,serif" font-size="14.00">yes</text>
</g>
<!-- leaf13 -->
<g id="node7" class="node">
<title>leaf13</title>
<ellipse fill="none" stroke="black" cx="1612.71" cy="-818" rx="66.71" ry="18"/>
<text text-anchor="start" x="1571.83" y="-813.95" font-family="Times New Roman,serif" font-size="14.00">leaf 13: </text>
<text text-anchor="start" x="1615.33" y="-813.95" font-family="Times New Roman,serif" font-weight="bold" font-size="14.00">&#45;0.412</text>
</g>
<!-- split12&#45;&gt;leaf13 -->
<g id="edge2" class="edge">
<title>split12&#45;&gt;leaf13</title>
<path fill="none" stroke="black" d="M1424.47,-818C1459.51,-818 1500.54,-818 1535.25,-818"/>
<polygon fill="black" stroke="black" points="1534.8,-821.5 1544.8,-818 1534.8,-814.5 1534.8,-821.5"/>
<text text-anchor="middle" x="1525.62" y="-820.45" font-family="Times New Roman,serif" font-size="14.00">no</text>
</g>
<!-- leaf6 -->
<g id="node9" class="node">
<title>leaf6</title>
<ellipse fill="none" stroke="black" cx="1612.71" cy="-778" rx="62.1" ry="18"/>
<text text-anchor="start" x="1575.21" y="-773.95" font-family="Times New Roman,serif" font-size="14.00">leaf 6: </text>
<text text-anchor="start" x="1611.96" y="-773.95" font-family="Times New Roman,serif" font-weight="bold" font-size="14.00">&#45;0.410</text>
</g>
<!-- split6&#45;&gt;leaf6 -->
<g id="edge4" class="edge">
<title>split6&#45;&gt;leaf6</title>
<path fill="none" stroke="black" d="M1439.94,-761.24C1473.8,-764.54 1511.28,-768.2 1542.57,-771.25"/>
<polygon fill="black" stroke="black" points="1542.07,-774.82 1552.37,-772.31 1542.75,-767.85 1542.07,-774.82"/>
<text text-anchor="middle" x="1525.62" y="-772.45" font-family="Times New Roman,serif" font-size="14.00">yes</text>
</g>
<!-- leaf7 -->
<g id="node10" class="node">
<title>leaf7</title>
<ellipse fill="none" stroke="black" cx="1612.71" cy="-738" rx="62.1" ry="18"/>
<text text-anchor="start" x="1575.21" y="-733.95" font-family="Times New Roman,serif" font-size="14.00">leaf 7: </text>
<text text-anchor="start" x="1611.96" y="-733.95" font-family="Times New Roman,serif" font-weight="bold" font-size="14.00">&#45;0.384</text>
</g>
<!-- split6&#45;&gt;leaf7 -->
<g id="edge5" class="edge">
<title>split6&#45;&gt;leaf7</title>
<path fill="none" stroke="black" d="M1439.94,-747.02C1473.13,-745.28 1509.8,-743.35 1540.71,-741.73"/>
<polygon fill="black" stroke="black" points="1540.59,-745.19 1550.39,-741.17 1540.22,-738.2 1540.59,-745.19"/>
<text text-anchor="middle" x="1525.62" y="-744.45" font-family="Times New Roman,serif" font-size="14.00">no</text>
</g>
<!-- split16 -->
<g id="node12" class="node">
<title>split16</title>
<polygon fill="none" stroke="black" points="1439.62,-676 1248.88,-676 1248.88,-640 1439.62,-640 1439.62,-676"/>
<text text-anchor="start" x="1256.88" y="-653.95" font-family="Times New Roman,serif" font-weight="bold" font-size="14.00">手機驗證日期</text>
<text text-anchor="start" x="1351.38" y="-653.95" font-family="Times New Roman,serif" font-size="14.00"> ≤</text>
<text text-anchor="start" x="1362.62" y="-653.95" font-family="Times New Roman,serif" font-weight="bold" font-size="14.00">2013&#45;09&#45;14</text>
</g>
<!-- split15&#45;&gt;split16 -->
<g id="edge10" class="edge">
<title>split15&#45;&gt;split16</title>
<path fill="none" stroke="black" d="M1127.18,-641.55C1163.99,-644.36 1203.13,-647.34 1237.85,-649.98"/>
<polygon fill="black" stroke="black" points="1237.23,-653.52 1247.47,-650.79 1237.76,-646.54 1237.23,-653.52"/>
<text text-anchor="middle" x="1162.88" y="-646.45" font-family="Times New Roman,serif" font-size="14.00">yes</text>
</g>
<!-- split23 -->
<g id="node15" class="node">
<title>split23</title>
<polygon fill="none" stroke="black" points="1439.62,-636 1248.88,-636 1248.88,-600 1439.62,-600 1439.62,-636"/>
<text text-anchor="start" x="1256.88" y="-613.95" font-family="Times New Roman,serif" font-weight="bold" font-size="14.00">第一次交易日</text>
<text text-anchor="start" x="1351.38" y="-613.95" font-family="Times New Roman,serif" font-size="14.00"> ≤</text>
<text text-anchor="start" x="1362.62" y="-613.95" font-family="Times New Roman,serif" font-weight="bold" font-size="14.00">2013&#45;05&#45;10</text>
</g>
<!-- split15&#45;&gt;split23 -->
<g id="edge13" class="edge">
<title>split15&#45;&gt;split23</title>
<path fill="none" stroke="black" d="M1127.18,-625.92C1163.99,-624.57 1203.13,-623.13 1237.85,-621.86"/>
<polygon fill="black" stroke="black" points="1237.61,-625.34 1247.47,-621.47 1237.35,-618.34 1237.61,-625.34"/>
<text text-anchor="middle" x="1162.88" y="-626.45" font-family="Times New Roman,serif" font-size="14.00">no</text>
</g>
<!-- leaf5 -->
<g id="node13" class="node">
<title>leaf5</title>
<ellipse fill="none" stroke="black" cx="1612.71" cy="-698" rx="62.1" ry="18"/>
<text text-anchor="start" x="1575.21" y="-693.95" font-family="Times New Roman,serif" font-size="14.00">leaf 5: </text>
<text text-anchor="start" x="1611.96" y="-693.95" font-family="Times New Roman,serif" font-weight="bold" font-size="14.00">&#45;0.394</text>
</g>
<!-- split16&#45;&gt;leaf5 -->
<g id="edge8" class="edge">
<title>split16&#45;&gt;leaf5</title>
<path fill="none" stroke="black" d="M1439.94,-672.22C1475.15,-677.5 1514.29,-683.38 1546.31,-688.18"/>
<polygon fill="black" stroke="black" points="1545.47,-691.75 1555.87,-689.77 1546.5,-684.82 1545.47,-691.75"/>
<text text-anchor="middle" x="1525.62" y="-688.45" font-family="Times New Roman,serif" font-size="14.00">yes</text>
</g>
<!-- leaf17 -->
<g id="node14" class="node">
<title>leaf17</title>
<ellipse fill="none" stroke="black" cx="1612.71" cy="-658" rx="66.71" ry="18"/>
<text text-anchor="start" x="1571.83" y="-653.95" font-family="Times New Roman,serif" font-size="14.00">leaf 17: </text>
<text text-anchor="start" x="1615.33" y="-653.95" font-family="Times New Roman,serif" font-weight="bold" font-size="14.00">&#45;0.404</text>
</g>
<!-- split16&#45;&gt;leaf17 -->
<g id="edge9" class="edge">
<title>split16&#45;&gt;leaf17</title>
<path fill="none" stroke="black" d="M1439.94,-658C1471.12,-658 1505.37,-658 1535.03,-658"/>
<polygon fill="black" stroke="black" points="1534.74,-661.5 1544.74,-658 1534.74,-654.5 1534.74,-661.5"/>
<text text-anchor="middle" x="1525.62" y="-660.45" font-family="Times New Roman,serif" font-size="14.00">no</text>
</g>
<!-- leaf16 -->
<g id="node16" class="node">
<title>leaf16</title>
<ellipse fill="none" stroke="black" cx="1612.71" cy="-618" rx="66.71" ry="18"/>
<text text-anchor="start" x="1571.83" y="-613.95" font-family="Times New Roman,serif" font-size="14.00">leaf 16: </text>
<text text-anchor="start" x="1615.33" y="-613.95" font-family="Times New Roman,serif" font-weight="bold" font-size="14.00">&#45;0.406</text>
</g>
<!-- split23&#45;&gt;leaf16 -->
<g id="edge11" class="edge">
<title>split23&#45;&gt;leaf16</title>
<path fill="none" stroke="black" d="M1439.94,-618C1471.12,-618 1505.37,-618 1535.03,-618"/>
<polygon fill="black" stroke="black" points="1534.74,-621.5 1544.74,-618 1534.74,-614.5 1534.74,-621.5"/>
<text text-anchor="middle" x="1525.62" y="-620.45" font-family="Times New Roman,serif" font-size="14.00">yes</text>
</g>
<!-- leaf24 -->
<g id="node17" class="node">
<title>leaf24</title>
<ellipse fill="none" stroke="black" cx="1612.71" cy="-578" rx="66.71" ry="18"/>
<text text-anchor="start" x="1571.83" y="-573.95" font-family="Times New Roman,serif" font-size="14.00">leaf 24: </text>
<text text-anchor="start" x="1615.33" y="-573.95" font-family="Times New Roman,serif" font-weight="bold" font-size="14.00">&#45;0.413</text>
</g>
<!-- split23&#45;&gt;leaf24 -->
<g id="edge12" class="edge">
<title>split23&#45;&gt;leaf24</title>
<path fill="none" stroke="black" d="M1440.08,-605.45C1461.53,-602.48 1484.19,-599.23 1505.25,-596 1518.26,-594.01 1532.15,-591.75 1545.44,-589.53"/>
<polygon fill="black" stroke="black" points="1545.68,-592.87 1554.96,-587.76 1544.51,-585.97 1545.68,-592.87"/>
<text text-anchor="middle" x="1525.62" y="-596.45" font-family="Times New Roman,serif" font-size="14.00">no</text>
</g>
<!-- split18 -->
<g id="node19" class="node">
<title>split18</title>
<polygon fill="none" stroke="black" points="1098.62,-591 876.38,-591 876.38,-555 1098.62,-555 1098.62,-591"/>
<text text-anchor="start" x="884.38" y="-568.95" font-family="Times New Roman,serif" font-weight="bold" font-size="14.00">第一次門市交易日</text>
<text text-anchor="start" x="1010.38" y="-568.95" font-family="Times New Roman,serif" font-size="14.00"> ≤</text>
<text text-anchor="start" x="1021.62" y="-568.95" font-family="Times New Roman,serif" font-weight="bold" font-size="14.00">2014&#45;08&#45;03</text>
</g>
<!-- split2&#45;&gt;split18 -->
<g id="edge18" class="edge">
<title>split2&#45;&gt;split18</title>
<path fill="none" stroke="black" d="M783.97,-556.96C810.06,-559.02 838.42,-561.27 865.44,-563.41"/>
<polygon fill="black" stroke="black" points="864.87,-566.96 875.12,-564.26 865.43,-559.98 864.87,-566.96"/>
<text text-anchor="middle" x="812.12" y="-561.45" font-family="Times New Roman,serif" font-size="14.00">yes</text>
</g>
<!-- leaf3 -->
<g id="node22" class="node">
<title>leaf3</title>
<ellipse fill="none" stroke="black" cx="987.5" cy="-533" rx="62.1" ry="18"/>
<text text-anchor="start" x="950" y="-528.95" font-family="Times New Roman,serif" font-size="14.00">leaf 3: </text>
<text text-anchor="start" x="986.75" y="-528.95" font-family="Times New Roman,serif" font-weight="bold" font-size="14.00">&#45;0.375</text>
</g>
<!-- split2&#45;&gt;leaf3 -->
<g id="edge19" class="edge">
<title>split2&#45;&gt;leaf3</title>
<path fill="none" stroke="black" d="M783.97,-543.69C826.96,-541.42 876.15,-538.83 915.29,-536.76"/>
<polygon fill="black" stroke="black" points="915.25,-540.21 925.05,-536.19 914.88,-533.22 915.25,-540.21"/>
<text text-anchor="middle" x="812.12" y="-544.45" font-family="Times New Roman,serif" font-size="14.00">no</text>
</g>
<!-- leaf2 -->
<g id="node20" class="node">
<title>leaf2</title>
<ellipse fill="none" stroke="black" cx="1344.25" cy="-578" rx="62.1" ry="18"/>
<text text-anchor="start" x="1306.75" y="-573.95" font-family="Times New Roman,serif" font-size="14.00">leaf 2: </text>
<text text-anchor="start" x="1343.5" y="-573.95" font-family="Times New Roman,serif" font-weight="bold" font-size="14.00">&#45;0.404</text>
</g>
<!-- split18&#45;&gt;leaf2 -->
<g id="edge16" class="edge">
<title>split18&#45;&gt;leaf2</title>
<path fill="none" stroke="black" d="M1098.8,-574.55C1154.87,-575.34 1221.42,-576.28 1270.91,-576.98"/>
<polygon fill="black" stroke="black" points="1270.79,-580.49 1280.84,-577.13 1270.89,-573.49 1270.79,-580.49"/>
<text text-anchor="middle" x="1162.88" y="-577.45" font-family="Times New Roman,serif" font-size="14.00">yes</text>
</g>
<!-- leaf19 -->
<g id="node21" class="node">
<title>leaf19</title>
<ellipse fill="none" stroke="black" cx="1344.25" cy="-538" rx="66.71" ry="18"/>
<text text-anchor="start" x="1303.38" y="-533.95" font-family="Times New Roman,serif" font-size="14.00">leaf 19: </text>
<text text-anchor="start" x="1346.88" y="-533.95" font-family="Times New Roman,serif" font-weight="bold" font-size="14.00">&#45;0.415</text>
</g>
<!-- split18&#45;&gt;leaf19 -->
<g id="edge17" class="edge">
<title>split18&#45;&gt;leaf19</title>
<path fill="none" stroke="black" d="M1098.8,-562.12C1154.58,-556.61 1220.74,-550.09 1270.16,-545.21"/>
<polygon fill="black" stroke="black" points="1270.47,-548.6 1280.07,-544.13 1269.78,-541.63 1270.47,-548.6"/>
<text text-anchor="middle" x="1162.88" y="-558.45" font-family="Times New Roman,serif" font-size="14.00">no</text>
</g>
<!-- split7 -->
<g id="node24" class="node">
<title>split7</title>
<polygon fill="none" stroke="black" points="777.88,-421 587.12,-421 587.12,-385 777.88,-385 777.88,-421"/>
<text text-anchor="start" x="595.12" y="-398.95" font-family="Times New Roman,serif" font-weight="bold" font-size="14.00">手機驗證日期</text>
<text text-anchor="start" x="689.62" y="-398.95" font-family="Times New Roman,serif" font-size="14.00"> ≤</text>
<text text-anchor="start" x="700.88" y="-398.95" font-family="Times New Roman,serif" font-weight="bold" font-size="14.00">2010&#45;11&#45;23</text>
</g>
<!-- split3&#45;&gt;split7 -->
<g id="edge34" class="edge">
<title>split3&#45;&gt;split7</title>
<path fill="none" stroke="black" d="M532.7,-403C547.38,-403 562.11,-403 576.3,-403"/>
<polygon fill="black" stroke="black" points="576.03,-406.5 586.03,-403 576.03,-399.5 576.03,-406.5"/>
<text text-anchor="middle" x="552.88" y="-405.45" font-family="Times New Roman,serif" font-size="14.00">yes</text>
</g>
<!-- split9 -->
<g id="node37" class="node">
<title>split9</title>
<polygon fill="none" stroke="black" points="777.88,-249 587.12,-249 587.12,-213 777.88,-213 777.88,-249"/>
<text text-anchor="start" x="595.12" y="-226.95" font-family="Times New Roman,serif" font-weight="bold" font-size="14.00">第一次交易日</text>
<text text-anchor="start" x="689.62" y="-226.95" font-family="Times New Roman,serif" font-size="14.00"> ≤</text>
<text text-anchor="start" x="700.88" y="-226.95" font-family="Times New Roman,serif" font-weight="bold" font-size="14.00">2015&#45;01&#45;16</text>
</g>
<!-- split3&#45;&gt;split9 -->
<g id="edge49" class="edge">
<title>split3&#45;&gt;split9</title>
<path fill="none" stroke="black" d="M423.32,-384.59C476.03,-353.23 583.19,-289.48 641.51,-254.79"/>
<polygon fill="black" stroke="black" points="642.98,-257.4 649.78,-249.27 639.4,-251.38 642.98,-257.4"/>
<text text-anchor="middle" x="552.88" y="-313.45" font-family="Times New Roman,serif" font-size="14.00">no</text>
</g>
<!-- split20 -->
<g id="node25" class="node">
<title>split20</title>
<polygon fill="none" stroke="black" points="1037.5,-445 937.5,-445 937.5,-409 1037.5,-409 1037.5,-445"/>
<text text-anchor="start" x="945.5" y="-422.95" font-family="Times New Roman,serif" font-weight="bold" font-size="14.00">年齡</text>
<text text-anchor="start" x="977" y="-422.95" font-family="Times New Roman,serif" font-size="14.00"> ≤</text>
<text text-anchor="start" x="988.25" y="-422.95" font-family="Times New Roman,serif" font-weight="bold" font-size="14.00">48.500</text>
</g>
<!-- split7&#45;&gt;split20 -->
<g id="edge28" class="edge">
<title>split7&#45;&gt;split20</title>
<path fill="none" stroke="black" d="M778.12,-410.5C826.58,-414.33 884.12,-418.89 926.44,-422.24"/>
<polygon fill="black" stroke="black" points="926.16,-425.81 936.41,-423.11 926.71,-418.83 926.16,-425.81"/>
<text text-anchor="middle" x="812.12" y="-415.45" font-family="Times New Roman,serif" font-size="14.00">yes</text>
</g>
<!-- split8 -->
<g id="node32" class="node">
<title>split8</title>
<polygon fill="none" stroke="black" points="1082.88,-396 892.12,-396 892.12,-360 1082.88,-360 1082.88,-396"/>
<text text-anchor="start" x="900.12" y="-373.95" font-family="Times New Roman,serif" font-weight="bold" font-size="14.00">手機驗證日期</text>
<text text-anchor="start" x="994.62" y="-373.95" font-family="Times New Roman,serif" font-size="14.00"> ≤</text>
<text text-anchor="start" x="1005.88" y="-373.95" font-family="Times New Roman,serif" font-weight="bold" font-size="14.00">2017&#45;05&#45;21</text>
</g>
<!-- split7&#45;&gt;split8 -->
<g id="edge33" class="edge">
<title>split7&#45;&gt;split8</title>
<path fill="none" stroke="black" d="M778.12,-395.19C810.79,-392.5 847.59,-389.46 881.07,-386.7"/>
<polygon fill="black" stroke="black" points="881.13,-390.12 890.81,-385.81 880.56,-383.15 881.13,-390.12"/>
<text text-anchor="middle" x="812.12" y="-394.45" font-family="Times New Roman,serif" font-size="14.00">no</text>
</g>
<!-- split21 -->
<g id="node26" class="node">
<title>split21</title>
<polygon fill="none" stroke="black" points="1453.5,-516 1235,-516 1235,-480 1453.5,-480 1453.5,-516"/>
<text text-anchor="start" x="1243" y="-493.95" font-family="Times New Roman,serif" font-weight="bold" font-size="14.00">倒數第一個月開信行為</text>
<text text-anchor="start" x="1400.5" y="-493.95" font-family="Times New Roman,serif" font-size="14.00"> ≤</text>
<text text-anchor="start" x="1411.75" y="-493.95" font-family="Times New Roman,serif" font-weight="bold" font-size="14.00">0.000</text>
</g>
<!-- split20&#45;&gt;split21 -->
<g id="edge24" class="edge">
<title>split20&#45;&gt;split21</title>
<path fill="none" stroke="black" d="M1037.83,-436.87C1089.96,-447.31 1173.7,-464.07 1240.32,-477.4"/>
<polygon fill="black" stroke="black" points="1239.37,-480.98 1249.86,-479.51 1240.74,-474.11 1239.37,-480.98"/>
<text text-anchor="middle" x="1162.88" y="-464.45" font-family="Times New Roman,serif" font-size="14.00">yes</text>
</g>
<!-- split22 -->
<g id="node29" class="node">
<title>split22</title>
<polygon fill="none" stroke="black" points="1505.25,-445 1183.25,-445 1183.25,-409 1505.25,-409 1505.25,-445"/>
<text text-anchor="start" x="1191.25" y="-422.95" font-family="Times New Roman,serif" font-weight="bold" font-size="14.00">最近一次門市交易日(不含綁約)(年)</text>
<text text-anchor="start" x="1429.75" y="-422.95" font-family="Times New Roman,serif" font-size="14.00"> ≤</text>
<text text-anchor="start" x="1441" y="-422.95" font-family="Times New Roman,serif" font-weight="bold" font-size="14.00">2012.500</text>
</g>
<!-- split20&#45;&gt;split22 -->
<g id="edge27" class="edge">
<title>split20&#45;&gt;split22</title>
<path fill="none" stroke="black" d="M1037.83,-427C1073.12,-427 1122.9,-427 1172.05,-427"/>
<polygon fill="black" stroke="black" points="1171.85,-430.5 1181.85,-427 1171.85,-423.5 1171.85,-430.5"/>
<text text-anchor="middle" x="1162.88" y="-429.45" font-family="Times New Roman,serif" font-size="14.00">no</text>
</g>
<!-- leaf1 -->
<g id="node27" class="node">
<title>leaf1</title>
<ellipse fill="none" stroke="black" cx="1612.71" cy="-538" rx="62.1" ry="18"/>
<text text-anchor="start" x="1575.21" y="-533.95" font-family="Times New Roman,serif" font-size="14.00">leaf 1: </text>
<text text-anchor="start" x="1611.96" y="-533.95" font-family="Times New Roman,serif" font-weight="bold" font-size="14.00">&#45;0.389</text>
</g>
<!-- split21&#45;&gt;leaf1 -->
<g id="edge22" class="edge">
<title>split21&#45;&gt;leaf1</title>
<path fill="none" stroke="black" d="M1453.76,-512.46C1471,-514.89 1488.62,-517.45 1505.25,-520 1519.13,-522.13 1534,-524.55 1548.09,-526.91"/>
<polygon fill="black" stroke="black" points="1547.25,-530.49 1557.69,-528.7 1548.41,-523.59 1547.25,-530.49"/>
<text text-anchor="middle" x="1525.62" y="-526.45" font-family="Times New Roman,serif" font-size="14.00">yes</text>
</g>
<!-- leaf22 -->
<g id="node28" class="node">
<title>leaf22</title>
<ellipse fill="none" stroke="black" cx="1612.71" cy="-498" rx="66.71" ry="18"/>
<text text-anchor="start" x="1571.83" y="-493.95" font-family="Times New Roman,serif" font-size="14.00">leaf 22: </text>
<text text-anchor="start" x="1615.33" y="-493.95" font-family="Times New Roman,serif" font-weight="bold" font-size="14.00">&#45;0.383</text>
</g>
<!-- split21&#45;&gt;leaf22 -->
<g id="edge23" class="edge">
<title>split21&#45;&gt;leaf22</title>
<path fill="none" stroke="black" d="M1453.63,-498C1480.99,-498 1509.79,-498 1535.21,-498"/>
<polygon fill="black" stroke="black" points="1534.88,-501.5 1544.88,-498 1534.88,-494.5 1534.88,-501.5"/>
<text text-anchor="middle" x="1525.62" y="-500.45" font-family="Times New Roman,serif" font-size="14.00">no</text>
</g>
<!-- leaf21 -->
<g id="node30" class="node">
<title>leaf21</title>
<ellipse fill="none" stroke="black" cx="1612.71" cy="-458" rx="66.71" ry="18"/>
<text text-anchor="start" x="1571.83" y="-453.95" font-family="Times New Roman,serif" font-size="14.00">leaf 21: </text>
<text text-anchor="start" x="1615.33" y="-453.95" font-family="Times New Roman,serif" font-weight="bold" font-size="14.00">&#45;0.389</text>
</g>
<!-- split22&#45;&gt;leaf21 -->
<g id="edge25" class="edge">
<title>split22&#45;&gt;leaf21</title>
<path fill="none" stroke="black" d="M1504.1,-445.48C1516.6,-446.93 1528.78,-448.35 1540.19,-449.68"/>
<polygon fill="black" stroke="black" points="1539.55,-453.24 1549.88,-450.92 1540.35,-446.29 1539.55,-453.24"/>
<text text-anchor="middle" x="1525.62" y="-450.45" font-family="Times New Roman,serif" font-size="14.00">yes</text>
</g>
<!-- leaf23 -->
<g id="node31" class="node">
<title>leaf23</title>
<ellipse fill="none" stroke="black" cx="1612.71" cy="-418" rx="66.71" ry="18"/>
<text text-anchor="start" x="1571.83" y="-413.95" font-family="Times New Roman,serif" font-size="14.00">leaf 23: </text>
<text text-anchor="start" x="1615.33" y="-413.95" font-family="Times New Roman,serif" font-weight="bold" font-size="14.00">&#45;0.379</text>
</g>
<!-- split22&#45;&gt;leaf23 -->
<g id="edge26" class="edge">
<title>split22&#45;&gt;leaf23</title>
<path fill="none" stroke="black" d="M1505.63,-421.58C1515.77,-421.24 1525.69,-420.91 1535.14,-420.59"/>
<polygon fill="black" stroke="black" points="1535.14,-424.05 1545.01,-420.22 1534.9,-417.06 1535.14,-424.05"/>
<text text-anchor="middle" x="1525.62" y="-423.45" font-family="Times New Roman,serif" font-size="14.00">no</text>
</g>
<!-- split11 -->
<g id="node33" class="node">
<title>split11</title>
<polygon fill="none" stroke="black" points="1453.5,-396 1235,-396 1235,-360 1453.5,-360 1453.5,-396"/>
<text text-anchor="start" x="1243" y="-373.95" font-family="Times New Roman,serif" font-weight="bold" font-size="14.00">倒數第一個月開信行為</text>
<text text-anchor="start" x="1400.5" y="-373.95" font-family="Times New Roman,serif" font-size="14.00"> ≤</text>
<text text-anchor="start" x="1411.75" y="-373.95" font-family="Times New Roman,serif" font-weight="bold" font-size="14.00">0.000</text>
</g>
<!-- split8&#45;&gt;split11 -->
<g id="edge31" class="edge">
<title>split8&#45;&gt;split11</title>
<path fill="none" stroke="black" d="M1083.1,-378C1126.33,-378 1178.02,-378 1223.88,-378"/>
<polygon fill="black" stroke="black" points="1223.8,-381.5 1233.8,-378 1223.8,-374.5 1223.8,-381.5"/>
<text text-anchor="middle" x="1162.88" y="-380.45" font-family="Times New Roman,serif" font-size="14.00">yes</text>
</g>
<!-- leaf9 -->
<g id="node36" class="node">
<title>leaf9</title>
<ellipse fill="none" stroke="black" cx="1344.25" cy="-338" rx="62.1" ry="18"/>
<text text-anchor="start" x="1306.75" y="-333.95" font-family="Times New Roman,serif" font-size="14.00">leaf 9: </text>
<text text-anchor="start" x="1343.5" y="-333.95" font-family="Times New Roman,serif" font-weight="bold" font-size="14.00">&#45;0.375</text>
</g>
<!-- split8&#45;&gt;leaf9 -->
<g id="edge32" class="edge">
<title>split8&#45;&gt;leaf9</title>
<path fill="none" stroke="black" d="M1083.1,-367.33C1143.49,-360.52 1220.39,-351.85 1274.87,-345.71"/>
<polygon fill="black" stroke="black" points="1275.26,-349.08 1284.8,-344.48 1274.47,-342.12 1275.26,-349.08"/>
<text text-anchor="middle" x="1162.88" y="-361.45" font-family="Times New Roman,serif" font-size="14.00">no</text>
</g>
<!-- leaf8 -->
<g id="node34" class="node">
<title>leaf8</title>
<ellipse fill="none" stroke="black" cx="1612.71" cy="-378" rx="62.1" ry="18"/>
<text text-anchor="start" x="1575.21" y="-373.95" font-family="Times New Roman,serif" font-size="14.00">leaf 8: </text>
<text text-anchor="start" x="1611.96" y="-373.95" font-family="Times New Roman,serif" font-weight="bold" font-size="14.00">&#45;0.396</text>
</g>
<!-- split11&#45;&gt;leaf8 -->
<g id="edge29" class="edge">
<title>split11&#45;&gt;leaf8</title>
<path fill="none" stroke="black" d="M1453.63,-378C1482.63,-378 1513.25,-378 1539.75,-378"/>
<polygon fill="black" stroke="black" points="1539.45,-381.5 1549.45,-378 1539.45,-374.5 1539.45,-381.5"/>
<text text-anchor="middle" x="1525.62" y="-380.45" font-family="Times New Roman,serif" font-size="14.00">yes</text>
</g>
<!-- leaf12 -->
<g id="node35" class="node">
<title>leaf12</title>
<ellipse fill="none" stroke="black" cx="1612.71" cy="-338" rx="66.71" ry="18"/>
<text text-anchor="start" x="1571.83" y="-333.95" font-family="Times New Roman,serif" font-size="14.00">leaf 12: </text>
<text text-anchor="start" x="1615.33" y="-333.95" font-family="Times New Roman,serif" font-weight="bold" font-size="14.00">&#45;0.390</text>
</g>
<!-- split11&#45;&gt;leaf12 -->
<g id="edge30" class="edge">
<title>split11&#45;&gt;leaf12</title>
<path fill="none" stroke="black" d="M1453.76,-363.54C1471,-361.11 1488.62,-358.55 1505.25,-356 1518.26,-354.01 1532.15,-351.75 1545.44,-349.53"/>
<polygon fill="black" stroke="black" points="1545.68,-352.87 1554.96,-347.76 1544.51,-345.97 1545.68,-352.87"/>
<text text-anchor="middle" x="1525.62" y="-356.45" font-family="Times New Roman,serif" font-size="14.00">no</text>
</g>
<!-- split10 -->
<g id="node38" class="node">
<title>split10</title>
<polygon fill="none" stroke="black" points="1082.88,-249 892.12,-249 892.12,-213 1082.88,-213 1082.88,-249"/>
<text text-anchor="start" x="900.12" y="-226.95" font-family="Times New Roman,serif" font-weight="bold" font-size="14.00">第一次交易日</text>
<text text-anchor="start" x="994.62" y="-226.95" font-family="Times New Roman,serif" font-size="14.00"> ≤</text>
<text text-anchor="start" x="1005.88" y="-226.95" font-family="Times New Roman,serif" font-weight="bold" font-size="14.00">2013&#45;10&#45;25</text>
</g>
<!-- split9&#45;&gt;split10 -->
<g id="edge41" class="edge">
<title>split9&#45;&gt;split10</title>
<path fill="none" stroke="black" d="M778.12,-231C810.79,-231 847.59,-231 881.07,-231"/>
<polygon fill="black" stroke="black" points="880.81,-234.5 890.81,-231 880.81,-227.5 880.81,-234.5"/>
<text text-anchor="middle" x="812.12" y="-233.45" font-family="Times New Roman,serif" font-size="14.00">yes</text>
</g>
<!-- split17 -->
<g id="node45" class="node">
<title>split17</title>
<polygon fill="none" stroke="black" points="1142.5,-142 832.5,-142 832.5,-106 1142.5,-106 1142.5,-142"/>
<text text-anchor="start" x="840.5" y="-119.95" font-family="Times New Roman,serif" font-weight="bold" font-size="14.00">最近一次門市交易日(不含綁約)</text>
<text text-anchor="start" x="1054.25" y="-119.95" font-family="Times New Roman,serif" font-size="14.00"> ≤</text>
<text text-anchor="start" x="1065.5" y="-119.95" font-family="Times New Roman,serif" font-weight="bold" font-size="14.00">2016&#45;07&#45;23</text>
</g>
<!-- split9&#45;&gt;split17 -->
<g id="edge48" class="edge">
<title>split9&#45;&gt;split17</title>
<path fill="none" stroke="black" d="M735.59,-212.61C787.91,-194.13 868.57,-165.65 924.24,-145.99"/>
<polygon fill="black" stroke="black" points="925.07,-149.05 933.33,-142.42 922.74,-142.45 925.07,-149.05"/>
<text text-anchor="middle" x="812.12" y="-189.45" font-family="Times New Roman,serif" font-size="14.00">no</text>
</g>
<!-- split13 -->
<g id="node39" class="node">
<title>split13</title>
<polygon fill="none" stroke="black" points="1499.25,-276 1189.25,-276 1189.25,-240 1499.25,-240 1499.25,-276"/>
<text text-anchor="start" x="1197.25" y="-253.95" font-family="Times New Roman,serif" font-weight="bold" font-size="14.00">最近一次門市交易日(不含綁約)</text>
<text text-anchor="start" x="1411" y="-253.95" font-family="Times New Roman,serif" font-size="14.00"> ≤</text>
<text text-anchor="start" x="1422.25" y="-253.95" font-family="Times New Roman,serif" font-weight="bold" font-size="14.00">2018&#45;11&#45;12</text>
</g>
<!-- split10&#45;&gt;split13 -->
<g id="edge37" class="edge">
<title>split10&#45;&gt;split13</title>
<path fill="none" stroke="black" d="M1083.1,-238.2C1112.46,-240.43 1145.71,-242.97 1178.4,-245.45"/>
<polygon fill="black" stroke="black" points="1177.75,-248.99 1187.98,-246.26 1178.28,-242.01 1177.75,-248.99"/>
<text text-anchor="middle" x="1162.88" y="-246.45" font-family="Times New Roman,serif" font-size="14.00">yes</text>
</g>
<!-- split14 -->
<g id="node42" class="node">
<title>split14</title>
<polygon fill="none" stroke="black" points="1499.25,-236 1189.25,-236 1189.25,-200 1499.25,-200 1499.25,-236"/>
<text text-anchor="start" x="1197.25" y="-213.95" font-family="Times New Roman,serif" font-weight="bold" font-size="14.00">最近一次門市交易日(不含綁約)</text>
<text text-anchor="start" x="1411" y="-213.95" font-family="Times New Roman,serif" font-size="14.00"> ≤</text>
<text text-anchor="start" x="1422.25" y="-213.95" font-family="Times New Roman,serif" font-weight="bold" font-size="14.00">2020&#45;10&#45;29</text>
</g>
<!-- split10&#45;&gt;split14 -->
<g id="edge40" class="edge">
<title>split10&#45;&gt;split14</title>
<path fill="none" stroke="black" d="M1083.1,-227.53C1112.46,-226.46 1145.71,-225.24 1178.4,-224.04"/>
<polygon fill="black" stroke="black" points="1178.12,-227.52 1187.98,-223.65 1177.86,-220.52 1178.12,-227.52"/>
<text text-anchor="middle" x="1162.88" y="-226.45" font-family="Times New Roman,serif" font-size="14.00">no</text>
</g>
<!-- leaf4 -->
<g id="node40" class="node">
<title>leaf4</title>
<ellipse fill="none" stroke="black" cx="1612.71" cy="-298" rx="62.1" ry="18"/>
<text text-anchor="start" x="1575.21" y="-293.95" font-family="Times New Roman,serif" font-size="14.00">leaf 4: </text>
<text text-anchor="start" x="1611.96" y="-293.95" font-family="Times New Roman,serif" font-weight="bold" font-size="14.00">&#45;0.387</text>
</g>
<!-- split13&#45;&gt;leaf4 -->
<g id="edge35" class="edge">
<title>split13&#45;&gt;leaf4</title>
<path fill="none" stroke="black" d="M1468.34,-276.48C1495.3,-280.53 1522.82,-284.66 1546.44,-288.2"/>
<polygon fill="black" stroke="black" points="1545.6,-291.77 1556.01,-289.79 1546.64,-284.84 1545.6,-291.77"/>
<text text-anchor="middle" x="1525.62" y="-288.45" font-family="Times New Roman,serif" font-size="14.00">yes</text>
</g>
<!-- leaf14 -->
<g id="node41" class="node">
<title>leaf14</title>
<ellipse fill="none" stroke="black" cx="1612.71" cy="-258" rx="66.71" ry="18"/>
<text text-anchor="start" x="1571.83" y="-253.95" font-family="Times New Roman,serif" font-size="14.00">leaf 14: </text>
<text text-anchor="start" x="1615.33" y="-253.95" font-family="Times New Roman,serif" font-weight="bold" font-size="14.00">&#45;0.380</text>
</g>
<!-- split13&#45;&gt;leaf14 -->
<g id="edge36" class="edge">
<title>split13&#45;&gt;leaf14</title>
<path fill="none" stroke="black" d="M1499.48,-258C1511.56,-258 1523.41,-258 1534.61,-258"/>
<polygon fill="black" stroke="black" points="1534.58,-261.5 1544.58,-258 1534.58,-254.5 1534.58,-261.5"/>
<text text-anchor="middle" x="1525.62" y="-260.45" font-family="Times New Roman,serif" font-size="14.00">no</text>
</g>
<!-- leaf11 -->
<g id="node43" class="node">
<title>leaf11</title>
<ellipse fill="none" stroke="black" cx="1612.71" cy="-218" rx="66.71" ry="18"/>
<text text-anchor="start" x="1571.83" y="-213.95" font-family="Times New Roman,serif" font-size="14.00">leaf 11: </text>
<text text-anchor="start" x="1615.33" y="-213.95" font-family="Times New Roman,serif" font-weight="bold" font-size="14.00">&#45;0.395</text>
</g>
<!-- split14&#45;&gt;leaf11 -->
<g id="edge38" class="edge">
<title>split14&#45;&gt;leaf11</title>
<path fill="none" stroke="black" d="M1499.48,-218C1511.56,-218 1523.41,-218 1534.61,-218"/>
<polygon fill="black" stroke="black" points="1534.58,-221.5 1544.58,-218 1534.58,-214.5 1534.58,-221.5"/>
<text text-anchor="middle" x="1525.62" y="-220.45" font-family="Times New Roman,serif" font-size="14.00">yes</text>
</g>
<!-- leaf15 -->
<g id="node44" class="node">
<title>leaf15</title>
<ellipse fill="none" stroke="black" cx="1612.71" cy="-178" rx="66.71" ry="18"/>
<text text-anchor="start" x="1571.83" y="-173.95" font-family="Times New Roman,serif" font-size="14.00">leaf 15: </text>
<text text-anchor="start" x="1615.33" y="-173.95" font-family="Times New Roman,serif" font-weight="bold" font-size="14.00">&#45;0.386</text>
</g>
<!-- split14&#45;&gt;leaf15 -->
<g id="edge39" class="edge">
<title>split14&#45;&gt;leaf15</title>
<path fill="none" stroke="black" d="M1468.34,-199.52C1494,-195.67 1520.17,-191.74 1543,-188.31"/>
<polygon fill="black" stroke="black" points="1543.21,-191.67 1552.58,-186.73 1542.17,-184.75 1543.21,-191.67"/>
<text text-anchor="middle" x="1525.62" y="-194.45" font-family="Times New Roman,serif" font-size="14.00">no</text>
</g>
<!-- split19 -->
<g id="node46" class="node">
<title>split19</title>
<polygon fill="none" stroke="black" points="1439.62,-142 1248.88,-142 1248.88,-106 1439.62,-106 1439.62,-142"/>
<text text-anchor="start" x="1256.88" y="-119.95" font-family="Times New Roman,serif" font-weight="bold" font-size="14.00">手機驗證日期</text>
<text text-anchor="start" x="1351.38" y="-119.95" font-family="Times New Roman,serif" font-size="14.00"> ≤</text>
<text text-anchor="start" x="1362.62" y="-119.95" font-family="Times New Roman,serif" font-weight="bold" font-size="14.00">2016&#45;06&#45;01</text>
</g>
<!-- split17&#45;&gt;split19 -->
<g id="edge44" class="edge">
<title>split17&#45;&gt;split19</title>
<path fill="none" stroke="black" d="M1142.81,-124C1174.84,-124 1207.9,-124 1237.7,-124"/>
<polygon fill="black" stroke="black" points="1237.52,-127.5 1247.52,-124 1237.52,-120.5 1237.52,-127.5"/>
<text text-anchor="middle" x="1162.88" y="-126.45" font-family="Times New Roman,serif" font-size="14.00">yes</text>
</g>
<!-- split24 -->
<g id="node49" class="node">
<title>split24</title>
<polygon fill="none" stroke="black" points="1439.62,-76 1248.88,-76 1248.88,-40 1439.62,-40 1439.62,-76"/>
<text text-anchor="start" x="1256.88" y="-53.95" font-family="Times New Roman,serif" font-weight="bold" font-size="14.00">手機驗證日期</text>
<text text-anchor="start" x="1351.38" y="-53.95" font-family="Times New Roman,serif" font-size="14.00"> ≤</text>
<text text-anchor="start" x="1362.62" y="-53.95" font-family="Times New Roman,serif" font-weight="bold" font-size="14.00">2014&#45;10&#45;19</text>
</g>
<!-- split17&#45;&gt;split24 -->
<g id="edge47" class="edge">
<title>split17&#45;&gt;split24</title>
<path fill="none" stroke="black" d="M1087.79,-105.53C1134.57,-96.82 1190.41,-86.44 1237.93,-77.59"/>
<polygon fill="black" stroke="black" points="1238.38,-80.89 1247.57,-75.62 1237.09,-74 1238.38,-80.89"/>
<text text-anchor="middle" x="1162.88" y="-94.45" font-family="Times New Roman,serif" font-size="14.00">no</text>
</g>
<!-- leaf10 -->
<g id="node47" class="node">
<title>leaf10</title>
<ellipse fill="none" stroke="black" cx="1612.71" cy="-138" rx="66.71" ry="18"/>
<text text-anchor="start" x="1571.83" y="-133.95" font-family="Times New Roman,serif" font-size="14.00">leaf 10: </text>
<text text-anchor="start" x="1615.33" y="-133.95" font-family="Times New Roman,serif" font-weight="bold" font-size="14.00">&#45;0.387</text>
</g>
<!-- split19&#45;&gt;leaf10 -->
<g id="edge42" class="edge">
<title>split19&#45;&gt;leaf10</title>
<path fill="none" stroke="black" d="M1439.94,-128.98C1471.52,-130.63 1506.25,-132.46 1536.17,-134.03"/>
<polygon fill="black" stroke="black" points="1535.79,-137.57 1545.96,-134.6 1536.16,-130.58 1535.79,-137.57"/>
<text text-anchor="middle" x="1525.62" y="-135.45" font-family="Times New Roman,serif" font-size="14.00">yes</text>
</g>
<!-- leaf20 -->
<g id="node48" class="node">
<title>leaf20</title>
<ellipse fill="none" stroke="black" cx="1612.71" cy="-98" rx="66.71" ry="18"/>
<text text-anchor="start" x="1571.83" y="-93.95" font-family="Times New Roman,serif" font-size="14.00">leaf 20: </text>
<text text-anchor="start" x="1615.33" y="-93.95" font-family="Times New Roman,serif" font-weight="bold" font-size="14.00">&#45;0.377</text>
</g>
<!-- split19&#45;&gt;leaf20 -->
<g id="edge43" class="edge">
<title>split19&#45;&gt;leaf20</title>
<path fill="none" stroke="black" d="M1439.94,-114.76C1472.46,-111.59 1508.32,-108.09 1538.83,-105.11"/>
<polygon fill="black" stroke="black" points="1538.78,-108.54 1548.39,-104.08 1538.1,-101.57 1538.78,-108.54"/>
<text text-anchor="middle" x="1525.62" y="-109.45" font-family="Times New Roman,serif" font-size="14.00">no</text>
</g>
<!-- leaf18 -->
<g id="node50" class="node">
<title>leaf18</title>
<ellipse fill="none" stroke="black" cx="1612.71" cy="-58" rx="66.71" ry="18"/>
<text text-anchor="start" x="1571.83" y="-53.95" font-family="Times New Roman,serif" font-size="14.00">leaf 18: </text>
<text text-anchor="start" x="1615.33" y="-53.95" font-family="Times New Roman,serif" font-weight="bold" font-size="14.00">&#45;0.380</text>
</g>
<!-- split24&#45;&gt;leaf18 -->
<g id="edge45" class="edge">
<title>split24&#45;&gt;leaf18</title>
<path fill="none" stroke="black" d="M1439.94,-58C1471.12,-58 1505.37,-58 1535.03,-58"/>
<polygon fill="black" stroke="black" points="1534.74,-61.5 1544.74,-58 1534.74,-54.5 1534.74,-61.5"/>
<text text-anchor="middle" x="1525.62" y="-60.45" font-family="Times New Roman,serif" font-size="14.00">yes</text>
</g>
<!-- leaf25 -->
<g id="node51" class="node">
<title>leaf25</title>
<ellipse fill="none" stroke="black" cx="1612.71" cy="-18" rx="66.71" ry="18"/>
<text text-anchor="start" x="1571.83" y="-13.95" font-family="Times New Roman,serif" font-size="14.00">leaf 25: </text>
<text text-anchor="start" x="1615.33" y="-13.95" font-family="Times New Roman,serif" font-weight="bold" font-size="14.00">&#45;0.376</text>
</g>
<!-- split24&#45;&gt;leaf25 -->
<g id="edge46" class="edge">
<title>split24&#45;&gt;leaf25</title>
<path fill="none" stroke="black" d="M1439.94,-43.78C1473.93,-38.68 1511.58,-33.03 1542.94,-28.32"/>
<polygon fill="black" stroke="black" points="1543.39,-31.64 1552.76,-26.7 1542.35,-24.72 1543.39,-31.64"/>
<text text-anchor="middle" x="1525.62" y="-35.45" font-family="Times New Roman,serif" font-size="14.00">no</text>
</g>
</g>
</svg>
