<?xml version="1.0" encoding="UTF-8" standalone="no"?>
<!DOCTYPE svg PUBLIC "-//W3C//DTD SVG 1.1//EN"
 "http://www.w3.org/Graphics/SVG/1.1/DTD/svg11.dtd">
<!-- Generated by graphviz version 8.0.5 (20230430.1635)
 -->
<!-- Pages: 1 -->
<svg width="1500pt" height="774pt"
 viewBox="0.00 0.00 1499.77 774.00" xmlns="http://www.w3.org/2000/svg" xmlns:xlink="http://www.w3.org/1999/xlink">
<g id="graph0" class="graph" transform="scale(1 1) rotate(0) translate(4 770)">
<polygon fill="white" stroke="none" points="-4,4 -4,-770 1495.77,-770 1495.77,4 -4,4"/>
<!-- split0 -->
<g id="node1" class="node">
<title>split0</title>
<polygon fill="none" stroke="black" points="190.75,-214 0,-214 0,-178 190.75,-178 190.75,-214"/>
<text text-anchor="start" x="8" y="-191.95" font-family="Times New Roman,serif" font-weight="bold" font-size="14.00">手機驗證日期</text>
<text text-anchor="start" x="102.5" y="-191.95" font-family="Times New Roman,serif" font-size="14.00"> ≤</text>
<text text-anchor="start" x="113.75" y="-191.95" font-family="Times New Roman,serif" font-weight="bold" font-size="14.00">2017&#45;01&#45;04</text>
</g>
<!-- split1 -->
<g id="node2" class="node">
<title>split1</title>
<polygon fill="none" stroke="black" points="403.88,-303 261.88,-303 261.88,-267 403.88,-267 403.88,-303"/>
<text text-anchor="start" x="269.88" y="-280.95" font-family="Times New Roman,serif" font-weight="bold" font-size="14.00">自媒互動程度</text>
<text text-anchor="start" x="364.38" y="-280.95" font-family="Times New Roman,serif" font-size="14.00"> =</text>
<text text-anchor="start" x="376.38" y="-280.95" font-family="Times New Roman,serif" font-weight="bold" font-size="14.00">1||8</text>
</g>
<!-- split0&#45;&gt;split1 -->
<g id="edge31" class="edge">
<title>split0&#45;&gt;split1</title>
<path fill="none" stroke="black" d="M145.17,-214.44C182.27,-228.46 233.48,-247.81 272.88,-262.7"/>
<polygon fill="black" stroke="black" points="271.55,-266.32 282.14,-266.58 274.02,-259.77 271.55,-266.32"/>
<text text-anchor="middle" x="211.12" y="-242.45" font-family="Times New Roman,serif" font-size="14.00">yes</text>
</g>
<!-- split7 -->
<g id="node33" class="node">
<title>split7</title>
<polygon fill="none" stroke="black" points="434.25,-162 231.5,-162 231.5,-126 434.25,-126 434.25,-162"/>
<text text-anchor="start" x="239.5" y="-139.95" font-family="Times New Roman,serif" font-weight="bold" font-size="14.00">第一次交易日(年)</text>
<text text-anchor="start" x="358.75" y="-139.95" font-family="Times New Roman,serif" font-size="14.00"> ≤</text>
<text text-anchor="start" x="370" y="-139.95" font-family="Times New Roman,serif" font-weight="bold" font-size="14.00">2015.500</text>
</g>
<!-- split0&#45;&gt;split7 -->
<g id="edge42" class="edge">
<title>split0&#45;&gt;split7</title>
<path fill="none" stroke="black" d="M180.07,-177.52C198.81,-173.38 218.81,-168.97 237.93,-164.74"/>
<polygon fill="black" stroke="black" points="238.44,-167.99 247.45,-162.42 236.93,-161.16 238.44,-167.99"/>
<text text-anchor="middle" x="211.12" y="-173.45" font-family="Times New Roman,serif" font-size="14.00">no</text>
</g>
<!-- split2 -->
<g id="node3" class="node">
<title>split2</title>
<polygon fill="none" stroke="black" points="665.75,-546 475,-546 475,-510 665.75,-510 665.75,-546"/>
<text text-anchor="start" x="483" y="-523.95" font-family="Times New Roman,serif" font-weight="bold" font-size="14.00">第一次交易日</text>
<text text-anchor="start" x="577.5" y="-523.95" font-family="Times New Roman,serif" font-size="14.00"> ≤</text>
<text text-anchor="start" x="588.75" y="-523.95" font-family="Times New Roman,serif" font-weight="bold" font-size="14.00">2016&#45;03&#45;25</text>
</g>
<!-- split1&#45;&gt;split2 -->
<g id="edge15" class="edge">
<title>split1&#45;&gt;split2</title>
<path fill="none" stroke="black" d="M351.58,-303.26C392.92,-345.92 495.95,-452.23 543.98,-501.79"/>
<polygon fill="black" stroke="black" points="541,-503.78 550.47,-508.52 546.02,-498.91 541,-503.78"/>
<text text-anchor="middle" x="454.62" y="-415.45" font-family="Times New Roman,serif" font-size="14.00">yes</text>
</g>
<!-- split3 -->
<g id="node18" class="node">
<title>split3</title>
<polygon fill="none" stroke="black" points="665.75,-303 475,-303 475,-267 665.75,-267 665.75,-303"/>
<text text-anchor="start" x="483" y="-280.95" font-family="Times New Roman,serif" font-weight="bold" font-size="14.00">第一次交易日</text>
<text text-anchor="start" x="577.5" y="-280.95" font-family="Times New Roman,serif" font-size="14.00"> ≤</text>
<text text-anchor="start" x="588.75" y="-280.95" font-family="Times New Roman,serif" font-weight="bold" font-size="14.00">2016&#45;01&#45;26</text>
</g>
<!-- split1&#45;&gt;split3 -->
<g id="edge30" class="edge">
<title>split1&#45;&gt;split3</title>
<path fill="none" stroke="black" d="M404.21,-285C422.94,-285 443.59,-285 463.76,-285"/>
<polygon fill="black" stroke="black" points="463.57,-288.5 473.57,-285 463.57,-281.5 463.57,-288.5"/>
<text text-anchor="middle" x="454.62" y="-287.45" font-family="Times New Roman,serif" font-size="14.00">no</text>
</g>
<!-- split4 -->
<g id="node4" class="node">
<title>split4</title>
<polygon fill="none" stroke="black" points="889.75,-660 789.75,-660 789.75,-624 889.75,-624 889.75,-660"/>
<text text-anchor="start" x="797.75" y="-637.95" font-family="Times New Roman,serif" font-weight="bold" font-size="14.00">年齡</text>
<text text-anchor="start" x="829.25" y="-637.95" font-family="Times New Roman,serif" font-size="14.00"> ≤</text>
<text text-anchor="start" x="840.5" y="-637.95" font-family="Times New Roman,serif" font-weight="bold" font-size="14.00">43.500</text>
</g>
<!-- split2&#45;&gt;split4 -->
<g id="edge7" class="edge">
<title>split2&#45;&gt;split4</title>
<path fill="none" stroke="black" d="M614.63,-546.44C661.23,-566.31 735.42,-597.94 785.55,-619.32"/>
<polygon fill="black" stroke="black" points="783.99,-622.88 794.56,-623.58 786.73,-616.44 783.99,-622.88"/>
<text text-anchor="middle" x="686.13" y="-580.45" font-family="Times New Roman,serif" font-size="14.00">yes</text>
</g>
<!-- split6 -->
<g id="node11" class="node">
<title>split6</title>
<polygon fill="none" stroke="black" points="935.13,-546 744.38,-546 744.38,-510 935.13,-510 935.13,-546"/>
<text text-anchor="start" x="752.38" y="-523.95" font-family="Times New Roman,serif" font-weight="bold" font-size="14.00">手機驗證日期</text>
<text text-anchor="start" x="846.88" y="-523.95" font-family="Times New Roman,serif" font-size="14.00"> ≤</text>
<text text-anchor="start" x="858.13" y="-523.95" font-family="Times New Roman,serif" font-weight="bold" font-size="14.00">2016&#45;04&#45;08</text>
</g>
<!-- split2&#45;&gt;split6 -->
<g id="edge14" class="edge">
<title>split2&#45;&gt;split6</title>
<path fill="none" stroke="black" d="M666.02,-528C687.84,-528 711.17,-528 733.42,-528"/>
<polygon fill="black" stroke="black" points="733.23,-531.5 743.23,-528 733.23,-524.5 733.23,-531.5"/>
<text text-anchor="middle" x="686.13" y="-530.45" font-family="Times New Roman,serif" font-size="14.00">no</text>
</g>
<!-- split12 -->
<g id="node5" class="node">
<title>split12</title>
<polygon fill="none" stroke="black" points="1248.75,-726 1088.75,-726 1088.75,-690 1248.75,-690 1248.75,-726"/>
<text text-anchor="start" x="1096.75" y="-703.95" font-family="Times New Roman,serif" font-weight="bold" font-size="14.00">是否Email驗證</text>
<text text-anchor="start" x="1195.75" y="-703.95" font-family="Times New Roman,serif" font-size="14.00"> ≤</text>
<text text-anchor="start" x="1207" y="-703.95" font-family="Times New Roman,serif" font-weight="bold" font-size="14.00">0.000</text>
</g>
<!-- split4&#45;&gt;split12 -->
<g id="edge3" class="edge">
<title>split4&#45;&gt;split12</title>
<path fill="none" stroke="black" d="M890.06,-651.95C939.63,-661.96 1017.16,-677.61 1077.72,-689.83"/>
<polygon fill="black" stroke="black" points="1076.94,-693.44 1087.44,-691.99 1078.33,-686.58 1076.94,-693.44"/>
<text text-anchor="middle" x="993.38" y="-675.45" font-family="Times New Roman,serif" font-size="14.00">yes</text>
</g>
<!-- split5 -->
<g id="node8" class="node">
<title>split5</title>
<polygon fill="none" stroke="black" points="1264.12,-660 1073.38,-660 1073.38,-624 1264.12,-624 1264.12,-660"/>
<text text-anchor="start" x="1081.38" y="-637.95" font-family="Times New Roman,serif" font-weight="bold" font-size="14.00">手機驗證日期</text>
<text text-anchor="start" x="1175.88" y="-637.95" font-family="Times New Roman,serif" font-size="14.00"> ≤</text>
<text text-anchor="start" x="1187.12" y="-637.95" font-family="Times New Roman,serif" font-weight="bold" font-size="14.00">2010&#45;11&#45;13</text>
</g>
<!-- split4&#45;&gt;split5 -->
<g id="edge6" class="edge">
<title>split4&#45;&gt;split5</title>
<path fill="none" stroke="black" d="M890.06,-642C935.49,-642 1004.43,-642 1062.24,-642"/>
<polygon fill="black" stroke="black" points="1061.9,-645.5 1071.9,-642 1061.9,-638.5 1061.9,-645.5"/>
<text text-anchor="middle" x="993.38" y="-644.45" font-family="Times New Roman,serif" font-size="14.00">no</text>
</g>
<!-- leaf0 -->
<g id="node6" class="node">
<title>leaf0</title>
<ellipse fill="none" stroke="black" cx="1428.13" cy="-748" rx="59.03" ry="18"/>
<text text-anchor="start" x="1392.88" y="-743.95" font-family="Times New Roman,serif" font-size="14.00">leaf 0: </text>
<text text-anchor="start" x="1429.63" y="-743.95" font-family="Times New Roman,serif" font-weight="bold" font-size="14.00">0.261</text>
</g>
<!-- split12&#45;&gt;leaf0 -->
<g id="edge1" class="edge">
<title>split12&#45;&gt;leaf0</title>
<path fill="none" stroke="black" d="M1249.07,-720.33C1286.15,-726.09 1329.68,-732.85 1364.41,-738.25"/>
<polygon fill="black" stroke="black" points="1363.47,-741.8 1373.89,-739.88 1364.55,-734.89 1363.47,-741.8"/>
<text text-anchor="middle" x="1344.12" y="-738.45" font-family="Times New Roman,serif" font-size="14.00">yes</text>
</g>
<!-- leaf13 -->
<g id="node7" class="node">
<title>leaf13</title>
<ellipse fill="none" stroke="black" cx="1428.13" cy="-708" rx="63.63" ry="18"/>
<text text-anchor="start" x="1389.51" y="-703.95" font-family="Times New Roman,serif" font-size="14.00">leaf 13: </text>
<text text-anchor="start" x="1433.01" y="-703.95" font-family="Times New Roman,serif" font-weight="bold" font-size="14.00">0.371</text>
</g>
<!-- split12&#45;&gt;leaf13 -->
<g id="edge2" class="edge">
<title>split12&#45;&gt;leaf13</title>
<path fill="none" stroke="black" d="M1249.07,-708C1282.38,-708 1320.89,-708 1353.56,-708"/>
<polygon fill="black" stroke="black" points="1353.4,-711.5 1363.4,-708 1353.4,-704.5 1353.4,-711.5"/>
<text text-anchor="middle" x="1344.12" y="-710.45" font-family="Times New Roman,serif" font-size="14.00">no</text>
</g>
<!-- leaf5 -->
<g id="node9" class="node">
<title>leaf5</title>
<ellipse fill="none" stroke="black" cx="1428.13" cy="-668" rx="59.03" ry="18"/>
<text text-anchor="start" x="1392.88" y="-663.95" font-family="Times New Roman,serif" font-size="14.00">leaf 5: </text>
<text text-anchor="start" x="1429.63" y="-663.95" font-family="Times New Roman,serif" font-weight="bold" font-size="14.00">0.454</text>
</g>
<!-- split5&#45;&gt;leaf5 -->
<g id="edge4" class="edge">
<title>split5&#45;&gt;leaf5</title>
<path fill="none" stroke="black" d="M1264.49,-651.57C1296.4,-654.79 1331.3,-658.32 1360.56,-661.27"/>
<polygon fill="black" stroke="black" points="1360.18,-664.86 1370.48,-662.38 1360.88,-657.89 1360.18,-664.86"/>
<text text-anchor="middle" x="1344.12" y="-662.45" font-family="Times New Roman,serif" font-size="14.00">yes</text>
</g>
<!-- leaf6 -->
<g id="node10" class="node">
<title>leaf6</title>
<ellipse fill="none" stroke="black" cx="1428.13" cy="-628" rx="59.03" ry="18"/>
<text text-anchor="start" x="1392.88" y="-623.95" font-family="Times New Roman,serif" font-size="14.00">leaf 6: </text>
<text text-anchor="start" x="1429.63" y="-623.95" font-family="Times New Roman,serif" font-weight="bold" font-size="14.00">0.316</text>
</g>
<!-- split5&#45;&gt;leaf6 -->
<g id="edge5" class="edge">
<title>split5&#45;&gt;leaf6</title>
<path fill="none" stroke="black" d="M1264.49,-636.85C1295.76,-635.15 1329.91,-633.29 1358.8,-631.72"/>
<polygon fill="black" stroke="black" points="1358.81,-635.17 1368.6,-631.13 1358.43,-628.18 1358.81,-635.17"/>
<text text-anchor="middle" x="1344.12" y="-634.45" font-family="Times New Roman,serif" font-size="14.00">no</text>
</g>
<!-- split13 -->
<g id="node12" class="node">
<title>split13</title>
<polygon fill="none" stroke="black" points="1218.75,-566 1118.75,-566 1118.75,-530 1218.75,-530 1218.75,-566"/>
<text text-anchor="start" x="1126.75" y="-543.95" font-family="Times New Roman,serif" font-weight="bold" font-size="14.00">年齡</text>
<text text-anchor="start" x="1158.25" y="-543.95" font-family="Times New Roman,serif" font-size="14.00"> ≤</text>
<text text-anchor="start" x="1169.5" y="-543.95" font-family="Times New Roman,serif" font-weight="bold" font-size="14.00">48.500</text>
</g>
<!-- split6&#45;&gt;split13 -->
<g id="edge10" class="edge">
<title>split6&#45;&gt;split13</title>
<path fill="none" stroke="black" d="M935.33,-533.78C990.8,-537.18 1059.23,-541.36 1107.43,-544.31"/>
<polygon fill="black" stroke="black" points="1107.12,-547.86 1117.31,-544.98 1107.54,-540.87 1107.12,-547.86"/>
<text text-anchor="middle" x="993.38" y="-539.45" font-family="Times New Roman,serif" font-size="14.00">yes</text>
</g>
<!-- split14 -->
<g id="node15" class="node">
<title>split14</title>
<polygon fill="none" stroke="black" points="1264.12,-526 1073.38,-526 1073.38,-490 1264.12,-490 1264.12,-526"/>
<text text-anchor="start" x="1081.38" y="-503.95" font-family="Times New Roman,serif" font-weight="bold" font-size="14.00">手機驗證日期</text>
<text text-anchor="start" x="1175.88" y="-503.95" font-family="Times New Roman,serif" font-size="14.00"> ≤</text>
<text text-anchor="start" x="1187.12" y="-503.95" font-family="Times New Roman,serif" font-weight="bold" font-size="14.00">2016&#45;06&#45;03</text>
</g>
<!-- split6&#45;&gt;split14 -->
<g id="edge13" class="edge">
<title>split6&#45;&gt;split14</title>
<path fill="none" stroke="black" d="M935.33,-522.22C975.07,-519.78 1021.46,-516.95 1062.29,-514.45"/>
<polygon fill="black" stroke="black" points="1062.33,-517.89 1072.1,-513.79 1061.9,-510.91 1062.33,-517.89"/>
<text text-anchor="middle" x="993.38" y="-521.45" font-family="Times New Roman,serif" font-size="14.00">no</text>
</g>
<!-- leaf3 -->
<g id="node13" class="node">
<title>leaf3</title>
<ellipse fill="none" stroke="black" cx="1428.13" cy="-588" rx="59.03" ry="18"/>
<text text-anchor="start" x="1392.88" y="-583.95" font-family="Times New Roman,serif" font-size="14.00">leaf 3: </text>
<text text-anchor="start" x="1429.63" y="-583.95" font-family="Times New Roman,serif" font-weight="bold" font-size="14.00">0.300</text>
</g>
<!-- split13&#45;&gt;leaf3 -->
<g id="edge8" class="edge">
<title>split13&#45;&gt;leaf3</title>
<path fill="none" stroke="black" d="M1219.07,-555.67C1260.34,-562.08 1319.46,-571.27 1364.15,-578.21"/>
<polygon fill="black" stroke="black" points="1363.47,-581.8 1373.89,-579.88 1364.54,-574.89 1363.47,-581.8"/>
<text text-anchor="middle" x="1344.12" y="-578.45" font-family="Times New Roman,serif" font-size="14.00">yes</text>
</g>
<!-- leaf14 -->
<g id="node14" class="node">
<title>leaf14</title>
<ellipse fill="none" stroke="black" cx="1428.13" cy="-548" rx="63.63" ry="18"/>
<text text-anchor="start" x="1389.51" y="-543.95" font-family="Times New Roman,serif" font-size="14.00">leaf 14: </text>
<text text-anchor="start" x="1433.01" y="-543.95" font-family="Times New Roman,serif" font-weight="bold" font-size="14.00">0.430</text>
</g>
<!-- split13&#45;&gt;leaf14 -->
<g id="edge9" class="edge">
<title>split13&#45;&gt;leaf14</title>
<path fill="none" stroke="black" d="M1219.07,-548C1257.15,-548 1310.45,-548 1353.56,-548"/>
<polygon fill="black" stroke="black" points="1353.29,-551.5 1363.29,-548 1353.29,-544.5 1353.29,-551.5"/>
<text text-anchor="middle" x="1344.12" y="-550.45" font-family="Times New Roman,serif" font-size="14.00">no</text>
</g>
<!-- leaf7 -->
<g id="node16" class="node">
<title>leaf7</title>
<ellipse fill="none" stroke="black" cx="1428.13" cy="-508" rx="59.03" ry="18"/>
<text text-anchor="start" x="1392.88" y="-503.95" font-family="Times New Roman,serif" font-size="14.00">leaf 7: </text>
<text text-anchor="start" x="1429.63" y="-503.95" font-family="Times New Roman,serif" font-weight="bold" font-size="14.00">0.469</text>
</g>
<!-- split14&#45;&gt;leaf7 -->
<g id="edge11" class="edge">
<title>split14&#45;&gt;leaf7</title>
<path fill="none" stroke="black" d="M1264.49,-508C1295.51,-508 1329.35,-508 1358.1,-508"/>
<polygon fill="black" stroke="black" points="1357.85,-511.5 1367.85,-508 1357.85,-504.5 1357.85,-511.5"/>
<text text-anchor="middle" x="1344.12" y="-510.45" font-family="Times New Roman,serif" font-size="14.00">yes</text>
</g>
<!-- leaf15 -->
<g id="node17" class="node">
<title>leaf15</title>
<ellipse fill="none" stroke="black" cx="1428.13" cy="-468" rx="63.63" ry="18"/>
<text text-anchor="start" x="1389.51" y="-463.95" font-family="Times New Roman,serif" font-size="14.00">leaf 15: </text>
<text text-anchor="start" x="1433.01" y="-463.95" font-family="Times New Roman,serif" font-weight="bold" font-size="14.00">0.578</text>
</g>
<!-- split14&#45;&gt;leaf15 -->
<g id="edge12" class="edge">
<title>split14&#45;&gt;leaf15</title>
<path fill="none" stroke="black" d="M1264.49,-493.28C1296.54,-488.3 1331.6,-482.85 1360.95,-478.29"/>
<polygon fill="black" stroke="black" points="1361.14,-481.64 1370.48,-476.65 1360.06,-474.73 1361.14,-481.64"/>
<text text-anchor="middle" x="1344.12" y="-484.45" font-family="Times New Roman,serif" font-size="14.00">no</text>
</g>
<!-- split8 -->
<g id="node19" class="node">
<title>split8</title>
<polygon fill="none" stroke="black" points="889.75,-340 789.75,-340 789.75,-304 889.75,-304 889.75,-340"/>
<text text-anchor="start" x="797.75" y="-317.95" font-family="Times New Roman,serif" font-weight="bold" font-size="14.00">年齡</text>
<text text-anchor="start" x="829.25" y="-317.95" font-family="Times New Roman,serif" font-size="14.00"> ≤</text>
<text text-anchor="start" x="840.5" y="-317.95" font-family="Times New Roman,serif" font-weight="bold" font-size="14.00">43.500</text>
</g>
<!-- split3&#45;&gt;split8 -->
<g id="edge22" class="edge">
<title>split3&#45;&gt;split8</title>
<path fill="none" stroke="black" d="M666.02,-298.1C703.4,-303.27 745.26,-309.06 778.4,-313.65"/>
<polygon fill="black" stroke="black" points="777.9,-317.25 788.29,-315.16 778.86,-310.32 777.9,-317.25"/>
<text text-anchor="middle" x="686.13" y="-303.45" font-family="Times New Roman,serif" font-size="14.00">yes</text>
</g>
<!-- split10 -->
<g id="node26" class="node">
<title>split10</title>
<polygon fill="none" stroke="black" points="935.13,-276 744.38,-276 744.38,-240 935.13,-240 935.13,-276"/>
<text text-anchor="start" x="752.38" y="-253.95" font-family="Times New Roman,serif" font-weight="bold" font-size="14.00">手機驗證日期</text>
<text text-anchor="start" x="846.88" y="-253.95" font-family="Times New Roman,serif" font-size="14.00"> ≤</text>
<text text-anchor="start" x="858.13" y="-253.95" font-family="Times New Roman,serif" font-weight="bold" font-size="14.00">2016&#45;03&#45;12</text>
</g>
<!-- split3&#45;&gt;split10 -->
<g id="edge29" class="edge">
<title>split3&#45;&gt;split10</title>
<path fill="none" stroke="black" d="M666.02,-275.44C687.84,-273.24 711.17,-270.88 733.42,-268.64"/>
<polygon fill="black" stroke="black" points="733.64,-272.03 743.23,-267.54 732.93,-265.07 733.64,-272.03"/>
<text text-anchor="middle" x="686.13" y="-275.45" font-family="Times New Roman,serif" font-size="14.00">no</text>
</g>
<!-- split11 -->
<g id="node20" class="node">
<title>split11</title>
<polygon fill="none" stroke="black" points="1301.62,-406 1035.88,-406 1035.88,-370 1301.62,-370 1301.62,-406"/>
<text text-anchor="start" x="1043.88" y="-383.95" font-family="Times New Roman,serif" font-weight="bold" font-size="14.00">倒數第一個月開信且點擊行為</text>
<text text-anchor="start" x="1248.62" y="-383.95" font-family="Times New Roman,serif" font-size="14.00"> ≤</text>
<text text-anchor="start" x="1259.88" y="-383.95" font-family="Times New Roman,serif" font-weight="bold" font-size="14.00">0.000</text>
</g>
<!-- split8&#45;&gt;split11 -->
<g id="edge18" class="edge">
<title>split8&#45;&gt;split11</title>
<path fill="none" stroke="black" d="M890.06,-331.95C936.33,-341.29 1006.98,-355.55 1065.44,-367.35"/>
<polygon fill="black" stroke="black" points="1064.71,-370.97 1075.2,-369.52 1066.09,-364.11 1064.71,-370.97"/>
<text text-anchor="middle" x="993.38" y="-355.45" font-family="Times New Roman,serif" font-size="14.00">yes</text>
</g>
<!-- split9 -->
<g id="node23" class="node">
<title>split9</title>
<polygon fill="none" stroke="black" points="1301.62,-340 1035.88,-340 1035.88,-304 1301.62,-304 1301.62,-340"/>
<text text-anchor="start" x="1043.88" y="-317.95" font-family="Times New Roman,serif" font-weight="bold" font-size="14.00">倒數第一個月開信且點擊行為</text>
<text text-anchor="start" x="1248.62" y="-317.95" font-family="Times New Roman,serif" font-size="14.00"> ≤</text>
<text text-anchor="start" x="1259.88" y="-317.95" font-family="Times New Roman,serif" font-weight="bold" font-size="14.00">0.000</text>
</g>
<!-- split8&#45;&gt;split9 -->
<g id="edge21" class="edge">
<title>split8&#45;&gt;split9</title>
<path fill="none" stroke="black" d="M890.06,-322C925.97,-322 976.56,-322 1024.74,-322"/>
<polygon fill="black" stroke="black" points="1024.63,-325.5 1034.63,-322 1024.63,-318.5 1024.63,-325.5"/>
<text text-anchor="middle" x="993.38" y="-324.45" font-family="Times New Roman,serif" font-size="14.00">no</text>
</g>
<!-- leaf2 -->
<g id="node21" class="node">
<title>leaf2</title>
<ellipse fill="none" stroke="black" cx="1428.13" cy="-428" rx="59.03" ry="18"/>
<text text-anchor="start" x="1392.88" y="-423.95" font-family="Times New Roman,serif" font-size="14.00">leaf 2: </text>
<text text-anchor="start" x="1429.63" y="-423.95" font-family="Times New Roman,serif" font-weight="bold" font-size="14.00">0.356</text>
</g>
<!-- split11&#45;&gt;leaf2 -->
<g id="edge16" class="edge">
<title>split11&#45;&gt;leaf2</title>
<path fill="none" stroke="black" d="M1288.65,-406.48C1314.8,-410.54 1341.5,-414.69 1364.38,-418.25"/>
<polygon fill="black" stroke="black" points="1363.53,-421.81 1373.95,-419.89 1364.61,-414.9 1363.53,-421.81"/>
<text text-anchor="middle" x="1344.12" y="-418.45" font-family="Times New Roman,serif" font-size="14.00">yes</text>
</g>
<!-- leaf12 -->
<g id="node22" class="node">
<title>leaf12</title>
<ellipse fill="none" stroke="black" cx="1428.13" cy="-388" rx="63.63" ry="18"/>
<text text-anchor="start" x="1389.51" y="-383.95" font-family="Times New Roman,serif" font-size="14.00">leaf 12: </text>
<text text-anchor="start" x="1433.01" y="-383.95" font-family="Times New Roman,serif" font-weight="bold" font-size="14.00">0.573</text>
</g>
<!-- split11&#45;&gt;leaf12 -->
<g id="edge17" class="edge">
<title>split11&#45;&gt;leaf12</title>
<path fill="none" stroke="black" d="M1301.84,-388C1319.49,-388 1337.05,-388 1353.2,-388"/>
<polygon fill="black" stroke="black" points="1353.14,-391.5 1363.14,-388 1353.14,-384.5 1353.14,-391.5"/>
<text text-anchor="middle" x="1344.12" y="-390.45" font-family="Times New Roman,serif" font-size="14.00">no</text>
</g>
<!-- leaf9 -->
<g id="node24" class="node">
<title>leaf9</title>
<ellipse fill="none" stroke="black" cx="1428.13" cy="-348" rx="59.03" ry="18"/>
<text text-anchor="start" x="1392.88" y="-343.95" font-family="Times New Roman,serif" font-size="14.00">leaf 9: </text>
<text text-anchor="start" x="1429.63" y="-343.95" font-family="Times New Roman,serif" font-weight="bold" font-size="14.00">0.444</text>
</g>
<!-- split9&#45;&gt;leaf9 -->
<g id="edge19" class="edge">
<title>split9&#45;&gt;leaf9</title>
<path fill="none" stroke="black" d="M1301.84,-335.34C1322.27,-337.41 1342.59,-339.46 1360.74,-341.29"/>
<polygon fill="black" stroke="black" points="1360.14,-344.85 1370.45,-342.37 1360.85,-337.89 1360.14,-344.85"/>
<text text-anchor="middle" x="1344.12" y="-342.45" font-family="Times New Roman,serif" font-size="14.00">yes</text>
</g>
<!-- leaf10 -->
<g id="node25" class="node">
<title>leaf10</title>
<ellipse fill="none" stroke="black" cx="1428.13" cy="-308" rx="63.63" ry="18"/>
<text text-anchor="start" x="1389.51" y="-303.95" font-family="Times New Roman,serif" font-size="14.00">leaf 10: </text>
<text text-anchor="start" x="1433.01" y="-303.95" font-family="Times New Roman,serif" font-weight="bold" font-size="14.00">0.577</text>
</g>
<!-- split9&#45;&gt;leaf10 -->
<g id="edge20" class="edge">
<title>split9&#45;&gt;leaf10</title>
<path fill="none" stroke="black" d="M1301.84,-314.82C1319.96,-313.83 1337.99,-312.85 1354.5,-311.95"/>
<polygon fill="black" stroke="black" points="1354.31,-315.41 1364.11,-311.37 1353.93,-308.42 1354.31,-315.41"/>
<text text-anchor="middle" x="1344.12" y="-314.45" font-family="Times New Roman,serif" font-size="14.00">no</text>
</g>
<!-- split15 -->
<g id="node27" class="node">
<title>split15</title>
<polygon fill="none" stroke="black" points="1218.75,-276 1118.75,-276 1118.75,-240 1218.75,-240 1218.75,-276"/>
<text text-anchor="start" x="1126.75" y="-253.95" font-family="Times New Roman,serif" font-weight="bold" font-size="14.00">年齡</text>
<text text-anchor="start" x="1158.25" y="-253.95" font-family="Times New Roman,serif" font-size="14.00"> ≤</text>
<text text-anchor="start" x="1169.5" y="-253.95" font-family="Times New Roman,serif" font-weight="bold" font-size="14.00">44.500</text>
</g>
<!-- split10&#45;&gt;split15 -->
<g id="edge25" class="edge">
<title>split10&#45;&gt;split15</title>
<path fill="none" stroke="black" d="M935.33,-258C990.8,-258 1059.23,-258 1107.43,-258"/>
<polygon fill="black" stroke="black" points="1107.31,-261.5 1117.31,-258 1107.31,-254.5 1107.31,-261.5"/>
<text text-anchor="middle" x="993.38" y="-260.45" font-family="Times New Roman,serif" font-size="14.00">yes</text>
</g>
<!-- split19 -->
<g id="node30" class="node">
<title>split19</title>
<polygon fill="none" stroke="black" points="1264.12,-216 1073.38,-216 1073.38,-180 1264.12,-180 1264.12,-216"/>
<text text-anchor="start" x="1081.38" y="-193.95" font-family="Times New Roman,serif" font-weight="bold" font-size="14.00">手機驗證日期</text>
<text text-anchor="start" x="1175.88" y="-193.95" font-family="Times New Roman,serif" font-size="14.00"> ≤</text>
<text text-anchor="start" x="1187.12" y="-193.95" font-family="Times New Roman,serif" font-weight="bold" font-size="14.00">2016&#45;06&#45;10</text>
</g>
<!-- split10&#45;&gt;split19 -->
<g id="edge28" class="edge">
<title>split10&#45;&gt;split19</title>
<path fill="none" stroke="black" d="M935.33,-240.65C975.07,-233.35 1021.46,-224.84 1062.29,-217.35"/>
<polygon fill="black" stroke="black" points="1062.89,-220.61 1072.1,-215.37 1061.63,-213.73 1062.89,-220.61"/>
<text text-anchor="middle" x="993.38" y="-233.45" font-family="Times New Roman,serif" font-size="14.00">no</text>
</g>
<!-- leaf4 -->
<g id="node28" class="node">
<title>leaf4</title>
<ellipse fill="none" stroke="black" cx="1428.13" cy="-268" rx="59.03" ry="18"/>
<text text-anchor="start" x="1392.88" y="-263.95" font-family="Times New Roman,serif" font-size="14.00">leaf 4: </text>
<text text-anchor="start" x="1429.63" y="-263.95" font-family="Times New Roman,serif" font-weight="bold" font-size="14.00">0.398</text>
</g>
<!-- split15&#45;&gt;leaf4 -->
<g id="edge23" class="edge">
<title>split15&#45;&gt;leaf4</title>
<path fill="none" stroke="black" d="M1219.07,-259.92C1258.63,-261.45 1314.61,-263.63 1358.54,-265.34"/>
<polygon fill="black" stroke="black" points="1358.31,-268.87 1368.44,-265.76 1358.58,-261.87 1358.31,-268.87"/>
<text text-anchor="middle" x="1344.12" y="-267.45" font-family="Times New Roman,serif" font-size="14.00">yes</text>
</g>
<!-- leaf16 -->
<g id="node29" class="node">
<title>leaf16</title>
<ellipse fill="none" stroke="black" cx="1428.13" cy="-228" rx="63.63" ry="18"/>
<text text-anchor="start" x="1389.51" y="-223.95" font-family="Times New Roman,serif" font-size="14.00">leaf 16: </text>
<text text-anchor="start" x="1433.01" y="-223.95" font-family="Times New Roman,serif" font-weight="bold" font-size="14.00">0.533</text>
</g>
<!-- split15&#45;&gt;leaf16 -->
<g id="edge24" class="edge">
<title>split15&#45;&gt;leaf16</title>
<path fill="none" stroke="black" d="M1219.07,-252.25C1258.5,-247.66 1314.23,-241.16 1358.1,-236.05"/>
<polygon fill="black" stroke="black" points="1358.45,-239.41 1367.97,-234.78 1357.64,-232.46 1358.45,-239.41"/>
<text text-anchor="middle" x="1344.12" y="-240.45" font-family="Times New Roman,serif" font-size="14.00">no</text>
</g>
<!-- leaf11 -->
<g id="node31" class="node">
<title>leaf11</title>
<ellipse fill="none" stroke="black" cx="1428.13" cy="-188" rx="63.63" ry="18"/>
<text text-anchor="start" x="1389.51" y="-183.95" font-family="Times New Roman,serif" font-size="14.00">leaf 11: </text>
<text text-anchor="start" x="1433.01" y="-183.95" font-family="Times New Roman,serif" font-weight="bold" font-size="14.00">0.561</text>
</g>
<!-- split19&#45;&gt;leaf11 -->
<g id="edge26" class="edge">
<title>split19&#45;&gt;leaf11</title>
<path fill="none" stroke="black" d="M1264.49,-194.32C1293.98,-193.17 1326.02,-191.93 1353.81,-190.85"/>
<polygon fill="black" stroke="black" points="1353.78,-194.31 1363.64,-190.43 1353.51,-187.32 1353.78,-194.31"/>
<text text-anchor="middle" x="1344.12" y="-193.45" font-family="Times New Roman,serif" font-size="14.00">yes</text>
</g>
<!-- leaf20 -->
<g id="node32" class="node">
<title>leaf20</title>
<ellipse fill="none" stroke="black" cx="1428.13" cy="-148" rx="63.63" ry="18"/>
<text text-anchor="start" x="1389.51" y="-143.95" font-family="Times New Roman,serif" font-size="14.00">leaf 20: </text>
<text text-anchor="start" x="1433.01" y="-143.95" font-family="Times New Roman,serif" font-weight="bold" font-size="14.00">0.605</text>
</g>
<!-- split19&#45;&gt;leaf20 -->
<g id="edge27" class="edge">
<title>split19&#45;&gt;leaf20</title>
<path fill="none" stroke="black" d="M1264.54,-186.32C1284.19,-183.38 1304.7,-179.92 1323.75,-176 1326.4,-175.45 1347.94,-169.64 1370.68,-163.44"/>
<polygon fill="black" stroke="black" points="1371.43,-166.6 1380.15,-160.59 1369.58,-159.84 1371.43,-166.6"/>
<text text-anchor="middle" x="1344.12" y="-174.45" font-family="Times New Roman,serif" font-size="14.00">no</text>
</g>
<!-- split16 -->
<g id="node34" class="node">
<title>split16</title>
<polygon fill="none" stroke="black" points="620.38,-162 520.38,-162 520.38,-126 620.38,-126 620.38,-162"/>
<text text-anchor="start" x="528.38" y="-139.95" font-family="Times New Roman,serif" font-weight="bold" font-size="14.00">年齡</text>
<text text-anchor="start" x="559.88" y="-139.95" font-family="Times New Roman,serif" font-size="14.00"> ≤</text>
<text text-anchor="start" x="571.13" y="-139.95" font-family="Times New Roman,serif" font-weight="bold" font-size="14.00">36.500</text>
</g>
<!-- split7&#45;&gt;split16 -->
<g id="edge40" class="edge">
<title>split7&#45;&gt;split16</title>
<path fill="none" stroke="black" d="M434.43,-144C459.89,-144 486.45,-144 509.21,-144"/>
<polygon fill="black" stroke="black" points="509.05,-147.5 519.05,-144 509.05,-140.5 509.05,-147.5"/>
<text text-anchor="middle" x="454.62" y="-146.45" font-family="Times New Roman,serif" font-size="14.00">yes</text>
</g>
<!-- leaf8 -->
<g id="node43" class="node">
<title>leaf8</title>
<ellipse fill="none" stroke="black" cx="570.38" cy="-104" rx="59.03" ry="18"/>
<text text-anchor="start" x="535.13" y="-99.95" font-family="Times New Roman,serif" font-size="14.00">leaf 8: </text>
<text text-anchor="start" x="571.88" y="-99.95" font-family="Times New Roman,serif" font-weight="bold" font-size="14.00">0.605</text>
</g>
<!-- split7&#45;&gt;leaf8 -->
<g id="edge41" class="edge">
<title>split7&#45;&gt;leaf8</title>
<path fill="none" stroke="black" d="M434.43,-126.92C459.25,-122.71 485.11,-118.31 507.47,-114.51"/>
<polygon fill="black" stroke="black" points="507.87,-117.83 517.15,-112.7 506.7,-110.93 507.87,-117.83"/>
<text text-anchor="middle" x="454.62" y="-126.45" font-family="Times New Roman,serif" font-size="14.00">no</text>
</g>
<!-- split20 -->
<g id="node35" class="node">
<title>split20</title>
<polygon fill="none" stroke="black" points="973,-162 706.5,-162 706.5,-126 973,-126 973,-162"/>
<text text-anchor="start" x="714.5" y="-139.95" font-family="Times New Roman,serif" font-weight="bold" font-size="14.00">第一次POS綁約交易日期</text>
<text text-anchor="start" x="884.75" y="-139.95" font-family="Times New Roman,serif" font-size="14.00"> ≤</text>
<text text-anchor="start" x="896" y="-139.95" font-family="Times New Roman,serif" font-weight="bold" font-size="14.00">2014&#45;02&#45;03</text>
</g>
<!-- split16&#45;&gt;split20 -->
<g id="edge34" class="edge">
<title>split16&#45;&gt;split20</title>
<path fill="none" stroke="black" d="M620.73,-144C642.17,-144 668.51,-144 695.38,-144"/>
<polygon fill="black" stroke="black" points="695.1,-147.5 705.1,-144 695.1,-140.5 695.1,-147.5"/>
<text text-anchor="middle" x="686.13" y="-146.45" font-family="Times New Roman,serif" font-size="14.00">yes</text>
</g>
<!-- split17 -->
<g id="node38" class="node">
<title>split17</title>
<polygon fill="none" stroke="black" points="969.25,-96 710.25,-96 710.25,-60 969.25,-60 969.25,-96"/>
<text text-anchor="start" x="718.25" y="-73.95" font-family="Times New Roman,serif" font-weight="bold" font-size="14.00">最近一次使用App時間(年)</text>
<text text-anchor="start" x="893.75" y="-73.95" font-family="Times New Roman,serif" font-size="14.00"> ≤</text>
<text text-anchor="start" x="905" y="-73.95" font-family="Times New Roman,serif" font-weight="bold" font-size="14.00">2022.500</text>
</g>
<!-- split16&#45;&gt;split17 -->
<g id="edge39" class="edge">
<title>split16&#45;&gt;split17</title>
<path fill="none" stroke="black" d="M620.4,-132.77C635.01,-129.37 651.04,-125.59 665.75,-122 695.65,-114.71 728.39,-106.46 757.26,-99.08"/>
<polygon fill="black" stroke="black" points="757.89,-102.28 766.71,-96.41 756.15,-95.5 757.89,-102.28"/>
<text text-anchor="middle" x="686.13" y="-120.45" font-family="Times New Roman,serif" font-size="14.00">no</text>
</g>
<!-- leaf1 -->
<g id="node36" class="node">
<title>leaf1</title>
<ellipse fill="none" stroke="black" cx="1168.75" cy="-158" rx="59.03" ry="18"/>
<text text-anchor="start" x="1133.5" y="-153.95" font-family="Times New Roman,serif" font-size="14.00">leaf 1: </text>
<text text-anchor="start" x="1170.25" y="-153.95" font-family="Times New Roman,serif" font-weight="bold" font-size="14.00">0.317</text>
</g>
<!-- split20&#45;&gt;leaf1 -->
<g id="edge32" class="edge">
<title>split20&#45;&gt;leaf1</title>
<path fill="none" stroke="black" d="M973.28,-149.67C1016.63,-151.53 1062.99,-153.51 1099.56,-155.08"/>
<polygon fill="black" stroke="black" points="1098.96,-158.6 1109.1,-155.53 1099.26,-151.61 1098.96,-158.6"/>
<text text-anchor="middle" x="993.38" y="-152.45" font-family="Times New Roman,serif" font-size="14.00">yes</text>
</g>
<!-- leaf21 -->
<g id="node37" class="node">
<title>leaf21</title>
<ellipse fill="none" stroke="black" cx="1168.75" cy="-118" rx="63.63" ry="18"/>
<text text-anchor="start" x="1130.12" y="-113.95" font-family="Times New Roman,serif" font-size="14.00">leaf 21: </text>
<text text-anchor="start" x="1173.62" y="-113.95" font-family="Times New Roman,serif" font-weight="bold" font-size="14.00">0.204</text>
</g>
<!-- split20&#45;&gt;leaf21 -->
<g id="edge33" class="edge">
<title>split20&#45;&gt;leaf21</title>
<path fill="none" stroke="black" d="M973.28,-133.46C1015.32,-130.12 1060.19,-126.55 1096.22,-123.69"/>
<polygon fill="black" stroke="black" points="1096.42,-127.1 1106.11,-122.82 1095.86,-120.13 1096.42,-127.1"/>
<text text-anchor="middle" x="993.38" y="-134.45" font-family="Times New Roman,serif" font-size="14.00">no</text>
</g>
<!-- leaf17 -->
<g id="node39" class="node">
<title>leaf17</title>
<ellipse fill="none" stroke="black" cx="1168.75" cy="-78" rx="63.63" ry="18"/>
<text text-anchor="start" x="1130.12" y="-73.95" font-family="Times New Roman,serif" font-size="14.00">leaf 17: </text>
<text text-anchor="start" x="1173.62" y="-73.95" font-family="Times New Roman,serif" font-weight="bold" font-size="14.00">0.469</text>
</g>
<!-- split17&#45;&gt;leaf17 -->
<g id="edge35" class="edge">
<title>split17&#45;&gt;leaf17</title>
<path fill="none" stroke="black" d="M969.52,-78C1011.81,-78 1057.36,-78 1094.11,-78"/>
<polygon fill="black" stroke="black" points="1093.73,-81.5 1103.73,-78 1093.73,-74.5 1093.73,-81.5"/>
<text text-anchor="middle" x="993.38" y="-80.45" font-family="Times New Roman,serif" font-size="14.00">yes</text>
</g>
<!-- split18 -->
<g id="node40" class="node">
<title>split18</title>
<polygon fill="none" stroke="black" points="1323.75,-56 1013.75,-56 1013.75,-20 1323.75,-20 1323.75,-56"/>
<text text-anchor="start" x="1021.75" y="-33.95" font-family="Times New Roman,serif" font-weight="bold" font-size="14.00">最近一次門市交易日(不含綁約)</text>
<text text-anchor="start" x="1235.5" y="-33.95" font-family="Times New Roman,serif" font-size="14.00"> ≤</text>
<text text-anchor="start" x="1246.75" y="-33.95" font-family="Times New Roman,serif" font-weight="bold" font-size="14.00">2018&#45;04&#45;28</text>
</g>
<!-- split17&#45;&gt;split18 -->
<g id="edge38" class="edge">
<title>split17&#45;&gt;split18</title>
<path fill="none" stroke="black" d="M969.52,-62.25C981.48,-60.79 993.69,-59.29 1005.9,-57.8"/>
<polygon fill="black" stroke="black" points="1006.11,-61.18 1015.61,-56.49 1005.26,-54.23 1006.11,-61.18"/>
<text text-anchor="middle" x="993.38" y="-63.45" font-family="Times New Roman,serif" font-size="14.00">no</text>
</g>
<!-- leaf18 -->
<g id="node41" class="node">
<title>leaf18</title>
<ellipse fill="none" stroke="black" cx="1428.13" cy="-58" rx="63.63" ry="18"/>
<text text-anchor="start" x="1389.51" y="-53.95" font-family="Times New Roman,serif" font-size="14.00">leaf 18: </text>
<text text-anchor="start" x="1433.01" y="-53.95" font-family="Times New Roman,serif" font-weight="bold" font-size="14.00">0.436</text>
</g>
<!-- split18&#45;&gt;leaf18 -->
<g id="edge36" class="edge">
<title>split18&#45;&gt;leaf18</title>
<path fill="none" stroke="black" d="M1323.93,-49.98C1334.86,-50.83 1345.53,-51.66 1355.62,-52.44"/>
<polygon fill="black" stroke="black" points="1355.07,-55.99 1365.31,-53.27 1355.62,-49.01 1355.07,-55.99"/>
<text text-anchor="middle" x="1344.12" y="-55.45" font-family="Times New Roman,serif" font-size="14.00">yes</text>
</g>
<!-- leaf19 -->
<g id="node42" class="node">
<title>leaf19</title>
<ellipse fill="none" stroke="black" cx="1428.13" cy="-18" rx="63.63" ry="18"/>
<text text-anchor="start" x="1389.51" y="-13.95" font-family="Times New Roman,serif" font-size="14.00">leaf 19: </text>
<text text-anchor="start" x="1433.01" y="-13.95" font-family="Times New Roman,serif" font-weight="bold" font-size="14.00">0.327</text>
</g>
<!-- split18&#45;&gt;leaf19 -->
<g id="edge37" class="edge">
<title>split18&#45;&gt;leaf19</title>
<path fill="none" stroke="black" d="M1323.93,-26.02C1334.86,-25.17 1345.53,-24.34 1355.62,-23.56"/>
<polygon fill="black" stroke="black" points="1355.62,-26.99 1365.31,-22.73 1355.07,-20.01 1355.62,-26.99"/>
<text text-anchor="middle" x="1344.12" y="-28.45" font-family="Times New Roman,serif" font-size="14.00">no</text>
</g>
</g>
</svg>
