<?xml version="1.0" encoding="UTF-8" standalone="no"?>
<!DOCTYPE svg PUBLIC "-//W3C//DTD SVG 1.1//EN"
 "http://www.w3.org/Graphics/SVG/1.1/DTD/svg11.dtd">
<!-- Generated by graphviz version 8.0.5 (20230430.1635)
 -->
<!-- Pages: 1 -->
<svg width="1399pt" height="724pt"
 viewBox="0.00 0.00 1399.27 724.00" xmlns="http://www.w3.org/2000/svg" xmlns:xlink="http://www.w3.org/1999/xlink">
<g id="graph0" class="graph" transform="scale(1 1) rotate(0) translate(4 720)">
<polygon fill="white" stroke="none" points="-4,4 -4,-720 1395.27,-720 1395.27,4 -4,4"/>
<!-- split0 -->
<g id="node1" class="node">
<title>split0</title>
<polygon fill="none" stroke="black" points="185.5,-349 0,-349 0,-313 185.5,-313 185.5,-349"/>
<text text-anchor="start" x="8" y="-326.95" font-family="Times New Roman,serif" font-weight="bold" font-size="14.00">自媒互動程度</text>
<text text-anchor="start" x="102.5" y="-326.95" font-family="Times New Roman,serif" font-size="14.00"> =</text>
<text text-anchor="start" x="114.5" y="-326.95" font-family="Times New Roman,serif" font-weight="bold" font-size="14.00">0||3||5||7||14</text>
</g>
<!-- split1 -->
<g id="node2" class="node">
<title>split1</title>
<polygon fill="none" stroke="black" points="417,-419 226.25,-419 226.25,-383 417,-383 417,-419"/>
<text text-anchor="start" x="234.25" y="-396.95" font-family="Times New Roman,serif" font-weight="bold" font-size="14.00">手機驗證日期</text>
<text text-anchor="start" x="328.75" y="-396.95" font-family="Times New Roman,serif" font-size="14.00"> ≤</text>
<text text-anchor="start" x="340" y="-396.95" font-family="Times New Roman,serif" font-weight="bold" font-size="14.00">2017&#45;01&#45;01</text>
</g>
<!-- split0&#45;&gt;split1 -->
<g id="edge21" class="edge">
<title>split0&#45;&gt;split1</title>
<path fill="none" stroke="black" d="M153.66,-349.48C183.38,-358.65 219.46,-369.79 250.47,-379.36"/>
<polygon fill="black" stroke="black" points="249.19,-382.93 259.78,-382.53 251.25,-376.24 249.19,-382.93"/>
<text text-anchor="middle" x="205.88" y="-370.45" font-family="Times New Roman,serif" font-size="14.00">yes</text>
</g>
<!-- split5 -->
<g id="node23" class="node">
<title>split5</title>
<polygon fill="none" stroke="black" points="417,-250 226.25,-250 226.25,-214 417,-214 417,-250"/>
<text text-anchor="start" x="234.25" y="-227.95" font-family="Times New Roman,serif" font-weight="bold" font-size="14.00">手機驗證日期</text>
<text text-anchor="start" x="328.75" y="-227.95" font-family="Times New Roman,serif" font-size="14.00"> ≤</text>
<text text-anchor="start" x="340" y="-227.95" font-family="Times New Roman,serif" font-weight="bold" font-size="14.00">2016&#45;12&#45;08</text>
</g>
<!-- split0&#45;&gt;split5 -->
<g id="edge44" class="edge">
<title>split0&#45;&gt;split5</title>
<path fill="none" stroke="black" d="M135.89,-312.61C173.34,-296.27 228.22,-272.32 268.44,-254.77"/>
<polygon fill="black" stroke="black" points="269.56,-257.67 277.32,-250.46 266.76,-251.25 269.56,-257.67"/>
<text text-anchor="middle" x="205.88" y="-286.45" font-family="Times New Roman,serif" font-size="14.00">no</text>
</g>
<!-- split2 -->
<g id="node3" class="node">
<title>split2</title>
<polygon fill="none" stroke="black" points="662.38,-479 471.63,-479 471.63,-443 662.38,-443 662.38,-479"/>
<text text-anchor="start" x="479.63" y="-456.95" font-family="Times New Roman,serif" font-weight="bold" font-size="14.00">手機驗證日期</text>
<text text-anchor="start" x="574.13" y="-456.95" font-family="Times New Roman,serif" font-size="14.00"> ≤</text>
<text text-anchor="start" x="585.38" y="-456.95" font-family="Times New Roman,serif" font-weight="bold" font-size="14.00">2016&#45;03&#45;23</text>
</g>
<!-- split1&#45;&gt;split2 -->
<g id="edge15" class="edge">
<title>split1&#45;&gt;split2</title>
<path fill="none" stroke="black" d="M397.63,-419.49C423.89,-425.97 453.58,-433.28 480.62,-439.95"/>
<polygon fill="black" stroke="black" points="479.69,-443.57 490.24,-442.57 481.37,-436.78 479.69,-443.57"/>
<text text-anchor="middle" x="437.38" y="-433.45" font-family="Times New Roman,serif" font-size="14.00">yes</text>
</g>
<!-- split4 -->
<g id="node18" class="node">
<title>split4</title>
<polygon fill="none" stroke="black" points="668.38,-419 465.63,-419 465.63,-383 668.38,-383 668.38,-419"/>
<text text-anchor="start" x="473.63" y="-396.95" font-family="Times New Roman,serif" font-weight="bold" font-size="14.00">第一次交易日(年)</text>
<text text-anchor="start" x="592.88" y="-396.95" font-family="Times New Roman,serif" font-size="14.00"> ≤</text>
<text text-anchor="start" x="604.13" y="-396.95" font-family="Times New Roman,serif" font-weight="bold" font-size="14.00">2015.500</text>
</g>
<!-- split1&#45;&gt;split4 -->
<g id="edge20" class="edge">
<title>split1&#45;&gt;split4</title>
<path fill="none" stroke="black" d="M417.42,-401C429.6,-401 442.16,-401 454.57,-401"/>
<polygon fill="black" stroke="black" points="454.43,-404.5 464.43,-401 454.43,-397.5 454.43,-404.5"/>
<text text-anchor="middle" x="437.38" y="-403.45" font-family="Times New Roman,serif" font-size="14.00">no</text>
</g>
<!-- split8 -->
<g id="node4" class="node">
<title>split8</title>
<polygon fill="none" stroke="black" points="935.5,-610 717,-610 717,-574 935.5,-574 935.5,-610"/>
<text text-anchor="start" x="725" y="-587.95" font-family="Times New Roman,serif" font-weight="bold" font-size="14.00">倒數第一個月開信行為</text>
<text text-anchor="start" x="882.5" y="-587.95" font-family="Times New Roman,serif" font-size="14.00"> ≤</text>
<text text-anchor="start" x="893.75" y="-587.95" font-family="Times New Roman,serif" font-weight="bold" font-size="14.00">0.000</text>
</g>
<!-- split2&#45;&gt;split8 -->
<g id="edge7" class="edge">
<title>split2&#45;&gt;split8</title>
<path fill="none" stroke="black" d="M604.31,-479.49C650.28,-502.9 729.48,-543.23 779.52,-568.71"/>
<polygon fill="black" stroke="black" points="777.62,-572.18 788.12,-573.6 780.8,-565.95 777.62,-572.18"/>
<text text-anchor="middle" x="696.63" y="-532.45" font-family="Times New Roman,serif" font-size="14.00">yes</text>
</g>
<!-- split3 -->
<g id="node11" class="node">
<title>split3</title>
<polygon fill="none" stroke="black" points="927.63,-479 724.88,-479 724.88,-443 927.63,-443 927.63,-479"/>
<text text-anchor="start" x="732.88" y="-456.95" font-family="Times New Roman,serif" font-weight="bold" font-size="14.00">第一次交易日(年)</text>
<text text-anchor="start" x="852.13" y="-456.95" font-family="Times New Roman,serif" font-size="14.00"> ≤</text>
<text text-anchor="start" x="863.38" y="-456.95" font-family="Times New Roman,serif" font-weight="bold" font-size="14.00">2015.500</text>
</g>
<!-- split2&#45;&gt;split3 -->
<g id="edge14" class="edge">
<title>split2&#45;&gt;split3</title>
<path fill="none" stroke="black" d="M662.69,-461C679.42,-461 696.98,-461 714.11,-461"/>
<polygon fill="black" stroke="black" points="713.71,-464.5 723.71,-461 713.71,-457.5 713.71,-464.5"/>
<text text-anchor="middle" x="696.63" y="-463.45" font-family="Times New Roman,serif" font-size="14.00">no</text>
</g>
<!-- split9 -->
<g id="node5" class="node">
<title>split9</title>
<polygon fill="none" stroke="black" points="1179.75,-676 1019.75,-676 1019.75,-640 1179.75,-640 1179.75,-676"/>
<text text-anchor="start" x="1027.75" y="-653.95" font-family="Times New Roman,serif" font-weight="bold" font-size="14.00">是否接受Email</text>
<text text-anchor="start" x="1126.75" y="-653.95" font-family="Times New Roman,serif" font-size="14.00"> ≤</text>
<text text-anchor="start" x="1138" y="-653.95" font-family="Times New Roman,serif" font-weight="bold" font-size="14.00">0.000</text>
</g>
<!-- split8&#45;&gt;split9 -->
<g id="edge3" class="edge">
<title>split8&#45;&gt;split9</title>
<path fill="none" stroke="black" d="M903.24,-610.47C937.07,-618.7 977.1,-628.43 1012.09,-636.93"/>
<polygon fill="black" stroke="black" points="1011.24,-640.57 1021.78,-639.53 1012.89,-633.77 1011.24,-640.57"/>
<text text-anchor="middle" x="955.88" y="-627.45" font-family="Times New Roman,serif" font-size="14.00">yes</text>
</g>
<!-- split14 -->
<g id="node8" class="node">
<title>split14</title>
<polygon fill="none" stroke="black" points="1223.25,-610 976.25,-610 976.25,-574 1223.25,-574 1223.25,-610"/>
<text text-anchor="start" x="984.25" y="-587.95" font-family="Times New Roman,serif" font-weight="bold" font-size="14.00">最近一次使用App時間</text>
<text text-anchor="start" x="1135" y="-587.95" font-family="Times New Roman,serif" font-size="14.00"> ≤</text>
<text text-anchor="start" x="1146.25" y="-587.95" font-family="Times New Roman,serif" font-weight="bold" font-size="14.00">2019&#45;07&#45;12</text>
</g>
<!-- split8&#45;&gt;split14 -->
<g id="edge6" class="edge">
<title>split8&#45;&gt;split14</title>
<path fill="none" stroke="black" d="M935.72,-592C945.49,-592 955.45,-592 965.39,-592"/>
<polygon fill="black" stroke="black" points="965.16,-595.5 975.16,-592 965.16,-588.5 965.16,-595.5"/>
<text text-anchor="middle" x="955.88" y="-594.45" font-family="Times New Roman,serif" font-size="14.00">no</text>
</g>
<!-- leaf0 -->
<g id="node6" class="node">
<title>leaf0</title>
<ellipse fill="none" stroke="black" cx="1327.63" cy="-698" rx="59.03" ry="18"/>
<text text-anchor="start" x="1292.38" y="-693.95" font-family="Times New Roman,serif" font-size="14.00">leaf 0: </text>
<text text-anchor="start" x="1329.13" y="-693.95" font-family="Times New Roman,serif" font-weight="bold" font-size="14.00">0.269</text>
</g>
<!-- split9&#45;&gt;leaf0 -->
<g id="edge1" class="edge">
<title>split9&#45;&gt;leaf0</title>
<path fill="none" stroke="black" d="M1180.07,-672.05C1208,-676.99 1238.95,-682.47 1265.19,-687.12"/>
<polygon fill="black" stroke="black" points="1264.29,-690.69 1274.74,-688.99 1265.51,-683.8 1264.29,-690.69"/>
<text text-anchor="middle" x="1243.62" y="-685.45" font-family="Times New Roman,serif" font-size="14.00">yes</text>
</g>
<!-- leaf10 -->
<g id="node7" class="node">
<title>leaf10</title>
<ellipse fill="none" stroke="black" cx="1327.63" cy="-658" rx="63.63" ry="18"/>
<text text-anchor="start" x="1289.01" y="-653.95" font-family="Times New Roman,serif" font-size="14.00">leaf 10: </text>
<text text-anchor="start" x="1332.51" y="-653.95" font-family="Times New Roman,serif" font-weight="bold" font-size="14.00">0.287</text>
</g>
<!-- split9&#45;&gt;leaf10 -->
<g id="edge2" class="edge">
<title>split9&#45;&gt;leaf10</title>
<path fill="none" stroke="black" d="M1180.07,-658C1203.78,-658 1229.65,-658 1252.98,-658"/>
<polygon fill="black" stroke="black" points="1252.85,-661.5 1262.85,-658 1252.85,-654.5 1252.85,-661.5"/>
<text text-anchor="middle" x="1243.62" y="-660.45" font-family="Times New Roman,serif" font-size="14.00">no</text>
</g>
<!-- leaf9 -->
<g id="node9" class="node">
<title>leaf9</title>
<ellipse fill="none" stroke="black" cx="1327.63" cy="-618" rx="59.03" ry="18"/>
<text text-anchor="start" x="1292.38" y="-613.95" font-family="Times New Roman,serif" font-size="14.00">leaf 9: </text>
<text text-anchor="start" x="1329.13" y="-613.95" font-family="Times New Roman,serif" font-weight="bold" font-size="14.00">0.320</text>
</g>
<!-- split14&#45;&gt;leaf9 -->
<g id="edge4" class="edge">
<title>split14&#45;&gt;leaf9</title>
<path fill="none" stroke="black" d="M1223.61,-606.14C1236.52,-607.63 1249.26,-609.09 1261.14,-610.46"/>
<polygon fill="black" stroke="black" points="1260.46,-614.02 1270.8,-611.69 1261.26,-607.07 1260.46,-614.02"/>
<text text-anchor="middle" x="1243.62" y="-610.45" font-family="Times New Roman,serif" font-size="14.00">yes</text>
</g>
<!-- leaf15 -->
<g id="node10" class="node">
<title>leaf15</title>
<ellipse fill="none" stroke="black" cx="1327.63" cy="-578" rx="63.63" ry="18"/>
<text text-anchor="start" x="1289.01" y="-573.95" font-family="Times New Roman,serif" font-size="14.00">leaf 15: </text>
<text text-anchor="start" x="1332.51" y="-573.95" font-family="Times New Roman,serif" font-weight="bold" font-size="14.00">0.377</text>
</g>
<!-- split14&#45;&gt;leaf15 -->
<g id="edge5" class="edge">
<title>split14&#45;&gt;leaf15</title>
<path fill="none" stroke="black" d="M1223.61,-584.39C1234.06,-583.74 1244.39,-583.1 1254.25,-582.49"/>
<polygon fill="black" stroke="black" points="1254.4,-585.92 1264.17,-581.81 1253.97,-578.94 1254.4,-585.92"/>
<text text-anchor="middle" x="1243.62" y="-585.45" font-family="Times New Roman,serif" font-size="14.00">no</text>
</g>
<!-- split12 -->
<g id="node12" class="node">
<title>split12</title>
<polygon fill="none" stroke="black" points="1195.12,-516 1004.38,-516 1004.38,-480 1195.12,-480 1195.12,-516"/>
<text text-anchor="start" x="1012.38" y="-493.95" font-family="Times New Roman,serif" font-weight="bold" font-size="14.00">第一次交易日</text>
<text text-anchor="start" x="1106.88" y="-493.95" font-family="Times New Roman,serif" font-size="14.00"> ≤</text>
<text text-anchor="start" x="1118.12" y="-493.95" font-family="Times New Roman,serif" font-weight="bold" font-size="14.00">2012&#45;06&#45;22</text>
</g>
<!-- split3&#45;&gt;split12 -->
<g id="edge10" class="edge">
<title>split3&#45;&gt;split12</title>
<path fill="none" stroke="black" d="M927.96,-474.72C949.26,-477.63 971.8,-480.7 993.27,-483.63"/>
<polygon fill="black" stroke="black" points="992.67,-487.21 1003.05,-485.09 993.62,-480.28 992.67,-487.21"/>
<text text-anchor="middle" x="955.88" y="-481.45" font-family="Times New Roman,serif" font-size="14.00">yes</text>
</g>
<!-- split7 -->
<g id="node15" class="node">
<title>split7</title>
<polygon fill="none" stroke="black" points="1195.12,-476 1004.38,-476 1004.38,-440 1195.12,-440 1195.12,-476"/>
<text text-anchor="start" x="1012.38" y="-453.95" font-family="Times New Roman,serif" font-weight="bold" font-size="14.00">手機驗證日期</text>
<text text-anchor="start" x="1106.88" y="-453.95" font-family="Times New Roman,serif" font-size="14.00"> ≤</text>
<text text-anchor="start" x="1118.12" y="-453.95" font-family="Times New Roman,serif" font-weight="bold" font-size="14.00">2016&#45;06&#45;21</text>
</g>
<!-- split3&#45;&gt;split7 -->
<g id="edge13" class="edge">
<title>split3&#45;&gt;split7</title>
<path fill="none" stroke="black" d="M927.96,-459.89C949.26,-459.65 971.8,-459.4 993.27,-459.17"/>
<polygon fill="black" stroke="black" points="993.09,-462.66 1003.05,-459.05 993.01,-455.66 993.09,-462.66"/>
<text text-anchor="middle" x="955.88" y="-461.45" font-family="Times New Roman,serif" font-size="14.00">no</text>
</g>
<!-- leaf3 -->
<g id="node13" class="node">
<title>leaf3</title>
<ellipse fill="none" stroke="black" cx="1327.63" cy="-538" rx="59.03" ry="18"/>
<text text-anchor="start" x="1292.38" y="-533.95" font-family="Times New Roman,serif" font-size="14.00">leaf 3: </text>
<text text-anchor="start" x="1329.13" y="-533.95" font-family="Times New Roman,serif" font-weight="bold" font-size="14.00">0.324</text>
</g>
<!-- split12&#45;&gt;leaf3 -->
<g id="edge8" class="edge">
<title>split12&#45;&gt;leaf3</title>
<path fill="none" stroke="black" d="M1195.56,-514.79C1219.11,-518.96 1243.74,-523.32 1265.21,-527.12"/>
<polygon fill="black" stroke="black" points="1264.34,-530.7 1274.8,-529 1265.56,-523.81 1264.34,-530.7"/>
<text text-anchor="middle" x="1243.62" y="-525.45" font-family="Times New Roman,serif" font-size="14.00">yes</text>
</g>
<!-- leaf13 -->
<g id="node14" class="node">
<title>leaf13</title>
<ellipse fill="none" stroke="black" cx="1327.63" cy="-498" rx="63.63" ry="18"/>
<text text-anchor="start" x="1289.01" y="-493.95" font-family="Times New Roman,serif" font-size="14.00">leaf 13: </text>
<text text-anchor="start" x="1332.51" y="-493.95" font-family="Times New Roman,serif" font-weight="bold" font-size="14.00">0.291</text>
</g>
<!-- split12&#45;&gt;leaf13 -->
<g id="edge9" class="edge">
<title>split12&#45;&gt;leaf13</title>
<path fill="none" stroke="black" d="M1195.56,-498C1214.65,-498 1234.45,-498 1252.69,-498"/>
<polygon fill="black" stroke="black" points="1252.54,-501.5 1262.54,-498 1252.54,-494.5 1252.54,-501.5"/>
<text text-anchor="middle" x="1243.62" y="-500.45" font-family="Times New Roman,serif" font-size="14.00">no</text>
</g>
<!-- leaf4 -->
<g id="node16" class="node">
<title>leaf4</title>
<ellipse fill="none" stroke="black" cx="1327.63" cy="-458" rx="59.03" ry="18"/>
<text text-anchor="start" x="1292.38" y="-453.95" font-family="Times New Roman,serif" font-size="14.00">leaf 4: </text>
<text text-anchor="start" x="1329.13" y="-453.95" font-family="Times New Roman,serif" font-weight="bold" font-size="14.00">0.392</text>
</g>
<!-- split7&#45;&gt;leaf4 -->
<g id="edge11" class="edge">
<title>split7&#45;&gt;leaf4</title>
<path fill="none" stroke="black" d="M1195.56,-458C1216.25,-458 1237.77,-458 1257.24,-458"/>
<polygon fill="black" stroke="black" points="1257.14,-461.5 1267.14,-458 1257.14,-454.5 1257.14,-461.5"/>
<text text-anchor="middle" x="1243.62" y="-460.45" font-family="Times New Roman,serif" font-size="14.00">yes</text>
</g>
<!-- leaf8 -->
<g id="node17" class="node">
<title>leaf8</title>
<ellipse fill="none" stroke="black" cx="1327.63" cy="-418" rx="59.03" ry="18"/>
<text text-anchor="start" x="1292.38" y="-413.95" font-family="Times New Roman,serif" font-size="14.00">leaf 8: </text>
<text text-anchor="start" x="1329.13" y="-413.95" font-family="Times New Roman,serif" font-weight="bold" font-size="14.00">0.464</text>
</g>
<!-- split7&#45;&gt;leaf8 -->
<g id="edge12" class="edge">
<title>split7&#45;&gt;leaf8</title>
<path fill="none" stroke="black" d="M1195.56,-441.21C1219.11,-437.04 1243.74,-432.68 1265.21,-428.88"/>
<polygon fill="black" stroke="black" points="1265.56,-432.19 1274.8,-427 1264.34,-425.3 1265.56,-432.19"/>
<text text-anchor="middle" x="1243.62" y="-435.45" font-family="Times New Roman,serif" font-size="14.00">no</text>
</g>
<!-- split20 -->
<g id="node19" class="node">
<title>split20</title>
<polygon fill="none" stroke="black" points="876.25,-433 776.25,-433 776.25,-397 876.25,-397 876.25,-433"/>
<text text-anchor="start" x="784.25" y="-410.95" font-family="Times New Roman,serif" font-weight="bold" font-size="14.00">年齡</text>
<text text-anchor="start" x="815.75" y="-410.95" font-family="Times New Roman,serif" font-size="14.00"> ≤</text>
<text text-anchor="start" x="827" y="-410.95" font-family="Times New Roman,serif" font-weight="bold" font-size="14.00">45.500</text>
</g>
<!-- split4&#45;&gt;split20 -->
<g id="edge18" class="edge">
<title>split4&#45;&gt;split20</title>
<path fill="none" stroke="black" d="M668.56,-406.47C701.3,-408.25 736.59,-410.18 765.37,-411.74"/>
<polygon fill="black" stroke="black" points="764.89,-415.27 775.07,-412.32 765.27,-408.29 764.89,-415.27"/>
<text text-anchor="middle" x="696.63" y="-410.45" font-family="Times New Roman,serif" font-size="14.00">yes</text>
</g>
<!-- leaf5 -->
<g id="node22" class="node">
<title>leaf5</title>
<ellipse fill="none" stroke="black" cx="826.25" cy="-375" rx="59.03" ry="18"/>
<text text-anchor="start" x="791" y="-370.95" font-family="Times New Roman,serif" font-size="14.00">leaf 5: </text>
<text text-anchor="start" x="827.75" y="-370.95" font-family="Times New Roman,serif" font-weight="bold" font-size="14.00">0.475</text>
</g>
<!-- split4&#45;&gt;leaf5 -->
<g id="edge19" class="edge">
<title>split4&#45;&gt;leaf5</title>
<path fill="none" stroke="black" d="M668.56,-390.84C698.92,-387.77 731.47,-384.48 758.99,-381.7"/>
<polygon fill="black" stroke="black" points="759.07,-385.11 768.67,-380.62 758.36,-378.14 759.07,-385.11"/>
<text text-anchor="middle" x="696.63" y="-390.45" font-family="Times New Roman,serif" font-size="14.00">no</text>
</g>
<!-- leaf2 -->
<g id="node20" class="node">
<title>leaf2</title>
<ellipse fill="none" stroke="black" cx="1099.75" cy="-418" rx="59.03" ry="18"/>
<text text-anchor="start" x="1064.5" y="-413.95" font-family="Times New Roman,serif" font-size="14.00">leaf 2: </text>
<text text-anchor="start" x="1101.25" y="-413.95" font-family="Times New Roman,serif" font-weight="bold" font-size="14.00">0.271</text>
</g>
<!-- split20&#45;&gt;leaf2 -->
<g id="edge16" class="edge">
<title>split20&#45;&gt;leaf2</title>
<path fill="none" stroke="black" d="M876.73,-415.55C919.58,-416.02 982.02,-416.71 1029.77,-417.24"/>
<polygon fill="black" stroke="black" points="1029.61,-420.75 1039.65,-417.36 1029.69,-413.75 1029.61,-420.75"/>
<text text-anchor="middle" x="955.88" y="-418.45" font-family="Times New Roman,serif" font-size="14.00">yes</text>
</g>
<!-- leaf21 -->
<g id="node21" class="node">
<title>leaf21</title>
<ellipse fill="none" stroke="black" cx="1099.75" cy="-378" rx="63.63" ry="18"/>
<text text-anchor="start" x="1061.12" y="-373.95" font-family="Times New Roman,serif" font-size="14.00">leaf 21: </text>
<text text-anchor="start" x="1104.62" y="-373.95" font-family="Times New Roman,serif" font-weight="bold" font-size="14.00">0.310</text>
</g>
<!-- split20&#45;&gt;leaf21 -->
<g id="edge17" class="edge">
<title>split20&#45;&gt;leaf21</title>
<path fill="none" stroke="black" d="M876.73,-408.26C919.87,-402.38 982.85,-393.8 1030.72,-387.27"/>
<polygon fill="black" stroke="black" points="1031.18,-390.6 1040.62,-385.79 1030.24,-383.67 1031.18,-390.6"/>
<text text-anchor="middle" x="955.88" y="-400.45" font-family="Times New Roman,serif" font-size="14.00">no</text>
</g>
<!-- split6 -->
<g id="node24" class="node">
<title>split6</title>
<polygon fill="none" stroke="black" points="676.25,-250 457.75,-250 457.75,-214 676.25,-214 676.25,-250"/>
<text text-anchor="start" x="465.75" y="-227.95" font-family="Times New Roman,serif" font-weight="bold" font-size="14.00">倒數第一個月開信行為</text>
<text text-anchor="start" x="623.25" y="-227.95" font-family="Times New Roman,serif" font-size="14.00"> ≤</text>
<text text-anchor="start" x="634.5" y="-227.95" font-family="Times New Roman,serif" font-weight="bold" font-size="14.00">0.000</text>
</g>
<!-- split5&#45;&gt;split6 -->
<g id="edge34" class="edge">
<title>split5&#45;&gt;split6</title>
<path fill="none" stroke="black" d="M417.42,-232C426.92,-232 436.65,-232 446.37,-232"/>
<polygon fill="black" stroke="black" points="446.32,-235.5 456.32,-232 446.32,-228.5 446.32,-235.5"/>
<text text-anchor="middle" x="437.38" y="-234.45" font-family="Times New Roman,serif" font-size="14.00">yes</text>
</g>
<!-- split13 -->
<g id="node37" class="node">
<title>split13</title>
<polygon fill="none" stroke="black" points="668.38,-142 465.63,-142 465.63,-106 668.38,-106 668.38,-142"/>
<text text-anchor="start" x="473.63" y="-119.95" font-family="Times New Roman,serif" font-weight="bold" font-size="14.00">第一次交易日(年)</text>
<text text-anchor="start" x="592.88" y="-119.95" font-family="Times New Roman,serif" font-size="14.00"> ≤</text>
<text text-anchor="start" x="604.13" y="-119.95" font-family="Times New Roman,serif" font-weight="bold" font-size="14.00">2015.500</text>
</g>
<!-- split5&#45;&gt;split13 -->
<g id="edge43" class="edge">
<title>split5&#45;&gt;split13</title>
<path fill="none" stroke="black" d="M364.19,-213.56C405.84,-195.07 470.04,-166.59 514.8,-146.72"/>
<polygon fill="black" stroke="black" points="515.89,-149.62 523.61,-142.37 513.05,-143.22 515.89,-149.62"/>
<text text-anchor="middle" x="437.38" y="-186.45" font-family="Times New Roman,serif" font-size="14.00">no</text>
</g>
<!-- split10 -->
<g id="node25" class="node">
<title>split10</title>
<polygon fill="none" stroke="black" points="921.63,-290 730.88,-290 730.88,-254 921.63,-254 921.63,-290"/>
<text text-anchor="start" x="738.88" y="-267.95" font-family="Times New Roman,serif" font-weight="bold" font-size="14.00">第一次交易日</text>
<text text-anchor="start" x="833.38" y="-267.95" font-family="Times New Roman,serif" font-size="14.00"> ≤</text>
<text text-anchor="start" x="844.63" y="-267.95" font-family="Times New Roman,serif" font-weight="bold" font-size="14.00">2016&#45;03&#45;07</text>
</g>
<!-- split6&#45;&gt;split10 -->
<g id="edge28" class="edge">
<title>split6&#45;&gt;split10</title>
<path fill="none" stroke="black" d="M676.72,-248.91C691.04,-251.13 705.69,-253.41 719.95,-255.63"/>
<polygon fill="black" stroke="black" points="719.34,-259.23 729.76,-257.31 720.42,-252.31 719.34,-259.23"/>
<text text-anchor="middle" x="696.63" y="-255.45" font-family="Times New Roman,serif" font-size="14.00">yes</text>
</g>
<!-- split15 -->
<g id="node32" class="node">
<title>split15</title>
<polygon fill="none" stroke="black" points="927.63,-236 724.88,-236 724.88,-200 927.63,-200 927.63,-236"/>
<text text-anchor="start" x="732.88" y="-213.95" font-family="Times New Roman,serif" font-weight="bold" font-size="14.00">本月開信且點擊行為</text>
<text text-anchor="start" x="874.63" y="-213.95" font-family="Times New Roman,serif" font-size="14.00"> ≤</text>
<text text-anchor="start" x="885.88" y="-213.95" font-family="Times New Roman,serif" font-weight="bold" font-size="14.00">0.000</text>
</g>
<!-- split6&#45;&gt;split15 -->
<g id="edge33" class="edge">
<title>split6&#45;&gt;split15</title>
<path fill="none" stroke="black" d="M676.72,-226.08C689.03,-225.41 701.58,-224.73 713.91,-224.06"/>
<polygon fill="black" stroke="black" points="713.89,-227.51 723.69,-223.47 713.51,-220.52 713.89,-227.51"/>
<text text-anchor="middle" x="696.63" y="-227.45" font-family="Times New Roman,serif" font-size="14.00">no</text>
</g>
<!-- split11 -->
<g id="node26" class="node">
<title>split11</title>
<polygon fill="none" stroke="black" points="1201.12,-356 998.38,-356 998.38,-320 1201.12,-320 1201.12,-356"/>
<text text-anchor="start" x="1006.38" y="-333.95" font-family="Times New Roman,serif" font-weight="bold" font-size="14.00">第一次交易日(年)</text>
<text text-anchor="start" x="1125.62" y="-333.95" font-family="Times New Roman,serif" font-size="14.00"> ≤</text>
<text text-anchor="start" x="1136.88" y="-333.95" font-family="Times New Roman,serif" font-weight="bold" font-size="14.00">2011.500</text>
</g>
<!-- split10&#45;&gt;split11 -->
<g id="edge24" class="edge">
<title>split10&#45;&gt;split11</title>
<path fill="none" stroke="black" d="M903.24,-290.47C937.07,-298.7 977.1,-308.43 1012.09,-316.93"/>
<polygon fill="black" stroke="black" points="1011.24,-320.57 1021.78,-319.53 1012.89,-313.77 1011.24,-320.57"/>
<text text-anchor="middle" x="955.88" y="-307.45" font-family="Times New Roman,serif" font-size="14.00">yes</text>
</g>
<!-- split17 -->
<g id="node29" class="node">
<title>split17</title>
<polygon fill="none" stroke="black" points="1149.75,-290 1049.75,-290 1049.75,-254 1149.75,-254 1149.75,-290"/>
<text text-anchor="start" x="1057.75" y="-267.95" font-family="Times New Roman,serif" font-weight="bold" font-size="14.00">年齡</text>
<text text-anchor="start" x="1089.25" y="-267.95" font-family="Times New Roman,serif" font-size="14.00"> ≤</text>
<text text-anchor="start" x="1100.5" y="-267.95" font-family="Times New Roman,serif" font-weight="bold" font-size="14.00">43.500</text>
</g>
<!-- split10&#45;&gt;split17 -->
<g id="edge27" class="edge">
<title>split10&#45;&gt;split17</title>
<path fill="none" stroke="black" d="M921.83,-272C960.63,-272 1004.39,-272 1038.68,-272"/>
<polygon fill="black" stroke="black" points="1038.47,-275.5 1048.47,-272 1038.47,-268.5 1038.47,-275.5"/>
<text text-anchor="middle" x="955.88" y="-274.45" font-family="Times New Roman,serif" font-size="14.00">no</text>
</g>
<!-- leaf1 -->
<g id="node27" class="node">
<title>leaf1</title>
<ellipse fill="none" stroke="black" cx="1327.63" cy="-378" rx="59.03" ry="18"/>
<text text-anchor="start" x="1292.38" y="-373.95" font-family="Times New Roman,serif" font-size="14.00">leaf 1: </text>
<text text-anchor="start" x="1329.13" y="-373.95" font-family="Times New Roman,serif" font-weight="bold" font-size="14.00">0.445</text>
</g>
<!-- split11&#45;&gt;leaf1 -->
<g id="edge22" class="edge">
<title>split11&#45;&gt;leaf1</title>
<path fill="none" stroke="black" d="M1201.47,-355.84C1223.21,-359.69 1245.56,-363.64 1265.25,-367.13"/>
<polygon fill="black" stroke="black" points="1264.44,-370.72 1274.89,-369.01 1265.66,-363.82 1264.44,-370.72"/>
<text text-anchor="middle" x="1243.62" y="-365.45" font-family="Times New Roman,serif" font-size="14.00">yes</text>
</g>
<!-- leaf12 -->
<g id="node28" class="node">
<title>leaf12</title>
<ellipse fill="none" stroke="black" cx="1327.63" cy="-338" rx="63.63" ry="18"/>
<text text-anchor="start" x="1289.01" y="-333.95" font-family="Times New Roman,serif" font-size="14.00">leaf 12: </text>
<text text-anchor="start" x="1332.51" y="-333.95" font-family="Times New Roman,serif" font-weight="bold" font-size="14.00">0.414</text>
</g>
<!-- split11&#45;&gt;leaf12 -->
<g id="edge23" class="edge">
<title>split11&#45;&gt;leaf12</title>
<path fill="none" stroke="black" d="M1201.47,-338C1218.84,-338 1236.6,-338 1253.09,-338"/>
<polygon fill="black" stroke="black" points="1252.72,-341.5 1262.72,-338 1252.72,-334.5 1252.72,-341.5"/>
<text text-anchor="middle" x="1243.62" y="-340.45" font-family="Times New Roman,serif" font-size="14.00">no</text>
</g>
<!-- leaf11 -->
<g id="node30" class="node">
<title>leaf11</title>
<ellipse fill="none" stroke="black" cx="1327.63" cy="-298" rx="63.63" ry="18"/>
<text text-anchor="start" x="1289.01" y="-293.95" font-family="Times New Roman,serif" font-size="14.00">leaf 11: </text>
<text text-anchor="start" x="1332.51" y="-293.95" font-family="Times New Roman,serif" font-weight="bold" font-size="14.00">0.434</text>
</g>
<!-- split17&#45;&gt;leaf11 -->
<g id="edge25" class="edge">
<title>split17&#45;&gt;leaf11</title>
<path fill="none" stroke="black" d="M1150.04,-277.67C1181.57,-281.3 1222.92,-286.06 1257.69,-290.06"/>
<polygon fill="black" stroke="black" points="1256.91,-293.61 1267.25,-291.28 1257.71,-286.66 1256.91,-293.61"/>
<text text-anchor="middle" x="1243.62" y="-290.45" font-family="Times New Roman,serif" font-size="14.00">yes</text>
</g>
<!-- leaf18 -->
<g id="node31" class="node">
<title>leaf18</title>
<ellipse fill="none" stroke="black" cx="1327.63" cy="-258" rx="63.63" ry="18"/>
<text text-anchor="start" x="1289.01" y="-253.95" font-family="Times New Roman,serif" font-size="14.00">leaf 18: </text>
<text text-anchor="start" x="1332.51" y="-253.95" font-family="Times New Roman,serif" font-weight="bold" font-size="14.00">0.474</text>
</g>
<!-- split17&#45;&gt;leaf18 -->
<g id="edge26" class="edge">
<title>split17&#45;&gt;leaf18</title>
<path fill="none" stroke="black" d="M1150.04,-268.94C1180.5,-267.06 1220.12,-264.6 1254.12,-262.49"/>
<polygon fill="black" stroke="black" points="1254.17,-265.94 1263.94,-261.82 1253.74,-258.95 1254.17,-265.94"/>
<text text-anchor="middle" x="1243.62" y="-265.45" font-family="Times New Roman,serif" font-size="14.00">no</text>
</g>
<!-- split16 -->
<g id="node33" class="node">
<title>split16</title>
<polygon fill="none" stroke="black" points="1203,-236 996.5,-236 996.5,-200 1203,-200 1203,-236"/>
<text text-anchor="start" x="1004.5" y="-213.95" font-family="Times New Roman,serif" font-weight="bold" font-size="14.00">最近一次交易日</text>
<text text-anchor="start" x="1114.75" y="-213.95" font-family="Times New Roman,serif" font-size="14.00"> ≤</text>
<text text-anchor="start" x="1126" y="-213.95" font-family="Times New Roman,serif" font-weight="bold" font-size="14.00">2022&#45;12&#45;19</text>
</g>
<!-- split15&#45;&gt;split16 -->
<g id="edge31" class="edge">
<title>split15&#45;&gt;split16</title>
<path fill="none" stroke="black" d="M927.96,-218C946.72,-218 966.43,-218 985.54,-218"/>
<polygon fill="black" stroke="black" points="985.39,-221.5 995.39,-218 985.39,-214.5 985.39,-221.5"/>
<text text-anchor="middle" x="955.88" y="-220.45" font-family="Times New Roman,serif" font-size="14.00">yes</text>
</g>
<!-- leaf16 -->
<g id="node36" class="node">
<title>leaf16</title>
<ellipse fill="none" stroke="black" cx="1099.75" cy="-178" rx="63.63" ry="18"/>
<text text-anchor="start" x="1061.12" y="-173.95" font-family="Times New Roman,serif" font-size="14.00">leaf 16: </text>
<text text-anchor="start" x="1104.62" y="-173.95" font-family="Times New Roman,serif" font-weight="bold" font-size="14.00">0.474</text>
</g>
<!-- split15&#45;&gt;leaf16 -->
<g id="edge32" class="edge">
<title>split15&#45;&gt;leaf16</title>
<path fill="none" stroke="black" d="M927.96,-203.16C962.65,-198.05 1000.63,-192.46 1031.94,-187.84"/>
<polygon fill="black" stroke="black" points="1032.33,-191.18 1041.72,-186.26 1031.31,-184.25 1032.33,-191.18"/>
<text text-anchor="middle" x="955.88" y="-202.45" font-family="Times New Roman,serif" font-size="14.00">no</text>
</g>
<!-- leaf7 -->
<g id="node34" class="node">
<title>leaf7</title>
<ellipse fill="none" stroke="black" cx="1327.63" cy="-218" rx="59.03" ry="18"/>
<text text-anchor="start" x="1292.38" y="-213.95" font-family="Times New Roman,serif" font-size="14.00">leaf 7: </text>
<text text-anchor="start" x="1329.13" y="-213.95" font-family="Times New Roman,serif" font-weight="bold" font-size="14.00">0.455</text>
</g>
<!-- split16&#45;&gt;leaf7 -->
<g id="edge29" class="edge">
<title>split16&#45;&gt;leaf7</title>
<path fill="none" stroke="black" d="M1203.45,-218C1221.71,-218 1240.33,-218 1257.38,-218"/>
<polygon fill="black" stroke="black" points="1257.34,-221.5 1267.34,-218 1257.34,-214.5 1257.34,-221.5"/>
<text text-anchor="middle" x="1243.62" y="-220.45" font-family="Times New Roman,serif" font-size="14.00">yes</text>
</g>
<!-- leaf17 -->
<g id="node35" class="node">
<title>leaf17</title>
<ellipse fill="none" stroke="black" cx="1327.63" cy="-178" rx="63.63" ry="18"/>
<text text-anchor="start" x="1289.01" y="-173.95" font-family="Times New Roman,serif" font-size="14.00">leaf 17: </text>
<text text-anchor="start" x="1332.51" y="-173.95" font-family="Times New Roman,serif" font-weight="bold" font-size="14.00">0.466</text>
</g>
<!-- split16&#45;&gt;leaf17 -->
<g id="edge30" class="edge">
<title>split16&#45;&gt;leaf17</title>
<path fill="none" stroke="black" d="M1203.45,-199.81C1223.42,-196.28 1243.83,-192.66 1262.14,-189.42"/>
<polygon fill="black" stroke="black" points="1262.72,-192.7 1271.95,-187.51 1261.5,-185.8 1262.72,-192.7"/>
<text text-anchor="middle" x="1243.62" y="-195.45" font-family="Times New Roman,serif" font-size="14.00">no</text>
</g>
<!-- split18 -->
<g id="node38" class="node">
<title>split18</title>
<polygon fill="none" stroke="black" points="876.25,-142 776.25,-142 776.25,-106 876.25,-106 876.25,-142"/>
<text text-anchor="start" x="784.25" y="-119.95" font-family="Times New Roman,serif" font-weight="bold" font-size="14.00">年齡</text>
<text text-anchor="start" x="815.75" y="-119.95" font-family="Times New Roman,serif" font-size="14.00"> ≤</text>
<text text-anchor="start" x="827" y="-119.95" font-family="Times New Roman,serif" font-weight="bold" font-size="14.00">36.500</text>
</g>
<!-- split13&#45;&gt;split18 -->
<g id="edge41" class="edge">
<title>split13&#45;&gt;split18</title>
<path fill="none" stroke="black" d="M668.56,-124C701.3,-124 736.59,-124 765.37,-124"/>
<polygon fill="black" stroke="black" points="765.07,-127.5 775.07,-124 765.07,-120.5 765.07,-127.5"/>
<text text-anchor="middle" x="696.63" y="-126.45" font-family="Times New Roman,serif" font-size="14.00">yes</text>
</g>
<!-- leaf14 -->
<g id="node45" class="node">
<title>leaf14</title>
<ellipse fill="none" stroke="black" cx="826.25" cy="-84" rx="63.63" ry="18"/>
<text text-anchor="start" x="787.63" y="-79.95" font-family="Times New Roman,serif" font-size="14.00">leaf 14: </text>
<text text-anchor="start" x="831.13" y="-79.95" font-family="Times New Roman,serif" font-weight="bold" font-size="14.00">0.475</text>
</g>
<!-- split13&#45;&gt;leaf14 -->
<g id="edge42" class="edge">
<title>split13&#45;&gt;leaf14</title>
<path fill="none" stroke="black" d="M668.56,-108.36C698.92,-103.64 731.47,-98.58 758.99,-94.3"/>
<polygon fill="black" stroke="black" points="759.32,-97.64 768.67,-92.64 758.25,-90.72 759.32,-97.64"/>
<text text-anchor="middle" x="696.63" y="-107.45" font-family="Times New Roman,serif" font-size="14.00">no</text>
</g>
<!-- split19 -->
<g id="node39" class="node">
<title>split19</title>
<polygon fill="none" stroke="black" points="1210.88,-142 988.62,-142 988.62,-106 1210.88,-106 1210.88,-142"/>
<text text-anchor="start" x="996.62" y="-119.95" font-family="Times New Roman,serif" font-weight="bold" font-size="14.00">第一次門市交易日</text>
<text text-anchor="start" x="1122.62" y="-119.95" font-family="Times New Roman,serif" font-size="14.00"> ≤</text>
<text text-anchor="start" x="1133.88" y="-119.95" font-family="Times New Roman,serif" font-weight="bold" font-size="14.00">2015&#45;06&#45;27</text>
</g>
<!-- split18&#45;&gt;split19 -->
<g id="edge37" class="edge">
<title>split18&#45;&gt;split19</title>
<path fill="none" stroke="black" d="M876.73,-124C905.01,-124 941.81,-124 977.3,-124"/>
<polygon fill="black" stroke="black" points="977.26,-127.5 987.26,-124 977.26,-120.5 977.26,-127.5"/>
<text text-anchor="middle" x="955.88" y="-126.45" font-family="Times New Roman,serif" font-size="14.00">yes</text>
</g>
<!-- split21 -->
<g id="node42" class="node">
<title>split21</title>
<polygon fill="none" stroke="black" points="1203,-76 996.5,-76 996.5,-40 1203,-40 1203,-76"/>
<text text-anchor="start" x="1004.5" y="-53.95" font-family="Times New Roman,serif" font-weight="bold" font-size="14.00">最近一次交易日</text>
<text text-anchor="start" x="1114.75" y="-53.95" font-family="Times New Roman,serif" font-size="14.00"> ≤</text>
<text text-anchor="start" x="1126" y="-53.95" font-family="Times New Roman,serif" font-weight="bold" font-size="14.00">2020&#45;01&#45;01</text>
</g>
<!-- split18&#45;&gt;split21 -->
<g id="edge40" class="edge">
<title>split18&#45;&gt;split21</title>
<path fill="none" stroke="black" d="M876.7,-114.63C895.2,-110.94 916.37,-106.52 935.5,-102 964.38,-95.18 995.9,-86.89 1023.48,-79.35"/>
<polygon fill="black" stroke="black" points="1024.13,-82.52 1032.85,-76.5 1022.28,-75.77 1024.13,-82.52"/>
<text text-anchor="middle" x="955.88" y="-100.45" font-family="Times New Roman,serif" font-size="14.00">no</text>
</g>
<!-- leaf6 -->
<g id="node40" class="node">
<title>leaf6</title>
<ellipse fill="none" stroke="black" cx="1327.63" cy="-138" rx="59.03" ry="18"/>
<text text-anchor="start" x="1292.38" y="-133.95" font-family="Times New Roman,serif" font-size="14.00">leaf 6: </text>
<text text-anchor="start" x="1329.13" y="-133.95" font-family="Times New Roman,serif" font-weight="bold" font-size="14.00">0.457</text>
</g>
<!-- split19&#45;&gt;leaf6 -->
<g id="edge35" class="edge">
<title>split19&#45;&gt;leaf6</title>
<path fill="none" stroke="black" d="M1211.05,-130.84C1227.27,-131.84 1243.56,-132.85 1258.59,-133.78"/>
<polygon fill="black" stroke="black" points="1258.09,-137.32 1268.29,-134.45 1258.52,-130.33 1258.09,-137.32"/>
<text text-anchor="middle" x="1243.62" y="-135.45" font-family="Times New Roman,serif" font-size="14.00">yes</text>
</g>
<!-- leaf20 -->
<g id="node41" class="node">
<title>leaf20</title>
<ellipse fill="none" stroke="black" cx="1327.63" cy="-98" rx="63.63" ry="18"/>
<text text-anchor="start" x="1289.01" y="-93.95" font-family="Times New Roman,serif" font-size="14.00">leaf 20: </text>
<text text-anchor="start" x="1332.51" y="-93.95" font-family="Times New Roman,serif" font-weight="bold" font-size="14.00">0.405</text>
</g>
<!-- split19&#45;&gt;leaf20 -->
<g id="edge36" class="edge">
<title>split19&#45;&gt;leaf20</title>
<path fill="none" stroke="black" d="M1211.05,-111.3C1226.91,-109.48 1242.84,-107.65 1257.58,-105.95"/>
<polygon fill="black" stroke="black" points="1257.56,-109.36 1267.1,-104.74 1256.76,-102.4 1257.56,-109.36"/>
<text text-anchor="middle" x="1243.62" y="-109.45" font-family="Times New Roman,serif" font-size="14.00">no</text>
</g>
<!-- leaf19 -->
<g id="node43" class="node">
<title>leaf19</title>
<ellipse fill="none" stroke="black" cx="1327.63" cy="-58" rx="63.63" ry="18"/>
<text text-anchor="start" x="1289.01" y="-53.95" font-family="Times New Roman,serif" font-size="14.00">leaf 19: </text>
<text text-anchor="start" x="1332.51" y="-53.95" font-family="Times New Roman,serif" font-weight="bold" font-size="14.00">0.459</text>
</g>
<!-- split21&#45;&gt;leaf19 -->
<g id="edge38" class="edge">
<title>split21&#45;&gt;leaf19</title>
<path fill="none" stroke="black" d="M1203.45,-58C1220.11,-58 1237.08,-58 1252.88,-58"/>
<polygon fill="black" stroke="black" points="1252.61,-61.5 1262.61,-58 1252.61,-54.5 1252.61,-61.5"/>
<text text-anchor="middle" x="1243.62" y="-60.45" font-family="Times New Roman,serif" font-size="14.00">yes</text>
</g>
<!-- leaf22 -->
<g id="node44" class="node">
<title>leaf22</title>
<ellipse fill="none" stroke="black" cx="1327.63" cy="-18" rx="63.63" ry="18"/>
<text text-anchor="start" x="1289.01" y="-13.95" font-family="Times New Roman,serif" font-size="14.00">leaf 22: </text>
<text text-anchor="start" x="1332.51" y="-13.95" font-family="Times New Roman,serif" font-weight="bold" font-size="14.00">0.474</text>
</g>
<!-- split21&#45;&gt;leaf22 -->
<g id="edge39" class="edge">
<title>split21&#45;&gt;leaf22</title>
<path fill="none" stroke="black" d="M1203.45,-39.81C1223.42,-36.28 1243.83,-32.66 1262.14,-29.42"/>
<polygon fill="black" stroke="black" points="1262.72,-32.7 1271.95,-27.51 1261.5,-25.8 1262.72,-32.7"/>
<text text-anchor="middle" x="1243.62" y="-36.45" font-family="Times New Roman,serif" font-size="14.00">no</text>
</g>
</g>
</svg>
