<?xml version="1.0" encoding="UTF-8" standalone="no"?>
<!DOCTYPE svg PUBLIC "-//W3C//DTD SVG 1.1//EN"
 "http://www.w3.org/Graphics/SVG/1.1/DTD/svg11.dtd">
<!-- Generated by graphviz version 8.0.5 (20230430.1635)
 -->
<!-- Pages: 1 -->
<svg width="1366pt" height="494pt"
 viewBox="0.00 0.00 1366.27 494.00" xmlns="http://www.w3.org/2000/svg" xmlns:xlink="http://www.w3.org/1999/xlink">
<g id="graph0" class="graph" transform="scale(1 1) rotate(0) translate(4 490)">
<polygon fill="white" stroke="none" points="-4,4 -4,-490 1362.27,-490 1362.27,4 -4,4"/>
<!-- split0 -->
<g id="node1" class="node">
<title>split0</title>
<polygon fill="none" stroke="black" points="161.5,-190 0,-190 0,-154 161.5,-154 161.5,-190"/>
<text text-anchor="start" x="8" y="-167.95" font-family="Times New Roman,serif" font-weight="bold" font-size="14.00">自媒互動程度</text>
<text text-anchor="start" x="102.5" y="-167.95" font-family="Times New Roman,serif" font-size="14.00"> =</text>
<text text-anchor="start" x="114.5" y="-167.95" font-family="Times New Roman,serif" font-weight="bold" font-size="14.00">2||9||16</text>
</g>
<!-- split1 -->
<g id="node2" class="node">
<title>split1</title>
<polygon fill="none" stroke="black" points="393,-272 202.25,-272 202.25,-236 393,-236 393,-272"/>
<text text-anchor="start" x="210.25" y="-249.95" font-family="Times New Roman,serif" font-weight="bold" font-size="14.00">手機驗證日期</text>
<text text-anchor="start" x="304.75" y="-249.95" font-family="Times New Roman,serif" font-size="14.00"> ≤</text>
<text text-anchor="start" x="316" y="-249.95" font-family="Times New Roman,serif" font-weight="bold" font-size="14.00">2017&#45;01&#45;03</text>
</g>
<!-- split0&#45;&gt;split1 -->
<g id="edge17" class="edge">
<title>split0&#45;&gt;split1</title>
<path fill="none" stroke="black" d="M129.97,-190.4C161.93,-202.6 204.05,-218.67 237.96,-231.61"/>
<polygon fill="black" stroke="black" points="236.6,-235.22 247.19,-235.52 239.1,-228.68 236.6,-235.22"/>
<text text-anchor="middle" x="181.88" y="-215.45" font-family="Times New Roman,serif" font-size="14.00">yes</text>
</g>
<!-- split6 -->
<g id="node19" class="node">
<title>split6</title>
<polygon fill="none" stroke="black" points="393,-123 202.25,-123 202.25,-87 393,-87 393,-123"/>
<text text-anchor="start" x="210.25" y="-100.95" font-family="Times New Roman,serif" font-weight="bold" font-size="14.00">手機驗證日期</text>
<text text-anchor="start" x="304.75" y="-100.95" font-family="Times New Roman,serif" font-size="14.00"> ≤</text>
<text text-anchor="start" x="316" y="-100.95" font-family="Times New Roman,serif" font-weight="bold" font-size="14.00">2016&#45;12&#45;17</text>
</g>
<!-- split0&#45;&gt;split6 -->
<g id="edge34" class="edge">
<title>split0&#45;&gt;split6</title>
<path fill="none" stroke="black" d="M141.03,-153.51C167.69,-145.2 199.33,-135.34 227.1,-126.68"/>
<polygon fill="black" stroke="black" points="228.03,-129.74 236.53,-123.43 225.95,-123.06 228.03,-129.74"/>
<text text-anchor="middle" x="181.88" y="-144.45" font-family="Times New Roman,serif" font-size="14.00">no</text>
</g>
<!-- split2 -->
<g id="node3" class="node">
<title>split2</title>
<polygon fill="none" stroke="black" points="638.38,-322 447.63,-322 447.63,-286 638.38,-286 638.38,-322"/>
<text text-anchor="start" x="455.63" y="-299.95" font-family="Times New Roman,serif" font-weight="bold" font-size="14.00">第一次交易日</text>
<text text-anchor="start" x="550.13" y="-299.95" font-family="Times New Roman,serif" font-size="14.00"> ≤</text>
<text text-anchor="start" x="561.38" y="-299.95" font-family="Times New Roman,serif" font-weight="bold" font-size="14.00">2016&#45;04&#45;01</text>
</g>
<!-- split1&#45;&gt;split2 -->
<g id="edge13" class="edge">
<title>split1&#45;&gt;split2</title>
<path fill="none" stroke="black" d="M388.56,-272.48C405.88,-276.03 424.12,-279.78 441.74,-283.4"/>
<polygon fill="black" stroke="black" points="440.53,-286.93 451.03,-285.52 441.94,-280.08 440.53,-286.93"/>
<text text-anchor="middle" x="413.38" y="-281.45" font-family="Times New Roman,serif" font-size="14.00">yes</text>
</g>
<!-- split4 -->
<g id="node16" class="node">
<title>split4</title>
<polygon fill="none" stroke="black" points="644.38,-272 441.63,-272 441.63,-236 644.38,-236 644.38,-272"/>
<text text-anchor="start" x="449.63" y="-249.95" font-family="Times New Roman,serif" font-weight="bold" font-size="14.00">第一次交易日(年)</text>
<text text-anchor="start" x="568.88" y="-249.95" font-family="Times New Roman,serif" font-size="14.00"> ≤</text>
<text text-anchor="start" x="580.13" y="-249.95" font-family="Times New Roman,serif" font-weight="bold" font-size="14.00">2015.500</text>
</g>
<!-- split1&#45;&gt;split4 -->
<g id="edge16" class="edge">
<title>split1&#45;&gt;split4</title>
<path fill="none" stroke="black" d="M393.42,-254C405.6,-254 418.16,-254 430.57,-254"/>
<polygon fill="black" stroke="black" points="430.43,-257.5 440.43,-254 430.43,-250.5 430.43,-257.5"/>
<text text-anchor="middle" x="413.38" y="-256.45" font-family="Times New Roman,serif" font-size="14.00">no</text>
</g>
<!-- split5 -->
<g id="node4" class="node">
<title>split5</title>
<polygon fill="none" stroke="black" points="935.13,-380 716.63,-380 716.63,-344 935.13,-344 935.13,-380"/>
<text text-anchor="start" x="724.63" y="-357.95" font-family="Times New Roman,serif" font-weight="bold" font-size="14.00">倒數第一個月開信行為</text>
<text text-anchor="start" x="882.13" y="-357.95" font-family="Times New Roman,serif" font-size="14.00"> ≤</text>
<text text-anchor="start" x="893.38" y="-357.95" font-family="Times New Roman,serif" font-weight="bold" font-size="14.00">0.000</text>
</g>
<!-- split2&#45;&gt;split5 -->
<g id="edge7" class="edge">
<title>split2&#45;&gt;split5</title>
<path fill="none" stroke="black" d="M633.26,-322.43C662.43,-328.45 695.01,-335.18 724.91,-341.36"/>
<polygon fill="black" stroke="black" points="723.87,-344.92 734.37,-343.52 725.28,-338.07 723.87,-344.92"/>
<text text-anchor="middle" x="672.63" y="-333.45" font-family="Times New Roman,serif" font-size="14.00">yes</text>
</g>
<!-- split3 -->
<g id="node11" class="node">
<title>split3</title>
<polygon fill="none" stroke="black" points="921.25,-322 730.5,-322 730.5,-286 921.25,-286 921.25,-322"/>
<text text-anchor="start" x="738.5" y="-299.95" font-family="Times New Roman,serif" font-weight="bold" font-size="14.00">手機驗證日期</text>
<text text-anchor="start" x="833" y="-299.95" font-family="Times New Roman,serif" font-size="14.00"> ≤</text>
<text text-anchor="start" x="844.25" y="-299.95" font-family="Times New Roman,serif" font-weight="bold" font-size="14.00">2016&#45;03&#45;23</text>
</g>
<!-- split2&#45;&gt;split3 -->
<g id="edge12" class="edge">
<title>split2&#45;&gt;split3</title>
<path fill="none" stroke="black" d="M638.7,-304C664.6,-304 692.82,-304 719.28,-304"/>
<polygon fill="black" stroke="black" points="719.11,-307.5 729.11,-304 719.11,-300.5 719.11,-307.5"/>
<text text-anchor="middle" x="672.63" y="-306.45" font-family="Times New Roman,serif" font-size="14.00">no</text>
</g>
<!-- split9 -->
<g id="node5" class="node">
<title>split9</title>
<polygon fill="none" stroke="black" points="1174.88,-446 1014.88,-446 1014.88,-410 1174.88,-410 1174.88,-446"/>
<text text-anchor="start" x="1022.88" y="-423.95" font-family="Times New Roman,serif" font-weight="bold" font-size="14.00">是否接受Email</text>
<text text-anchor="start" x="1121.88" y="-423.95" font-family="Times New Roman,serif" font-size="14.00"> ≤</text>
<text text-anchor="start" x="1133.12" y="-423.95" font-family="Times New Roman,serif" font-weight="bold" font-size="14.00">0.000</text>
</g>
<!-- split5&#45;&gt;split9 -->
<g id="edge3" class="edge">
<title>split5&#45;&gt;split9</title>
<path fill="none" stroke="black" d="M901.6,-380.47C934.88,-388.7 974.24,-398.43 1008.65,-406.93"/>
<polygon fill="black" stroke="black" points="1007.62,-410.53 1018.16,-409.53 1009.3,-403.73 1007.62,-410.53"/>
<text text-anchor="middle" x="979.13" y="-402.45" font-family="Times New Roman,serif" font-size="14.00">yes</text>
</g>
<!-- split10 -->
<g id="node8" class="node">
<title>split10</title>
<polygon fill="none" stroke="black" points="1158.75,-380 1031,-380 1031,-344 1158.75,-344 1158.75,-380"/>
<text text-anchor="start" x="1039" y="-357.95" font-family="Times New Roman,serif" font-weight="bold" font-size="14.00">生日</text>
<text text-anchor="start" x="1070.5" y="-357.95" font-family="Times New Roman,serif" font-size="14.00"> ≤</text>
<text text-anchor="start" x="1081.75" y="-357.95" font-family="Times New Roman,serif" font-weight="bold" font-size="14.00">1974&#45;09&#45;04</text>
</g>
<!-- split5&#45;&gt;split10 -->
<g id="edge6" class="edge">
<title>split5&#45;&gt;split10</title>
<path fill="none" stroke="black" d="M935.47,-362C963.77,-362 993.62,-362 1019.68,-362"/>
<polygon fill="black" stroke="black" points="1019.6,-365.5 1029.6,-362 1019.6,-358.5 1019.6,-365.5"/>
<text text-anchor="middle" x="979.13" y="-364.45" font-family="Times New Roman,serif" font-size="14.00">no</text>
</g>
<!-- leaf0 -->
<g id="node6" class="node">
<title>leaf0</title>
<ellipse fill="none" stroke="black" cx="1294.63" cy="-468" rx="59.03" ry="18"/>
<text text-anchor="start" x="1259.38" y="-463.95" font-family="Times New Roman,serif" font-size="14.00">leaf 0: </text>
<text text-anchor="start" x="1296.13" y="-463.95" font-family="Times New Roman,serif" font-weight="bold" font-size="14.00">0.279</text>
</g>
<!-- split9&#45;&gt;leaf0 -->
<g id="edge1" class="edge">
<title>split9&#45;&gt;leaf0</title>
<path fill="none" stroke="black" d="M1175.17,-444.04C1194.75,-448 1215.4,-452.18 1233.88,-455.91"/>
<polygon fill="black" stroke="black" points="1232.99,-459.51 1243.48,-458.06 1234.38,-452.65 1232.99,-459.51"/>
<text text-anchor="middle" x="1210.62" y="-454.45" font-family="Times New Roman,serif" font-size="14.00">yes</text>
</g>
<!-- leaf10 -->
<g id="node7" class="node">
<title>leaf10</title>
<ellipse fill="none" stroke="black" cx="1294.63" cy="-428" rx="63.63" ry="18"/>
<text text-anchor="start" x="1256.01" y="-423.95" font-family="Times New Roman,serif" font-size="14.00">leaf 10: </text>
<text text-anchor="start" x="1299.51" y="-423.95" font-family="Times New Roman,serif" font-weight="bold" font-size="14.00">0.298</text>
</g>
<!-- split9&#45;&gt;leaf10 -->
<g id="edge2" class="edge">
<title>split9&#45;&gt;leaf10</title>
<path fill="none" stroke="black" d="M1175.17,-428C1189.9,-428 1205.23,-428 1219.79,-428"/>
<polygon fill="black" stroke="black" points="1219.75,-431.5 1229.75,-428 1219.75,-424.5 1219.75,-431.5"/>
<text text-anchor="middle" x="1210.62" y="-430.45" font-family="Times New Roman,serif" font-size="14.00">no</text>
</g>
<!-- leaf6 -->
<g id="node9" class="node">
<title>leaf6</title>
<ellipse fill="none" stroke="black" cx="1294.63" cy="-388" rx="59.03" ry="18"/>
<text text-anchor="start" x="1259.38" y="-383.95" font-family="Times New Roman,serif" font-size="14.00">leaf 6: </text>
<text text-anchor="start" x="1296.13" y="-383.95" font-family="Times New Roman,serif" font-weight="bold" font-size="14.00">0.416</text>
</g>
<!-- split10&#45;&gt;leaf6 -->
<g id="edge4" class="edge">
<title>split10&#45;&gt;leaf6</title>
<path fill="none" stroke="black" d="M1158.99,-370.3C1181.33,-373.24 1206.49,-376.54 1228.96,-379.5"/>
<polygon fill="black" stroke="black" points="1228.38,-383.08 1238.75,-380.92 1229.29,-376.14 1228.38,-383.08"/>
<text text-anchor="middle" x="1210.62" y="-380.45" font-family="Times New Roman,serif" font-size="14.00">yes</text>
</g>
<!-- leaf11 -->
<g id="node10" class="node">
<title>leaf11</title>
<ellipse fill="none" stroke="black" cx="1294.63" cy="-348" rx="63.63" ry="18"/>
<text text-anchor="start" x="1256.01" y="-343.95" font-family="Times New Roman,serif" font-size="14.00">leaf 11: </text>
<text text-anchor="start" x="1299.51" y="-343.95" font-family="Times New Roman,serif" font-weight="bold" font-size="14.00">0.358</text>
</g>
<!-- split10&#45;&gt;leaf11 -->
<g id="edge5" class="edge">
<title>split10&#45;&gt;leaf11</title>
<path fill="none" stroke="black" d="M1158.99,-357.53C1178.92,-356.12 1201.09,-354.55 1221.6,-353.1"/>
<polygon fill="black" stroke="black" points="1221.74,-356.53 1231.47,-352.33 1221.25,-349.55 1221.74,-356.53"/>
<text text-anchor="middle" x="1210.62" y="-356.45" font-family="Times New Roman,serif" font-size="14.00">no</text>
</g>
<!-- leaf3 -->
<g id="node12" class="node">
<title>leaf3</title>
<ellipse fill="none" stroke="black" cx="1094.88" cy="-322" rx="59.03" ry="18"/>
<text text-anchor="start" x="1059.62" y="-317.95" font-family="Times New Roman,serif" font-size="14.00">leaf 3: </text>
<text text-anchor="start" x="1096.38" y="-317.95" font-family="Times New Roman,serif" font-weight="bold" font-size="14.00">0.295</text>
</g>
<!-- split3&#45;&gt;leaf3 -->
<g id="edge8" class="edge">
<title>split3&#45;&gt;leaf3</title>
<path fill="none" stroke="black" d="M921.38,-310.37C955.87,-312.7 994.17,-315.28 1025.89,-317.42"/>
<polygon fill="black" stroke="black" points="1025.61,-320.97 1035.83,-318.15 1026.08,-313.99 1025.61,-320.97"/>
<text text-anchor="middle" x="979.13" y="-316.45" font-family="Times New Roman,serif" font-size="14.00">yes</text>
</g>
<!-- split8 -->
<g id="node13" class="node">
<title>split8</title>
<polygon fill="none" stroke="black" points="1190.25,-300 999.5,-300 999.5,-264 1190.25,-264 1190.25,-300"/>
<text text-anchor="start" x="1007.5" y="-277.95" font-family="Times New Roman,serif" font-weight="bold" font-size="14.00">手機驗證日期</text>
<text text-anchor="start" x="1102" y="-277.95" font-family="Times New Roman,serif" font-size="14.00"> ≤</text>
<text text-anchor="start" x="1113.25" y="-277.95" font-family="Times New Roman,serif" font-weight="bold" font-size="14.00">2016&#45;07&#45;03</text>
</g>
<!-- split3&#45;&gt;split8 -->
<g id="edge11" class="edge">
<title>split3&#45;&gt;split8</title>
<path fill="none" stroke="black" d="M921.38,-296.21C943.04,-294.43 966.2,-292.52 988.29,-290.7"/>
<polygon fill="black" stroke="black" points="988.36,-294.12 998.04,-289.81 987.79,-287.15 988.36,-294.12"/>
<text text-anchor="middle" x="979.13" y="-293.45" font-family="Times New Roman,serif" font-size="14.00">no</text>
</g>
<!-- leaf4 -->
<g id="node14" class="node">
<title>leaf4</title>
<ellipse fill="none" stroke="black" cx="1294.63" cy="-308" rx="59.03" ry="18"/>
<text text-anchor="start" x="1259.38" y="-303.95" font-family="Times New Roman,serif" font-size="14.00">leaf 4: </text>
<text text-anchor="start" x="1296.13" y="-303.95" font-family="Times New Roman,serif" font-weight="bold" font-size="14.00">0.407</text>
</g>
<!-- split8&#45;&gt;leaf4 -->
<g id="edge9" class="edge">
<title>split8&#45;&gt;leaf4</title>
<path fill="none" stroke="black" d="M1190.7,-294.47C1203.73,-296.18 1216.86,-297.91 1229.18,-299.53"/>
<polygon fill="black" stroke="black" points="1228.39,-303.08 1238.77,-300.92 1229.31,-296.14 1228.39,-303.08"/>
<text text-anchor="middle" x="1210.62" y="-300.45" font-family="Times New Roman,serif" font-size="14.00">yes</text>
</g>
<!-- leaf9 -->
<g id="node15" class="node">
<title>leaf9</title>
<ellipse fill="none" stroke="black" cx="1294.63" cy="-268" rx="59.03" ry="18"/>
<text text-anchor="start" x="1259.38" y="-263.95" font-family="Times New Roman,serif" font-size="14.00">leaf 9: </text>
<text text-anchor="start" x="1296.13" y="-263.95" font-family="Times New Roman,serif" font-weight="bold" font-size="14.00">0.465</text>
</g>
<!-- split8&#45;&gt;leaf9 -->
<g id="edge10" class="edge">
<title>split8&#45;&gt;leaf9</title>
<path fill="none" stroke="black" d="M1190.7,-275.29C1202.64,-274.44 1214.67,-273.59 1226.07,-272.78"/>
<polygon fill="black" stroke="black" points="1226.06,-276.22 1235.79,-272.02 1225.57,-269.24 1226.06,-276.22"/>
<text text-anchor="middle" x="1210.62" y="-276.45" font-family="Times New Roman,serif" font-size="14.00">no</text>
</g>
<!-- leaf2 -->
<g id="node17" class="node">
<title>leaf2</title>
<ellipse fill="none" stroke="black" cx="825.88" cy="-259" rx="59.03" ry="18"/>
<text text-anchor="start" x="790.63" y="-254.95" font-family="Times New Roman,serif" font-size="14.00">leaf 2: </text>
<text text-anchor="start" x="827.38" y="-254.95" font-family="Times New Roman,serif" font-weight="bold" font-size="14.00">0.298</text>
</g>
<!-- split4&#45;&gt;leaf2 -->
<g id="edge14" class="edge">
<title>split4&#45;&gt;leaf2</title>
<path fill="none" stroke="black" d="M644.61,-255.79C681.54,-256.45 722.47,-257.18 755.99,-257.77"/>
<polygon fill="black" stroke="black" points="755.54,-261.28 765.6,-257.96 755.66,-254.29 755.54,-261.28"/>
<text text-anchor="middle" x="672.63" y="-258.45" font-family="Times New Roman,serif" font-size="14.00">yes</text>
</g>
<!-- leaf5 -->
<g id="node18" class="node">
<title>leaf5</title>
<ellipse fill="none" stroke="black" cx="825.88" cy="-219" rx="59.03" ry="18"/>
<text text-anchor="start" x="790.63" y="-214.95" font-family="Times New Roman,serif" font-size="14.00">leaf 5: </text>
<text text-anchor="start" x="827.38" y="-214.95" font-family="Times New Roman,serif" font-weight="bold" font-size="14.00">0.483</text>
</g>
<!-- split4&#45;&gt;leaf5 -->
<g id="edge15" class="edge">
<title>split4&#45;&gt;leaf5</title>
<path fill="none" stroke="black" d="M644.61,-241.46C682.96,-236.68 725.63,-231.37 759.82,-227.11"/>
<polygon fill="black" stroke="black" points="760.12,-230.47 769.61,-225.76 759.26,-223.53 760.12,-230.47"/>
<text text-anchor="middle" x="672.63" y="-240.45" font-family="Times New Roman,serif" font-size="14.00">no</text>
</g>
<!-- split7 -->
<g id="node20" class="node">
<title>split7</title>
<polygon fill="none" stroke="black" points="652.25,-123 433.75,-123 433.75,-87 652.25,-87 652.25,-123"/>
<text text-anchor="start" x="441.75" y="-100.95" font-family="Times New Roman,serif" font-weight="bold" font-size="14.00">倒數第一個月開信行為</text>
<text text-anchor="start" x="599.25" y="-100.95" font-family="Times New Roman,serif" font-size="14.00"> ≤</text>
<text text-anchor="start" x="610.5" y="-100.95" font-family="Times New Roman,serif" font-weight="bold" font-size="14.00">0.000</text>
</g>
<!-- split6&#45;&gt;split7 -->
<g id="edge30" class="edge">
<title>split6&#45;&gt;split7</title>
<path fill="none" stroke="black" d="M393.42,-105C402.92,-105 412.65,-105 422.37,-105"/>
<polygon fill="black" stroke="black" points="422.32,-108.5 432.32,-105 422.32,-101.5 422.32,-108.5"/>
<text text-anchor="middle" x="413.38" y="-107.45" font-family="Times New Roman,serif" font-size="14.00">yes</text>
</g>
<!-- split13 -->
<g id="node33" class="node">
<title>split13</title>
<polygon fill="none" stroke="black" points="644.38,-76 441.63,-76 441.63,-40 644.38,-40 644.38,-76"/>
<text text-anchor="start" x="449.63" y="-53.95" font-family="Times New Roman,serif" font-weight="bold" font-size="14.00">第一次交易日(年)</text>
<text text-anchor="start" x="568.88" y="-53.95" font-family="Times New Roman,serif" font-size="14.00"> ≤</text>
<text text-anchor="start" x="580.13" y="-53.95" font-family="Times New Roman,serif" font-weight="bold" font-size="14.00">2014.500</text>
</g>
<!-- split6&#45;&gt;split13 -->
<g id="edge33" class="edge">
<title>split6&#45;&gt;split13</title>
<path fill="none" stroke="black" d="M393.42,-86.69C407.24,-84.02 421.56,-81.26 435.6,-78.55"/>
<polygon fill="black" stroke="black" points="436.11,-81.82 445.26,-76.49 434.78,-74.95 436.11,-81.82"/>
<text text-anchor="middle" x="413.38" y="-87.45" font-family="Times New Roman,serif" font-size="14.00">no</text>
</g>
<!-- split11 -->
<g id="node21" class="node">
<title>split11</title>
<polygon fill="none" stroke="black" points="921.25,-156 730.5,-156 730.5,-120 921.25,-120 921.25,-156"/>
<text text-anchor="start" x="738.5" y="-133.95" font-family="Times New Roman,serif" font-weight="bold" font-size="14.00">第一次交易日</text>
<text text-anchor="start" x="833" y="-133.95" font-family="Times New Roman,serif" font-size="14.00"> ≤</text>
<text text-anchor="start" x="844.25" y="-133.95" font-family="Times New Roman,serif" font-weight="bold" font-size="14.00">2016&#45;04&#45;18</text>
</g>
<!-- split7&#45;&gt;split11 -->
<g id="edge24" class="edge">
<title>split7&#45;&gt;split11</title>
<path fill="none" stroke="black" d="M652.59,-117.76C674.62,-120.35 697.74,-123.06 719.64,-125.64"/>
<polygon fill="black" stroke="black" points="718.95,-129.2 729.29,-126.89 719.76,-122.24 718.95,-129.2"/>
<text text-anchor="middle" x="672.63" y="-122.45" font-family="Times New Roman,serif" font-size="14.00">yes</text>
</g>
<!-- split14 -->
<g id="node28" class="node">
<title>split14</title>
<polygon fill="none" stroke="black" points="958.75,-116 693,-116 693,-80 958.75,-80 958.75,-116"/>
<text text-anchor="start" x="701" y="-93.95" font-family="Times New Roman,serif" font-weight="bold" font-size="14.00">倒數第一個月開信且點擊行為</text>
<text text-anchor="start" x="905.75" y="-93.95" font-family="Times New Roman,serif" font-size="14.00"> ≤</text>
<text text-anchor="start" x="917" y="-93.95" font-family="Times New Roman,serif" font-weight="bold" font-size="14.00">0.000</text>
</g>
<!-- split7&#45;&gt;split14 -->
<g id="edge29" class="edge">
<title>split7&#45;&gt;split14</title>
<path fill="none" stroke="black" d="M652.59,-102.29C662.23,-102.05 672.08,-101.81 681.94,-101.56"/>
<polygon fill="black" stroke="black" points="681.73,-105.04 691.64,-101.3 681.56,-98.05 681.73,-105.04"/>
<text text-anchor="middle" x="672.63" y="-103.45" font-family="Times New Roman,serif" font-size="14.00">no</text>
</g>
<!-- split12 -->
<g id="node22" class="node">
<title>split12</title>
<polygon fill="none" stroke="black" points="1190.25,-206 999.5,-206 999.5,-170 1190.25,-170 1190.25,-206"/>
<text text-anchor="start" x="1007.5" y="-183.95" font-family="Times New Roman,serif" font-weight="bold" font-size="14.00">第一次交易日</text>
<text text-anchor="start" x="1102" y="-183.95" font-family="Times New Roman,serif" font-size="14.00"> ≤</text>
<text text-anchor="start" x="1113.25" y="-183.95" font-family="Times New Roman,serif" font-weight="bold" font-size="14.00">2015&#45;04&#45;21</text>
</g>
<!-- split11&#45;&gt;split12 -->
<g id="edge20" class="edge">
<title>split11&#45;&gt;split12</title>
<path fill="none" stroke="black" d="M921.38,-155.7C943.04,-159.75 966.2,-164.09 988.29,-168.23"/>
<polygon fill="black" stroke="black" points="987.57,-171.84 998.04,-170.24 988.86,-164.96 987.57,-171.84"/>
<text text-anchor="middle" x="979.13" y="-169.45" font-family="Times New Roman,serif" font-size="14.00">yes</text>
</g>
<!-- split16 -->
<g id="node25" class="node">
<title>split16</title>
<polygon fill="none" stroke="black" points="1190.25,-156 999.5,-156 999.5,-120 1190.25,-120 1190.25,-156"/>
<text text-anchor="start" x="1007.5" y="-133.95" font-family="Times New Roman,serif" font-weight="bold" font-size="14.00">手機驗證日期</text>
<text text-anchor="start" x="1102" y="-133.95" font-family="Times New Roman,serif" font-size="14.00"> ≤</text>
<text text-anchor="start" x="1113.25" y="-133.95" font-family="Times New Roman,serif" font-weight="bold" font-size="14.00">2016&#45;06&#45;11</text>
</g>
<!-- split11&#45;&gt;split16 -->
<g id="edge23" class="edge">
<title>split11&#45;&gt;split16</title>
<path fill="none" stroke="black" d="M921.38,-138C943.04,-138 966.2,-138 988.29,-138"/>
<polygon fill="black" stroke="black" points="988.04,-141.5 998.04,-138 988.04,-134.5 988.04,-141.5"/>
<text text-anchor="middle" x="979.13" y="-140.45" font-family="Times New Roman,serif" font-size="14.00">no</text>
</g>
<!-- leaf1 -->
<g id="node23" class="node">
<title>leaf1</title>
<ellipse fill="none" stroke="black" cx="1294.63" cy="-228" rx="59.03" ry="18"/>
<text text-anchor="start" x="1259.38" y="-223.95" font-family="Times New Roman,serif" font-size="14.00">leaf 1: </text>
<text text-anchor="start" x="1296.13" y="-223.95" font-family="Times New Roman,serif" font-weight="bold" font-size="14.00">0.418</text>
</g>
<!-- split12&#45;&gt;leaf1 -->
<g id="edge18" class="edge">
<title>split12&#45;&gt;leaf1</title>
<path fill="none" stroke="black" d="M1187.23,-206.48C1203.11,-209.69 1219.25,-212.95 1234,-215.94"/>
<polygon fill="black" stroke="black" points="1232.98,-219.5 1243.47,-218.06 1234.36,-212.64 1232.98,-219.5"/>
<text text-anchor="middle" x="1210.62" y="-214.45" font-family="Times New Roman,serif" font-size="14.00">yes</text>
</g>
<!-- leaf13 -->
<g id="node24" class="node">
<title>leaf13</title>
<ellipse fill="none" stroke="black" cx="1294.63" cy="-188" rx="63.63" ry="18"/>
<text text-anchor="start" x="1256.01" y="-183.95" font-family="Times New Roman,serif" font-size="14.00">leaf 13: </text>
<text text-anchor="start" x="1299.51" y="-183.95" font-family="Times New Roman,serif" font-weight="bold" font-size="14.00">0.365</text>
</g>
<!-- split12&#45;&gt;leaf13 -->
<g id="edge19" class="edge">
<title>split12&#45;&gt;leaf13</title>
<path fill="none" stroke="black" d="M1190.7,-188C1200.46,-188 1210.28,-188 1219.76,-188"/>
<polygon fill="black" stroke="black" points="1219.72,-191.5 1229.72,-188 1219.72,-184.5 1219.72,-191.5"/>
<text text-anchor="middle" x="1210.62" y="-190.45" font-family="Times New Roman,serif" font-size="14.00">no</text>
</g>
<!-- leaf12 -->
<g id="node26" class="node">
<title>leaf12</title>
<ellipse fill="none" stroke="black" cx="1294.63" cy="-148" rx="63.63" ry="18"/>
<text text-anchor="start" x="1256.01" y="-143.95" font-family="Times New Roman,serif" font-size="14.00">leaf 12: </text>
<text text-anchor="start" x="1299.51" y="-143.95" font-family="Times New Roman,serif" font-weight="bold" font-size="14.00">0.433</text>
</g>
<!-- split16&#45;&gt;leaf12 -->
<g id="edge21" class="edge">
<title>split16&#45;&gt;leaf12</title>
<path fill="none" stroke="black" d="M1190.7,-142.79C1200.78,-143.3 1210.92,-143.82 1220.7,-144.31"/>
<polygon fill="black" stroke="black" points="1220.39,-147.85 1230.56,-144.86 1220.75,-140.86 1220.39,-147.85"/>
<text text-anchor="middle" x="1210.62" y="-146.45" font-family="Times New Roman,serif" font-size="14.00">yes</text>
</g>
<!-- leaf17 -->
<g id="node27" class="node">
<title>leaf17</title>
<ellipse fill="none" stroke="black" cx="1294.63" cy="-108" rx="63.63" ry="18"/>
<text text-anchor="start" x="1256.01" y="-103.95" font-family="Times New Roman,serif" font-size="14.00">leaf 17: </text>
<text text-anchor="start" x="1299.51" y="-103.95" font-family="Times New Roman,serif" font-weight="bold" font-size="14.00">0.473</text>
</g>
<!-- split16&#45;&gt;leaf17 -->
<g id="edge22" class="edge">
<title>split16&#45;&gt;leaf17</title>
<path fill="none" stroke="black" d="M1190.7,-123.62C1203.07,-121.74 1215.53,-119.85 1227.29,-118.06"/>
<polygon fill="black" stroke="black" points="1227.52,-121.42 1236.88,-116.46 1226.47,-114.5 1227.52,-121.42"/>
<text text-anchor="middle" x="1210.62" y="-123.45" font-family="Times New Roman,serif" font-size="14.00">no</text>
</g>
<!-- split15 -->
<g id="node29" class="node">
<title>split15</title>
<polygon fill="none" stroke="black" points="1183.12,-96 1006.62,-96 1006.62,-60 1183.12,-60 1183.12,-96"/>
<text text-anchor="start" x="1014.62" y="-73.95" font-family="Times New Roman,serif" font-weight="bold" font-size="14.00">自媒互動程度</text>
<text text-anchor="start" x="1109.12" y="-73.95" font-family="Times New Roman,serif" font-size="14.00"> =</text>
<text text-anchor="start" x="1121.12" y="-73.95" font-family="Times New Roman,serif" font-weight="bold" font-size="14.00">19||20||21</text>
</g>
<!-- split14&#45;&gt;split15 -->
<g id="edge27" class="edge">
<title>split14&#45;&gt;split15</title>
<path fill="none" stroke="black" d="M959.2,-88.09C971.45,-87.17 983.71,-86.25 995.57,-85.36"/>
<polygon fill="black" stroke="black" points="995.63,-88.79 1005.34,-84.56 995.11,-81.81 995.63,-88.79"/>
<text text-anchor="middle" x="979.13" y="-89.45" font-family="Times New Roman,serif" font-size="14.00">yes</text>
</g>
<!-- leaf15 -->
<g id="node32" class="node">
<title>leaf15</title>
<ellipse fill="none" stroke="black" cx="1094.88" cy="-38" rx="63.63" ry="18"/>
<text text-anchor="start" x="1056.25" y="-33.95" font-family="Times New Roman,serif" font-size="14.00">leaf 15: </text>
<text text-anchor="start" x="1099.75" y="-33.95" font-family="Times New Roman,serif" font-weight="bold" font-size="14.00">0.477</text>
</g>
<!-- split14&#45;&gt;leaf15 -->
<g id="edge28" class="edge">
<title>split14&#45;&gt;leaf15</title>
<path fill="none" stroke="black" d="M947.3,-79.56C951.18,-78.44 955.01,-77.25 958.75,-76 963.98,-74.25 964.68,-72.43 969.75,-70.25 982.59,-64.72 986.06,-63.87 999.5,-60 1010.16,-56.93 1021.59,-53.98 1032.68,-51.3"/>
<polygon fill="black" stroke="black" points="1033.26,-54.52 1042.18,-48.81 1031.64,-47.71 1033.26,-54.52"/>
<text text-anchor="middle" x="979.13" y="-73.45" font-family="Times New Roman,serif" font-size="14.00">no</text>
</g>
<!-- leaf8 -->
<g id="node30" class="node">
<title>leaf8</title>
<ellipse fill="none" stroke="black" cx="1294.63" cy="-68" rx="59.03" ry="18"/>
<text text-anchor="start" x="1259.38" y="-63.95" font-family="Times New Roman,serif" font-size="14.00">leaf 8: </text>
<text text-anchor="start" x="1296.13" y="-63.95" font-family="Times New Roman,serif" font-weight="bold" font-size="14.00">0.465</text>
</g>
<!-- split15&#45;&gt;leaf8 -->
<g id="edge25" class="edge">
<title>split15&#45;&gt;leaf8</title>
<path fill="none" stroke="black" d="M1183.48,-73.57C1197.5,-72.86 1211.83,-72.14 1225.32,-71.45"/>
<polygon fill="black" stroke="black" points="1225.12,-74.92 1234.93,-70.92 1224.77,-67.93 1225.12,-74.92"/>
<text text-anchor="middle" x="1210.62" y="-75.45" font-family="Times New Roman,serif" font-size="14.00">yes</text>
</g>
<!-- leaf16 -->
<g id="node31" class="node">
<title>leaf16</title>
<ellipse fill="none" stroke="black" cx="1294.63" cy="-28" rx="63.63" ry="18"/>
<text text-anchor="start" x="1256.01" y="-23.95" font-family="Times New Roman,serif" font-size="14.00">leaf 16: </text>
<text text-anchor="start" x="1299.51" y="-23.95" font-family="Times New Roman,serif" font-weight="bold" font-size="14.00">0.421</text>
</g>
<!-- split15&#45;&gt;leaf16 -->
<g id="edge26" class="edge">
<title>split15&#45;&gt;leaf16</title>
<path fill="none" stroke="black" d="M1175.99,-59.53C1180.82,-58.35 1185.6,-57.17 1190.25,-56 1205.71,-52.11 1222.4,-47.68 1237.78,-43.52"/>
<polygon fill="black" stroke="black" points="1238.45,-46.69 1247.18,-40.68 1236.61,-39.94 1238.45,-46.69"/>
<text text-anchor="middle" x="1210.62" y="-56.45" font-family="Times New Roman,serif" font-size="14.00">no</text>
</g>
<!-- leaf7 -->
<g id="node34" class="node">
<title>leaf7</title>
<ellipse fill="none" stroke="black" cx="825.88" cy="-58" rx="59.03" ry="18"/>
<text text-anchor="start" x="790.63" y="-53.95" font-family="Times New Roman,serif" font-size="14.00">leaf 7: </text>
<text text-anchor="start" x="827.38" y="-53.95" font-family="Times New Roman,serif" font-weight="bold" font-size="14.00">0.455</text>
</g>
<!-- split13&#45;&gt;leaf7 -->
<g id="edge31" class="edge">
<title>split13&#45;&gt;leaf7</title>
<path fill="none" stroke="black" d="M644.61,-58C681.54,-58 722.47,-58 755.99,-58"/>
<polygon fill="black" stroke="black" points="755.6,-61.5 765.6,-58 755.6,-54.5 755.6,-61.5"/>
<text text-anchor="middle" x="672.63" y="-60.45" font-family="Times New Roman,serif" font-size="14.00">yes</text>
</g>
<!-- leaf14 -->
<g id="node35" class="node">
<title>leaf14</title>
<ellipse fill="none" stroke="black" cx="825.88" cy="-18" rx="63.63" ry="18"/>
<text text-anchor="start" x="787.25" y="-13.95" font-family="Times New Roman,serif" font-size="14.00">leaf 14: </text>
<text text-anchor="start" x="830.75" y="-13.95" font-family="Times New Roman,serif" font-weight="bold" font-size="14.00">0.483</text>
</g>
<!-- split13&#45;&gt;leaf14 -->
<g id="edge32" class="edge">
<title>split13&#45;&gt;leaf14</title>
<path fill="none" stroke="black" d="M644.61,-43.67C682.11,-38.33 723.74,-32.4 757.53,-27.59"/>
<polygon fill="black" stroke="black" points="757.81,-30.94 767.22,-26.07 756.82,-24.01 757.81,-30.94"/>
<text text-anchor="middle" x="672.63" y="-43.45" font-family="Times New Roman,serif" font-size="14.00">no</text>
</g>
</g>
</svg>
