<?xml version="1.0" encoding="UTF-8" standalone="no"?>
<!DOCTYPE svg PUBLIC "-//W3C//DTD SVG 1.1//EN"
 "http://www.w3.org/Graphics/SVG/1.1/DTD/svg11.dtd">
<!-- Generated by graphviz version 8.0.5 (20230430.1635)
 -->
<!-- Pages: 1 -->
<svg width="1739pt" height="564pt"
 viewBox="0.00 0.00 1739.16 564.00" xmlns="http://www.w3.org/2000/svg" xmlns:xlink="http://www.w3.org/1999/xlink">
<g id="graph0" class="graph" transform="scale(1 1) rotate(0) translate(4 560)">
<polygon fill="white" stroke="none" points="-4,4 -4,-560 1735.16,-560 1735.16,4 -4,4"/>
<!-- split0 -->
<g id="node1" class="node">
<title>split0</title>
<polygon fill="none" stroke="black" points="310,-216 0,-216 0,-180 310,-180 310,-216"/>
<text text-anchor="start" x="8" y="-193.95" font-family="Times New Roman,serif" font-weight="bold" font-size="14.00">最近一次門市交易日(不含綁約)</text>
<text text-anchor="start" x="221.75" y="-193.95" font-family="Times New Roman,serif" font-size="14.00"> ≤</text>
<text text-anchor="start" x="233" y="-193.95" font-family="Times New Roman,serif" font-weight="bold" font-size="14.00">2024&#45;05&#45;07</text>
</g>
<!-- split1 -->
<g id="node2" class="node">
<title>split1</title>
<polygon fill="none" stroke="black" points="541.5,-286 350.75,-286 350.75,-250 541.5,-250 541.5,-286"/>
<text text-anchor="start" x="358.75" y="-263.95" font-family="Times New Roman,serif" font-weight="bold" font-size="14.00">手機驗證日期</text>
<text text-anchor="start" x="453.25" y="-263.95" font-family="Times New Roman,serif" font-size="14.00"> ≤</text>
<text text-anchor="start" x="464.5" y="-263.95" font-family="Times New Roman,serif" font-weight="bold" font-size="14.00">2016&#45;12&#45;30</text>
</g>
<!-- split0&#45;&gt;split1 -->
<g id="edge19" class="edge">
<title>split0&#45;&gt;split1</title>
<path fill="none" stroke="black" d="M232.34,-216.48C271.04,-225.85 318.21,-237.27 358.29,-246.98"/>
<polygon fill="black" stroke="black" points="357.31,-250.58 367.86,-249.53 358.96,-243.78 357.31,-250.58"/>
<text text-anchor="middle" x="330.38" y="-243.45" font-family="Times New Roman,serif" font-size="14.00">yes</text>
</g>
<!-- split3 -->
<g id="node21" class="node">
<title>split3</title>
<polygon fill="none" stroke="black" points="541.5,-149 350.75,-149 350.75,-113 541.5,-113 541.5,-149"/>
<text text-anchor="start" x="358.75" y="-126.95" font-family="Times New Roman,serif" font-weight="bold" font-size="14.00">第一次交易日</text>
<text text-anchor="start" x="453.25" y="-126.95" font-family="Times New Roman,serif" font-size="14.00"> ≤</text>
<text text-anchor="start" x="464.5" y="-126.95" font-family="Times New Roman,serif" font-weight="bold" font-size="14.00">2016&#45;02&#45;05</text>
</g>
<!-- split0&#45;&gt;split3 -->
<g id="edge36" class="edge">
<title>split0&#45;&gt;split3</title>
<path fill="none" stroke="black" d="M235.77,-179.51C272.67,-170.96 316.66,-160.77 354.78,-151.94"/>
<polygon fill="black" stroke="black" points="355.41,-155.15 364.36,-149.48 353.83,-148.33 355.41,-155.15"/>
<text text-anchor="middle" x="330.38" y="-160.45" font-family="Times New Roman,serif" font-size="14.00">no</text>
</g>
<!-- split5 -->
<g id="node3" class="node">
<title>split5</title>
<polygon fill="none" stroke="black" points="828.12,-336 637.38,-336 637.38,-300 828.12,-300 828.12,-336"/>
<text text-anchor="start" x="645.38" y="-313.95" font-family="Times New Roman,serif" font-weight="bold" font-size="14.00">第一次交易日</text>
<text text-anchor="start" x="739.88" y="-313.95" font-family="Times New Roman,serif" font-size="14.00"> ≤</text>
<text text-anchor="start" x="751.12" y="-313.95" font-family="Times New Roman,serif" font-weight="bold" font-size="14.00">2016&#45;06&#45;09</text>
</g>
<!-- split1&#45;&gt;split5 -->
<g id="edge15" class="edge">
<title>split1&#45;&gt;split5</title>
<path fill="none" stroke="black" d="M541.9,-284.65C569,-289.41 598.7,-294.63 626.4,-299.49"/>
<polygon fill="black" stroke="black" points="625.45,-303.06 635.9,-301.34 626.66,-296.16 625.45,-303.06"/>
<text text-anchor="middle" x="561.88" y="-290.45" font-family="Times New Roman,serif" font-size="14.00">yes</text>
</g>
<!-- split2 -->
<g id="node18" class="node">
<title>split2</title>
<polygon fill="none" stroke="black" points="834.12,-286 631.38,-286 631.38,-250 834.12,-250 834.12,-286"/>
<text text-anchor="start" x="639.38" y="-263.95" font-family="Times New Roman,serif" font-weight="bold" font-size="14.00">第一次交易日(年)</text>
<text text-anchor="start" x="758.62" y="-263.95" font-family="Times New Roman,serif" font-size="14.00"> ≤</text>
<text text-anchor="start" x="769.88" y="-263.95" font-family="Times New Roman,serif" font-weight="bold" font-size="14.00">2015.500</text>
</g>
<!-- split1&#45;&gt;split2 -->
<g id="edge18" class="edge">
<title>split1&#45;&gt;split2</title>
<path fill="none" stroke="black" d="M541.9,-268C566.95,-268 594.21,-268 620.06,-268"/>
<polygon fill="black" stroke="black" points="620.04,-271.5 630.04,-268 620.04,-264.5 620.04,-271.5"/>
<text text-anchor="middle" x="561.88" y="-270.45" font-family="Times New Roman,serif" font-size="14.00">no</text>
</g>
<!-- split10 -->
<g id="node4" class="node">
<title>split10</title>
<polygon fill="none" stroke="black" points="1181.5,-450 948.75,-450 948.75,-414 1181.5,-414 1181.5,-450"/>
<text text-anchor="start" x="956.75" y="-427.95" font-family="Times New Roman,serif" font-weight="bold" font-size="14.00">第一次O2O交易日(年)</text>
<text text-anchor="start" x="1106" y="-427.95" font-family="Times New Roman,serif" font-size="14.00"> ≤</text>
<text text-anchor="start" x="1117.25" y="-427.95" font-family="Times New Roman,serif" font-weight="bold" font-size="14.00">2018.500</text>
</g>
<!-- split5&#45;&gt;split10 -->
<g id="edge7" class="edge">
<title>split5&#45;&gt;split10</title>
<path fill="none" stroke="black" d="M787.2,-336.44C845.5,-356.56 938.75,-388.74 1000.71,-410.12"/>
<polygon fill="black" stroke="black" points="999.16,-413.63 1009.75,-413.58 1001.44,-407.01 999.16,-413.63"/>
<text text-anchor="middle" x="903.62" y="-380.45" font-family="Times New Roman,serif" font-size="14.00">yes</text>
</g>
<!-- split6 -->
<g id="node11" class="node">
<title>split6</title>
<polygon fill="none" stroke="black" points="1160.5,-336 969.75,-336 969.75,-300 1160.5,-300 1160.5,-336"/>
<text text-anchor="start" x="977.75" y="-313.95" font-family="Times New Roman,serif" font-weight="bold" font-size="14.00">手機驗證日期</text>
<text text-anchor="start" x="1072.25" y="-313.95" font-family="Times New Roman,serif" font-size="14.00"> ≤</text>
<text text-anchor="start" x="1083.5" y="-313.95" font-family="Times New Roman,serif" font-weight="bold" font-size="14.00">2016&#45;07&#45;04</text>
</g>
<!-- split5&#45;&gt;split6 -->
<g id="edge14" class="edge">
<title>split5&#45;&gt;split6</title>
<path fill="none" stroke="black" d="M828.42,-318C869.12,-318 916.84,-318 958.66,-318"/>
<polygon fill="black" stroke="black" points="958.44,-321.5 968.44,-318 958.44,-314.5 958.44,-321.5"/>
<text text-anchor="middle" x="903.62" y="-320.45" font-family="Times New Roman,serif" font-size="14.00">no</text>
</g>
<!-- split14 -->
<g id="node5" class="node">
<title>split14</title>
<polygon fill="none" stroke="black" points="1520.25,-516 1283.75,-516 1283.75,-480 1520.25,-480 1520.25,-516"/>
<text text-anchor="start" x="1291.75" y="-493.95" font-family="Times New Roman,serif" font-weight="bold" font-size="14.00">最近一次O2O交易日</text>
<text text-anchor="start" x="1432" y="-493.95" font-family="Times New Roman,serif" font-size="14.00"> ≤</text>
<text text-anchor="start" x="1443.25" y="-493.95" font-family="Times New Roman,serif" font-weight="bold" font-size="14.00">2018&#45;11&#45;01</text>
</g>
<!-- split10&#45;&gt;split14 -->
<g id="edge3" class="edge">
<title>split10&#45;&gt;split14</title>
<path fill="none" stroke="black" d="M1159.85,-450.47C1202.39,-458.86 1252.87,-468.81 1296.62,-477.43"/>
<polygon fill="black" stroke="black" points="1295.81,-481.03 1306.3,-479.53 1297.16,-474.16 1295.81,-481.03"/>
<text text-anchor="middle" x="1226.62" y="-467.45" font-family="Times New Roman,serif" font-size="14.00">yes</text>
</g>
<!-- split15 -->
<g id="node8" class="node">
<title>split15</title>
<polygon fill="none" stroke="black" points="1557,-450 1247,-450 1247,-414 1557,-414 1557,-450"/>
<text text-anchor="start" x="1255" y="-427.95" font-family="Times New Roman,serif" font-weight="bold" font-size="14.00">最近一次門市交易日(不含綁約)</text>
<text text-anchor="start" x="1468.75" y="-427.95" font-family="Times New Roman,serif" font-size="14.00"> ≤</text>
<text text-anchor="start" x="1480" y="-427.95" font-family="Times New Roman,serif" font-weight="bold" font-size="14.00">2016&#45;11&#45;16</text>
</g>
<!-- split10&#45;&gt;split15 -->
<g id="edge6" class="edge">
<title>split10&#45;&gt;split15</title>
<path fill="none" stroke="black" d="M1181.84,-432C1199.22,-432 1217.43,-432 1235.6,-432"/>
<polygon fill="black" stroke="black" points="1235.6,-435.5 1245.6,-432 1235.6,-428.5 1235.6,-435.5"/>
<text text-anchor="middle" x="1226.62" y="-434.45" font-family="Times New Roman,serif" font-size="14.00">no</text>
</g>
<!-- leaf0 -->
<g id="node6" class="node">
<title>leaf0</title>
<ellipse fill="none" stroke="black" cx="1664.46" cy="-538" rx="62.1" ry="18"/>
<text text-anchor="start" x="1626.96" y="-533.95" font-family="Times New Roman,serif" font-size="14.00">leaf 0: </text>
<text text-anchor="start" x="1663.71" y="-533.95" font-family="Times New Roman,serif" font-weight="bold" font-size="14.00">&#45;1.842</text>
</g>
<!-- split14&#45;&gt;leaf0 -->
<g id="edge1" class="edge">
<title>split14&#45;&gt;leaf0</title>
<path fill="none" stroke="black" d="M1520.65,-516.07C1547.19,-520.14 1574.43,-524.33 1597.9,-527.93"/>
<polygon fill="black" stroke="black" points="1597.34,-531.54 1607.76,-529.6 1598.41,-524.62 1597.34,-531.54"/>
<text text-anchor="middle" x="1577.38" y="-528.45" font-family="Times New Roman,serif" font-size="14.00">yes</text>
</g>
<!-- leaf15 -->
<g id="node7" class="node">
<title>leaf15</title>
<ellipse fill="none" stroke="black" cx="1664.46" cy="-498" rx="66.71" ry="18"/>
<text text-anchor="start" x="1623.58" y="-493.95" font-family="Times New Roman,serif" font-size="14.00">leaf 15: </text>
<text text-anchor="start" x="1667.08" y="-493.95" font-family="Times New Roman,serif" font-weight="bold" font-size="14.00">&#45;1.769</text>
</g>
<!-- split14&#45;&gt;leaf15 -->
<g id="edge2" class="edge">
<title>split14&#45;&gt;leaf15</title>
<path fill="none" stroke="black" d="M1520.65,-498C1543.05,-498 1565.95,-498 1586.67,-498"/>
<polygon fill="black" stroke="black" points="1586.61,-501.5 1596.61,-498 1586.61,-494.5 1586.61,-501.5"/>
<text text-anchor="middle" x="1577.38" y="-500.45" font-family="Times New Roman,serif" font-size="14.00">no</text>
</g>
<!-- leaf11 -->
<g id="node9" class="node">
<title>leaf11</title>
<ellipse fill="none" stroke="black" cx="1664.46" cy="-458" rx="66.71" ry="18"/>
<text text-anchor="start" x="1623.58" y="-453.95" font-family="Times New Roman,serif" font-size="14.00">leaf 11: </text>
<text text-anchor="start" x="1667.08" y="-453.95" font-family="Times New Roman,serif" font-weight="bold" font-size="14.00">&#45;1.878</text>
</g>
<!-- split15&#45;&gt;leaf11 -->
<g id="edge4" class="edge">
<title>split15&#45;&gt;leaf11</title>
<path fill="none" stroke="black" d="M1557.14,-447.39C1568.64,-448.53 1579.87,-449.66 1590.48,-450.72"/>
<polygon fill="black" stroke="black" points="1589.99,-454.28 1600.29,-451.79 1590.68,-447.32 1589.99,-454.28"/>
<text text-anchor="middle" x="1577.38" y="-452.45" font-family="Times New Roman,serif" font-size="14.00">yes</text>
</g>
<!-- leaf16 -->
<g id="node10" class="node">
<title>leaf16</title>
<ellipse fill="none" stroke="black" cx="1664.46" cy="-418" rx="66.71" ry="18"/>
<text text-anchor="start" x="1623.58" y="-413.95" font-family="Times New Roman,serif" font-size="14.00">leaf 16: </text>
<text text-anchor="start" x="1667.08" y="-413.95" font-family="Times New Roman,serif" font-weight="bold" font-size="14.00">&#45;1.869</text>
</g>
<!-- split15&#45;&gt;leaf16 -->
<g id="edge5" class="edge">
<title>split15&#45;&gt;leaf16</title>
<path fill="none" stroke="black" d="M1557.14,-423.71C1567.68,-423.15 1577.99,-422.59 1587.81,-422.07"/>
<polygon fill="black" stroke="black" points="1587.86,-425.51 1597.66,-421.48 1587.48,-418.52 1587.86,-425.51"/>
<text text-anchor="middle" x="1577.38" y="-424.45" font-family="Times New Roman,serif" font-size="14.00">no</text>
</g>
<!-- split17 -->
<g id="node12" class="node">
<title>split17</title>
<polygon fill="none" stroke="black" points="1497.38,-356 1306.62,-356 1306.62,-320 1497.38,-320 1497.38,-356"/>
<text text-anchor="start" x="1314.62" y="-333.95" font-family="Times New Roman,serif" font-weight="bold" font-size="14.00">手機驗證日期</text>
<text text-anchor="start" x="1409.12" y="-333.95" font-family="Times New Roman,serif" font-size="14.00"> ≤</text>
<text text-anchor="start" x="1420.38" y="-333.95" font-family="Times New Roman,serif" font-weight="bold" font-size="14.00">2016&#45;02&#45;18</text>
</g>
<!-- split6&#45;&gt;split17 -->
<g id="edge10" class="edge">
<title>split6&#45;&gt;split17</title>
<path fill="none" stroke="black" d="M1160.74,-323.65C1202.73,-326.16 1252.31,-329.12 1295.49,-331.7"/>
<polygon fill="black" stroke="black" points="1295.13,-335.24 1305.32,-332.35 1295.55,-328.26 1295.13,-335.24"/>
<text text-anchor="middle" x="1226.62" y="-330.45" font-family="Times New Roman,serif" font-size="14.00">yes</text>
</g>
<!-- split16 -->
<g id="node15" class="node">
<title>split16</title>
<polygon fill="none" stroke="black" points="1497.38,-316 1306.62,-316 1306.62,-280 1497.38,-280 1497.38,-316"/>
<text text-anchor="start" x="1314.62" y="-293.95" font-family="Times New Roman,serif" font-weight="bold" font-size="14.00">手機驗證日期</text>
<text text-anchor="start" x="1409.12" y="-293.95" font-family="Times New Roman,serif" font-size="14.00"> ≤</text>
<text text-anchor="start" x="1420.38" y="-293.95" font-family="Times New Roman,serif" font-weight="bold" font-size="14.00">2016&#45;11&#45;07</text>
</g>
<!-- split6&#45;&gt;split16 -->
<g id="edge13" class="edge">
<title>split6&#45;&gt;split16</title>
<path fill="none" stroke="black" d="M1160.74,-312.35C1202.73,-309.84 1252.31,-306.88 1295.49,-304.3"/>
<polygon fill="black" stroke="black" points="1295.55,-307.74 1305.32,-303.65 1295.13,-300.76 1295.55,-307.74"/>
<text text-anchor="middle" x="1226.62" y="-310.45" font-family="Times New Roman,serif" font-size="14.00">no</text>
</g>
<!-- leaf6 -->
<g id="node13" class="node">
<title>leaf6</title>
<ellipse fill="none" stroke="black" cx="1664.46" cy="-378" rx="62.1" ry="18"/>
<text text-anchor="start" x="1626.96" y="-373.95" font-family="Times New Roman,serif" font-size="14.00">leaf 6: </text>
<text text-anchor="start" x="1663.71" y="-373.95" font-family="Times New Roman,serif" font-weight="bold" font-size="14.00">&#45;1.876</text>
</g>
<!-- split17&#45;&gt;leaf6 -->
<g id="edge8" class="edge">
<title>split17&#45;&gt;leaf6</title>
<path fill="none" stroke="black" d="M1497.77,-352.55C1531.21,-357.69 1568.02,-363.34 1598.44,-368.01"/>
<polygon fill="black" stroke="black" points="1597.5,-371.57 1607.91,-369.62 1598.56,-364.65 1597.5,-371.57"/>
<text text-anchor="middle" x="1577.38" y="-368.45" font-family="Times New Roman,serif" font-size="14.00">yes</text>
</g>
<!-- leaf18 -->
<g id="node14" class="node">
<title>leaf18</title>
<ellipse fill="none" stroke="black" cx="1664.46" cy="-338" rx="66.71" ry="18"/>
<text text-anchor="start" x="1623.58" y="-333.95" font-family="Times New Roman,serif" font-size="14.00">leaf 18: </text>
<text text-anchor="start" x="1667.08" y="-333.95" font-family="Times New Roman,serif" font-weight="bold" font-size="14.00">&#45;1.834</text>
</g>
<!-- split17&#45;&gt;leaf18 -->
<g id="edge9" class="edge">
<title>split17&#45;&gt;leaf18</title>
<path fill="none" stroke="black" d="M1497.77,-338C1526.92,-338 1558.63,-338 1586.43,-338"/>
<polygon fill="black" stroke="black" points="1586.29,-341.5 1596.29,-338 1586.29,-334.5 1586.29,-341.5"/>
<text text-anchor="middle" x="1577.38" y="-340.45" font-family="Times New Roman,serif" font-size="14.00">no</text>
</g>
<!-- leaf7 -->
<g id="node16" class="node">
<title>leaf7</title>
<ellipse fill="none" stroke="black" cx="1664.46" cy="-298" rx="62.1" ry="18"/>
<text text-anchor="start" x="1626.96" y="-293.95" font-family="Times New Roman,serif" font-size="14.00">leaf 7: </text>
<text text-anchor="start" x="1663.71" y="-293.95" font-family="Times New Roman,serif" font-weight="bold" font-size="14.00">&#45;1.642</text>
</g>
<!-- split16&#45;&gt;leaf7 -->
<g id="edge11" class="edge">
<title>split16&#45;&gt;leaf7</title>
<path fill="none" stroke="black" d="M1497.77,-298C1528.59,-298 1562.29,-298 1591.19,-298"/>
<polygon fill="black" stroke="black" points="1591.02,-301.5 1601.02,-298 1591.02,-294.5 1591.02,-301.5"/>
<text text-anchor="middle" x="1577.38" y="-300.45" font-family="Times New Roman,serif" font-size="14.00">yes</text>
</g>
<!-- leaf17 -->
<g id="node17" class="node">
<title>leaf17</title>
<ellipse fill="none" stroke="black" cx="1664.46" cy="-258" rx="66.71" ry="18"/>
<text text-anchor="start" x="1623.58" y="-253.95" font-family="Times New Roman,serif" font-size="14.00">leaf 17: </text>
<text text-anchor="start" x="1667.08" y="-253.95" font-family="Times New Roman,serif" font-weight="bold" font-size="14.00">&#45;1.520</text>
</g>
<!-- split16&#45;&gt;leaf17 -->
<g id="edge12" class="edge">
<title>split16&#45;&gt;leaf17</title>
<path fill="none" stroke="black" d="M1497.77,-283.45C1530.02,-278.49 1565.42,-273.06 1595.19,-268.48"/>
<polygon fill="black" stroke="black" points="1595.53,-271.82 1604.88,-266.84 1594.47,-264.9 1595.53,-271.82"/>
<text text-anchor="middle" x="1577.38" y="-274.45" font-family="Times New Roman,serif" font-size="14.00">no</text>
</g>
<!-- leaf2 -->
<g id="node19" class="node">
<title>leaf2</title>
<ellipse fill="none" stroke="black" cx="1065.12" cy="-273" rx="62.1" ry="18"/>
<text text-anchor="start" x="1027.62" y="-268.95" font-family="Times New Roman,serif" font-size="14.00">leaf 2: </text>
<text text-anchor="start" x="1064.38" y="-268.95" font-family="Times New Roman,serif" font-weight="bold" font-size="14.00">&#45;1.867</text>
</g>
<!-- split2&#45;&gt;leaf2 -->
<g id="edge16" class="edge">
<title>split2&#45;&gt;leaf2</title>
<path fill="none" stroke="black" d="M834.22,-269.52C885.19,-270.29 945.92,-271.21 992.16,-271.91"/>
<polygon fill="black" stroke="black" points="991.94,-275.42 1001.99,-272.07 992.04,-268.42 991.94,-275.42"/>
<text text-anchor="middle" x="903.62" y="-272.45" font-family="Times New Roman,serif" font-size="14.00">yes</text>
</g>
<!-- leaf3 -->
<g id="node20" class="node">
<title>leaf3</title>
<ellipse fill="none" stroke="black" cx="1065.12" cy="-233" rx="62.1" ry="18"/>
<text text-anchor="start" x="1027.62" y="-228.95" font-family="Times New Roman,serif" font-size="14.00">leaf 3: </text>
<text text-anchor="start" x="1064.38" y="-228.95" font-family="Times New Roman,serif" font-weight="bold" font-size="14.00">&#45;1.475</text>
</g>
<!-- split2&#45;&gt;leaf3 -->
<g id="edge17" class="edge">
<title>split2&#45;&gt;leaf3</title>
<path fill="none" stroke="black" d="M834.22,-257.36C886.42,-251.83 948.86,-245.21 995.48,-240.27"/>
<polygon fill="black" stroke="black" points="995.8,-243.65 1005.38,-239.12 995.06,-236.69 995.8,-243.65"/>
<text text-anchor="middle" x="903.62" y="-252.45" font-family="Times New Roman,serif" font-size="14.00">no</text>
</g>
<!-- split4 -->
<g id="node22" class="node">
<title>split4</title>
<polygon fill="none" stroke="black" points="883.25,-149 582.25,-149 582.25,-113 883.25,-113 883.25,-149"/>
<text text-anchor="start" x="590.25" y="-126.95" font-family="Times New Roman,serif" font-weight="bold" font-size="14.00">最近一次中華門號業務開通日</text>
<text text-anchor="start" x="795" y="-126.95" font-family="Times New Roman,serif" font-size="14.00"> ≤</text>
<text text-anchor="start" x="806.25" y="-126.95" font-family="Times New Roman,serif" font-weight="bold" font-size="14.00">2022&#45;07&#45;29</text>
</g>
<!-- split3&#45;&gt;split4 -->
<g id="edge32" class="edge">
<title>split3&#45;&gt;split4</title>
<path fill="none" stroke="black" d="M541.9,-131C551.4,-131 561.22,-131 571.16,-131"/>
<polygon fill="black" stroke="black" points="570.99,-134.5 580.99,-131 570.99,-127.5 570.99,-134.5"/>
<text text-anchor="middle" x="561.88" y="-133.45" font-family="Times New Roman,serif" font-size="14.00">yes</text>
</g>
<!-- split8 -->
<g id="node35" class="node">
<title>split8</title>
<polygon fill="none" stroke="black" points="828.12,-102 637.38,-102 637.38,-66 828.12,-66 828.12,-102"/>
<text text-anchor="start" x="645.38" y="-79.95" font-family="Times New Roman,serif" font-weight="bold" font-size="14.00">手機驗證日期</text>
<text text-anchor="start" x="739.88" y="-79.95" font-family="Times New Roman,serif" font-size="14.00"> ≤</text>
<text text-anchor="start" x="751.12" y="-79.95" font-family="Times New Roman,serif" font-weight="bold" font-size="14.00">2016&#45;02&#45;18</text>
</g>
<!-- split3&#45;&gt;split8 -->
<g id="edge35" class="edge">
<title>split3&#45;&gt;split8</title>
<path fill="none" stroke="black" d="M541.9,-115.35C569,-110.87 598.7,-105.97 626.4,-101.4"/>
<polygon fill="black" stroke="black" points="626.61,-104.74 635.9,-99.66 625.47,-97.84 626.61,-104.74"/>
<text text-anchor="middle" x="561.88" y="-115.45" font-family="Times New Roman,serif" font-size="14.00">no</text>
</g>
<!-- split9 -->
<g id="node23" class="node">
<title>split9</title>
<polygon fill="none" stroke="black" points="1206.25,-182 924,-182 924,-146 1206.25,-146 1206.25,-182"/>
<text text-anchor="start" x="932" y="-159.95" font-family="Times New Roman,serif" font-weight="bold" font-size="14.00">最近一次POS綁約交易日期</text>
<text text-anchor="start" x="1118" y="-159.95" font-family="Times New Roman,serif" font-size="14.00"> ≤</text>
<text text-anchor="start" x="1129.25" y="-159.95" font-family="Times New Roman,serif" font-weight="bold" font-size="14.00">2024&#45;07&#45;09</text>
</g>
<!-- split4&#45;&gt;split9 -->
<g id="edge24" class="edge">
<title>split4&#45;&gt;split9</title>
<path fill="none" stroke="black" d="M883.47,-145.96C893.31,-146.94 903.23,-147.93 913.08,-148.91"/>
<polygon fill="black" stroke="black" points="912.43,-152.47 922.73,-149.98 913.13,-145.5 912.43,-152.47"/>
<text text-anchor="middle" x="903.62" y="-150.45" font-family="Times New Roman,serif" font-size="14.00">yes</text>
</g>
<!-- split7 -->
<g id="node28" class="node">
<title>split7</title>
<polygon fill="none" stroke="black" points="1168.38,-142 961.88,-142 961.88,-106 1168.38,-106 1168.38,-142"/>
<text text-anchor="start" x="969.88" y="-119.95" font-family="Times New Roman,serif" font-weight="bold" font-size="14.00">最近一次交易日</text>
<text text-anchor="start" x="1080.12" y="-119.95" font-family="Times New Roman,serif" font-size="14.00"> ≤</text>
<text text-anchor="start" x="1091.38" y="-119.95" font-family="Times New Roman,serif" font-weight="bold" font-size="14.00">2024&#45;09&#45;03</text>
</g>
<!-- split4&#45;&gt;split7 -->
<g id="edge31" class="edge">
<title>split4&#45;&gt;split7</title>
<path fill="none" stroke="black" d="M883.47,-127.83C906.11,-127.35 929.14,-126.86 950.84,-126.4"/>
<polygon fill="black" stroke="black" points="950.79,-129.88 960.71,-126.17 950.64,-122.88 950.79,-129.88"/>
<text text-anchor="middle" x="903.62" y="-129.45" font-family="Times New Roman,serif" font-size="14.00">no</text>
</g>
<!-- split12 -->
<g id="node24" class="node">
<title>split12</title>
<polygon fill="none" stroke="black" points="1505.25,-222 1298.75,-222 1298.75,-186 1505.25,-186 1505.25,-222"/>
<text text-anchor="start" x="1306.75" y="-199.95" font-family="Times New Roman,serif" font-weight="bold" font-size="14.00">最近一次交易日</text>
<text text-anchor="start" x="1417" y="-199.95" font-family="Times New Roman,serif" font-size="14.00"> ≤</text>
<text text-anchor="start" x="1428.25" y="-199.95" font-family="Times New Roman,serif" font-weight="bold" font-size="14.00">2024&#45;10&#45;11</text>
</g>
<!-- split9&#45;&gt;split12 -->
<g id="edge22" class="edge">
<title>split9&#45;&gt;split12</title>
<path fill="none" stroke="black" d="M1206.69,-180.79C1233.74,-184.02 1261.76,-187.37 1287.82,-190.48"/>
<polygon fill="black" stroke="black" points="1287.12,-194.04 1297.47,-191.75 1287.95,-187.09 1287.12,-194.04"/>
<text text-anchor="middle" x="1226.62" y="-186.45" font-family="Times New Roman,serif" font-size="14.00">yes</text>
</g>
<!-- leaf10 -->
<g id="node27" class="node">
<title>leaf10</title>
<ellipse fill="none" stroke="black" cx="1402" cy="-164" rx="66.71" ry="18"/>
<text text-anchor="start" x="1361.12" y="-159.95" font-family="Times New Roman,serif" font-size="14.00">leaf 10: </text>
<text text-anchor="start" x="1404.62" y="-159.95" font-family="Times New Roman,serif" font-weight="bold" font-size="14.00">&#45;1.653</text>
</g>
<!-- split9&#45;&gt;leaf10 -->
<g id="edge23" class="edge">
<title>split9&#45;&gt;leaf10</title>
<path fill="none" stroke="black" d="M1206.69,-164C1247.08,-164 1289.61,-164 1324.55,-164"/>
<polygon fill="black" stroke="black" points="1324.14,-167.5 1334.14,-164 1324.14,-160.5 1324.14,-167.5"/>
<text text-anchor="middle" x="1226.62" y="-166.45" font-family="Times New Roman,serif" font-size="14.00">no</text>
</g>
<!-- leaf1 -->
<g id="node25" class="node">
<title>leaf1</title>
<ellipse fill="none" stroke="black" cx="1664.46" cy="-218" rx="62.1" ry="18"/>
<text text-anchor="start" x="1626.96" y="-213.95" font-family="Times New Roman,serif" font-size="14.00">leaf 1: </text>
<text text-anchor="start" x="1663.71" y="-213.95" font-family="Times New Roman,serif" font-weight="bold" font-size="14.00">&#45;1.824</text>
</g>
<!-- split12&#45;&gt;leaf1 -->
<g id="edge20" class="edge">
<title>split12&#45;&gt;leaf1</title>
<path fill="none" stroke="black" d="M1505.57,-209.51C1534.59,-211.07 1565.54,-212.74 1592.28,-214.17"/>
<polygon fill="black" stroke="black" points="1591.9,-217.71 1602.07,-214.75 1592.28,-210.72 1591.9,-217.71"/>
<text text-anchor="middle" x="1577.38" y="-215.45" font-family="Times New Roman,serif" font-size="14.00">yes</text>
</g>
<!-- leaf13 -->
<g id="node26" class="node">
<title>leaf13</title>
<ellipse fill="none" stroke="black" cx="1664.46" cy="-178" rx="66.71" ry="18"/>
<text text-anchor="start" x="1623.58" y="-173.95" font-family="Times New Roman,serif" font-size="14.00">leaf 13: </text>
<text text-anchor="start" x="1667.08" y="-173.95" font-family="Times New Roman,serif" font-weight="bold" font-size="14.00">&#45;1.727</text>
</g>
<!-- split12&#45;&gt;leaf13 -->
<g id="edge21" class="edge">
<title>split12&#45;&gt;leaf13</title>
<path fill="none" stroke="black" d="M1505.57,-193.76C1533.97,-190.93 1564.21,-187.91 1590.54,-185.28"/>
<polygon fill="black" stroke="black" points="1590.59,-188.69 1600.19,-184.22 1589.89,-181.73 1590.59,-188.69"/>
<text text-anchor="middle" x="1577.38" y="-189.45" font-family="Times New Roman,serif" font-size="14.00">no</text>
</g>
<!-- split13 -->
<g id="node29" class="node">
<title>split13</title>
<polygon fill="none" stroke="black" points="1552.5,-142 1251.5,-142 1251.5,-106 1552.5,-106 1552.5,-142"/>
<text text-anchor="start" x="1259.5" y="-119.95" font-family="Times New Roman,serif" font-weight="bold" font-size="14.00">最近一次中華門號業務開通日</text>
<text text-anchor="start" x="1464.25" y="-119.95" font-family="Times New Roman,serif" font-size="14.00"> ≤</text>
<text text-anchor="start" x="1475.5" y="-119.95" font-family="Times New Roman,serif" font-weight="bold" font-size="14.00">2024&#45;05&#45;06</text>
</g>
<!-- split7&#45;&gt;split13 -->
<g id="edge27" class="edge">
<title>split7&#45;&gt;split13</title>
<path fill="none" stroke="black" d="M1168.87,-124C1191.57,-124 1216.13,-124 1240.5,-124"/>
<polygon fill="black" stroke="black" points="1240.3,-127.5 1250.3,-124 1240.3,-120.5 1240.3,-127.5"/>
<text text-anchor="middle" x="1226.62" y="-126.45" font-family="Times New Roman,serif" font-size="14.00">yes</text>
</g>
<!-- split11 -->
<g id="node32" class="node">
<title>split11</title>
<polygon fill="none" stroke="black" points="1525.5,-76 1278.5,-76 1278.5,-40 1525.5,-40 1525.5,-76"/>
<text text-anchor="start" x="1286.5" y="-53.95" font-family="Times New Roman,serif" font-weight="bold" font-size="14.00">最近一次使用App時間</text>
<text text-anchor="start" x="1437.25" y="-53.95" font-family="Times New Roman,serif" font-size="14.00"> ≤</text>
<text text-anchor="start" x="1448.5" y="-53.95" font-family="Times New Roman,serif" font-weight="bold" font-size="14.00">2023&#45;07&#45;17</text>
</g>
<!-- split7&#45;&gt;split11 -->
<g id="edge30" class="edge">
<title>split7&#45;&gt;split11</title>
<path fill="none" stroke="black" d="M1168.81,-108.68C1181.44,-106.56 1194.16,-104.31 1206.25,-102 1241.89,-95.18 1280.94,-86.59 1314.66,-78.8"/>
<polygon fill="black" stroke="black" points="1314.99,-82.09 1323.94,-76.42 1313.41,-75.27 1314.99,-82.09"/>
<text text-anchor="middle" x="1226.62" y="-100.45" font-family="Times New Roman,serif" font-size="14.00">no</text>
</g>
<!-- leaf5 -->
<g id="node30" class="node">
<title>leaf5</title>
<ellipse fill="none" stroke="black" cx="1664.46" cy="-138" rx="62.1" ry="18"/>
<text text-anchor="start" x="1626.96" y="-133.95" font-family="Times New Roman,serif" font-size="14.00">leaf 5: </text>
<text text-anchor="start" x="1663.71" y="-133.95" font-family="Times New Roman,serif" font-weight="bold" font-size="14.00">&#45;1.784</text>
</g>
<!-- split13&#45;&gt;leaf5 -->
<g id="edge25" class="edge">
<title>split13&#45;&gt;leaf5</title>
<path fill="none" stroke="black" d="M1553,-132.06C1566.64,-132.8 1579.99,-133.51 1592.42,-134.18"/>
<polygon fill="black" stroke="black" points="1591.92,-137.71 1602.1,-134.76 1592.3,-130.72 1591.92,-137.71"/>
<text text-anchor="middle" x="1577.38" y="-135.45" font-family="Times New Roman,serif" font-size="14.00">yes</text>
</g>
<!-- leaf14 -->
<g id="node31" class="node">
<title>leaf14</title>
<ellipse fill="none" stroke="black" cx="1664.46" cy="-98" rx="66.71" ry="18"/>
<text text-anchor="start" x="1623.58" y="-93.95" font-family="Times New Roman,serif" font-size="14.00">leaf 14: </text>
<text text-anchor="start" x="1667.08" y="-93.95" font-family="Times New Roman,serif" font-weight="bold" font-size="14.00">&#45;1.676</text>
</g>
<!-- split13&#45;&gt;leaf14 -->
<g id="edge26" class="edge">
<title>split13&#45;&gt;leaf14</title>
<path fill="none" stroke="black" d="M1553,-109.03C1565.99,-107.73 1578.7,-106.46 1590.62,-105.27"/>
<polygon fill="black" stroke="black" points="1590.72,-108.68 1600.32,-104.2 1590.03,-101.71 1590.72,-108.68"/>
<text text-anchor="middle" x="1577.38" y="-109.45" font-family="Times New Roman,serif" font-size="14.00">no</text>
</g>
<!-- leaf8 -->
<g id="node33" class="node">
<title>leaf8</title>
<ellipse fill="none" stroke="black" cx="1664.46" cy="-58" rx="62.1" ry="18"/>
<text text-anchor="start" x="1626.96" y="-53.95" font-family="Times New Roman,serif" font-size="14.00">leaf 8: </text>
<text text-anchor="start" x="1663.71" y="-53.95" font-family="Times New Roman,serif" font-weight="bold" font-size="14.00">&#45;1.626</text>
</g>
<!-- split11&#45;&gt;leaf8 -->
<g id="edge28" class="edge">
<title>split11&#45;&gt;leaf8</title>
<path fill="none" stroke="black" d="M1525.98,-58C1548.21,-58 1570.72,-58 1590.91,-58"/>
<polygon fill="black" stroke="black" points="1590.87,-61.5 1600.87,-58 1590.87,-54.5 1590.87,-61.5"/>
<text text-anchor="middle" x="1577.38" y="-60.45" font-family="Times New Roman,serif" font-size="14.00">yes</text>
</g>
<!-- leaf12 -->
<g id="node34" class="node">
<title>leaf12</title>
<ellipse fill="none" stroke="black" cx="1664.46" cy="-18" rx="66.71" ry="18"/>
<text text-anchor="start" x="1623.58" y="-13.95" font-family="Times New Roman,serif" font-size="14.00">leaf 12: </text>
<text text-anchor="start" x="1667.08" y="-13.95" font-family="Times New Roman,serif" font-weight="bold" font-size="14.00">&#45;1.504</text>
</g>
<!-- split11&#45;&gt;leaf12 -->
<g id="edge29" class="edge">
<title>split11&#45;&gt;leaf12</title>
<path fill="none" stroke="black" d="M1523.32,-39.52C1547.83,-35.76 1572.82,-31.92 1594.77,-28.55"/>
<polygon fill="black" stroke="black" points="1595.27,-31.86 1604.63,-26.88 1594.21,-24.94 1595.27,-31.86"/>
<text text-anchor="middle" x="1577.38" y="-35.45" font-family="Times New Roman,serif" font-size="14.00">no</text>
</g>
<!-- leaf4 -->
<g id="node36" class="node">
<title>leaf4</title>
<ellipse fill="none" stroke="black" cx="1065.12" cy="-84" rx="62.1" ry="18"/>
<text text-anchor="start" x="1027.62" y="-79.95" font-family="Times New Roman,serif" font-size="14.00">leaf 4: </text>
<text text-anchor="start" x="1064.38" y="-79.95" font-family="Times New Roman,serif" font-weight="bold" font-size="14.00">&#45;1.646</text>
</g>
<!-- split8&#45;&gt;leaf4 -->
<g id="edge33" class="edge">
<title>split8&#45;&gt;leaf4</title>
<path fill="none" stroke="black" d="M828.42,-84C880.34,-84 943.7,-84 991.65,-84"/>
<polygon fill="black" stroke="black" points="991.56,-87.5 1001.56,-84 991.56,-80.5 991.56,-87.5"/>
<text text-anchor="middle" x="903.62" y="-86.45" font-family="Times New Roman,serif" font-size="14.00">yes</text>
</g>
<!-- leaf9 -->
<g id="node37" class="node">
<title>leaf9</title>
<ellipse fill="none" stroke="black" cx="1065.12" cy="-44" rx="62.1" ry="18"/>
<text text-anchor="start" x="1027.62" y="-39.95" font-family="Times New Roman,serif" font-size="14.00">leaf 9: </text>
<text text-anchor="start" x="1064.38" y="-39.95" font-family="Times New Roman,serif" font-weight="bold" font-size="14.00">&#45;1.463</text>
</g>
<!-- split8&#45;&gt;leaf9 -->
<g id="edge34" class="edge">
<title>split8&#45;&gt;leaf9</title>
<path fill="none" stroke="black" d="M828.42,-72.54C882.13,-66.03 948.09,-58.05 996.56,-52.18"/>
<polygon fill="black" stroke="black" points="996.74,-55.56 1006.24,-50.89 995.9,-48.61 996.74,-55.56"/>
<text text-anchor="middle" x="903.62" y="-66.45" font-family="Times New Roman,serif" font-size="14.00">no</text>
</g>
</g>
</svg>
