<?xml version="1.0" encoding="UTF-8" standalone="no"?>
<!DOCTYPE svg PUBLIC "-//W3C//DTD SVG 1.1//EN"
 "http://www.w3.org/Graphics/SVG/1.1/DTD/svg11.dtd">
<!-- Generated by graphviz version 8.0.5 (20230430.1635)
 -->
<!-- Pages: 1 -->
<svg width="1455pt" height="594pt"
 viewBox="0.00 0.00 1454.77 594.00" xmlns="http://www.w3.org/2000/svg" xmlns:xlink="http://www.w3.org/1999/xlink">
<g id="graph0" class="graph" transform="scale(1 1) rotate(0) translate(4 590)">
<polygon fill="white" stroke="none" points="-4,4 -4,-590 1450.77,-590 1450.77,4 -4,4"/>
<!-- split0 -->
<g id="node1" class="node">
<title>split0</title>
<polygon fill="none" stroke="black" points="197.5,-271 0,-271 0,-235 197.5,-235 197.5,-271"/>
<text text-anchor="start" x="8" y="-248.95" font-family="Times New Roman,serif" font-weight="bold" font-size="14.00">自媒互動程度</text>
<text text-anchor="start" x="102.5" y="-248.95" font-family="Times New Roman,serif" font-size="14.00"> =</text>
<text text-anchor="start" x="114.5" y="-248.95" font-family="Times New Roman,serif" font-weight="bold" font-size="14.00">1||2||4||6||8||12</text>
</g>
<!-- split1 -->
<g id="node2" class="node">
<title>split1</title>
<polygon fill="none" stroke="black" points="429,-334 238.25,-334 238.25,-298 429,-298 429,-334"/>
<text text-anchor="start" x="246.25" y="-311.95" font-family="Times New Roman,serif" font-weight="bold" font-size="14.00">手機驗證日期</text>
<text text-anchor="start" x="340.75" y="-311.95" font-family="Times New Roman,serif" font-size="14.00"> ≤</text>
<text text-anchor="start" x="352" y="-311.95" font-family="Times New Roman,serif" font-weight="bold" font-size="14.00">2017&#45;01&#45;05</text>
</g>
<!-- split0&#45;&gt;split1 -->
<g id="edge19" class="edge">
<title>split0&#45;&gt;split1</title>
<path fill="none" stroke="black" d="M168.05,-271.48C194.94,-278.75 226,-287.15 253.83,-294.68"/>
<polygon fill="black" stroke="black" points="252.76,-298.29 263.33,-297.52 254.59,-291.53 252.76,-298.29"/>
<text text-anchor="middle" x="217.88" y="-288.45" font-family="Times New Roman,serif" font-size="14.00">yes</text>
</g>
<!-- split5 -->
<g id="node21" class="node">
<title>split5</title>
<polygon fill="none" stroke="black" points="429,-212 238.25,-212 238.25,-176 429,-176 429,-212"/>
<text text-anchor="start" x="246.25" y="-189.95" font-family="Times New Roman,serif" font-weight="bold" font-size="14.00">手機驗證日期</text>
<text text-anchor="start" x="340.75" y="-189.95" font-family="Times New Roman,serif" font-size="14.00"> ≤</text>
<text text-anchor="start" x="352" y="-189.95" font-family="Times New Roman,serif" font-weight="bold" font-size="14.00">2016&#45;12&#45;05</text>
</g>
<!-- split0&#45;&gt;split5 -->
<g id="edge40" class="edge">
<title>split0&#45;&gt;split5</title>
<path fill="none" stroke="black" d="M172.48,-234.57C196.76,-228.42 224.02,-221.52 249.07,-215.17"/>
<polygon fill="black" stroke="black" points="249.82,-218.34 258.65,-212.49 248.1,-211.55 249.82,-218.34"/>
<text text-anchor="middle" x="217.88" y="-227.45" font-family="Times New Roman,serif" font-size="14.00">no</text>
</g>
<!-- split2 -->
<g id="node3" class="node">
<title>split2</title>
<polygon fill="none" stroke="black" points="674.38,-450 483.63,-450 483.63,-414 674.38,-414 674.38,-450"/>
<text text-anchor="start" x="491.63" y="-427.95" font-family="Times New Roman,serif" font-weight="bold" font-size="14.00">第一次交易日</text>
<text text-anchor="start" x="586.13" y="-427.95" font-family="Times New Roman,serif" font-size="14.00"> ≤</text>
<text text-anchor="start" x="597.38" y="-427.95" font-family="Times New Roman,serif" font-weight="bold" font-size="14.00">2016&#45;04&#45;04</text>
</g>
<!-- split1&#45;&gt;split2 -->
<g id="edge13" class="edge">
<title>split1&#45;&gt;split2</title>
<path fill="none" stroke="black" d="M373.19,-334.38C415.52,-354.56 483.56,-386.99 529.48,-408.87"/>
<polygon fill="black" stroke="black" points="527.68,-412.37 538.21,-413.51 530.69,-406.05 527.68,-412.37"/>
<text text-anchor="middle" x="449.38" y="-376.45" font-family="Times New Roman,serif" font-size="14.00">yes</text>
</g>
<!-- split4 -->
<g id="node16" class="node">
<title>split4</title>
<polygon fill="none" stroke="black" points="680.38,-334 477.63,-334 477.63,-298 680.38,-298 680.38,-334"/>
<text text-anchor="start" x="485.63" y="-311.95" font-family="Times New Roman,serif" font-weight="bold" font-size="14.00">第一次交易日(年)</text>
<text text-anchor="start" x="604.88" y="-311.95" font-family="Times New Roman,serif" font-size="14.00"> ≤</text>
<text text-anchor="start" x="616.13" y="-311.95" font-family="Times New Roman,serif" font-weight="bold" font-size="14.00">2015.500</text>
</g>
<!-- split1&#45;&gt;split4 -->
<g id="edge18" class="edge">
<title>split1&#45;&gt;split4</title>
<path fill="none" stroke="black" d="M429.42,-316C441.6,-316 454.16,-316 466.57,-316"/>
<polygon fill="black" stroke="black" points="466.43,-319.5 476.43,-316 466.43,-312.5 466.43,-319.5"/>
<text text-anchor="middle" x="449.38" y="-318.45" font-family="Times New Roman,serif" font-size="14.00">no</text>
</g>
<!-- split7 -->
<g id="node4" class="node">
<title>split7</title>
<polygon fill="none" stroke="black" points="950.13,-546 790.13,-546 790.13,-510 950.13,-510 950.13,-546"/>
<text text-anchor="start" x="798.13" y="-523.95" font-family="Times New Roman,serif" font-weight="bold" font-size="14.00">是否接受Email</text>
<text text-anchor="start" x="897.13" y="-523.95" font-family="Times New Roman,serif" font-size="14.00"> ≤</text>
<text text-anchor="start" x="908.38" y="-523.95" font-family="Times New Roman,serif" font-weight="bold" font-size="14.00">0.000</text>
</g>
<!-- split2&#45;&gt;split7 -->
<g id="edge5" class="edge">
<title>split2&#45;&gt;split7</title>
<path fill="none" stroke="black" d="M635.4,-450.4C683.27,-466.29 752.52,-489.28 803.22,-506.12"/>
<polygon fill="black" stroke="black" points="801.82,-509.67 812.42,-509.5 804.03,-503.03 801.82,-509.67"/>
<text text-anchor="middle" x="708.63" y="-479.45" font-family="Times New Roman,serif" font-size="14.00">yes</text>
</g>
<!-- split3 -->
<g id="node9" class="node">
<title>split3</title>
<polygon fill="none" stroke="black" points="965.5,-450 774.75,-450 774.75,-414 965.5,-414 965.5,-450"/>
<text text-anchor="start" x="782.75" y="-427.95" font-family="Times New Roman,serif" font-weight="bold" font-size="14.00">手機驗證日期</text>
<text text-anchor="start" x="877.25" y="-427.95" font-family="Times New Roman,serif" font-size="14.00"> ≤</text>
<text text-anchor="start" x="888.5" y="-427.95" font-family="Times New Roman,serif" font-weight="bold" font-size="14.00">2016&#45;03&#45;24</text>
</g>
<!-- split2&#45;&gt;split3 -->
<g id="edge12" class="edge">
<title>split2&#45;&gt;split3</title>
<path fill="none" stroke="black" d="M674.67,-432C703.27,-432 734.84,-432 764.08,-432"/>
<polygon fill="black" stroke="black" points="763.74,-435.5 773.74,-432 763.74,-428.5 763.74,-435.5"/>
<text text-anchor="middle" x="708.63" y="-434.45" font-family="Times New Roman,serif" font-size="14.00">no</text>
</g>
<!-- leaf0 -->
<g id="node5" class="node">
<title>leaf0</title>
<ellipse fill="none" stroke="black" cx="1165.38" cy="-568" rx="59.03" ry="18"/>
<text text-anchor="start" x="1130.12" y="-563.95" font-family="Times New Roman,serif" font-size="14.00">leaf 0: </text>
<text text-anchor="start" x="1166.88" y="-563.95" font-family="Times New Roman,serif" font-weight="bold" font-size="14.00">0.376</text>
</g>
<!-- split7&#45;&gt;leaf0 -->
<g id="edge1" class="edge">
<title>split7&#45;&gt;leaf0</title>
<path fill="none" stroke="black" d="M950.48,-538.82C997.39,-545.22 1056.03,-553.22 1100.04,-559.23"/>
<polygon fill="black" stroke="black" points="1099.52,-562.82 1109.9,-560.71 1100.47,-555.89 1099.52,-562.82"/>
<text text-anchor="middle" x="1031.62" y="-552.45" font-family="Times New Roman,serif" font-size="14.00">yes</text>
</g>
<!-- split8 -->
<g id="node6" class="node">
<title>split8</title>
<polygon fill="none" stroke="black" points="1260.75,-546 1070,-546 1070,-510 1260.75,-510 1260.75,-546"/>
<text text-anchor="start" x="1078" y="-523.95" font-family="Times New Roman,serif" font-weight="bold" font-size="14.00">手機驗證日期</text>
<text text-anchor="start" x="1172.5" y="-523.95" font-family="Times New Roman,serif" font-size="14.00"> ≤</text>
<text text-anchor="start" x="1183.75" y="-523.95" font-family="Times New Roman,serif" font-weight="bold" font-size="14.00">2015&#45;04&#45;15</text>
</g>
<!-- split7&#45;&gt;split8 -->
<g id="edge4" class="edge">
<title>split7&#45;&gt;split8</title>
<path fill="none" stroke="black" d="M950.48,-528C983.76,-528 1022.95,-528 1058.62,-528"/>
<polygon fill="black" stroke="black" points="1058.57,-531.5 1068.57,-528 1058.57,-524.5 1058.57,-531.5"/>
<text text-anchor="middle" x="1031.62" y="-530.45" font-family="Times New Roman,serif" font-size="14.00">no</text>
</g>
<!-- leaf8 -->
<g id="node7" class="node">
<title>leaf8</title>
<ellipse fill="none" stroke="black" cx="1383.13" cy="-568" rx="59.03" ry="18"/>
<text text-anchor="start" x="1347.88" y="-563.95" font-family="Times New Roman,serif" font-size="14.00">leaf 8: </text>
<text text-anchor="start" x="1384.63" y="-563.95" font-family="Times New Roman,serif" font-weight="bold" font-size="14.00">0.380</text>
</g>
<!-- split8&#45;&gt;leaf8 -->
<g id="edge2" class="edge">
<title>split8&#45;&gt;leaf8</title>
<path fill="none" stroke="black" d="M1261.01,-545.54C1281.45,-549.33 1302.54,-553.24 1321.28,-556.72"/>
<polygon fill="black" stroke="black" points="1320.55,-560.33 1331.02,-558.71 1321.82,-553.44 1320.55,-560.33"/>
<text text-anchor="middle" x="1299.12" y="-555.45" font-family="Times New Roman,serif" font-size="14.00">yes</text>
</g>
<!-- leaf9 -->
<g id="node8" class="node">
<title>leaf9</title>
<ellipse fill="none" stroke="black" cx="1383.13" cy="-528" rx="59.03" ry="18"/>
<text text-anchor="start" x="1347.88" y="-523.95" font-family="Times New Roman,serif" font-size="14.00">leaf 9: </text>
<text text-anchor="start" x="1384.63" y="-523.95" font-family="Times New Roman,serif" font-weight="bold" font-size="14.00">0.384</text>
</g>
<!-- split8&#45;&gt;leaf9 -->
<g id="edge3" class="edge">
<title>split8&#45;&gt;leaf9</title>
<path fill="none" stroke="black" d="M1261.01,-528C1278.56,-528 1296.59,-528 1313.2,-528"/>
<polygon fill="black" stroke="black" points="1312.89,-531.5 1322.89,-528 1312.89,-524.5 1312.89,-531.5"/>
<text text-anchor="middle" x="1299.12" y="-530.45" font-family="Times New Roman,serif" font-size="14.00">no</text>
</g>
<!-- split15 -->
<g id="node10" class="node">
<title>split15</title>
<polygon fill="none" stroke="black" points="1278.75,-466 1052,-466 1052,-430 1278.75,-430 1278.75,-466"/>
<text text-anchor="start" x="1060" y="-443.95" font-family="Times New Roman,serif" font-weight="bold" font-size="14.00">最近一次EC交易日</text>
<text text-anchor="start" x="1190.5" y="-443.95" font-family="Times New Roman,serif" font-size="14.00"> ≤</text>
<text text-anchor="start" x="1201.75" y="-443.95" font-family="Times New Roman,serif" font-weight="bold" font-size="14.00">2017&#45;12&#45;05</text>
</g>
<!-- split3&#45;&gt;split15 -->
<g id="edge8" class="edge">
<title>split3&#45;&gt;split15</title>
<path fill="none" stroke="black" d="M965.93,-437.17C989.87,-438.48 1015.92,-439.9 1041.04,-441.27"/>
<polygon fill="black" stroke="black" points="1040.57,-444.8 1050.74,-441.85 1040.95,-437.81 1040.57,-444.8"/>
<text text-anchor="middle" x="1031.62" y="-442.45" font-family="Times New Roman,serif" font-size="14.00">yes</text>
</g>
<!-- split9 -->
<g id="node13" class="node">
<title>split9</title>
<polygon fill="none" stroke="black" points="1260.75,-426 1070,-426 1070,-390 1260.75,-390 1260.75,-426"/>
<text text-anchor="start" x="1078" y="-403.95" font-family="Times New Roman,serif" font-weight="bold" font-size="14.00">手機驗證日期</text>
<text text-anchor="start" x="1172.5" y="-403.95" font-family="Times New Roman,serif" font-size="14.00"> ≤</text>
<text text-anchor="start" x="1183.75" y="-403.95" font-family="Times New Roman,serif" font-weight="bold" font-size="14.00">2016&#45;06&#45;11</text>
</g>
<!-- split3&#45;&gt;split9 -->
<g id="edge11" class="edge">
<title>split3&#45;&gt;split9</title>
<path fill="none" stroke="black" d="M965.93,-424.24C995.64,-421.81 1028.61,-419.11 1059.01,-416.62"/>
<polygon fill="black" stroke="black" points="1058.96,-420.06 1068.65,-415.75 1058.39,-413.08 1058.96,-420.06"/>
<text text-anchor="middle" x="1031.62" y="-421.45" font-family="Times New Roman,serif" font-size="14.00">no</text>
</g>
<!-- leaf3 -->
<g id="node11" class="node">
<title>leaf3</title>
<ellipse fill="none" stroke="black" cx="1383.13" cy="-488" rx="59.03" ry="18"/>
<text text-anchor="start" x="1347.88" y="-483.95" font-family="Times New Roman,serif" font-size="14.00">leaf 3: </text>
<text text-anchor="start" x="1384.63" y="-483.95" font-family="Times New Roman,serif" font-weight="bold" font-size="14.00">0.378</text>
</g>
<!-- split15&#45;&gt;leaf3 -->
<g id="edge6" class="edge">
<title>split15&#45;&gt;leaf3</title>
<path fill="none" stroke="black" d="M1266.04,-466.48C1284.97,-469.99 1304.24,-473.56 1321.5,-476.76"/>
<polygon fill="black" stroke="black" points="1320.49,-480.32 1330.96,-478.7 1321.77,-473.43 1320.49,-480.32"/>
<text text-anchor="middle" x="1299.12" y="-475.45" font-family="Times New Roman,serif" font-size="14.00">yes</text>
</g>
<!-- leaf16 -->
<g id="node12" class="node">
<title>leaf16</title>
<ellipse fill="none" stroke="black" cx="1383.13" cy="-448" rx="63.63" ry="18"/>
<text text-anchor="start" x="1344.51" y="-443.95" font-family="Times New Roman,serif" font-size="14.00">leaf 16: </text>
<text text-anchor="start" x="1388.01" y="-443.95" font-family="Times New Roman,serif" font-weight="bold" font-size="14.00">0.386</text>
</g>
<!-- split15&#45;&gt;leaf16 -->
<g id="edge7" class="edge">
<title>split15&#45;&gt;leaf16</title>
<path fill="none" stroke="black" d="M1278.99,-448C1288.91,-448 1298.77,-448 1308.24,-448"/>
<polygon fill="black" stroke="black" points="1308.16,-451.5 1318.16,-448 1308.16,-444.5 1308.16,-451.5"/>
<text text-anchor="middle" x="1299.12" y="-450.45" font-family="Times New Roman,serif" font-size="14.00">no</text>
</g>
<!-- leaf4 -->
<g id="node14" class="node">
<title>leaf4</title>
<ellipse fill="none" stroke="black" cx="1383.13" cy="-408" rx="59.03" ry="18"/>
<text text-anchor="start" x="1347.88" y="-403.95" font-family="Times New Roman,serif" font-size="14.00">leaf 4: </text>
<text text-anchor="start" x="1384.63" y="-403.95" font-family="Times New Roman,serif" font-weight="bold" font-size="14.00">0.403</text>
</g>
<!-- split9&#45;&gt;leaf4 -->
<g id="edge9" class="edge">
<title>split9&#45;&gt;leaf4</title>
<path fill="none" stroke="black" d="M1261.01,-408C1278.56,-408 1296.59,-408 1313.2,-408"/>
<polygon fill="black" stroke="black" points="1312.89,-411.5 1322.89,-408 1312.89,-404.5 1312.89,-411.5"/>
<text text-anchor="middle" x="1299.12" y="-410.45" font-family="Times New Roman,serif" font-size="14.00">yes</text>
</g>
<!-- leaf10 -->
<g id="node15" class="node">
<title>leaf10</title>
<ellipse fill="none" stroke="black" cx="1383.13" cy="-368" rx="63.63" ry="18"/>
<text text-anchor="start" x="1344.51" y="-363.95" font-family="Times New Roman,serif" font-size="14.00">leaf 10: </text>
<text text-anchor="start" x="1388.01" y="-363.95" font-family="Times New Roman,serif" font-weight="bold" font-size="14.00">0.414</text>
</g>
<!-- split9&#45;&gt;leaf10 -->
<g id="edge10" class="edge">
<title>split9&#45;&gt;leaf10</title>
<path fill="none" stroke="black" d="M1261.01,-390.46C1280.42,-386.86 1300.4,-383.15 1318.41,-379.81"/>
<polygon fill="black" stroke="black" points="1318.86,-383.11 1328.05,-377.84 1317.58,-376.22 1318.86,-383.11"/>
<text text-anchor="middle" x="1299.12" y="-386.45" font-family="Times New Roman,serif" font-size="14.00">no</text>
</g>
<!-- split18 -->
<g id="node17" class="node">
<title>split18</title>
<polygon fill="none" stroke="black" points="993.63,-358 746.63,-358 746.63,-322 993.63,-322 993.63,-358"/>
<text text-anchor="start" x="754.63" y="-335.95" font-family="Times New Roman,serif" font-weight="bold" font-size="14.00">最近一次使用App時間</text>
<text text-anchor="start" x="905.38" y="-335.95" font-family="Times New Roman,serif" font-size="14.00"> ≤</text>
<text text-anchor="start" x="916.63" y="-335.95" font-family="Times New Roman,serif" font-weight="bold" font-size="14.00">2018&#45;11&#45;30</text>
</g>
<!-- split4&#45;&gt;split18 -->
<g id="edge16" class="edge">
<title>split4&#45;&gt;split18</title>
<path fill="none" stroke="black" d="M680.72,-324.36C698.43,-325.83 717.11,-327.38 735.55,-328.91"/>
<polygon fill="black" stroke="black" points="735.11,-332.47 745.37,-329.81 735.69,-325.49 735.11,-332.47"/>
<text text-anchor="middle" x="708.63" y="-329.45" font-family="Times New Roman,serif" font-size="14.00">yes</text>
</g>
<!-- leaf5 -->
<g id="node20" class="node">
<title>leaf5</title>
<ellipse fill="none" stroke="black" cx="870.13" cy="-300" rx="59.03" ry="18"/>
<text text-anchor="start" x="834.88" y="-295.95" font-family="Times New Roman,serif" font-size="14.00">leaf 5: </text>
<text text-anchor="start" x="871.63" y="-295.95" font-family="Times New Roman,serif" font-weight="bold" font-size="14.00">0.416</text>
</g>
<!-- split4&#45;&gt;leaf5 -->
<g id="edge17" class="edge">
<title>split4&#45;&gt;leaf5</title>
<path fill="none" stroke="black" d="M680.72,-310.43C720.45,-308.23 765.05,-305.76 800.89,-303.78"/>
<polygon fill="black" stroke="black" points="800.92,-307.22 810.71,-303.18 800.54,-300.24 800.92,-307.22"/>
<text text-anchor="middle" x="708.63" y="-310.45" font-family="Times New Roman,serif" font-size="14.00">no</text>
</g>
<!-- leaf2 -->
<g id="node18" class="node">
<title>leaf2</title>
<ellipse fill="none" stroke="black" cx="1165.38" cy="-368" rx="59.03" ry="18"/>
<text text-anchor="start" x="1130.12" y="-363.95" font-family="Times New Roman,serif" font-size="14.00">leaf 2: </text>
<text text-anchor="start" x="1166.88" y="-363.95" font-family="Times New Roman,serif" font-weight="bold" font-size="14.00">0.378</text>
</g>
<!-- split18&#45;&gt;leaf2 -->
<g id="edge14" class="edge">
<title>split18&#45;&gt;leaf2</title>
<path fill="none" stroke="black" d="M993.79,-351.71C1029.45,-355.12 1067.05,-358.71 1097.85,-361.65"/>
<polygon fill="black" stroke="black" points="1097.16,-365.19 1107.45,-362.66 1097.83,-358.23 1097.16,-365.19"/>
<text text-anchor="middle" x="1031.62" y="-357.45" font-family="Times New Roman,serif" font-size="14.00">yes</text>
</g>
<!-- leaf19 -->
<g id="node19" class="node">
<title>leaf19</title>
<ellipse fill="none" stroke="black" cx="1165.38" cy="-328" rx="63.63" ry="18"/>
<text text-anchor="start" x="1126.75" y="-323.95" font-family="Times New Roman,serif" font-size="14.00">leaf 19: </text>
<text text-anchor="start" x="1170.25" y="-323.95" font-family="Times New Roman,serif" font-weight="bold" font-size="14.00">0.387</text>
</g>
<!-- split18&#45;&gt;leaf19 -->
<g id="edge15" class="edge">
<title>split18&#45;&gt;leaf19</title>
<path fill="none" stroke="black" d="M993.79,-334.98C1027.06,-333.62 1062.02,-332.19 1091.57,-330.98"/>
<polygon fill="black" stroke="black" points="1091.35,-334.45 1101.2,-330.54 1091.06,-327.46 1091.35,-334.45"/>
<text text-anchor="middle" x="1031.62" y="-335.45" font-family="Times New Roman,serif" font-size="14.00">no</text>
</g>
<!-- split6 -->
<g id="node22" class="node">
<title>split6</title>
<polygon fill="none" stroke="black" points="688.25,-212 469.75,-212 469.75,-176 688.25,-176 688.25,-212"/>
<text text-anchor="start" x="477.75" y="-189.95" font-family="Times New Roman,serif" font-weight="bold" font-size="14.00">倒數第一個月開信行為</text>
<text text-anchor="start" x="635.25" y="-189.95" font-family="Times New Roman,serif" font-size="14.00"> ≤</text>
<text text-anchor="start" x="646.5" y="-189.95" font-family="Times New Roman,serif" font-weight="bold" font-size="14.00">0.000</text>
</g>
<!-- split5&#45;&gt;split6 -->
<g id="edge34" class="edge">
<title>split5&#45;&gt;split6</title>
<path fill="none" stroke="black" d="M429.42,-194C438.92,-194 448.65,-194 458.37,-194"/>
<polygon fill="black" stroke="black" points="458.32,-197.5 468.32,-194 458.32,-190.5 458.32,-197.5"/>
<text text-anchor="middle" x="449.38" y="-196.45" font-family="Times New Roman,serif" font-size="14.00">yes</text>
</g>
<!-- split12 -->
<g id="node37" class="node">
<title>split12</title>
<polygon fill="none" stroke="black" points="680.38,-76 477.63,-76 477.63,-40 680.38,-40 680.38,-76"/>
<text text-anchor="start" x="485.63" y="-53.95" font-family="Times New Roman,serif" font-weight="bold" font-size="14.00">第一次交易日(年)</text>
<text text-anchor="start" x="604.88" y="-53.95" font-family="Times New Roman,serif" font-size="14.00"> ≤</text>
<text text-anchor="start" x="616.13" y="-53.95" font-family="Times New Roman,serif" font-weight="bold" font-size="14.00">2015.500</text>
</g>
<!-- split5&#45;&gt;split12 -->
<g id="edge39" class="edge">
<title>split5&#45;&gt;split12</title>
<path fill="none" stroke="black" d="M367.7,-175.52C411.23,-151.19 487.8,-108.4 535.56,-81.72"/>
<polygon fill="black" stroke="black" points="536.97,-84.38 544,-76.44 533.56,-78.27 536.97,-84.38"/>
<text text-anchor="middle" x="449.38" y="-136.45" font-family="Times New Roman,serif" font-size="14.00">no</text>
</g>
<!-- split10 -->
<g id="node23" class="node">
<title>split10</title>
<polygon fill="none" stroke="black" points="948.63,-258 791.63,-258 791.63,-222 948.63,-222 948.63,-258"/>
<text text-anchor="start" x="799.63" y="-235.95" font-family="Times New Roman,serif" font-weight="bold" font-size="14.00">自媒互動程度</text>
<text text-anchor="start" x="894.13" y="-235.95" font-family="Times New Roman,serif" font-size="14.00"> =</text>
<text text-anchor="start" x="906.13" y="-235.95" font-family="Times New Roman,serif" font-weight="bold" font-size="14.00">13||15</text>
</g>
<!-- split6&#45;&gt;split10 -->
<g id="edge26" class="edge">
<title>split6&#45;&gt;split10</title>
<path fill="none" stroke="black" d="M688.48,-211.26C718.88,-216.1 751.55,-221.29 780.64,-225.92"/>
<polygon fill="black" stroke="black" points="779.75,-229.48 790.18,-227.6 780.85,-222.57 779.75,-229.48"/>
<text text-anchor="middle" x="708.63" y="-217.45" font-family="Times New Roman,serif" font-size="14.00">yes</text>
</g>
<!-- split14 -->
<g id="node30" class="node">
<title>split14</title>
<polygon fill="none" stroke="black" points="1011.25,-176 729,-176 729,-140 1011.25,-140 1011.25,-176"/>
<text text-anchor="start" x="737" y="-153.95" font-family="Times New Roman,serif" font-weight="bold" font-size="14.00">最近一次POS綁約交易日期</text>
<text text-anchor="start" x="923" y="-153.95" font-family="Times New Roman,serif" font-size="14.00"> ≤</text>
<text text-anchor="start" x="934.25" y="-153.95" font-family="Times New Roman,serif" font-weight="bold" font-size="14.00">2015&#45;03&#45;24</text>
</g>
<!-- split6&#45;&gt;split14 -->
<g id="edge33" class="edge">
<title>split6&#45;&gt;split14</title>
<path fill="none" stroke="black" d="M688.48,-180.49C698.13,-179.29 708.01,-178.06 717.93,-176.83"/>
<polygon fill="black" stroke="black" points="718.21,-180.19 727.7,-175.48 717.35,-173.25 718.21,-180.19"/>
<text text-anchor="middle" x="708.63" y="-180.45" font-family="Times New Roman,serif" font-size="14.00">no</text>
</g>
<!-- split11 -->
<g id="node24" class="node">
<title>split11</title>
<polygon fill="none" stroke="black" points="1276.5,-306 1054.25,-306 1054.25,-270 1276.5,-270 1276.5,-306"/>
<text text-anchor="start" x="1062.25" y="-283.95" font-family="Times New Roman,serif" font-weight="bold" font-size="14.00">第一次門市交易日</text>
<text text-anchor="start" x="1188.25" y="-283.95" font-family="Times New Roman,serif" font-size="14.00"> ≤</text>
<text text-anchor="start" x="1199.5" y="-283.95" font-family="Times New Roman,serif" font-weight="bold" font-size="14.00">2016&#45;01&#45;08</text>
</g>
<!-- split10&#45;&gt;split11 -->
<g id="edge22" class="edge">
<title>split10&#45;&gt;split11</title>
<path fill="none" stroke="black" d="M948.94,-252.74C977.83,-257.47 1011.33,-262.95 1043.17,-268.16"/>
<polygon fill="black" stroke="black" points="1042.47,-271.76 1052.9,-269.92 1043.6,-264.85 1042.47,-271.76"/>
<text text-anchor="middle" x="1031.62" y="-268.45" font-family="Times New Roman,serif" font-size="14.00">yes</text>
</g>
<!-- split13 -->
<g id="node27" class="node">
<title>split13</title>
<polygon fill="none" stroke="black" points="1260.75,-258 1070,-258 1070,-222 1260.75,-222 1260.75,-258"/>
<text text-anchor="start" x="1078" y="-235.95" font-family="Times New Roman,serif" font-weight="bold" font-size="14.00">第一次交易日</text>
<text text-anchor="start" x="1172.5" y="-235.95" font-family="Times New Roman,serif" font-size="14.00"> ≤</text>
<text text-anchor="start" x="1183.75" y="-235.95" font-family="Times New Roman,serif" font-weight="bold" font-size="14.00">2015&#45;12&#45;05</text>
</g>
<!-- split10&#45;&gt;split13 -->
<g id="edge25" class="edge">
<title>split10&#45;&gt;split13</title>
<path fill="none" stroke="black" d="M948.94,-240C982.69,-240 1022.72,-240 1059.06,-240"/>
<polygon fill="black" stroke="black" points="1058.71,-243.5 1068.71,-240 1058.71,-236.5 1058.71,-243.5"/>
<text text-anchor="middle" x="1031.62" y="-242.45" font-family="Times New Roman,serif" font-size="14.00">no</text>
</g>
<!-- leaf1 -->
<g id="node25" class="node">
<title>leaf1</title>
<ellipse fill="none" stroke="black" cx="1383.13" cy="-328" rx="59.03" ry="18"/>
<text text-anchor="start" x="1347.88" y="-323.95" font-family="Times New Roman,serif" font-size="14.00">leaf 1: </text>
<text text-anchor="start" x="1384.63" y="-323.95" font-family="Times New Roman,serif" font-weight="bold" font-size="14.00">0.396</text>
</g>
<!-- split11&#45;&gt;leaf1 -->
<g id="edge20" class="edge">
<title>split11&#45;&gt;leaf1</title>
<path fill="none" stroke="black" d="M1266.04,-306.48C1284.97,-309.99 1304.24,-313.56 1321.5,-316.76"/>
<polygon fill="black" stroke="black" points="1320.49,-320.32 1330.96,-318.7 1321.77,-313.43 1320.49,-320.32"/>
<text text-anchor="middle" x="1299.12" y="-315.45" font-family="Times New Roman,serif" font-size="14.00">yes</text>
</g>
<!-- leaf12 -->
<g id="node26" class="node">
<title>leaf12</title>
<ellipse fill="none" stroke="black" cx="1383.13" cy="-288" rx="63.63" ry="18"/>
<text text-anchor="start" x="1344.51" y="-283.95" font-family="Times New Roman,serif" font-size="14.00">leaf 12: </text>
<text text-anchor="start" x="1388.01" y="-283.95" font-family="Times New Roman,serif" font-weight="bold" font-size="14.00">0.412</text>
</g>
<!-- split11&#45;&gt;leaf12 -->
<g id="edge21" class="edge">
<title>split11&#45;&gt;leaf12</title>
<path fill="none" stroke="black" d="M1276.78,-288C1287.44,-288 1298.07,-288 1308.25,-288"/>
<polygon fill="black" stroke="black" points="1308.09,-291.5 1318.09,-288 1308.09,-284.5 1308.09,-291.5"/>
<text text-anchor="middle" x="1299.12" y="-290.45" font-family="Times New Roman,serif" font-size="14.00">no</text>
</g>
<!-- leaf11 -->
<g id="node28" class="node">
<title>leaf11</title>
<ellipse fill="none" stroke="black" cx="1383.13" cy="-248" rx="63.63" ry="18"/>
<text text-anchor="start" x="1344.51" y="-243.95" font-family="Times New Roman,serif" font-size="14.00">leaf 11: </text>
<text text-anchor="start" x="1388.01" y="-243.95" font-family="Times New Roman,serif" font-weight="bold" font-size="14.00">0.405</text>
</g>
<!-- split13&#45;&gt;leaf11 -->
<g id="edge23" class="edge">
<title>split13&#45;&gt;leaf11</title>
<path fill="none" stroke="black" d="M1261.01,-243.51C1276.95,-244.1 1293.29,-244.71 1308.6,-245.27"/>
<polygon fill="black" stroke="black" points="1308.42,-248.81 1318.54,-245.68 1308.68,-241.81 1308.42,-248.81"/>
<text text-anchor="middle" x="1299.12" y="-247.45" font-family="Times New Roman,serif" font-size="14.00">yes</text>
</g>
<!-- leaf14 -->
<g id="node29" class="node">
<title>leaf14</title>
<ellipse fill="none" stroke="black" cx="1383.13" cy="-208" rx="63.63" ry="18"/>
<text text-anchor="start" x="1344.51" y="-203.95" font-family="Times New Roman,serif" font-size="14.00">leaf 14: </text>
<text text-anchor="start" x="1388.01" y="-203.95" font-family="Times New Roman,serif" font-weight="bold" font-size="14.00">0.411</text>
</g>
<!-- split13&#45;&gt;leaf14 -->
<g id="edge24" class="edge">
<title>split13&#45;&gt;leaf14</title>
<path fill="none" stroke="black" d="M1261.01,-225.96C1279.39,-223.24 1298.29,-220.44 1315.53,-217.88"/>
<polygon fill="black" stroke="black" points="1315.65,-221.25 1325.03,-216.32 1314.63,-214.33 1315.65,-221.25"/>
<text text-anchor="middle" x="1299.12" y="-223.45" font-family="Times New Roman,serif" font-size="14.00">no</text>
</g>
<!-- split16 -->
<g id="node31" class="node">
<title>split16</title>
<polygon fill="none" stroke="black" points="1215.38,-176 1115.38,-176 1115.38,-140 1215.38,-140 1215.38,-176"/>
<text text-anchor="start" x="1123.38" y="-153.95" font-family="Times New Roman,serif" font-weight="bold" font-size="14.00">年齡</text>
<text text-anchor="start" x="1154.88" y="-153.95" font-family="Times New Roman,serif" font-size="14.00"> ≤</text>
<text text-anchor="start" x="1166.12" y="-153.95" font-family="Times New Roman,serif" font-weight="bold" font-size="14.00">37.500</text>
</g>
<!-- split14&#45;&gt;split16 -->
<g id="edge29" class="edge">
<title>split14&#45;&gt;split16</title>
<path fill="none" stroke="black" d="M1011.74,-158C1044.29,-158 1077.25,-158 1104.16,-158"/>
<polygon fill="black" stroke="black" points="1103.92,-161.5 1113.92,-158 1103.92,-154.5 1103.92,-161.5"/>
<text text-anchor="middle" x="1031.62" y="-160.45" font-family="Times New Roman,serif" font-size="14.00">yes</text>
</g>
<!-- split17 -->
<g id="node34" class="node">
<title>split17</title>
<polygon fill="none" stroke="black" points="1260.75,-116 1070,-116 1070,-80 1260.75,-80 1260.75,-116"/>
<text text-anchor="start" x="1078" y="-93.95" font-family="Times New Roman,serif" font-weight="bold" font-size="14.00">手機驗證日期</text>
<text text-anchor="start" x="1172.5" y="-93.95" font-family="Times New Roman,serif" font-size="14.00"> ≤</text>
<text text-anchor="start" x="1183.75" y="-93.95" font-family="Times New Roman,serif" font-weight="bold" font-size="14.00">2016&#45;11&#45;07</text>
</g>
<!-- split14&#45;&gt;split17 -->
<g id="edge32" class="edge">
<title>split14&#45;&gt;split17</title>
<path fill="none" stroke="black" d="M961.5,-139.51C993.77,-132.91 1030.32,-125.43 1063.43,-118.65"/>
<polygon fill="black" stroke="black" points="1063.95,-121.92 1073.04,-116.48 1062.54,-115.06 1063.95,-121.92"/>
<text text-anchor="middle" x="1031.62" y="-128.45" font-family="Times New Roman,serif" font-size="14.00">no</text>
</g>
<!-- leaf7 -->
<g id="node32" class="node">
<title>leaf7</title>
<ellipse fill="none" stroke="black" cx="1383.13" cy="-168" rx="59.03" ry="18"/>
<text text-anchor="start" x="1347.88" y="-163.95" font-family="Times New Roman,serif" font-size="14.00">leaf 7: </text>
<text text-anchor="start" x="1384.63" y="-163.95" font-family="Times New Roman,serif" font-weight="bold" font-size="14.00">0.411</text>
</g>
<!-- split16&#45;&gt;leaf7 -->
<g id="edge27" class="edge">
<title>split16&#45;&gt;leaf7</title>
<path fill="none" stroke="black" d="M1215.87,-160.29C1244.81,-161.64 1281.77,-163.35 1313.48,-164.82"/>
<polygon fill="black" stroke="black" points="1313.31,-168.36 1323.46,-165.33 1313.63,-161.37 1313.31,-168.36"/>
<text text-anchor="middle" x="1299.12" y="-166.45" font-family="Times New Roman,serif" font-size="14.00">yes</text>
</g>
<!-- leaf17 -->
<g id="node33" class="node">
<title>leaf17</title>
<ellipse fill="none" stroke="black" cx="1383.13" cy="-128" rx="63.63" ry="18"/>
<text text-anchor="start" x="1344.51" y="-123.95" font-family="Times New Roman,serif" font-size="14.00">leaf 17: </text>
<text text-anchor="start" x="1388.01" y="-123.95" font-family="Times New Roman,serif" font-weight="bold" font-size="14.00">0.413</text>
</g>
<!-- split16&#45;&gt;leaf17 -->
<g id="edge28" class="edge">
<title>split16&#45;&gt;leaf17</title>
<path fill="none" stroke="black" d="M1215.87,-151.12C1245.16,-147.05 1282.66,-141.83 1314.63,-137.39"/>
<polygon fill="black" stroke="black" points="1314.82,-140.75 1324.24,-135.91 1313.85,-133.82 1314.82,-140.75"/>
<text text-anchor="middle" x="1299.12" y="-142.45" font-family="Times New Roman,serif" font-size="14.00">no</text>
</g>
<!-- leaf15 -->
<g id="node35" class="node">
<title>leaf15</title>
<ellipse fill="none" stroke="black" cx="1383.13" cy="-88" rx="63.63" ry="18"/>
<text text-anchor="start" x="1344.51" y="-83.95" font-family="Times New Roman,serif" font-size="14.00">leaf 15: </text>
<text text-anchor="start" x="1388.01" y="-83.95" font-family="Times New Roman,serif" font-weight="bold" font-size="14.00">0.414</text>
</g>
<!-- split17&#45;&gt;leaf15 -->
<g id="edge30" class="edge">
<title>split17&#45;&gt;leaf15</title>
<path fill="none" stroke="black" d="M1261.01,-93.61C1277.2,-92.86 1293.8,-92.09 1309.31,-91.38"/>
<polygon fill="black" stroke="black" points="1309.03,-94.85 1318.85,-90.89 1308.7,-87.85 1309.03,-94.85"/>
<text text-anchor="middle" x="1299.12" y="-94.45" font-family="Times New Roman,serif" font-size="14.00">yes</text>
</g>
<!-- leaf18 -->
<g id="node36" class="node">
<title>leaf18</title>
<ellipse fill="none" stroke="black" cx="1383.13" cy="-48" rx="63.63" ry="18"/>
<text text-anchor="start" x="1344.51" y="-43.95" font-family="Times New Roman,serif" font-size="14.00">leaf 18: </text>
<text text-anchor="start" x="1388.01" y="-43.95" font-family="Times New Roman,serif" font-weight="bold" font-size="14.00">0.410</text>
</g>
<!-- split17&#45;&gt;leaf18 -->
<g id="edge31" class="edge">
<title>split17&#45;&gt;leaf18</title>
<path fill="none" stroke="black" d="M1261.2,-79.93C1267.15,-78.65 1273.04,-77.33 1278.75,-76 1294.42,-72.35 1311.31,-67.97 1326.8,-63.77"/>
<polygon fill="black" stroke="black" points="1327.55,-66.91 1336.27,-60.9 1325.7,-60.16 1327.55,-66.91"/>
<text text-anchor="middle" x="1299.12" y="-75.45" font-family="Times New Roman,serif" font-size="14.00">no</text>
</g>
<!-- split19 -->
<g id="node38" class="node">
<title>split19</title>
<polygon fill="none" stroke="black" points="965.5,-76 774.75,-76 774.75,-40 965.5,-40 965.5,-76"/>
<text text-anchor="start" x="782.75" y="-53.95" font-family="Times New Roman,serif" font-weight="bold" font-size="14.00">手機驗證日期</text>
<text text-anchor="start" x="877.25" y="-53.95" font-family="Times New Roman,serif" font-size="14.00"> ≤</text>
<text text-anchor="start" x="888.5" y="-53.95" font-family="Times New Roman,serif" font-weight="bold" font-size="14.00">2017&#45;03&#45;28</text>
</g>
<!-- split12&#45;&gt;split19 -->
<g id="edge37" class="edge">
<title>split12&#45;&gt;split19</title>
<path fill="none" stroke="black" d="M680.72,-58C707.62,-58 736.76,-58 763.9,-58"/>
<polygon fill="black" stroke="black" points="763.59,-61.5 773.59,-58 763.59,-54.5 763.59,-61.5"/>
<text text-anchor="middle" x="708.63" y="-60.45" font-family="Times New Roman,serif" font-size="14.00">yes</text>
</g>
<!-- leaf13 -->
<g id="node41" class="node">
<title>leaf13</title>
<ellipse fill="none" stroke="black" cx="870.13" cy="-18" rx="63.63" ry="18"/>
<text text-anchor="start" x="831.5" y="-13.95" font-family="Times New Roman,serif" font-size="14.00">leaf 13: </text>
<text text-anchor="start" x="875" y="-13.95" font-family="Times New Roman,serif" font-weight="bold" font-size="14.00">0.416</text>
</g>
<!-- split12&#45;&gt;leaf13 -->
<g id="edge38" class="edge">
<title>split12&#45;&gt;leaf13</title>
<path fill="none" stroke="black" d="M680.84,-43.81C687.07,-42.94 693.24,-42.08 699.25,-41.25 732.88,-36.59 770.26,-31.46 801.38,-27.22"/>
<polygon fill="black" stroke="black" points="801.67,-30.57 811.11,-25.75 800.72,-23.64 801.67,-30.57"/>
<text text-anchor="middle" x="708.63" y="-43.45" font-family="Times New Roman,serif" font-size="14.00">no</text>
</g>
<!-- leaf6 -->
<g id="node39" class="node">
<title>leaf6</title>
<ellipse fill="none" stroke="black" cx="1165.38" cy="-58" rx="59.03" ry="18"/>
<text text-anchor="start" x="1130.12" y="-53.95" font-family="Times New Roman,serif" font-size="14.00">leaf 6: </text>
<text text-anchor="start" x="1166.88" y="-53.95" font-family="Times New Roman,serif" font-weight="bold" font-size="14.00">0.413</text>
</g>
<!-- split19&#45;&gt;leaf6 -->
<g id="edge35" class="edge">
<title>split19&#45;&gt;leaf6</title>
<path fill="none" stroke="black" d="M965.93,-58C1008.15,-58 1056.94,-58 1095.58,-58"/>
<polygon fill="black" stroke="black" points="1095.19,-61.5 1105.19,-58 1095.19,-54.5 1095.19,-61.5"/>
<text text-anchor="middle" x="1031.62" y="-60.45" font-family="Times New Roman,serif" font-size="14.00">yes</text>
</g>
<!-- leaf20 -->
<g id="node40" class="node">
<title>leaf20</title>
<ellipse fill="none" stroke="black" cx="1165.38" cy="-18" rx="63.63" ry="18"/>
<text text-anchor="start" x="1126.75" y="-13.95" font-family="Times New Roman,serif" font-size="14.00">leaf 20: </text>
<text text-anchor="start" x="1170.25" y="-13.95" font-family="Times New Roman,serif" font-weight="bold" font-size="14.00">0.409</text>
</g>
<!-- split19&#45;&gt;leaf20 -->
<g id="edge36" class="edge">
<title>split19&#45;&gt;leaf20</title>
<path fill="none" stroke="black" d="M965.93,-45.07C1008.61,-39.25 1058,-32.51 1096.84,-27.21"/>
<polygon fill="black" stroke="black" points="1097.06,-30.58 1106.49,-25.76 1096.11,-23.64 1097.06,-30.58"/>
<text text-anchor="middle" x="1031.62" y="-38.45" font-family="Times New Roman,serif" font-size="14.00">no</text>
</g>
</g>
</svg>
