<?xml version="1.0" encoding="UTF-8" standalone="no"?>
<!DOCTYPE svg PUBLIC "-//W3C//DTD SVG 1.1//EN"
 "http://www.w3.org/Graphics/SVG/1.1/DTD/svg11.dtd">
<!-- Generated by graphviz version 8.0.5 (20230430.1635)
 -->
<!-- Pages: 1 -->
<svg width="1697pt" height="524pt"
 viewBox="0.00 0.00 1697.16 524.00" xmlns="http://www.w3.org/2000/svg" xmlns:xlink="http://www.w3.org/1999/xlink">
<g id="graph0" class="graph" transform="scale(1 1) rotate(0) translate(4 520)">
<polygon fill="white" stroke="none" points="-4,4 -4,-520 1693.16,-520 1693.16,4 -4,4"/>
<!-- split0 -->
<g id="node1" class="node">
<title>split0</title>
<polygon fill="none" stroke="black" points="310,-162 0,-162 0,-126 310,-126 310,-162"/>
<text text-anchor="start" x="8" y="-139.95" font-family="Times New Roman,serif" font-weight="bold" font-size="14.00">最近一次門市交易日(不含綁約)</text>
<text text-anchor="start" x="221.75" y="-139.95" font-family="Times New Roman,serif" font-size="14.00"> ≤</text>
<text text-anchor="start" x="233" y="-139.95" font-family="Times New Roman,serif" font-weight="bold" font-size="14.00">2024&#45;05&#45;02</text>
</g>
<!-- split1 -->
<g id="node2" class="node">
<title>split1</title>
<polygon fill="none" stroke="black" points="553.5,-232 350.75,-232 350.75,-196 553.5,-196 553.5,-232"/>
<text text-anchor="start" x="358.75" y="-209.95" font-family="Times New Roman,serif" font-weight="bold" font-size="14.00">手機驗證日期(年)</text>
<text text-anchor="start" x="478" y="-209.95" font-family="Times New Roman,serif" font-size="14.00"> ≤</text>
<text text-anchor="start" x="489.25" y="-209.95" font-family="Times New Roman,serif" font-weight="bold" font-size="14.00">2016.500</text>
</g>
<!-- split0&#45;&gt;split1 -->
<g id="edge19" class="edge">
<title>split0&#45;&gt;split1</title>
<path fill="none" stroke="black" d="M233.93,-162.48C273.52,-171.87 321.78,-183.32 362.75,-193.04"/>
<polygon fill="black" stroke="black" points="361.74,-196.63 372.27,-195.53 363.35,-189.82 361.74,-196.63"/>
<text text-anchor="middle" x="330.38" y="-189.45" font-family="Times New Roman,serif" font-size="14.00">yes</text>
</g>
<!-- split3 -->
<g id="node21" class="node">
<title>split3</title>
<polygon fill="none" stroke="black" points="553.5,-123 350.75,-123 350.75,-87 553.5,-87 553.5,-123"/>
<text text-anchor="start" x="358.75" y="-100.95" font-family="Times New Roman,serif" font-weight="bold" font-size="14.00">第一次交易日(年)</text>
<text text-anchor="start" x="478" y="-100.95" font-family="Times New Roman,serif" font-size="14.00"> ≤</text>
<text text-anchor="start" x="489.25" y="-100.95" font-family="Times New Roman,serif" font-weight="bold" font-size="14.00">2015.500</text>
</g>
<!-- split0&#45;&gt;split3 -->
<g id="edge32" class="edge">
<title>split0&#45;&gt;split3</title>
<path fill="none" stroke="black" d="M295.78,-125.53C310.51,-123.58 325.33,-121.62 339.67,-119.73"/>
<polygon fill="black" stroke="black" points="340.08,-123.07 349.53,-118.29 339.16,-116.13 340.08,-123.07"/>
<text text-anchor="middle" x="330.38" y="-124.45" font-family="Times New Roman,serif" font-size="14.00">no</text>
</g>
<!-- split5 -->
<g id="node3" class="node">
<title>split5</title>
<polygon fill="none" stroke="black" points="836.75,-336 634,-336 634,-300 836.75,-300 836.75,-336"/>
<text text-anchor="start" x="642" y="-313.95" font-family="Times New Roman,serif" font-weight="bold" font-size="14.00">第一次交易日(年)</text>
<text text-anchor="start" x="761.25" y="-313.95" font-family="Times New Roman,serif" font-size="14.00"> ≤</text>
<text text-anchor="start" x="772.5" y="-313.95" font-family="Times New Roman,serif" font-weight="bold" font-size="14.00">2015.500</text>
</g>
<!-- split1&#45;&gt;split5 -->
<g id="edge13" class="edge">
<title>split1&#45;&gt;split5</title>
<path fill="none" stroke="black" d="M503.08,-232.47C550.93,-250.17 623.19,-276.89 674.19,-295.74"/>
<polygon fill="black" stroke="black" points="672.82,-299.34 683.41,-299.52 675.24,-292.77 672.82,-299.34"/>
<text text-anchor="middle" x="573.88" y="-261.45" font-family="Times New Roman,serif" font-size="14.00">yes</text>
</g>
<!-- split2 -->
<g id="node16" class="node">
<title>split2</title>
<polygon fill="none" stroke="black" points="836.75,-232 634,-232 634,-196 836.75,-196 836.75,-232"/>
<text text-anchor="start" x="642" y="-209.95" font-family="Times New Roman,serif" font-weight="bold" font-size="14.00">第一次交易日(年)</text>
<text text-anchor="start" x="761.25" y="-209.95" font-family="Times New Roman,serif" font-size="14.00"> ≤</text>
<text text-anchor="start" x="772.5" y="-209.95" font-family="Times New Roman,serif" font-weight="bold" font-size="14.00">2015.500</text>
</g>
<!-- split1&#45;&gt;split2 -->
<g id="edge18" class="edge">
<title>split1&#45;&gt;split2</title>
<path fill="none" stroke="black" d="M553.87,-214C576.32,-214 600.25,-214 623.1,-214"/>
<polygon fill="black" stroke="black" points="622.86,-217.5 632.86,-214 622.86,-210.5 622.86,-217.5"/>
<text text-anchor="middle" x="573.88" y="-216.45" font-family="Times New Roman,serif" font-size="14.00">no</text>
</g>
<!-- split9 -->
<g id="node4" class="node">
<title>split9</title>
<polygon fill="none" stroke="black" points="1157.12,-422 924.38,-422 924.38,-386 1157.12,-386 1157.12,-422"/>
<text text-anchor="start" x="932.38" y="-399.95" font-family="Times New Roman,serif" font-weight="bold" font-size="14.00">第一次O2O交易日(年)</text>
<text text-anchor="start" x="1081.62" y="-399.95" font-family="Times New Roman,serif" font-size="14.00"> ≤</text>
<text text-anchor="start" x="1092.88" y="-399.95" font-family="Times New Roman,serif" font-weight="bold" font-size="14.00">2018.500</text>
</g>
<!-- split5&#45;&gt;split9 -->
<g id="edge7" class="edge">
<title>split5&#45;&gt;split9</title>
<path fill="none" stroke="black" d="M801.46,-336.45C849.16,-349.97 914.06,-368.37 964.08,-382.55"/>
<polygon fill="black" stroke="black" points="962.94,-386.15 973.51,-385.51 964.85,-379.41 962.94,-386.15"/>
<text text-anchor="middle" x="896.88" y="-368.45" font-family="Times New Roman,serif" font-size="14.00">yes</text>
</g>
<!-- split6 -->
<g id="node11" class="node">
<title>split6</title>
<polygon fill="none" stroke="black" points="1136.12,-336 945.38,-336 945.38,-300 1136.12,-300 1136.12,-336"/>
<text text-anchor="start" x="953.38" y="-313.95" font-family="Times New Roman,serif" font-weight="bold" font-size="14.00">手機驗證日期</text>
<text text-anchor="start" x="1047.88" y="-313.95" font-family="Times New Roman,serif" font-size="14.00"> ≤</text>
<text text-anchor="start" x="1059.12" y="-313.95" font-family="Times New Roman,serif" font-weight="bold" font-size="14.00">2016&#45;07&#45;05</text>
</g>
<!-- split5&#45;&gt;split6 -->
<g id="edge12" class="edge">
<title>split5&#45;&gt;split6</title>
<path fill="none" stroke="black" d="M836.97,-318C868.28,-318 902.86,-318 934.48,-318"/>
<polygon fill="black" stroke="black" points="934.07,-321.5 944.07,-318 934.07,-314.5 934.07,-321.5"/>
<text text-anchor="middle" x="896.88" y="-320.45" font-family="Times New Roman,serif" font-size="14.00">no</text>
</g>
<!-- split10 -->
<g id="node5" class="node">
<title>split10</title>
<polygon fill="none" stroke="black" points="1478.25,-476 1241.75,-476 1241.75,-440 1478.25,-440 1478.25,-476"/>
<text text-anchor="start" x="1249.75" y="-453.95" font-family="Times New Roman,serif" font-weight="bold" font-size="14.00">最近一次O2O交易日</text>
<text text-anchor="start" x="1390" y="-453.95" font-family="Times New Roman,serif" font-size="14.00"> ≤</text>
<text text-anchor="start" x="1401.25" y="-453.95" font-family="Times New Roman,serif" font-weight="bold" font-size="14.00">2018&#45;11&#45;12</text>
</g>
<!-- split9&#45;&gt;split10 -->
<g id="edge3" class="edge">
<title>split9&#45;&gt;split10</title>
<path fill="none" stroke="black" d="M1150.04,-422.43C1178.9,-427.34 1210.23,-432.68 1239.65,-437.68"/>
<polygon fill="black" stroke="black" points="1238.94,-441.29 1249.39,-439.51 1240.12,-434.38 1238.94,-441.29"/>
<text text-anchor="middle" x="1184.62" y="-431.45" font-family="Times New Roman,serif" font-size="14.00">yes</text>
</g>
<!-- split13 -->
<g id="node8" class="node">
<title>split13</title>
<polygon fill="none" stroke="black" points="1515,-422 1205,-422 1205,-386 1515,-386 1515,-422"/>
<text text-anchor="start" x="1213" y="-399.95" font-family="Times New Roman,serif" font-weight="bold" font-size="14.00">最近一次門市交易日(不含綁約)</text>
<text text-anchor="start" x="1426.75" y="-399.95" font-family="Times New Roman,serif" font-size="14.00"> ≤</text>
<text text-anchor="start" x="1438" y="-399.95" font-family="Times New Roman,serif" font-weight="bold" font-size="14.00">2016&#45;11&#45;23</text>
</g>
<!-- split9&#45;&gt;split13 -->
<g id="edge6" class="edge">
<title>split9&#45;&gt;split13</title>
<path fill="none" stroke="black" d="M1157.18,-404C1169.1,-404 1181.38,-404 1193.7,-404"/>
<polygon fill="black" stroke="black" points="1193.54,-407.5 1203.54,-404 1193.54,-400.5 1193.54,-407.5"/>
<text text-anchor="middle" x="1184.62" y="-406.45" font-family="Times New Roman,serif" font-size="14.00">no</text>
</g>
<!-- leaf0 -->
<g id="node6" class="node">
<title>leaf0</title>
<ellipse fill="none" stroke="black" cx="1622.46" cy="-498" rx="62.1" ry="18"/>
<text text-anchor="start" x="1584.96" y="-493.95" font-family="Times New Roman,serif" font-size="14.00">leaf 0: </text>
<text text-anchor="start" x="1621.71" y="-493.95" font-family="Times New Roman,serif" font-weight="bold" font-size="14.00">&#45;2.220</text>
</g>
<!-- split10&#45;&gt;leaf0 -->
<g id="edge1" class="edge">
<title>split10&#45;&gt;leaf0</title>
<path fill="none" stroke="black" d="M1478.65,-476.07C1505.19,-480.14 1532.43,-484.33 1555.9,-487.93"/>
<polygon fill="black" stroke="black" points="1555.34,-491.54 1565.76,-489.6 1556.41,-484.62 1555.34,-491.54"/>
<text text-anchor="middle" x="1535.38" y="-488.45" font-family="Times New Roman,serif" font-size="14.00">yes</text>
</g>
<!-- leaf11 -->
<g id="node7" class="node">
<title>leaf11</title>
<ellipse fill="none" stroke="black" cx="1622.46" cy="-458" rx="66.71" ry="18"/>
<text text-anchor="start" x="1581.58" y="-453.95" font-family="Times New Roman,serif" font-size="14.00">leaf 11: </text>
<text text-anchor="start" x="1625.08" y="-453.95" font-family="Times New Roman,serif" font-weight="bold" font-size="14.00">&#45;2.119</text>
</g>
<!-- split10&#45;&gt;leaf11 -->
<g id="edge2" class="edge">
<title>split10&#45;&gt;leaf11</title>
<path fill="none" stroke="black" d="M1478.65,-458C1501.05,-458 1523.95,-458 1544.67,-458"/>
<polygon fill="black" stroke="black" points="1544.61,-461.5 1554.61,-458 1544.61,-454.5 1544.61,-461.5"/>
<text text-anchor="middle" x="1535.38" y="-460.45" font-family="Times New Roman,serif" font-size="14.00">no</text>
</g>
<!-- leaf10 -->
<g id="node9" class="node">
<title>leaf10</title>
<ellipse fill="none" stroke="black" cx="1622.46" cy="-418" rx="66.71" ry="18"/>
<text text-anchor="start" x="1581.58" y="-413.95" font-family="Times New Roman,serif" font-size="14.00">leaf 10: </text>
<text text-anchor="start" x="1625.08" y="-413.95" font-family="Times New Roman,serif" font-weight="bold" font-size="14.00">&#45;2.239</text>
</g>
<!-- split13&#45;&gt;leaf10 -->
<g id="edge4" class="edge">
<title>split13&#45;&gt;leaf10</title>
<path fill="none" stroke="black" d="M1515.14,-412.29C1525.68,-412.85 1535.99,-413.41 1545.81,-413.93"/>
<polygon fill="black" stroke="black" points="1545.48,-417.48 1555.66,-414.52 1545.86,-410.49 1545.48,-417.48"/>
<text text-anchor="middle" x="1535.38" y="-415.45" font-family="Times New Roman,serif" font-size="14.00">yes</text>
</g>
<!-- leaf14 -->
<g id="node10" class="node">
<title>leaf14</title>
<ellipse fill="none" stroke="black" cx="1622.46" cy="-378" rx="66.71" ry="18"/>
<text text-anchor="start" x="1581.58" y="-373.95" font-family="Times New Roman,serif" font-size="14.00">leaf 14: </text>
<text text-anchor="start" x="1625.08" y="-373.95" font-family="Times New Roman,serif" font-weight="bold" font-size="14.00">&#45;2.231</text>
</g>
<!-- split13&#45;&gt;leaf14 -->
<g id="edge5" class="edge">
<title>split13&#45;&gt;leaf14</title>
<path fill="none" stroke="black" d="M1515.14,-388.61C1526.64,-387.47 1537.87,-386.34 1548.48,-385.28"/>
<polygon fill="black" stroke="black" points="1548.68,-388.68 1558.29,-384.21 1547.99,-381.72 1548.68,-388.68"/>
<text text-anchor="middle" x="1535.38" y="-389.45" font-family="Times New Roman,serif" font-size="14.00">no</text>
</g>
<!-- split12 -->
<g id="node12" class="node">
<title>split12</title>
<polygon fill="none" stroke="black" points="1423.88,-356 1296.12,-356 1296.12,-320 1423.88,-320 1423.88,-356"/>
<text text-anchor="start" x="1304.12" y="-333.95" font-family="Times New Roman,serif" font-weight="bold" font-size="14.00">生日</text>
<text text-anchor="start" x="1335.62" y="-333.95" font-family="Times New Roman,serif" font-size="14.00"> ≤</text>
<text text-anchor="start" x="1346.88" y="-333.95" font-family="Times New Roman,serif" font-weight="bold" font-size="14.00">1955&#45;03&#45;13</text>
</g>
<!-- split6&#45;&gt;split12 -->
<g id="edge10" class="edge">
<title>split6&#45;&gt;split12</title>
<path fill="none" stroke="black" d="M1136.51,-323.97C1183.97,-326.97 1240.6,-330.54 1284.84,-333.33"/>
<polygon fill="black" stroke="black" points="1284.61,-336.88 1294.81,-334.02 1285.05,-329.89 1284.61,-336.88"/>
<text text-anchor="middle" x="1184.62" y="-329.45" font-family="Times New Roman,serif" font-size="14.00">yes</text>
</g>
<!-- leaf7 -->
<g id="node15" class="node">
<title>leaf7</title>
<ellipse fill="none" stroke="black" cx="1360" cy="-298" rx="62.1" ry="18"/>
<text text-anchor="start" x="1322.5" y="-293.95" font-family="Times New Roman,serif" font-size="14.00">leaf 7: </text>
<text text-anchor="start" x="1359.25" y="-293.95" font-family="Times New Roman,serif" font-weight="bold" font-size="14.00">&#45;1.853</text>
</g>
<!-- split6&#45;&gt;leaf7 -->
<g id="edge11" class="edge">
<title>split6&#45;&gt;leaf7</title>
<path fill="none" stroke="black" d="M1136.56,-311.74C1149.56,-310.89 1162.73,-310.04 1175.25,-309.25 1212.52,-306.89 1254.05,-304.34 1288.19,-302.26"/>
<polygon fill="black" stroke="black" points="1288.23,-305.71 1298,-301.61 1287.8,-298.72 1288.23,-305.71"/>
<text text-anchor="middle" x="1184.62" y="-311.45" font-family="Times New Roman,serif" font-size="14.00">no</text>
</g>
<!-- leaf6 -->
<g id="node13" class="node">
<title>leaf6</title>
<ellipse fill="none" stroke="black" cx="1622.46" cy="-338" rx="62.1" ry="18"/>
<text text-anchor="start" x="1584.96" y="-333.95" font-family="Times New Roman,serif" font-size="14.00">leaf 6: </text>
<text text-anchor="start" x="1621.71" y="-333.95" font-family="Times New Roman,serif" font-weight="bold" font-size="14.00">&#45;2.189</text>
</g>
<!-- split12&#45;&gt;leaf6 -->
<g id="edge8" class="edge">
<title>split12&#45;&gt;leaf6</title>
<path fill="none" stroke="black" d="M1424.05,-338C1461.76,-338 1509.81,-338 1549.06,-338"/>
<polygon fill="black" stroke="black" points="1548.89,-341.5 1558.89,-338 1548.89,-334.5 1548.89,-341.5"/>
<text text-anchor="middle" x="1535.38" y="-340.45" font-family="Times New Roman,serif" font-size="14.00">yes</text>
</g>
<!-- leaf13 -->
<g id="node14" class="node">
<title>leaf13</title>
<ellipse fill="none" stroke="black" cx="1622.46" cy="-298" rx="66.71" ry="18"/>
<text text-anchor="start" x="1581.58" y="-293.95" font-family="Times New Roman,serif" font-size="14.00">leaf 13: </text>
<text text-anchor="start" x="1625.08" y="-293.95" font-family="Times New Roman,serif" font-weight="bold" font-size="14.00">&#45;2.233</text>
</g>
<!-- split12&#45;&gt;leaf13 -->
<g id="edge9" class="edge">
<title>split12&#45;&gt;leaf13</title>
<path fill="none" stroke="black" d="M1424.37,-329.32C1452.2,-325.41 1485.25,-320.64 1515,-316 1527.93,-313.98 1541.73,-311.73 1554.96,-309.51"/>
<polygon fill="black" stroke="black" points="1555.14,-312.86 1564.42,-307.75 1553.98,-305.96 1555.14,-312.86"/>
<text text-anchor="middle" x="1535.38" y="-316.45" font-family="Times New Roman,serif" font-size="14.00">no</text>
</g>
<!-- split14 -->
<g id="node17" class="node">
<title>split14</title>
<polygon fill="none" stroke="black" points="1106.12,-256 975.38,-256 975.38,-220 1106.12,-220 1106.12,-256"/>
<text text-anchor="start" x="983.38" y="-233.95" font-family="Times New Roman,serif" font-weight="bold" font-size="14.00">生日年</text>
<text text-anchor="start" x="1030.62" y="-233.95" font-family="Times New Roman,serif" font-size="14.00"> ≤</text>
<text text-anchor="start" x="1041.88" y="-233.95" font-family="Times New Roman,serif" font-weight="bold" font-size="14.00">1975.500</text>
</g>
<!-- split2&#45;&gt;split14 -->
<g id="edge16" class="edge">
<title>split2&#45;&gt;split14</title>
<path fill="none" stroke="black" d="M836.97,-221.96C878.59,-225.25 926.03,-229 964.55,-232.05"/>
<polygon fill="black" stroke="black" points="963.92,-235.59 974.16,-232.89 964.47,-228.61 963.92,-235.59"/>
<text text-anchor="middle" x="896.88" y="-229.45" font-family="Times New Roman,serif" font-size="14.00">yes</text>
</g>
<!-- leaf3 -->
<g id="node20" class="node">
<title>leaf3</title>
<ellipse fill="none" stroke="black" cx="1040.75" cy="-198" rx="62.1" ry="18"/>
<text text-anchor="start" x="1003.25" y="-193.95" font-family="Times New Roman,serif" font-size="14.00">leaf 3: </text>
<text text-anchor="start" x="1040" y="-193.95" font-family="Times New Roman,serif" font-weight="bold" font-size="14.00">&#45;1.736</text>
</g>
<!-- split2&#45;&gt;leaf3 -->
<g id="edge17" class="edge">
<title>split2&#45;&gt;leaf3</title>
<path fill="none" stroke="black" d="M836.97,-208.69C880.01,-206.42 929.27,-203.83 968.45,-201.76"/>
<polygon fill="black" stroke="black" points="968.42,-205.21 978.23,-201.19 968.06,-198.22 968.42,-205.21"/>
<text text-anchor="middle" x="896.88" y="-208.45" font-family="Times New Roman,serif" font-size="14.00">no</text>
</g>
<!-- leaf2 -->
<g id="node18" class="node">
<title>leaf2</title>
<ellipse fill="none" stroke="black" cx="1360" cy="-258" rx="62.1" ry="18"/>
<text text-anchor="start" x="1322.5" y="-253.95" font-family="Times New Roman,serif" font-size="14.00">leaf 2: </text>
<text text-anchor="start" x="1359.25" y="-253.95" font-family="Times New Roman,serif" font-weight="bold" font-size="14.00">&#45;2.198</text>
</g>
<!-- split14&#45;&gt;leaf2 -->
<g id="edge14" class="edge">
<title>split14&#45;&gt;leaf2</title>
<path fill="none" stroke="black" d="M1106.33,-242.07C1159.05,-245.39 1233.44,-250.08 1287.86,-253.51"/>
<polygon fill="black" stroke="black" points="1287.6,-257.07 1297.8,-254.21 1288.04,-250.08 1287.6,-257.07"/>
<text text-anchor="middle" x="1184.62" y="-249.45" font-family="Times New Roman,serif" font-size="14.00">yes</text>
</g>
<!-- leaf15 -->
<g id="node19" class="node">
<title>leaf15</title>
<ellipse fill="none" stroke="black" cx="1360" cy="-218" rx="66.71" ry="18"/>
<text text-anchor="start" x="1319.12" y="-213.95" font-family="Times New Roman,serif" font-size="14.00">leaf 15: </text>
<text text-anchor="start" x="1362.62" y="-213.95" font-family="Times New Roman,serif" font-weight="bold" font-size="14.00">&#45;2.235</text>
</g>
<!-- split14&#45;&gt;leaf15 -->
<g id="edge15" class="edge">
<title>split14&#45;&gt;leaf15</title>
<path fill="none" stroke="black" d="M1106.59,-233.69C1128.41,-232.26 1152.88,-230.67 1175.25,-229.25 1210.94,-226.99 1250.53,-224.55 1283.8,-222.53"/>
<polygon fill="black" stroke="black" points="1283.6,-225.99 1293.37,-221.89 1283.17,-219 1283.6,-225.99"/>
<text text-anchor="middle" x="1184.62" y="-231.45" font-family="Times New Roman,serif" font-size="14.00">no</text>
</g>
<!-- split4 -->
<g id="node22" class="node">
<title>split4</title>
<polygon fill="none" stroke="black" points="876.5,-123 594.25,-123 594.25,-87 876.5,-87 876.5,-123"/>
<text text-anchor="start" x="602.25" y="-100.95" font-family="Times New Roman,serif" font-weight="bold" font-size="14.00">最近一次POS綁約交易日期</text>
<text text-anchor="start" x="788.25" y="-100.95" font-family="Times New Roman,serif" font-size="14.00"> ≤</text>
<text text-anchor="start" x="799.5" y="-100.95" font-family="Times New Roman,serif" font-weight="bold" font-size="14.00">2024&#45;05&#45;30</text>
</g>
<!-- split3&#45;&gt;split4 -->
<g id="edge28" class="edge">
<title>split3&#45;&gt;split4</title>
<path fill="none" stroke="black" d="M553.87,-105C563.48,-105 573.35,-105 583.3,-105"/>
<polygon fill="black" stroke="black" points="583.12,-108.5 593.12,-105 583.12,-101.5 583.12,-108.5"/>
<text text-anchor="middle" x="573.88" y="-107.45" font-family="Times New Roman,serif" font-size="14.00">yes</text>
</g>
<!-- split8 -->
<g id="node31" class="node">
<title>split8</title>
<polygon fill="none" stroke="black" points="830.75,-76 640,-76 640,-40 830.75,-40 830.75,-76"/>
<text text-anchor="start" x="648" y="-53.95" font-family="Times New Roman,serif" font-weight="bold" font-size="14.00">手機驗證日期</text>
<text text-anchor="start" x="742.5" y="-53.95" font-family="Times New Roman,serif" font-size="14.00"> ≤</text>
<text text-anchor="start" x="753.75" y="-53.95" font-family="Times New Roman,serif" font-weight="bold" font-size="14.00">2016&#45;03&#45;12</text>
</g>
<!-- split3&#45;&gt;split8 -->
<g id="edge31" class="edge">
<title>split3&#45;&gt;split8</title>
<path fill="none" stroke="black" d="M553.87,-88.16C578.17,-84.1 604.21,-79.75 628.73,-75.66"/>
<polygon fill="black" stroke="black" points="629.21,-78.95 638.5,-73.85 628.06,-72.05 629.21,-78.95"/>
<text text-anchor="middle" x="573.88" y="-87.45" font-family="Times New Roman,serif" font-size="14.00">no</text>
</g>
<!-- split7 -->
<g id="node23" class="node">
<title>split7</title>
<polygon fill="none" stroke="black" points="1164.25,-156 917.25,-156 917.25,-120 1164.25,-120 1164.25,-156"/>
<text text-anchor="start" x="925.25" y="-133.95" font-family="Times New Roman,serif" font-weight="bold" font-size="14.00">最近一次使用App時間</text>
<text text-anchor="start" x="1076" y="-133.95" font-family="Times New Roman,serif" font-size="14.00"> ≤</text>
<text text-anchor="start" x="1087.25" y="-133.95" font-family="Times New Roman,serif" font-weight="bold" font-size="14.00">2024&#45;07&#45;21</text>
</g>
<!-- split4&#45;&gt;split7 -->
<g id="edge24" class="edge">
<title>split4&#45;&gt;split7</title>
<path fill="none" stroke="black" d="M876.96,-120.29C886.65,-121.35 896.39,-122.41 906.04,-123.46"/>
<polygon fill="black" stroke="black" points="905.56,-127.03 915.88,-124.63 906.32,-120.07 905.56,-127.03"/>
<text text-anchor="middle" x="896.88" y="-125.45" font-family="Times New Roman,serif" font-size="14.00">yes</text>
</g>
<!-- split15 -->
<g id="node28" class="node">
<title>split15</title>
<polygon fill="none" stroke="black" points="1164.25,-116 917.25,-116 917.25,-80 1164.25,-80 1164.25,-116"/>
<text text-anchor="start" x="925.25" y="-93.95" font-family="Times New Roman,serif" font-weight="bold" font-size="14.00">最近一次使用App時間</text>
<text text-anchor="start" x="1076" y="-93.95" font-family="Times New Roman,serif" font-size="14.00"> ≤</text>
<text text-anchor="start" x="1087.25" y="-93.95" font-family="Times New Roman,serif" font-weight="bold" font-size="14.00">2018&#45;11&#45;11</text>
</g>
<!-- split4&#45;&gt;split15 -->
<g id="edge27" class="edge">
<title>split4&#45;&gt;split15</title>
<path fill="none" stroke="black" d="M876.96,-101.76C886.65,-101.53 896.39,-101.31 906.04,-101.09"/>
<polygon fill="black" stroke="black" points="905.96,-104.56 915.88,-100.84 905.8,-97.57 905.96,-104.56"/>
<text text-anchor="middle" x="896.88" y="-103.45" font-family="Times New Roman,serif" font-size="14.00">no</text>
</g>
<!-- split11 -->
<g id="node24" class="node">
<title>split11</title>
<polygon fill="none" stroke="black" points="1501.12,-196 1218.88,-196 1218.88,-160 1501.12,-160 1501.12,-196"/>
<text text-anchor="start" x="1226.88" y="-173.95" font-family="Times New Roman,serif" font-weight="bold" font-size="14.00">最近一次POS綁約交易日期</text>
<text text-anchor="start" x="1412.88" y="-173.95" font-family="Times New Roman,serif" font-size="14.00"> ≤</text>
<text text-anchor="start" x="1424.12" y="-173.95" font-family="Times New Roman,serif" font-weight="bold" font-size="14.00">2020&#45;04&#45;12</text>
</g>
<!-- split7&#45;&gt;split11 -->
<g id="edge22" class="edge">
<title>split7&#45;&gt;split11</title>
<path fill="none" stroke="black" d="M1164.68,-153.66C1168.25,-154.12 1171.77,-154.56 1175.25,-155 1185.89,-156.34 1196.87,-157.73 1207.93,-159.12"/>
<polygon fill="black" stroke="black" points="1207.18,-162.68 1217.54,-160.45 1208.06,-155.73 1207.18,-162.68"/>
<text text-anchor="middle" x="1184.62" y="-158.45" font-family="Times New Roman,serif" font-size="14.00">yes</text>
</g>
<!-- leaf8 -->
<g id="node27" class="node">
<title>leaf8</title>
<ellipse fill="none" stroke="black" cx="1360" cy="-138" rx="62.1" ry="18"/>
<text text-anchor="start" x="1322.5" y="-133.95" font-family="Times New Roman,serif" font-size="14.00">leaf 8: </text>
<text text-anchor="start" x="1359.25" y="-133.95" font-family="Times New Roman,serif" font-weight="bold" font-size="14.00">&#45;1.925</text>
</g>
<!-- split7&#45;&gt;leaf8 -->
<g id="edge23" class="edge">
<title>split7&#45;&gt;leaf8</title>
<path fill="none" stroke="black" d="M1164.41,-138C1205.81,-138 1250.66,-138 1286.86,-138"/>
<polygon fill="black" stroke="black" points="1286.8,-141.5 1296.8,-138 1286.8,-134.5 1286.8,-141.5"/>
<text text-anchor="middle" x="1184.62" y="-140.45" font-family="Times New Roman,serif" font-size="14.00">no</text>
</g>
<!-- leaf1 -->
<g id="node25" class="node">
<title>leaf1</title>
<ellipse fill="none" stroke="black" cx="1622.46" cy="-198" rx="62.1" ry="18"/>
<text text-anchor="start" x="1584.96" y="-193.95" font-family="Times New Roman,serif" font-size="14.00">leaf 1: </text>
<text text-anchor="start" x="1621.71" y="-193.95" font-family="Times New Roman,serif" font-weight="bold" font-size="14.00">&#45;2.077</text>
</g>
<!-- split11&#45;&gt;leaf1 -->
<g id="edge20" class="edge">
<title>split11&#45;&gt;leaf1</title>
<path fill="none" stroke="black" d="M1501.52,-188.79C1518.8,-190.12 1535.83,-191.42 1551.39,-192.62"/>
<polygon fill="black" stroke="black" points="1550.68,-196.15 1560.92,-193.43 1551.22,-189.17 1550.68,-196.15"/>
<text text-anchor="middle" x="1535.38" y="-194.45" font-family="Times New Roman,serif" font-size="14.00">yes</text>
</g>
<!-- leaf12 -->
<g id="node26" class="node">
<title>leaf12</title>
<ellipse fill="none" stroke="black" cx="1622.46" cy="-158" rx="66.71" ry="18"/>
<text text-anchor="start" x="1581.58" y="-153.95" font-family="Times New Roman,serif" font-size="14.00">leaf 12: </text>
<text text-anchor="start" x="1625.08" y="-153.95" font-family="Times New Roman,serif" font-weight="bold" font-size="14.00">&#45;2.175</text>
</g>
<!-- split11&#45;&gt;leaf12 -->
<g id="edge21" class="edge">
<title>split11&#45;&gt;leaf12</title>
<path fill="none" stroke="black" d="M1501.52,-167.21C1517.22,-166 1532.72,-164.81 1547.1,-163.71"/>
<polygon fill="black" stroke="black" points="1547.16,-167.14 1556.86,-162.88 1546.62,-160.16 1547.16,-167.14"/>
<text text-anchor="middle" x="1535.38" y="-167.45" font-family="Times New Roman,serif" font-size="14.00">no</text>
</g>
<!-- leaf5 -->
<g id="node29" class="node">
<title>leaf5</title>
<ellipse fill="none" stroke="black" cx="1360" cy="-98" rx="62.1" ry="18"/>
<text text-anchor="start" x="1322.5" y="-93.95" font-family="Times New Roman,serif" font-size="14.00">leaf 5: </text>
<text text-anchor="start" x="1359.25" y="-93.95" font-family="Times New Roman,serif" font-weight="bold" font-size="14.00">&#45;1.974</text>
</g>
<!-- split15&#45;&gt;leaf5 -->
<g id="edge25" class="edge">
<title>split15&#45;&gt;leaf5</title>
<path fill="none" stroke="black" d="M1164.41,-98C1205.81,-98 1250.66,-98 1286.86,-98"/>
<polygon fill="black" stroke="black" points="1286.8,-101.5 1296.8,-98 1286.8,-94.5 1286.8,-101.5"/>
<text text-anchor="middle" x="1184.62" y="-100.45" font-family="Times New Roman,serif" font-size="14.00">yes</text>
</g>
<!-- leaf16 -->
<g id="node30" class="node">
<title>leaf16</title>
<ellipse fill="none" stroke="black" cx="1360" cy="-58" rx="66.71" ry="18"/>
<text text-anchor="start" x="1319.12" y="-53.95" font-family="Times New Roman,serif" font-size="14.00">leaf 16: </text>
<text text-anchor="start" x="1362.62" y="-53.95" font-family="Times New Roman,serif" font-weight="bold" font-size="14.00">&#45;1.853</text>
</g>
<!-- split15&#45;&gt;leaf16 -->
<g id="edge26" class="edge">
<title>split15&#45;&gt;leaf16</title>
<path fill="none" stroke="black" d="M1164.41,-82.53C1206.46,-77.23 1252.08,-71.48 1288.57,-66.88"/>
<polygon fill="black" stroke="black" points="1288.61,-70.28 1298.09,-65.55 1287.73,-63.33 1288.61,-70.28"/>
<text text-anchor="middle" x="1184.62" y="-82.45" font-family="Times New Roman,serif" font-size="14.00">no</text>
</g>
<!-- leaf4 -->
<g id="node32" class="node">
<title>leaf4</title>
<ellipse fill="none" stroke="black" cx="1040.75" cy="-58" rx="62.1" ry="18"/>
<text text-anchor="start" x="1003.25" y="-53.95" font-family="Times New Roman,serif" font-size="14.00">leaf 4: </text>
<text text-anchor="start" x="1040" y="-53.95" font-family="Times New Roman,serif" font-weight="bold" font-size="14.00">&#45;1.968</text>
</g>
<!-- split8&#45;&gt;leaf4 -->
<g id="edge29" class="edge">
<title>split8&#45;&gt;leaf4</title>
<path fill="none" stroke="black" d="M831.12,-58C875.07,-58 926.49,-58 967.28,-58"/>
<polygon fill="black" stroke="black" points="967.22,-61.5 977.22,-58 967.22,-54.5 967.22,-61.5"/>
<text text-anchor="middle" x="896.88" y="-60.45" font-family="Times New Roman,serif" font-size="14.00">yes</text>
</g>
<!-- leaf9 -->
<g id="node33" class="node">
<title>leaf9</title>
<ellipse fill="none" stroke="black" cx="1040.75" cy="-18" rx="62.1" ry="18"/>
<text text-anchor="start" x="1003.25" y="-13.95" font-family="Times New Roman,serif" font-size="14.00">leaf 9: </text>
<text text-anchor="start" x="1040" y="-13.95" font-family="Times New Roman,serif" font-weight="bold" font-size="14.00">&#45;1.696</text>
</g>
<!-- split8&#45;&gt;leaf9 -->
<g id="edge30" class="edge">
<title>split8&#45;&gt;leaf9</title>
<path fill="none" stroke="black" d="M831.12,-45.51C877.08,-39.45 931.2,-32.31 972.8,-26.83"/>
<polygon fill="black" stroke="black" points="973.19,-30.18 982.64,-25.4 972.27,-23.24 973.19,-30.18"/>
<text text-anchor="middle" x="896.88" y="-40.45" font-family="Times New Roman,serif" font-size="14.00">no</text>
</g>
</g>
</svg>
