<?xml version="1.0" encoding="UTF-8" standalone="no"?>
<!DOCTYPE svg PUBLIC "-//W3C//DTD SVG 1.1//EN"
 "http://www.w3.org/Graphics/SVG/1.1/DTD/svg11.dtd">
<!-- Generated by graphviz version 8.0.5 (20230430.1635)
 -->
<!-- Pages: 1 -->
<svg width="1364pt" height="754pt"
 viewBox="0.00 0.00 1364.02 754.00" xmlns="http://www.w3.org/2000/svg" xmlns:xlink="http://www.w3.org/1999/xlink">
<g id="graph0" class="graph" transform="scale(1 1) rotate(0) translate(4 750)">
<polygon fill="white" stroke="none" points="-4,4 -4,-750 1360.02,-750 1360.02,4 -4,4"/>
<!-- split0 -->
<g id="node1" class="node">
<title>split0</title>
<polygon fill="none" stroke="black" points="190.75,-181 0,-181 0,-145 190.75,-145 190.75,-181"/>
<text text-anchor="start" x="8" y="-158.95" font-family="Times New Roman,serif" font-weight="bold" font-size="14.00">手機驗證日期</text>
<text text-anchor="start" x="102.5" y="-158.95" font-family="Times New Roman,serif" font-size="14.00"> ≤</text>
<text text-anchor="start" x="113.75" y="-158.95" font-family="Times New Roman,serif" font-weight="bold" font-size="14.00">2017&#45;01&#45;06</text>
</g>
<!-- split1 -->
<g id="node2" class="node">
<title>split1</title>
<polygon fill="none" stroke="black" points="397.88,-279 267.88,-279 267.88,-243 397.88,-243 397.88,-279"/>
<text text-anchor="start" x="275.88" y="-256.95" font-family="Times New Roman,serif" font-weight="bold" font-size="14.00">自媒互動程度</text>
<text text-anchor="start" x="370.38" y="-256.95" font-family="Times New Roman,serif" font-size="14.00"> =</text>
<text text-anchor="start" x="382.38" y="-256.95" font-family="Times New Roman,serif" font-weight="bold" font-size="14.00">2</text>
</g>
<!-- split0&#45;&gt;split1 -->
<g id="edge31" class="edge">
<title>split0&#45;&gt;split1</title>
<path fill="none" stroke="black" d="M140.67,-181.43C179.57,-197.62 236.27,-221.21 277.83,-238.51"/>
<polygon fill="black" stroke="black" points="276.2,-242.04 286.78,-242.65 278.89,-235.58 276.2,-242.04"/>
<text text-anchor="middle" x="211.12" y="-214.45" font-family="Times New Roman,serif" font-size="14.00">yes</text>
</g>
<!-- split5 -->
<g id="node33" class="node">
<title>split5</title>
<polygon fill="none" stroke="black" points="434.25,-142 231.5,-142 231.5,-106 434.25,-106 434.25,-142"/>
<text text-anchor="start" x="239.5" y="-119.95" font-family="Times New Roman,serif" font-weight="bold" font-size="14.00">第一次交易日(年)</text>
<text text-anchor="start" x="358.75" y="-119.95" font-family="Times New Roman,serif" font-size="14.00"> ≤</text>
<text text-anchor="start" x="370" y="-119.95" font-family="Times New Roman,serif" font-weight="bold" font-size="14.00">2015.500</text>
</g>
<!-- split0&#45;&gt;split5 -->
<g id="edge42" class="edge">
<title>split0&#45;&gt;split5</title>
<path fill="none" stroke="black" d="M191.14,-147.31C200.81,-145.7 210.69,-144.07 220.52,-142.44"/>
<polygon fill="black" stroke="black" points="220.85,-145.77 230.14,-140.68 219.7,-138.86 220.85,-145.77"/>
<text text-anchor="middle" x="211.12" y="-146.45" font-family="Times New Roman,serif" font-size="14.00">no</text>
</g>
<!-- split2 -->
<g id="node3" class="node">
<title>split2</title>
<polygon fill="none" stroke="black" points="665.75,-526 475,-526 475,-490 665.75,-490 665.75,-526"/>
<text text-anchor="start" x="483" y="-503.95" font-family="Times New Roman,serif" font-weight="bold" font-size="14.00">第一次交易日</text>
<text text-anchor="start" x="577.5" y="-503.95" font-family="Times New Roman,serif" font-size="14.00"> ≤</text>
<text text-anchor="start" x="588.75" y="-503.95" font-family="Times New Roman,serif" font-weight="bold" font-size="14.00">2016&#45;03&#45;27</text>
</g>
<!-- split1&#45;&gt;split2 -->
<g id="edge15" class="edge">
<title>split1&#45;&gt;split2</title>
<path fill="none" stroke="black" d="M351.19,-279.16C392.45,-322.43 496.66,-431.73 544.57,-481.99"/>
<polygon fill="black" stroke="black" points="541.6,-483.99 551.03,-488.81 546.67,-479.16 541.6,-483.99"/>
<text text-anchor="middle" x="454.63" y="-393.45" font-family="Times New Roman,serif" font-size="14.00">yes</text>
</g>
<!-- split4 -->
<g id="node18" class="node">
<title>split4</title>
<polygon fill="none" stroke="black" points="665.75,-279 475,-279 475,-243 665.75,-243 665.75,-279"/>
<text text-anchor="start" x="483" y="-256.95" font-family="Times New Roman,serif" font-weight="bold" font-size="14.00">第一次交易日</text>
<text text-anchor="start" x="577.5" y="-256.95" font-family="Times New Roman,serif" font-size="14.00"> ≤</text>
<text text-anchor="start" x="588.75" y="-256.95" font-family="Times New Roman,serif" font-weight="bold" font-size="14.00">2016&#45;02&#45;21</text>
</g>
<!-- split1&#45;&gt;split4 -->
<g id="edge30" class="edge">
<title>split1&#45;&gt;split4</title>
<path fill="none" stroke="black" d="M398.23,-261C418.47,-261 441.39,-261 463.73,-261"/>
<polygon fill="black" stroke="black" points="463.63,-264.5 473.63,-261 463.63,-257.5 463.63,-264.5"/>
<text text-anchor="middle" x="454.63" y="-263.45" font-family="Times New Roman,serif" font-size="14.00">no</text>
</g>
<!-- split6 -->
<g id="node4" class="node">
<title>split6</title>
<polygon fill="none" stroke="black" points="905.13,-640 714.38,-640 714.38,-604 905.13,-604 905.13,-640"/>
<text text-anchor="start" x="722.38" y="-617.95" font-family="Times New Roman,serif" font-weight="bold" font-size="14.00">第一次交易日</text>
<text text-anchor="start" x="816.88" y="-617.95" font-family="Times New Roman,serif" font-size="14.00"> ≤</text>
<text text-anchor="start" x="828.13" y="-617.95" font-family="Times New Roman,serif" font-weight="bold" font-size="14.00">2010&#45;11&#45;11</text>
</g>
<!-- split2&#45;&gt;split6 -->
<g id="edge7" class="edge">
<title>split2&#45;&gt;split6</title>
<path fill="none" stroke="black" d="M609.78,-526.44C650.89,-546.19 716.19,-577.55 760.68,-598.92"/>
<polygon fill="black" stroke="black" points="758.87,-602.41 769.4,-603.58 761.9,-596.1 758.87,-602.41"/>
<text text-anchor="middle" x="686.13" y="-567.45" font-family="Times New Roman,serif" font-size="14.00">yes</text>
</g>
<!-- split3 -->
<g id="node11" class="node">
<title>split3</title>
<polygon fill="none" stroke="black" points="905.13,-526 714.38,-526 714.38,-490 905.13,-490 905.13,-526"/>
<text text-anchor="start" x="722.38" y="-503.95" font-family="Times New Roman,serif" font-weight="bold" font-size="14.00">手機驗證日期</text>
<text text-anchor="start" x="816.88" y="-503.95" font-family="Times New Roman,serif" font-size="14.00"> ≤</text>
<text text-anchor="start" x="828.13" y="-503.95" font-family="Times New Roman,serif" font-weight="bold" font-size="14.00">2016&#45;03&#45;31</text>
</g>
<!-- split2&#45;&gt;split3 -->
<g id="edge14" class="edge">
<title>split2&#45;&gt;split3</title>
<path fill="none" stroke="black" d="M666.22,-508C678.4,-508 690.94,-508 703.28,-508"/>
<polygon fill="black" stroke="black" points="703.06,-511.5 713.06,-508 703.06,-504.5 703.06,-511.5"/>
<text text-anchor="middle" x="686.13" y="-510.45" font-family="Times New Roman,serif" font-size="14.00">no</text>
</g>
<!-- split7 -->
<g id="node5" class="node">
<title>split7</title>
<polygon fill="none" stroke="black" points="1166.25,-706 975.5,-706 975.5,-670 1166.25,-670 1166.25,-706"/>
<text text-anchor="start" x="983.5" y="-683.95" font-family="Times New Roman,serif" font-weight="bold" font-size="14.00">手機驗證日期</text>
<text text-anchor="start" x="1078" y="-683.95" font-family="Times New Roman,serif" font-size="14.00"> ≤</text>
<text text-anchor="start" x="1089.25" y="-683.95" font-family="Times New Roman,serif" font-weight="bold" font-size="14.00">2016&#45;03&#45;22</text>
</g>
<!-- split6&#45;&gt;split7 -->
<g id="edge3" class="edge">
<title>split6&#45;&gt;split7</title>
<path fill="none" stroke="black" d="M883.28,-640.47C915.43,-648.66 953.44,-658.34 986.74,-666.82"/>
<polygon fill="black" stroke="black" points="985.81,-670.46 996.37,-669.53 987.54,-663.67 985.81,-670.46"/>
<text text-anchor="middle" x="933.38" y="-657.45" font-family="Times New Roman,serif" font-size="14.00">yes</text>
</g>
<!-- split8 -->
<g id="node8" class="node">
<title>split8</title>
<polygon fill="none" stroke="black" points="1150.88,-640 990.88,-640 990.88,-604 1150.88,-604 1150.88,-640"/>
<text text-anchor="start" x="998.88" y="-617.95" font-family="Times New Roman,serif" font-weight="bold" font-size="14.00">是否Email驗證</text>
<text text-anchor="start" x="1097.88" y="-617.95" font-family="Times New Roman,serif" font-size="14.00"> ≤</text>
<text text-anchor="start" x="1109.12" y="-617.95" font-family="Times New Roman,serif" font-weight="bold" font-size="14.00">0.000</text>
</g>
<!-- split6&#45;&gt;split8 -->
<g id="edge6" class="edge">
<title>split6&#45;&gt;split8</title>
<path fill="none" stroke="black" d="M905.4,-622C929.6,-622 955.55,-622 979.53,-622"/>
<polygon fill="black" stroke="black" points="979.39,-625.5 989.39,-622 979.39,-618.5 979.39,-625.5"/>
<text text-anchor="middle" x="933.38" y="-624.45" font-family="Times New Roman,serif" font-size="14.00">no</text>
</g>
<!-- leaf0 -->
<g id="node6" class="node">
<title>leaf0</title>
<ellipse fill="none" stroke="black" cx="1292.38" cy="-728" rx="59.03" ry="18"/>
<text text-anchor="start" x="1257.13" y="-723.95" font-family="Times New Roman,serif" font-size="14.00">leaf 0: </text>
<text text-anchor="start" x="1293.88" y="-723.95" font-family="Times New Roman,serif" font-weight="bold" font-size="14.00">0.977</text>
</g>
<!-- split7&#45;&gt;leaf0 -->
<g id="edge1" class="edge">
<title>split7&#45;&gt;leaf0</title>
<path fill="none" stroke="black" d="M1166.56,-705.25C1188.1,-709.18 1210.43,-713.25 1230.14,-716.84"/>
<polygon fill="black" stroke="black" points="1229.34,-720.43 1239.8,-718.78 1230.59,-713.55 1229.34,-720.43"/>
<text text-anchor="middle" x="1208.38" y="-715.45" font-family="Times New Roman,serif" font-size="14.00">yes</text>
</g>
<!-- leaf8 -->
<g id="node7" class="node">
<title>leaf8</title>
<ellipse fill="none" stroke="black" cx="1292.38" cy="-688" rx="59.03" ry="18"/>
<text text-anchor="start" x="1257.13" y="-683.95" font-family="Times New Roman,serif" font-size="14.00">leaf 8: </text>
<text text-anchor="start" x="1293.88" y="-683.95" font-family="Times New Roman,serif" font-weight="bold" font-size="14.00">1.116</text>
</g>
<!-- split7&#45;&gt;leaf8 -->
<g id="edge2" class="edge">
<title>split7&#45;&gt;leaf8</title>
<path fill="none" stroke="black" d="M1166.56,-688C1185.3,-688 1204.63,-688 1222.32,-688"/>
<polygon fill="black" stroke="black" points="1222.11,-691.5 1232.11,-688 1222.11,-684.5 1222.11,-691.5"/>
<text text-anchor="middle" x="1208.38" y="-690.45" font-family="Times New Roman,serif" font-size="14.00">no</text>
</g>
<!-- leaf7 -->
<g id="node9" class="node">
<title>leaf7</title>
<ellipse fill="none" stroke="black" cx="1292.38" cy="-648" rx="59.03" ry="18"/>
<text text-anchor="start" x="1257.13" y="-643.95" font-family="Times New Roman,serif" font-size="14.00">leaf 7: </text>
<text text-anchor="start" x="1293.88" y="-643.95" font-family="Times New Roman,serif" font-weight="bold" font-size="14.00">0.952</text>
</g>
<!-- split8&#45;&gt;leaf7 -->
<g id="edge4" class="edge">
<title>split8&#45;&gt;leaf7</title>
<path fill="none" stroke="black" d="M1151.12,-631.39C1175.61,-634.29 1202.3,-637.45 1225.77,-640.23"/>
<polygon fill="black" stroke="black" points="1225.31,-643.82 1235.65,-641.52 1226.13,-636.86 1225.31,-643.82"/>
<text text-anchor="middle" x="1208.38" y="-640.45" font-family="Times New Roman,serif" font-size="14.00">yes</text>
</g>
<!-- leaf9 -->
<g id="node10" class="node">
<title>leaf9</title>
<ellipse fill="none" stroke="black" cx="1292.38" cy="-608" rx="59.03" ry="18"/>
<text text-anchor="start" x="1257.13" y="-603.95" font-family="Times New Roman,serif" font-size="14.00">leaf 9: </text>
<text text-anchor="start" x="1293.88" y="-603.95" font-family="Times New Roman,serif" font-weight="bold" font-size="14.00">1.028</text>
</g>
<!-- split8&#45;&gt;leaf9 -->
<g id="edge5" class="edge">
<title>split8&#45;&gt;leaf9</title>
<path fill="none" stroke="black" d="M1151.12,-616.95C1174.76,-615.44 1200.45,-613.8 1223.31,-612.34"/>
<polygon fill="black" stroke="black" points="1223.53,-615.77 1233.28,-611.64 1223.08,-608.79 1223.53,-615.77"/>
<text text-anchor="middle" x="1208.38" y="-615.45" font-family="Times New Roman,serif" font-size="14.00">no</text>
</g>
<!-- split13 -->
<g id="node12" class="node">
<title>split13</title>
<polygon fill="none" stroke="black" points="1182,-546 959.75,-546 959.75,-510 1182,-510 1182,-546"/>
<text text-anchor="start" x="967.75" y="-523.95" font-family="Times New Roman,serif" font-weight="bold" font-size="14.00">第一次門市交易日</text>
<text text-anchor="start" x="1093.75" y="-523.95" font-family="Times New Roman,serif" font-size="14.00"> ≤</text>
<text text-anchor="start" x="1105" y="-523.95" font-family="Times New Roman,serif" font-weight="bold" font-size="14.00">2020&#45;12&#45;25</text>
</g>
<!-- split3&#45;&gt;split13 -->
<g id="edge10" class="edge">
<title>split3&#45;&gt;split13</title>
<path fill="none" stroke="black" d="M905.4,-515.31C919.59,-516.4 934.39,-517.54 949.04,-518.67"/>
<polygon fill="black" stroke="black" points="948.43,-522.21 958.67,-519.49 948.97,-515.23 948.43,-522.21"/>
<text text-anchor="middle" x="933.38" y="-520.45" font-family="Times New Roman,serif" font-size="14.00">yes</text>
</g>
<!-- split12 -->
<g id="node15" class="node">
<title>split12</title>
<polygon fill="none" stroke="black" points="1166.25,-506 975.5,-506 975.5,-470 1166.25,-470 1166.25,-506"/>
<text text-anchor="start" x="983.5" y="-483.95" font-family="Times New Roman,serif" font-weight="bold" font-size="14.00">手機驗證日期</text>
<text text-anchor="start" x="1078" y="-483.95" font-family="Times New Roman,serif" font-size="14.00"> ≤</text>
<text text-anchor="start" x="1089.25" y="-483.95" font-family="Times New Roman,serif" font-weight="bold" font-size="14.00">2016&#45;06&#45;12</text>
</g>
<!-- split3&#45;&gt;split12 -->
<g id="edge13" class="edge">
<title>split3&#45;&gt;split12</title>
<path fill="none" stroke="black" d="M905.6,-500.67C911.83,-500.19 918,-499.71 924,-499.25 937.09,-498.24 950.84,-497.18 964.45,-496.13"/>
<polygon fill="black" stroke="black" points="964.62,-499.55 974.32,-495.29 964.08,-492.57 964.62,-499.55"/>
<text text-anchor="middle" x="933.38" y="-501.45" font-family="Times New Roman,serif" font-size="14.00">no</text>
</g>
<!-- leaf3 -->
<g id="node13" class="node">
<title>leaf3</title>
<ellipse fill="none" stroke="black" cx="1292.38" cy="-568" rx="59.03" ry="18"/>
<text text-anchor="start" x="1257.13" y="-563.95" font-family="Times New Roman,serif" font-size="14.00">leaf 3: </text>
<text text-anchor="start" x="1293.88" y="-563.95" font-family="Times New Roman,serif" font-weight="bold" font-size="14.00">0.967</text>
</g>
<!-- split13&#45;&gt;leaf3 -->
<g id="edge8" class="edge">
<title>split13&#45;&gt;leaf3</title>
<path fill="none" stroke="black" d="M1173.28,-546.48C1192.72,-550.02 1212.51,-553.63 1230.2,-556.85"/>
<polygon fill="black" stroke="black" points="1229.45,-560.45 1239.92,-558.8 1230.71,-553.57 1229.45,-560.45"/>
<text text-anchor="middle" x="1208.38" y="-555.45" font-family="Times New Roman,serif" font-size="14.00">yes</text>
</g>
<!-- leaf14 -->
<g id="node14" class="node">
<title>leaf14</title>
<ellipse fill="none" stroke="black" cx="1292.38" cy="-528" rx="63.63" ry="18"/>
<text text-anchor="start" x="1253.76" y="-523.95" font-family="Times New Roman,serif" font-size="14.00">leaf 14: </text>
<text text-anchor="start" x="1297.26" y="-523.95" font-family="Times New Roman,serif" font-weight="bold" font-size="14.00">1.043</text>
</g>
<!-- split13&#45;&gt;leaf14 -->
<g id="edge9" class="edge">
<title>split13&#45;&gt;leaf14</title>
<path fill="none" stroke="black" d="M1182.27,-528C1194.25,-528 1206.21,-528 1217.59,-528"/>
<polygon fill="black" stroke="black" points="1217.31,-531.5 1227.31,-528 1217.31,-524.5 1217.31,-531.5"/>
<text text-anchor="middle" x="1208.38" y="-530.45" font-family="Times New Roman,serif" font-size="14.00">no</text>
</g>
<!-- leaf4 -->
<g id="node16" class="node">
<title>leaf4</title>
<ellipse fill="none" stroke="black" cx="1292.38" cy="-488" rx="59.03" ry="18"/>
<text text-anchor="start" x="1257.13" y="-483.95" font-family="Times New Roman,serif" font-size="14.00">leaf 4: </text>
<text text-anchor="start" x="1293.88" y="-483.95" font-family="Times New Roman,serif" font-weight="bold" font-size="14.00">1.083</text>
</g>
<!-- split12&#45;&gt;leaf4 -->
<g id="edge11" class="edge">
<title>split12&#45;&gt;leaf4</title>
<path fill="none" stroke="black" d="M1166.56,-488C1185.3,-488 1204.63,-488 1222.32,-488"/>
<polygon fill="black" stroke="black" points="1222.11,-491.5 1232.11,-488 1222.11,-484.5 1222.11,-491.5"/>
<text text-anchor="middle" x="1208.38" y="-490.45" font-family="Times New Roman,serif" font-size="14.00">yes</text>
</g>
<!-- leaf13 -->
<g id="node17" class="node">
<title>leaf13</title>
<ellipse fill="none" stroke="black" cx="1292.38" cy="-448" rx="63.63" ry="18"/>
<text text-anchor="start" x="1253.76" y="-443.95" font-family="Times New Roman,serif" font-size="14.00">leaf 13: </text>
<text text-anchor="start" x="1297.26" y="-443.95" font-family="Times New Roman,serif" font-weight="bold" font-size="14.00">1.141</text>
</g>
<!-- split12&#45;&gt;leaf13 -->
<g id="edge12" class="edge">
<title>split12&#45;&gt;leaf13</title>
<path fill="none" stroke="black" d="M1166.56,-470.75C1187.12,-467 1208.4,-463.12 1227.44,-459.65"/>
<polygon fill="black" stroke="black" points="1227.86,-462.95 1237.07,-457.72 1226.61,-456.06 1227.86,-462.95"/>
<text text-anchor="middle" x="1208.38" y="-466.45" font-family="Times New Roman,serif" font-size="14.00">no</text>
</g>
<!-- split9 -->
<g id="node19" class="node">
<title>split9</title>
<polygon fill="none" stroke="black" points="889.75,-332 729.75,-332 729.75,-296 889.75,-296 889.75,-332"/>
<text text-anchor="start" x="737.75" y="-309.95" font-family="Times New Roman,serif" font-weight="bold" font-size="14.00">是否Email驗證</text>
<text text-anchor="start" x="836.75" y="-309.95" font-family="Times New Roman,serif" font-size="14.00"> ≤</text>
<text text-anchor="start" x="848" y="-309.95" font-family="Times New Roman,serif" font-weight="bold" font-size="14.00">0.000</text>
</g>
<!-- split4&#45;&gt;split9 -->
<g id="edge22" class="edge">
<title>split4&#45;&gt;split9</title>
<path fill="none" stroke="black" d="M654.06,-279.46C675.01,-284.14 697.61,-289.19 718.89,-293.94"/>
<polygon fill="black" stroke="black" points="718.03,-297.55 728.55,-296.32 719.56,-290.72 718.03,-297.55"/>
<text text-anchor="middle" x="686.13" y="-289.45" font-family="Times New Roman,serif" font-size="14.00">yes</text>
</g>
<!-- split11 -->
<g id="node26" class="node">
<title>split11</title>
<polygon fill="none" stroke="black" points="905.13,-236 714.38,-236 714.38,-200 905.13,-200 905.13,-236"/>
<text text-anchor="start" x="722.38" y="-213.95" font-family="Times New Roman,serif" font-weight="bold" font-size="14.00">手機驗證日期</text>
<text text-anchor="start" x="816.88" y="-213.95" font-family="Times New Roman,serif" font-size="14.00"> ≤</text>
<text text-anchor="start" x="828.13" y="-213.95" font-family="Times New Roman,serif" font-weight="bold" font-size="14.00">2016&#45;03&#45;10</text>
</g>
<!-- split4&#45;&gt;split11 -->
<g id="edge29" class="edge">
<title>split4&#45;&gt;split11</title>
<path fill="none" stroke="black" d="M666.22,-243.82C678.4,-241.61 690.94,-239.34 703.28,-237.11"/>
<polygon fill="black" stroke="black" points="703.84,-240.38 713.06,-235.15 702.6,-233.49 703.84,-240.38"/>
<text text-anchor="middle" x="686.13" y="-242.45" font-family="Times New Roman,serif" font-size="14.00">no</text>
</g>
<!-- split10 -->
<g id="node20" class="node">
<title>split10</title>
<polygon fill="none" stroke="black" points="1166.25,-386 975.5,-386 975.5,-350 1166.25,-350 1166.25,-386"/>
<text text-anchor="start" x="983.5" y="-363.95" font-family="Times New Roman,serif" font-weight="bold" font-size="14.00">第一次交易日</text>
<text text-anchor="start" x="1078" y="-363.95" font-family="Times New Roman,serif" font-size="14.00"> ≤</text>
<text text-anchor="start" x="1089.25" y="-363.95" font-family="Times New Roman,serif" font-weight="bold" font-size="14.00">2013&#45;01&#45;21</text>
</g>
<!-- split9&#45;&gt;split10 -->
<g id="edge18" class="edge">
<title>split9&#45;&gt;split10</title>
<path fill="none" stroke="black" d="M889.9,-330.5C915.39,-335.81 943.97,-341.76 970.71,-347.34"/>
<polygon fill="black" stroke="black" points="969.75,-350.92 980.25,-349.53 971.18,-344.07 969.75,-350.92"/>
<text text-anchor="middle" x="933.38" y="-343.45" font-family="Times New Roman,serif" font-size="14.00">yes</text>
</g>
<!-- split19 -->
<g id="node23" class="node">
<title>split19</title>
<polygon fill="none" stroke="black" points="1166.25,-332 975.5,-332 975.5,-296 1166.25,-296 1166.25,-332"/>
<text text-anchor="start" x="983.5" y="-309.95" font-family="Times New Roman,serif" font-weight="bold" font-size="14.00">第一次交易日</text>
<text text-anchor="start" x="1078" y="-309.95" font-family="Times New Roman,serif" font-size="14.00"> ≤</text>
<text text-anchor="start" x="1089.25" y="-309.95" font-family="Times New Roman,serif" font-weight="bold" font-size="14.00">2011&#45;05&#45;06</text>
</g>
<!-- split9&#45;&gt;split19 -->
<g id="edge21" class="edge">
<title>split9&#45;&gt;split19</title>
<path fill="none" stroke="black" d="M889.9,-314C913.37,-314 939.45,-314 964.31,-314"/>
<polygon fill="black" stroke="black" points="964.25,-317.5 974.25,-314 964.25,-310.5 964.25,-317.5"/>
<text text-anchor="middle" x="933.38" y="-316.45" font-family="Times New Roman,serif" font-size="14.00">no</text>
</g>
<!-- leaf2 -->
<g id="node21" class="node">
<title>leaf2</title>
<ellipse fill="none" stroke="black" cx="1292.38" cy="-408" rx="59.03" ry="18"/>
<text text-anchor="start" x="1257.13" y="-403.95" font-family="Times New Roman,serif" font-size="14.00">leaf 2: </text>
<text text-anchor="start" x="1293.88" y="-403.95" font-family="Times New Roman,serif" font-weight="bold" font-size="14.00">1.084</text>
</g>
<!-- split10&#45;&gt;leaf2 -->
<g id="edge16" class="edge">
<title>split10&#45;&gt;leaf2</title>
<path fill="none" stroke="black" d="M1166.56,-385.25C1188.1,-389.18 1210.43,-393.25 1230.14,-396.84"/>
<polygon fill="black" stroke="black" points="1229.34,-400.43 1239.8,-398.78 1230.59,-393.55 1229.34,-400.43"/>
<text text-anchor="middle" x="1208.38" y="-395.45" font-family="Times New Roman,serif" font-size="14.00">yes</text>
</g>
<!-- leaf11 -->
<g id="node22" class="node">
<title>leaf11</title>
<ellipse fill="none" stroke="black" cx="1292.38" cy="-368" rx="63.63" ry="18"/>
<text text-anchor="start" x="1253.76" y="-363.95" font-family="Times New Roman,serif" font-size="14.00">leaf 11: </text>
<text text-anchor="start" x="1297.26" y="-363.95" font-family="Times New Roman,serif" font-weight="bold" font-size="14.00">1.052</text>
</g>
<!-- split10&#45;&gt;leaf11 -->
<g id="edge17" class="edge">
<title>split10&#45;&gt;leaf11</title>
<path fill="none" stroke="black" d="M1166.56,-368C1183.69,-368 1201.33,-368 1217.74,-368"/>
<polygon fill="black" stroke="black" points="1217.34,-371.5 1227.34,-368 1217.34,-364.5 1217.34,-371.5"/>
<text text-anchor="middle" x="1208.38" y="-370.45" font-family="Times New Roman,serif" font-size="14.00">no</text>
</g>
<!-- leaf10 -->
<g id="node24" class="node">
<title>leaf10</title>
<ellipse fill="none" stroke="black" cx="1292.38" cy="-328" rx="63.63" ry="18"/>
<text text-anchor="start" x="1253.76" y="-323.95" font-family="Times New Roman,serif" font-size="14.00">leaf 10: </text>
<text text-anchor="start" x="1297.26" y="-323.95" font-family="Times New Roman,serif" font-weight="bold" font-size="14.00">1.140</text>
</g>
<!-- split19&#45;&gt;leaf10 -->
<g id="edge19" class="edge">
<title>split19&#45;&gt;leaf10</title>
<path fill="none" stroke="black" d="M1166.56,-320.04C1184.17,-321.16 1202.31,-322.32 1219.11,-323.39"/>
<polygon fill="black" stroke="black" points="1218.74,-326.94 1228.94,-324.08 1219.19,-319.95 1218.74,-326.94"/>
<text text-anchor="middle" x="1208.38" y="-325.45" font-family="Times New Roman,serif" font-size="14.00">yes</text>
</g>
<!-- leaf20 -->
<g id="node25" class="node">
<title>leaf20</title>
<ellipse fill="none" stroke="black" cx="1292.38" cy="-288" rx="63.63" ry="18"/>
<text text-anchor="start" x="1253.76" y="-283.95" font-family="Times New Roman,serif" font-size="14.00">leaf 20: </text>
<text text-anchor="start" x="1297.26" y="-283.95" font-family="Times New Roman,serif" font-weight="bold" font-size="14.00">1.117</text>
</g>
<!-- split19&#45;&gt;leaf20 -->
<g id="edge20" class="edge">
<title>split19&#45;&gt;leaf20</title>
<path fill="none" stroke="black" d="M1166.56,-302.79C1185.3,-300.57 1204.63,-298.28 1222.32,-296.18"/>
<polygon fill="black" stroke="black" points="1222.59,-299.55 1232.11,-294.9 1221.77,-292.6 1222.59,-299.55"/>
<text text-anchor="middle" x="1208.38" y="-300.45" font-family="Times New Roman,serif" font-size="14.00">no</text>
</g>
<!-- split15 -->
<g id="node27" class="node">
<title>split15</title>
<polygon fill="none" stroke="black" points="1134.75,-236 1007,-236 1007,-200 1134.75,-200 1134.75,-236"/>
<text text-anchor="start" x="1015" y="-213.95" font-family="Times New Roman,serif" font-weight="bold" font-size="14.00">生日</text>
<text text-anchor="start" x="1046.5" y="-213.95" font-family="Times New Roman,serif" font-size="14.00"> ≤</text>
<text text-anchor="start" x="1057.75" y="-213.95" font-family="Times New Roman,serif" font-weight="bold" font-size="14.00">1979&#45;06&#45;25</text>
</g>
<!-- split11&#45;&gt;split15 -->
<g id="edge25" class="edge">
<title>split11&#45;&gt;split15</title>
<path fill="none" stroke="black" d="M905.4,-218C935.14,-218 967.53,-218 995.64,-218"/>
<polygon fill="black" stroke="black" points="995.59,-221.5 1005.59,-218 995.59,-214.5 995.59,-221.5"/>
<text text-anchor="middle" x="933.38" y="-220.45" font-family="Times New Roman,serif" font-size="14.00">yes</text>
</g>
<!-- split20 -->
<g id="node30" class="node">
<title>split20</title>
<polygon fill="none" stroke="black" points="1166.25,-196 975.5,-196 975.5,-160 1166.25,-160 1166.25,-196"/>
<text text-anchor="start" x="983.5" y="-173.95" font-family="Times New Roman,serif" font-weight="bold" font-size="14.00">第一次交易日</text>
<text text-anchor="start" x="1078" y="-173.95" font-family="Times New Roman,serif" font-size="14.00"> ≤</text>
<text text-anchor="start" x="1089.25" y="-173.95" font-family="Times New Roman,serif" font-weight="bold" font-size="14.00">2016&#45;05&#45;29</text>
</g>
<!-- split11&#45;&gt;split20 -->
<g id="edge28" class="edge">
<title>split11&#45;&gt;split20</title>
<path fill="none" stroke="black" d="M905.4,-203.39C924.55,-200.43 944.8,-197.31 964.3,-194.3"/>
<polygon fill="black" stroke="black" points="964.7,-197.62 974.05,-192.64 963.63,-190.7 964.7,-197.62"/>
<text text-anchor="middle" x="933.38" y="-202.45" font-family="Times New Roman,serif" font-size="14.00">no</text>
</g>
<!-- leaf5 -->
<g id="node28" class="node">
<title>leaf5</title>
<ellipse fill="none" stroke="black" cx="1292.38" cy="-248" rx="59.03" ry="18"/>
<text text-anchor="start" x="1257.13" y="-243.95" font-family="Times New Roman,serif" font-size="14.00">leaf 5: </text>
<text text-anchor="start" x="1293.88" y="-243.95" font-family="Times New Roman,serif" font-weight="bold" font-size="14.00">1.118</text>
</g>
<!-- split15&#45;&gt;leaf5 -->
<g id="edge23" class="edge">
<title>split15&#45;&gt;leaf5</title>
<path fill="none" stroke="black" d="M1135.07,-226.64C1163.93,-230.58 1198.07,-235.25 1227.07,-239.21"/>
<polygon fill="black" stroke="black" points="1226.53,-242.81 1236.91,-240.69 1227.47,-235.87 1226.53,-242.81"/>
<text text-anchor="middle" x="1208.38" y="-239.45" font-family="Times New Roman,serif" font-size="14.00">yes</text>
</g>
<!-- leaf16 -->
<g id="node29" class="node">
<title>leaf16</title>
<ellipse fill="none" stroke="black" cx="1292.38" cy="-208" rx="63.63" ry="18"/>
<text text-anchor="start" x="1253.76" y="-203.95" font-family="Times New Roman,serif" font-size="14.00">leaf 16: </text>
<text text-anchor="start" x="1297.26" y="-203.95" font-family="Times New Roman,serif" font-weight="bold" font-size="14.00">1.078</text>
</g>
<!-- split15&#45;&gt;leaf16 -->
<g id="edge24" class="edge">
<title>split15&#45;&gt;leaf16</title>
<path fill="none" stroke="black" d="M1135.07,-215.12C1161.01,-213.94 1191.2,-212.56 1218.1,-211.34"/>
<polygon fill="black" stroke="black" points="1218.18,-214.79 1228.01,-210.84 1217.86,-207.8 1218.18,-214.79"/>
<text text-anchor="middle" x="1208.38" y="-214.45" font-family="Times New Roman,serif" font-size="14.00">no</text>
</g>
<!-- leaf12 -->
<g id="node31" class="node">
<title>leaf12</title>
<ellipse fill="none" stroke="black" cx="1292.38" cy="-168" rx="63.63" ry="18"/>
<text text-anchor="start" x="1253.76" y="-163.95" font-family="Times New Roman,serif" font-size="14.00">leaf 12: </text>
<text text-anchor="start" x="1297.26" y="-163.95" font-family="Times New Roman,serif" font-weight="bold" font-size="14.00">1.139</text>
</g>
<!-- split20&#45;&gt;leaf12 -->
<g id="edge26" class="edge">
<title>split20&#45;&gt;leaf12</title>
<path fill="none" stroke="black" d="M1166.56,-173.69C1183.98,-172.89 1201.91,-172.08 1218.56,-171.32"/>
<polygon fill="black" stroke="black" points="1218.47,-174.78 1228.3,-170.83 1218.15,-167.79 1218.47,-174.78"/>
<text text-anchor="middle" x="1208.38" y="-174.45" font-family="Times New Roman,serif" font-size="14.00">yes</text>
</g>
<!-- leaf21 -->
<g id="node32" class="node">
<title>leaf21</title>
<ellipse fill="none" stroke="black" cx="1292.38" cy="-128" rx="63.63" ry="18"/>
<text text-anchor="start" x="1253.76" y="-123.95" font-family="Times New Roman,serif" font-size="14.00">leaf 21: </text>
<text text-anchor="start" x="1297.26" y="-123.95" font-family="Times New Roman,serif" font-weight="bold" font-size="14.00">1.148</text>
</g>
<!-- split20&#45;&gt;leaf21 -->
<g id="edge27" class="edge">
<title>split20&#45;&gt;leaf21</title>
<path fill="none" stroke="black" d="M1166.75,-160.65C1173.95,-159.14 1181.1,-157.59 1188,-156 1203.76,-152.38 1220.73,-147.99 1236.29,-143.77"/>
<polygon fill="black" stroke="black" points="1237.08,-146.91 1245.79,-140.89 1235.22,-140.16 1237.08,-146.91"/>
<text text-anchor="middle" x="1208.38" y="-155.45" font-family="Times New Roman,serif" font-size="14.00">no</text>
</g>
<!-- split14 -->
<g id="node34" class="node">
<title>split14</title>
<polygon fill="none" stroke="black" points="634.25,-142 506.5,-142 506.5,-106 634.25,-106 634.25,-142"/>
<text text-anchor="start" x="514.5" y="-119.95" font-family="Times New Roman,serif" font-weight="bold" font-size="14.00">生日</text>
<text text-anchor="start" x="546" y="-119.95" font-family="Times New Roman,serif" font-size="14.00"> ≤</text>
<text text-anchor="start" x="557.25" y="-119.95" font-family="Times New Roman,serif" font-weight="bold" font-size="14.00">1973&#45;04&#45;14</text>
</g>
<!-- split5&#45;&gt;split14 -->
<g id="edge40" class="edge">
<title>split5&#45;&gt;split14</title>
<path fill="none" stroke="black" d="M434.43,-124C454.91,-124 476.09,-124 495.43,-124"/>
<polygon fill="black" stroke="black" points="495.28,-127.5 505.28,-124 495.28,-120.5 495.28,-127.5"/>
<text text-anchor="middle" x="454.63" y="-126.45" font-family="Times New Roman,serif" font-size="14.00">yes</text>
</g>
<!-- leaf6 -->
<g id="node43" class="node">
<title>leaf6</title>
<ellipse fill="none" stroke="black" cx="570.38" cy="-84" rx="59.03" ry="18"/>
<text text-anchor="start" x="535.13" y="-79.95" font-family="Times New Roman,serif" font-size="14.00">leaf 6: </text>
<text text-anchor="start" x="571.88" y="-79.95" font-family="Times New Roman,serif" font-weight="bold" font-size="14.00">1.149</text>
</g>
<!-- split5&#45;&gt;leaf6 -->
<g id="edge41" class="edge">
<title>split5&#45;&gt;leaf6</title>
<path fill="none" stroke="black" d="M434.43,-106.92C459.25,-102.71 485.11,-98.31 507.47,-94.51"/>
<polygon fill="black" stroke="black" points="507.87,-97.83 517.15,-92.7 506.7,-90.93 507.87,-97.83"/>
<text text-anchor="middle" x="454.63" y="-106.45" font-family="Times New Roman,serif" font-size="14.00">no</text>
</g>
<!-- split16 -->
<g id="node35" class="node">
<title>split16</title>
<polygon fill="none" stroke="black" points="913,-142 706.5,-142 706.5,-106 913,-106 913,-142"/>
<text text-anchor="start" x="714.5" y="-119.95" font-family="Times New Roman,serif" font-weight="bold" font-size="14.00">最近一次交易日</text>
<text text-anchor="start" x="824.75" y="-119.95" font-family="Times New Roman,serif" font-size="14.00"> ≤</text>
<text text-anchor="start" x="836" y="-119.95" font-family="Times New Roman,serif" font-weight="bold" font-size="14.00">2018&#45;06&#45;02</text>
</g>
<!-- split14&#45;&gt;split16 -->
<g id="edge34" class="edge">
<title>split14&#45;&gt;split16</title>
<path fill="none" stroke="black" d="M634.68,-124C653.39,-124 674.47,-124 695.33,-124"/>
<polygon fill="black" stroke="black" points="695.21,-127.5 705.21,-124 695.21,-120.5 695.21,-127.5"/>
<text text-anchor="middle" x="686.13" y="-126.45" font-family="Times New Roman,serif" font-size="14.00">yes</text>
</g>
<!-- split17 -->
<g id="node38" class="node">
<title>split17</title>
<polygon fill="none" stroke="black" points="873.63,-76 745.88,-76 745.88,-40 873.63,-40 873.63,-76"/>
<text text-anchor="start" x="753.88" y="-53.95" font-family="Times New Roman,serif" font-weight="bold" font-size="14.00">生日</text>
<text text-anchor="start" x="785.38" y="-53.95" font-family="Times New Roman,serif" font-size="14.00"> ≤</text>
<text text-anchor="start" x="796.63" y="-53.95" font-family="Times New Roman,serif" font-weight="bold" font-size="14.00">1993&#45;11&#45;06</text>
</g>
<!-- split14&#45;&gt;split17 -->
<g id="edge39" class="edge">
<title>split14&#45;&gt;split17</title>
<path fill="none" stroke="black" d="M634.73,-109.87C645.13,-107.37 655.76,-104.7 665.75,-102 690.65,-95.28 717.75,-87.15 741.6,-79.72"/>
<polygon fill="black" stroke="black" points="742.46,-82.8 750.95,-76.47 740.36,-76.12 742.46,-82.8"/>
<text text-anchor="middle" x="686.13" y="-101.45" font-family="Times New Roman,serif" font-size="14.00">no</text>
</g>
<!-- leaf1 -->
<g id="node36" class="node">
<title>leaf1</title>
<ellipse fill="none" stroke="black" cx="1070.88" cy="-138" rx="59.03" ry="18"/>
<text text-anchor="start" x="1035.62" y="-133.95" font-family="Times New Roman,serif" font-size="14.00">leaf 1: </text>
<text text-anchor="start" x="1072.38" y="-133.95" font-family="Times New Roman,serif" font-weight="bold" font-size="14.00">0.989</text>
</g>
<!-- split16&#45;&gt;leaf1 -->
<g id="edge32" class="edge">
<title>split16&#45;&gt;leaf1</title>
<path fill="none" stroke="black" d="M913.16,-129.53C942.88,-131.14 974.59,-132.85 1001.66,-134.31"/>
<polygon fill="black" stroke="black" points="1001.39,-137.86 1011.56,-134.9 1001.77,-130.87 1001.39,-137.86"/>
<text text-anchor="middle" x="933.38" y="-133.45" font-family="Times New Roman,serif" font-size="14.00">yes</text>
</g>
<!-- leaf17 -->
<g id="node37" class="node">
<title>leaf17</title>
<ellipse fill="none" stroke="black" cx="1070.88" cy="-98" rx="63.63" ry="18"/>
<text text-anchor="start" x="1032.25" y="-93.95" font-family="Times New Roman,serif" font-size="14.00">leaf 17: </text>
<text text-anchor="start" x="1075.75" y="-93.95" font-family="Times New Roman,serif" font-weight="bold" font-size="14.00">1.078</text>
</g>
<!-- split16&#45;&gt;leaf17 -->
<g id="edge33" class="edge">
<title>split16&#45;&gt;leaf17</title>
<path fill="none" stroke="black" d="M913.16,-113.72C942.13,-110.82 973,-107.72 999.61,-105.05"/>
<polygon fill="black" stroke="black" points="999.75,-108.45 1009.35,-103.97 999.05,-101.49 999.75,-108.45"/>
<text text-anchor="middle" x="933.38" y="-114.45" font-family="Times New Roman,serif" font-size="14.00">no</text>
</g>
<!-- split18 -->
<g id="node39" class="node">
<title>split18</title>
<polygon fill="none" stroke="black" points="1188,-76 953.75,-76 953.75,-40 1188,-40 1188,-76"/>
<text text-anchor="start" x="961.75" y="-53.95" font-family="Times New Roman,serif" font-weight="bold" font-size="14.00">第一次門市交易日(年)</text>
<text text-anchor="start" x="1112.5" y="-53.95" font-family="Times New Roman,serif" font-size="14.00"> ≤</text>
<text text-anchor="start" x="1123.75" y="-53.95" font-family="Times New Roman,serif" font-weight="bold" font-size="14.00">2016.500</text>
</g>
<!-- split17&#45;&gt;split18 -->
<g id="edge37" class="edge">
<title>split17&#45;&gt;split18</title>
<path fill="none" stroke="black" d="M873.81,-58C894.59,-58 918.51,-58 942.34,-58"/>
<polygon fill="black" stroke="black" points="942.27,-61.5 952.27,-58 942.27,-54.5 942.27,-61.5"/>
<text text-anchor="middle" x="933.38" y="-60.45" font-family="Times New Roman,serif" font-size="14.00">yes</text>
</g>
<!-- leaf18 -->
<g id="node42" class="node">
<title>leaf18</title>
<ellipse fill="none" stroke="black" cx="1070.88" cy="-18" rx="63.63" ry="18"/>
<text text-anchor="start" x="1032.25" y="-13.95" font-family="Times New Roman,serif" font-size="14.00">leaf 18: </text>
<text text-anchor="start" x="1075.75" y="-13.95" font-family="Times New Roman,serif" font-weight="bold" font-size="14.00">0.911</text>
</g>
<!-- split17&#45;&gt;leaf18 -->
<g id="edge38" class="edge">
<title>split17&#45;&gt;leaf18</title>
<path fill="none" stroke="black" d="M873.81,-48.27C913.19,-42.19 963.82,-34.37 1003.77,-28.2"/>
<polygon fill="black" stroke="black" points="1004.12,-31.54 1013.47,-26.55 1003.05,-24.62 1004.12,-31.54"/>
<text text-anchor="middle" x="933.38" y="-43.45" font-family="Times New Roman,serif" font-size="14.00">no</text>
</g>
<!-- leaf15 -->
<g id="node40" class="node">
<title>leaf15</title>
<ellipse fill="none" stroke="black" cx="1292.38" cy="-68" rx="63.63" ry="18"/>
<text text-anchor="start" x="1253.76" y="-63.95" font-family="Times New Roman,serif" font-size="14.00">leaf 15: </text>
<text text-anchor="start" x="1297.26" y="-63.95" font-family="Times New Roman,serif" font-weight="bold" font-size="14.00">0.945</text>
</g>
<!-- split18&#45;&gt;leaf15 -->
<g id="edge35" class="edge">
<title>split18&#45;&gt;leaf15</title>
<path fill="none" stroke="black" d="M1188.38,-63.31C1198.59,-63.77 1208.73,-64.23 1218.43,-64.68"/>
<polygon fill="black" stroke="black" points="1218.03,-68.21 1228.18,-65.17 1218.35,-61.21 1218.03,-68.21"/>
<text text-anchor="middle" x="1208.38" y="-67.45" font-family="Times New Roman,serif" font-size="14.00">yes</text>
</g>
<!-- leaf19 -->
<g id="node41" class="node">
<title>leaf19</title>
<ellipse fill="none" stroke="black" cx="1292.38" cy="-28" rx="63.63" ry="18"/>
<text text-anchor="start" x="1253.76" y="-23.95" font-family="Times New Roman,serif" font-size="14.00">leaf 19: </text>
<text text-anchor="start" x="1297.26" y="-23.95" font-family="Times New Roman,serif" font-weight="bold" font-size="14.00">1.018</text>
</g>
<!-- split18&#45;&gt;leaf19 -->
<g id="edge36" class="edge">
<title>split18&#45;&gt;leaf19</title>
<path fill="none" stroke="black" d="M1188.38,-42.08C1200.51,-40.42 1212.53,-38.78 1223.84,-37.23"/>
<polygon fill="black" stroke="black" points="1224.02,-40.6 1233.46,-35.78 1223.07,-33.67 1224.02,-40.6"/>
<text text-anchor="middle" x="1208.38" y="-43.45" font-family="Times New Roman,serif" font-size="14.00">no</text>
</g>
</g>
</svg>
